%TF.GenerationSoftware,KiCad,Pcbnew,10.0.6*%
%TF.CreationDate,2026-09-14T14:08:33-04:00*%
%TF.ProjectId,rainpoint_carrier,7261696e-706f-4696-9e74-5f6361727269,B*%
%TF.SameCoordinates,Original*%
%TF.FileFunction,Copper,L2,Bot*%
%TF.FilePolarity,Positive*%
%FSLAX46Y46*%
G04 Gerber Fmt 4.6, Leading zero omitted, Abs format (unit mm)*
G04 Created by KiCad (PCBNEW 10.0.6) date 2026-09-14 14:08:33*
%MOMM*%
%LPD*%
G01*
G04 APERTURE LIST*
G04 Aperture macros list*
%AMRoundRect*
0 Rectangle with rounded corners*
0 $1 Rounding radius*
0 $2 $3 $4 $5 $6 $7 $8 $9 X,Y pos of 4 corners*
0 Add a 4 corners polygon primitive as box body*
4,1,4,$2,$3,$4,$5,$6,$7,$8,$9,$2,$3,0*
0 Add four circle primitives for the rounded corners*
1,1,$1+$1,$2,$3*
1,1,$1+$1,$4,$5*
1,1,$1+$1,$6,$7*
1,1,$1+$1,$8,$9*
0 Add four rect primitives between the rounded corners*
20,1,$1+$1,$2,$3,$4,$5,0*
20,1,$1+$1,$4,$5,$6,$7,0*
20,1,$1+$1,$6,$7,$8,$9,0*
20,1,$1+$1,$8,$9,$2,$3,0*%
G04 Aperture macros list end*
%TA.AperFunction,ComponentPad*%
%ADD10R,2.000000X2.000000*%
%TD*%
%TA.AperFunction,ComponentPad*%
%ADD11C,2.000000*%
%TD*%
%TA.AperFunction,SMDPad,CuDef*%
%ADD12RoundRect,0.240000X-0.360000X-0.460000X0.360000X-0.460000X0.360000X0.460000X-0.360000X0.460000X0*%
%TD*%
%TA.AperFunction,ViaPad*%
%ADD13C,0.700000*%
%TD*%
%TA.AperFunction,Conductor*%
%ADD14C,0.500000*%
%TD*%
%TA.AperFunction,Conductor*%
%ADD15C,0.300000*%
%TD*%
G04 APERTURE END LIST*
D10*
%TO.P,J2,1*%
%TO.N,/3V3*%
X135079999Y-105990000D03*
D11*
%TO.P,J2,2*%
%TO.N,unconnected-(J2-GND-Pad2)*%
X135079999Y-103450000D03*
%TO.P,J2,3*%
%TO.N,unconnected-(J2-GPIO15-Pad3)*%
X135079999Y-100910000D03*
%TO.P,J2,4*%
%TO.N,unconnected-(J2-GPIO2-Pad4)*%
X135079999Y-98370000D03*
%TO.P,J2,5*%
%TO.N,unconnected-(J2-GPIO4-Pad5)*%
X135079999Y-95830000D03*
%TO.P,J2,6*%
%TO.N,unconnected-(J2-RX2-Pad6)*%
X135079999Y-93290000D03*
%TO.P,J2,7*%
%TO.N,unconnected-(J2-TX2-Pad7)*%
X135079999Y-90750000D03*
%TO.P,J2,8*%
%TO.N,unconnected-(J2-GPIO5-Pad8)*%
X135079999Y-88210000D03*
%TO.P,J2,9*%
%TO.N,/RADIO_SCK*%
X135079999Y-85670000D03*
%TO.P,J2,10*%
%TO.N,/RADIO_MISO*%
X135079999Y-83130000D03*
%TO.P,J2,11*%
%TO.N,unconnected-(J2-GPIO21-Pad11)*%
X135079999Y-80590000D03*
%TO.P,J2,12*%
%TO.N,unconnected-(J2-RX0-Pad12)*%
X135079999Y-78050000D03*
%TO.P,J2,13*%
%TO.N,unconnected-(J2-TX0-Pad13)*%
X135079999Y-75510000D03*
%TO.P,J2,14*%
%TO.N,unconnected-(J2-GPIO22-Pad14)*%
X135079999Y-72970000D03*
%TO.P,J2,15*%
%TO.N,/RADIO_MOSI*%
X135079999Y-70430000D03*
%TD*%
D10*
%TO.P,J1,1*%
%TO.N,unconnected-(J1-VIN-Pad1)*%
X109680000Y-105990000D03*
D11*
%TO.P,J1,2*%
%TO.N,/GND*%
X109680000Y-103450000D03*
%TO.P,J1,3*%
%TO.N,unconnected-(J1-GPIO13-Pad3)*%
X109680000Y-100910000D03*
%TO.P,J1,4*%
%TO.N,unconnected-(J1-GPIO12-Pad4)*%
X109680000Y-98370000D03*
%TO.P,J1,5*%
%TO.N,unconnected-(J1-GPIO14-Pad5)*%
X109680000Y-95830000D03*
%TO.P,J1,6*%
%TO.N,/RADIO_CSN*%
X109680000Y-93290000D03*
%TO.P,J1,7*%
%TO.N,/RADIO_GDO0*%
X109680000Y-90750000D03*
%TO.P,J1,8*%
%TO.N,/RADIO_GDO2*%
X109680000Y-88210000D03*
%TO.P,J1,9*%
%TO.N,unconnected-(J1-GPIO33-Pad9)*%
X109680000Y-85670000D03*
%TO.P,J1,10*%
%TO.N,unconnected-(J1-GPIO32-Pad10)*%
X109680000Y-83130000D03*
%TO.P,J1,11*%
%TO.N,unconnected-(J1-GPIO35-Pad11)*%
X109680000Y-80590000D03*
%TO.P,J1,12*%
%TO.N,unconnected-(J1-GPIO34-Pad12)*%
X109680000Y-78050000D03*
%TO.P,J1,13*%
%TO.N,unconnected-(J1-VN-Pad13)*%
X109680000Y-75510000D03*
%TO.P,J1,14*%
%TO.N,unconnected-(J1-VP-Pad14)*%
X109680000Y-72970000D03*
%TO.P,J1,15*%
%TO.N,unconnected-(J1-EN-Pad15)*%
X109680000Y-70430000D03*
%TD*%
D10*
%TO.P,J3,1*%
%TO.N,/GND*%
X141000000Y-79190000D03*
D11*
%TO.P,J3,2*%
%TO.N,/3V3*%
X143540000Y-79190000D03*
%TO.P,J3,3*%
%TO.N,/RADIO_GDO0*%
X141000000Y-81730000D03*
%TO.P,J3,4*%
%TO.N,/RADIO_CSN*%
X143540000Y-81730000D03*
%TO.P,J3,5*%
%TO.N,/RADIO_SCK*%
X141000000Y-84270000D03*
%TO.P,J3,6*%
%TO.N,/RADIO_MOSI*%
X143540000Y-84270000D03*
%TO.P,J3,7*%
%TO.N,/RADIO_MISO*%
X141000000Y-86810000D03*
%TO.P,J3,8*%
%TO.N,/RADIO_GDO2*%
X143540000Y-86810000D03*
%TD*%
D12*
%TO.P,C1,1*%
%TO.N,/3V3*%
X145500000Y-77000000D03*
%TO.P,C1,2*%
%TO.N,/GND*%
X147500000Y-77000000D03*
%TD*%
%TO.P,C2,1*%
%TO.N,/3V3*%
X145500000Y-74000000D03*
%TO.P,C2,2*%
%TO.N,/GND*%
X147500000Y-74000000D03*
%TD*%
D13*
%TO.N,/3V3*%
X150500000Y-71000000D03*
%TO.N,/RADIO_GDO0*%
X138500000Y-95000000D03*
%TO.N,/RADIO_CSN*%
X107000000Y-93290000D03*
%TO.N,/RADIO_SCK*%
X139200000Y-85670000D03*
X137700000Y-85670000D03*
%TO.N,/RADIO_GDO2*%
X154000000Y-86810000D03*
%TD*%
%TO.N,/3V3*%
D14*
X145500000Y-77000000D02*
X145500000Y-74000000D01*
X144500000Y-71000000D02*
X144500000Y-77000000D01*
X150500000Y-71000000D02*
X144500000Y-71000000D01*
X143540000Y-79190000D02*
X145500000Y-77000000D01*
X144500000Y-77000000D02*
X143540000Y-79190000D01*
%TO.N,/RADIO_GDO0*%
D15*
X109680000Y-90750000D02*
X108000000Y-90750000D01*
X108000000Y-112500000D02*
X138500000Y-112500000D01*
X138500000Y-112500000D02*
X138500000Y-95000000D01*
X108000000Y-90750000D02*
X108000000Y-112500000D01*
%TO.N,/RADIO_CSN*%
X107000000Y-113500000D02*
X152000000Y-113500000D01*
X107000000Y-93290000D02*
X107000000Y-113500000D01*
X152000000Y-113500000D02*
X152000000Y-81730000D01*
X152000000Y-81730000D02*
X143540000Y-81730000D01*
%TO.N,/RADIO_SCK*%
X137700000Y-85670000D02*
X139200000Y-85670000D01*
%TO.N,/RADIO_MISO*%
X141000000Y-88300000D02*
X141000000Y-86810000D01*
X135080000Y-83130000D02*
X136800000Y-83130000D01*
X136800000Y-83130000D02*
X136800000Y-88300000D01*
X136800000Y-88300000D02*
X141000000Y-88300000D01*
%TO.N,/RADIO_GDO2*%
X106000000Y-88210000D02*
X106000000Y-114500000D01*
X109680000Y-88210000D02*
X106000000Y-88210000D01*
X155000000Y-114500000D02*
X155000000Y-86810000D01*
X106000000Y-114500000D02*
X155000000Y-114500000D01*
X155000000Y-86810000D02*
X154000000Y-86810000D01*
%TD*%
%TA.AperFunction,Conductor*%
%TO.N,/GND*%
G36*
X106943039Y-50520185D02*
G01*
X106988794Y-50572989D01*
X107000000Y-50624500D01*
X107000000Y-68500000D01*
X138000000Y-68500000D01*
X138000000Y-53378711D01*
X162649500Y-53378711D01*
X162649500Y-53621288D01*
X162681161Y-53861785D01*
X162743947Y-54096104D01*
X162836773Y-54320205D01*
X162836776Y-54320212D01*
X162958064Y-54530289D01*
X162958066Y-54530292D01*
X162958067Y-54530293D01*
X163105733Y-54722736D01*
X163105739Y-54722743D01*
X163277256Y-54894260D01*
X163277262Y-54894265D01*
X163469711Y-55041936D01*
X163679788Y-55163224D01*
X163903900Y-55256054D01*
X164138211Y-55318838D01*
X164318586Y-55342584D01*
X164378711Y-55350500D01*
X164378712Y-55350500D01*
X164621289Y-55350500D01*
X164669388Y-55344167D01*
X164861789Y-55318838D01*
X165096100Y-55256054D01*
X165320212Y-55163224D01*
X165530289Y-55041936D01*
X165722738Y-54894265D01*
X165894265Y-54722738D01*
X166041936Y-54530289D01*
X166163224Y-54320212D01*
X166256054Y-54096100D01*
X166318838Y-53861789D01*
X166350500Y-53621288D01*
X166350500Y-53378712D01*
X166318838Y-53138211D01*
X166256054Y-52903900D01*
X166163224Y-52679788D01*
X166041936Y-52469711D01*
X165894265Y-52277262D01*
X165894260Y-52277256D01*
X165722743Y-52105739D01*
X165722736Y-52105733D01*
X165530293Y-51958067D01*
X165530292Y-51958066D01*
X165530289Y-51958064D01*
X165320212Y-51836776D01*
X165320205Y-51836773D01*
X165096104Y-51743947D01*
X164861785Y-51681161D01*
X164621289Y-51649500D01*
X164621288Y-51649500D01*
X164378712Y-51649500D01*
X164378711Y-51649500D01*
X164138214Y-51681161D01*
X163903895Y-51743947D01*
X163679794Y-51836773D01*
X163679785Y-51836777D01*
X163469706Y-51958067D01*
X163277263Y-52105733D01*
X163277256Y-52105739D01*
X163105739Y-52277256D01*
X163105733Y-52277263D01*
X162958067Y-52469706D01*
X162836777Y-52679785D01*
X162836773Y-52679794D01*
X162743947Y-52903895D01*
X162681161Y-53138214D01*
X162649500Y-53378711D01*
X138000000Y-53378711D01*
X138000000Y-50624500D01*
X138019685Y-50557461D01*
X138072489Y-50511706D01*
X138124000Y-50500500D01*
X167134107Y-50500500D01*
X167190242Y-50500500D01*
X167209639Y-50502026D01*
X167273151Y-50512086D01*
X167310045Y-50524073D01*
X167358544Y-50548784D01*
X167389929Y-50571588D01*
X167428411Y-50610070D01*
X167451215Y-50641456D01*
X167475925Y-50689952D01*
X167487913Y-50726847D01*
X167497973Y-50790357D01*
X167499500Y-50809757D01*
X167499500Y-115190241D01*
X167497973Y-115209640D01*
X167487913Y-115273151D01*
X167475925Y-115310047D01*
X167451215Y-115358543D01*
X167428411Y-115389929D01*
X167389929Y-115428411D01*
X167358543Y-115451215D01*
X167310047Y-115475925D01*
X167273152Y-115487913D01*
X167238106Y-115493464D01*
X167209637Y-115497973D01*
X167190242Y-115499500D01*
X100809758Y-115499500D01*
X100790361Y-115497973D01*
X100771182Y-115494935D01*
X100726848Y-115487913D01*
X100689952Y-115475925D01*
X100641456Y-115451215D01*
X100610070Y-115428411D01*
X100571588Y-115389929D01*
X100548784Y-115358543D01*
X100524074Y-115310047D01*
X100512086Y-115273150D01*
X100510936Y-115265892D01*
X100502027Y-115209639D01*
X100500500Y-115190241D01*
X100500500Y-112378711D01*
X101649500Y-112378711D01*
X101649500Y-112621288D01*
X101681161Y-112861785D01*
X101743947Y-113096104D01*
X101836773Y-113320205D01*
X101836776Y-113320212D01*
X101958064Y-113530289D01*
X101958066Y-113530292D01*
X101958067Y-113530293D01*
X102105733Y-113722736D01*
X102105739Y-113722743D01*
X102277256Y-113894260D01*
X102277263Y-113894266D01*
X102317968Y-113925500D01*
X102469711Y-114041936D01*
X102679788Y-114163224D01*
X102903900Y-114256054D01*
X103138211Y-114318838D01*
X103318586Y-114342584D01*
X103378711Y-114350500D01*
X103378712Y-114350500D01*
X103621289Y-114350500D01*
X103669388Y-114344167D01*
X103861789Y-114318838D01*
X104096100Y-114256054D01*
X104320212Y-114163224D01*
X104530289Y-114041936D01*
X104722738Y-113894265D01*
X104894265Y-113722738D01*
X105041936Y-113530289D01*
X105163224Y-113320212D01*
X105256054Y-113096100D01*
X105305726Y-112910721D01*
X105342090Y-112851064D01*
X105404937Y-112820535D01*
X105474313Y-112828830D01*
X105528191Y-112873315D01*
X105549465Y-112939867D01*
X105549500Y-112942818D01*
X105549500Y-114559309D01*
X105580201Y-114673886D01*
X105639511Y-114776613D01*
X105723387Y-114860489D01*
X105826114Y-114919799D01*
X105940691Y-114950500D01*
X105940694Y-114950500D01*
X155059306Y-114950500D01*
X155059309Y-114950500D01*
X155173886Y-114919799D01*
X155276613Y-114860489D01*
X155360489Y-114776613D01*
X155419799Y-114673886D01*
X155450500Y-114559309D01*
X155450500Y-112378711D01*
X162649500Y-112378711D01*
X162649500Y-112621288D01*
X162681161Y-112861785D01*
X162743947Y-113096104D01*
X162836773Y-113320205D01*
X162836776Y-113320212D01*
X162958064Y-113530289D01*
X162958066Y-113530292D01*
X162958067Y-113530293D01*
X163105733Y-113722736D01*
X163105739Y-113722743D01*
X163277256Y-113894260D01*
X163277263Y-113894266D01*
X163317968Y-113925500D01*
X163469711Y-114041936D01*
X163679788Y-114163224D01*
X163903900Y-114256054D01*
X164138211Y-114318838D01*
X164318586Y-114342584D01*
X164378711Y-114350500D01*
X164378712Y-114350500D01*
X164621289Y-114350500D01*
X164669388Y-114344167D01*
X164861789Y-114318838D01*
X165096100Y-114256054D01*
X165320212Y-114163224D01*
X165530289Y-114041936D01*
X165722738Y-113894265D01*
X165894265Y-113722738D01*
X166041936Y-113530289D01*
X166163224Y-113320212D01*
X166256054Y-113096100D01*
X166318838Y-112861789D01*
X166350500Y-112621288D01*
X166350500Y-112378712D01*
X166318838Y-112138211D01*
X166256054Y-111903900D01*
X166163224Y-111679788D01*
X166041936Y-111469711D01*
X165894265Y-111277262D01*
X165894260Y-111277256D01*
X165722743Y-111105739D01*
X165722736Y-111105733D01*
X165530293Y-110958067D01*
X165530292Y-110958066D01*
X165530289Y-110958064D01*
X165320212Y-110836776D01*
X165320205Y-110836773D01*
X165096104Y-110743947D01*
X164861785Y-110681161D01*
X164621289Y-110649500D01*
X164621288Y-110649500D01*
X164378712Y-110649500D01*
X164378711Y-110649500D01*
X164138214Y-110681161D01*
X163903895Y-110743947D01*
X163679794Y-110836773D01*
X163679785Y-110836777D01*
X163469706Y-110958067D01*
X163277263Y-111105733D01*
X163277256Y-111105739D01*
X163105739Y-111277256D01*
X163105733Y-111277263D01*
X162958067Y-111469706D01*
X162836777Y-111679785D01*
X162836773Y-111679794D01*
X162743947Y-111903895D01*
X162681161Y-112138214D01*
X162649500Y-112378711D01*
X155450500Y-112378711D01*
X155450500Y-86750691D01*
X155419799Y-86636114D01*
X155360489Y-86533387D01*
X155276613Y-86449511D01*
X155173886Y-86390201D01*
X155059309Y-86359500D01*
X155059306Y-86359500D01*
X154520808Y-86359500D01*
X154453769Y-86339815D01*
X154433127Y-86323181D01*
X154414672Y-86304726D01*
X154414668Y-86304723D01*
X154308133Y-86233538D01*
X154308124Y-86233533D01*
X154189744Y-86184499D01*
X154189738Y-86184497D01*
X154064071Y-86159500D01*
X154064069Y-86159500D01*
X153935931Y-86159500D01*
X153935929Y-86159500D01*
X153810261Y-86184497D01*
X153810255Y-86184499D01*
X153691875Y-86233533D01*
X153691866Y-86233538D01*
X153585331Y-86304723D01*
X153585327Y-86304726D01*
X153494726Y-86395327D01*
X153494723Y-86395331D01*
X153423538Y-86501866D01*
X153423533Y-86501875D01*
X153374499Y-86620255D01*
X153374497Y-86620261D01*
X153349500Y-86745928D01*
X153349500Y-86745931D01*
X153349500Y-86874069D01*
X153349500Y-86874071D01*
X153349499Y-86874071D01*
X153374497Y-86999738D01*
X153374499Y-86999744D01*
X153423533Y-87118124D01*
X153423538Y-87118133D01*
X153494723Y-87224668D01*
X153494726Y-87224672D01*
X153585327Y-87315273D01*
X153585331Y-87315276D01*
X153691866Y-87386461D01*
X153691872Y-87386464D01*
X153691873Y-87386465D01*
X153810256Y-87435501D01*
X153810260Y-87435501D01*
X153810261Y-87435502D01*
X153935928Y-87460500D01*
X153935931Y-87460500D01*
X154064071Y-87460500D01*
X154148615Y-87443682D01*
X154189744Y-87435501D01*
X154308127Y-87386465D01*
X154308132Y-87386461D01*
X154308135Y-87386460D01*
X154356608Y-87354071D01*
X154423285Y-87333192D01*
X154490665Y-87351676D01*
X154537356Y-87403654D01*
X154549500Y-87457172D01*
X154549500Y-113925500D01*
X154529815Y-113992539D01*
X154477011Y-114038294D01*
X154425500Y-114049500D01*
X152386964Y-114049500D01*
X152319925Y-114029815D01*
X152274170Y-113977011D01*
X152264226Y-113907853D01*
X152293251Y-113844297D01*
X152299283Y-113837819D01*
X152360489Y-113776613D01*
X152419799Y-113673886D01*
X152450500Y-113559309D01*
X152450500Y-81670691D01*
X152419799Y-81556114D01*
X152360489Y-81453387D01*
X152276613Y-81369511D01*
X152173886Y-81310201D01*
X152059309Y-81279500D01*
X152059306Y-81279500D01*
X144846031Y-81279500D01*
X144778992Y-81259815D01*
X144735546Y-81211795D01*
X144652284Y-81048385D01*
X144531971Y-80882786D01*
X144387213Y-80738028D01*
X144221614Y-80617715D01*
X144215006Y-80614348D01*
X144128917Y-80570483D01*
X144078123Y-80522511D01*
X144061328Y-80454690D01*
X144083865Y-80388555D01*
X144128917Y-80349516D01*
X144221610Y-80302287D01*
X144244764Y-80285465D01*
X144387213Y-80181971D01*
X144387215Y-80181968D01*
X144387219Y-80181966D01*
X144531966Y-80037219D01*
X144531968Y-80037215D01*
X144531971Y-80037213D01*
X144584732Y-79964590D01*
X144652287Y-79871610D01*
X144745220Y-79689219D01*
X144808477Y-79494534D01*
X144840500Y-79292352D01*
X144840500Y-79087648D01*
X144808477Y-78885466D01*
X144762029Y-78742516D01*
X144760035Y-78672679D01*
X144787559Y-78621509D01*
X145306383Y-78041805D01*
X145365760Y-78004978D01*
X145398782Y-78000500D01*
X145902314Y-78000500D01*
X145902320Y-78000500D01*
X145989174Y-77990070D01*
X146127395Y-77935562D01*
X146245785Y-77845785D01*
X146335562Y-77727395D01*
X146390070Y-77589174D01*
X146400500Y-77502320D01*
X146400500Y-76497680D01*
X146390070Y-76410826D01*
X146335562Y-76272605D01*
X146245785Y-76154215D01*
X146127395Y-76064438D01*
X146127394Y-76064437D01*
X146120001Y-76060280D01*
X146120867Y-76058739D01*
X146073865Y-76022168D01*
X146050673Y-75956260D01*
X146050500Y-75949720D01*
X146050500Y-75050279D01*
X146070185Y-74983240D01*
X146120134Y-74939958D01*
X146120000Y-74939720D01*
X146121166Y-74939063D01*
X146122989Y-74937485D01*
X146127032Y-74935765D01*
X146127388Y-74935564D01*
X146127395Y-74935562D01*
X146245785Y-74845785D01*
X146335562Y-74727395D01*
X146390070Y-74589174D01*
X146400500Y-74502320D01*
X146400500Y-73497680D01*
X146390070Y-73410826D01*
X146335562Y-73272605D01*
X146245785Y-73154215D01*
X146127395Y-73064438D01*
X146127394Y-73064437D01*
X146127392Y-73064436D01*
X145989175Y-73009930D01*
X145976766Y-73008440D01*
X145902320Y-72999500D01*
X145174500Y-72999500D01*
X145107461Y-72979815D01*
X145061706Y-72927011D01*
X145050500Y-72875500D01*
X145050500Y-71674500D01*
X145070185Y-71607461D01*
X145122989Y-71561706D01*
X145174500Y-71550500D01*
X150115399Y-71550500D01*
X150182438Y-71570185D01*
X150184252Y-71571373D01*
X150191873Y-71576465D01*
X150310256Y-71625501D01*
X150310260Y-71625501D01*
X150310261Y-71625502D01*
X150435928Y-71650500D01*
X150435931Y-71650500D01*
X150564071Y-71650500D01*
X150648615Y-71633682D01*
X150689744Y-71625501D01*
X150808127Y-71576465D01*
X150914669Y-71505276D01*
X151005276Y-71414669D01*
X151076465Y-71308127D01*
X151125501Y-71189744D01*
X151150500Y-71064069D01*
X151150500Y-70935931D01*
X151150500Y-70935928D01*
X151125502Y-70810261D01*
X151125501Y-70810260D01*
X151125501Y-70810256D01*
X151076465Y-70691873D01*
X151076464Y-70691872D01*
X151076461Y-70691866D01*
X151005276Y-70585331D01*
X151005273Y-70585327D01*
X150914672Y-70494726D01*
X150914668Y-70494723D01*
X150808133Y-70423538D01*
X150808124Y-70423533D01*
X150689744Y-70374499D01*
X150689738Y-70374497D01*
X150564071Y-70349500D01*
X150564069Y-70349500D01*
X150435931Y-70349500D01*
X150435929Y-70349500D01*
X150310261Y-70374497D01*
X150310255Y-70374499D01*
X150191876Y-70423533D01*
X150191873Y-70423534D01*
X150191873Y-70423535D01*
X150184287Y-70428603D01*
X150117611Y-70449480D01*
X150115399Y-70449500D01*
X144572475Y-70449500D01*
X144427525Y-70449500D01*
X144298993Y-70483940D01*
X144287511Y-70487017D01*
X144161988Y-70559488D01*
X144161982Y-70559493D01*
X144059493Y-70661982D01*
X144059488Y-70661988D01*
X143987017Y-70787511D01*
X143987016Y-70787515D01*
X143949500Y-70927525D01*
X143949500Y-70927527D01*
X143949500Y-76858656D01*
X143939068Y-76908439D01*
X143541375Y-77815674D01*
X143496431Y-77869171D01*
X143442320Y-77887860D01*
X143442460Y-77888738D01*
X143437649Y-77889500D01*
X143437648Y-77889500D01*
X143417582Y-77892678D01*
X143235465Y-77921522D01*
X143040776Y-77984781D01*
X142858386Y-78077715D01*
X142692786Y-78198028D01*
X142548028Y-78342786D01*
X142427715Y-78508386D01*
X142334781Y-78690776D01*
X142271522Y-78885465D01*
X142239500Y-79087648D01*
X142239500Y-79292351D01*
X142271522Y-79494534D01*
X142334781Y-79689223D01*
X142427715Y-79871613D01*
X142548028Y-80037213D01*
X142692786Y-80181971D01*
X142835236Y-80285465D01*
X142858390Y-80302287D01*
X142949840Y-80348883D01*
X142951080Y-80349515D01*
X143001876Y-80397490D01*
X143018671Y-80465311D01*
X142996134Y-80531446D01*
X142951080Y-80570485D01*
X142858386Y-80617715D01*
X142692786Y-80738028D01*
X142548028Y-80882786D01*
X142427715Y-81048386D01*
X142380485Y-81141080D01*
X142332510Y-81191876D01*
X142264689Y-81208671D01*
X142198554Y-81186134D01*
X142159515Y-81141080D01*
X142133090Y-81089219D01*
X142112287Y-81048390D01*
X142104556Y-81037749D01*
X141991971Y-80882786D01*
X141847213Y-80738028D01*
X141681613Y-80617715D01*
X141681612Y-80617714D01*
X141681610Y-80617713D01*
X141624653Y-80588691D01*
X141499223Y-80524781D01*
X141304534Y-80461522D01*
X141129995Y-80433878D01*
X141102352Y-80429500D01*
X140897648Y-80429500D01*
X140873329Y-80433351D01*
X140695465Y-80461522D01*
X140500776Y-80524781D01*
X140318386Y-80617715D01*
X140152786Y-80738028D01*
X140008028Y-80882786D01*
X139887715Y-81048386D01*
X139794781Y-81230776D01*
X139731522Y-81425465D01*
X139699500Y-81627648D01*
X139699500Y-81832351D01*
X139731522Y-82034534D01*
X139794781Y-82229223D01*
X139887715Y-82411613D01*
X140008028Y-82577213D01*
X140152786Y-82721971D01*
X140295236Y-82825465D01*
X140318390Y-82842287D01*
X140409840Y-82888883D01*
X140411080Y-82889515D01*
X140461876Y-82937490D01*
X140478671Y-83005311D01*
X140456134Y-83071446D01*
X140411080Y-83110485D01*
X140318386Y-83157715D01*
X140152786Y-83278028D01*
X140008028Y-83422786D01*
X139887715Y-83588386D01*
X139794781Y-83770776D01*
X139731522Y-83965465D01*
X139699500Y-84167648D01*
X139699500Y-84372351D01*
X139731522Y-84574534D01*
X139794781Y-84769223D01*
X139856413Y-84890181D01*
X139884793Y-84945880D01*
X139887715Y-84951613D01*
X140008028Y-85117213D01*
X140152786Y-85261971D01*
X140290292Y-85361873D01*
X140318390Y-85382287D01*
X140409840Y-85428883D01*
X140411080Y-85429515D01*
X140461876Y-85477490D01*
X140478671Y-85545311D01*
X140456134Y-85611446D01*
X140411080Y-85650485D01*
X140318386Y-85697715D01*
X140152788Y-85818027D01*
X140043639Y-85927176D01*
X139982316Y-85960660D01*
X139912624Y-85955676D01*
X139856691Y-85913804D01*
X139832274Y-85848340D01*
X139834340Y-85815304D01*
X139850500Y-85734069D01*
X139850500Y-85605931D01*
X139850500Y-85605928D01*
X139825502Y-85480261D01*
X139825501Y-85480260D01*
X139825501Y-85480256D01*
X139776465Y-85361873D01*
X139776464Y-85361872D01*
X139776461Y-85361866D01*
X139705276Y-85255331D01*
X139705273Y-85255327D01*
X139614672Y-85164726D01*
X139614668Y-85164723D01*
X139508133Y-85093538D01*
X139508124Y-85093533D01*
X139389744Y-85044499D01*
X139389738Y-85044497D01*
X139264071Y-85019500D01*
X139264069Y-85019500D01*
X139135931Y-85019500D01*
X139135929Y-85019500D01*
X139010261Y-85044497D01*
X139010255Y-85044499D01*
X138891875Y-85093533D01*
X138891866Y-85093538D01*
X138785331Y-85164723D01*
X138785327Y-85164726D01*
X138766873Y-85183181D01*
X138705550Y-85216666D01*
X138679192Y-85219500D01*
X138220808Y-85219500D01*
X138153769Y-85199815D01*
X138133127Y-85183181D01*
X138114672Y-85164726D01*
X138114668Y-85164723D01*
X138008133Y-85093538D01*
X138008124Y-85093533D01*
X137889744Y-85044499D01*
X137889738Y-85044497D01*
X137764071Y-85019500D01*
X137764069Y-85019500D01*
X137635931Y-85019500D01*
X137635929Y-85019500D01*
X137510261Y-85044497D01*
X137510251Y-85044500D01*
X137421952Y-85081075D01*
X137352483Y-85088544D01*
X137290004Y-85057269D01*
X137254352Y-84997179D01*
X137250500Y-84966514D01*
X137250500Y-83070693D01*
X137250500Y-83070691D01*
X137219799Y-82956114D01*
X137160489Y-82853387D01*
X137076613Y-82769511D01*
X136973886Y-82710201D01*
X136859309Y-82679500D01*
X136859306Y-82679500D01*
X136386030Y-82679500D01*
X136318991Y-82659815D01*
X136275545Y-82611795D01*
X136257928Y-82577219D01*
X136192286Y-82448390D01*
X136192284Y-82448387D01*
X136192283Y-82448385D01*
X136071970Y-82282786D01*
X135927212Y-82138028D01*
X135761613Y-82017715D01*
X135755005Y-82014348D01*
X135668916Y-81970483D01*
X135618122Y-81922511D01*
X135601327Y-81854690D01*
X135623864Y-81788555D01*
X135668916Y-81749516D01*
X135761609Y-81702287D01*
X135864342Y-81627648D01*
X135927212Y-81581971D01*
X135927214Y-81581968D01*
X135927218Y-81581966D01*
X136071965Y-81437219D01*
X136071967Y-81437215D01*
X136071970Y-81437213D01*
X136164248Y-81310201D01*
X136192286Y-81271610D01*
X136285219Y-81089219D01*
X136348476Y-80894534D01*
X136380499Y-80692352D01*
X136380499Y-80487648D01*
X136348476Y-80285466D01*
X136285219Y-80090781D01*
X136285217Y-80090778D01*
X136285217Y-80090776D01*
X136251502Y-80024607D01*
X136192286Y-79908390D01*
X136165564Y-79871610D01*
X136071970Y-79742786D01*
X135927212Y-79598028D01*
X135761613Y-79477715D01*
X135755005Y-79474348D01*
X135668916Y-79430483D01*
X135618122Y-79382511D01*
X135601327Y-79314690D01*
X135623864Y-79248555D01*
X135668916Y-79209516D01*
X135761609Y-79162287D01*
X135864342Y-79087648D01*
X135927212Y-79041971D01*
X135927214Y-79041968D01*
X135927218Y-79041966D01*
X136071965Y-78897219D01*
X136071967Y-78897215D01*
X136071970Y-78897213D01*
X136184359Y-78742520D01*
X136192286Y-78731610D01*
X136285219Y-78549219D01*
X136348476Y-78354534D01*
X136380499Y-78152352D01*
X136380499Y-77947648D01*
X136348476Y-77745466D01*
X136342604Y-77727395D01*
X136297694Y-77589175D01*
X136285219Y-77550781D01*
X136285217Y-77550778D01*
X136285217Y-77550776D01*
X136251502Y-77484607D01*
X136192286Y-77368390D01*
X136184555Y-77357749D01*
X136071970Y-77202786D01*
X135927212Y-77058028D01*
X135761613Y-76937715D01*
X135755005Y-76934348D01*
X135668916Y-76890483D01*
X135618122Y-76842511D01*
X135601327Y-76774690D01*
X135623864Y-76708555D01*
X135668916Y-76669516D01*
X135761609Y-76622287D01*
X135782769Y-76606913D01*
X135927212Y-76501971D01*
X135927214Y-76501968D01*
X135927218Y-76501966D01*
X136071965Y-76357219D01*
X136071967Y-76357215D01*
X136071970Y-76357213D01*
X136133440Y-76272605D01*
X136192286Y-76191610D01*
X136285219Y-76009219D01*
X136348476Y-75814534D01*
X136380499Y-75612352D01*
X136380499Y-75407648D01*
X136348476Y-75205466D01*
X136285219Y-75010781D01*
X136285217Y-75010778D01*
X136285217Y-75010776D01*
X136246893Y-74935562D01*
X136192286Y-74828390D01*
X136184555Y-74817749D01*
X136071970Y-74662786D01*
X135927212Y-74518028D01*
X135761613Y-74397715D01*
X135755005Y-74394348D01*
X135668916Y-74350483D01*
X135618122Y-74302511D01*
X135601327Y-74234690D01*
X135623864Y-74168555D01*
X135668916Y-74129516D01*
X135761609Y-74082287D01*
X135782769Y-74066913D01*
X135927212Y-73961971D01*
X135927214Y-73961968D01*
X135927218Y-73961966D01*
X136071965Y-73817219D01*
X136071967Y-73817215D01*
X136071970Y-73817213D01*
X136124731Y-73744590D01*
X136192286Y-73651610D01*
X136285219Y-73469219D01*
X136348476Y-73274534D01*
X136380499Y-73072352D01*
X136380499Y-72867648D01*
X136348476Y-72665466D01*
X136285219Y-72470781D01*
X136285217Y-72470778D01*
X136285217Y-72470776D01*
X136251502Y-72404607D01*
X136192286Y-72288390D01*
X136184555Y-72277749D01*
X136071970Y-72122786D01*
X135927212Y-71978028D01*
X135761613Y-71857715D01*
X135755005Y-71854348D01*
X135668916Y-71810483D01*
X135618122Y-71762511D01*
X135601327Y-71694690D01*
X135623864Y-71628555D01*
X135668916Y-71589516D01*
X135761609Y-71542287D01*
X135812555Y-71505273D01*
X135927212Y-71421971D01*
X135927214Y-71421968D01*
X135927218Y-71421966D01*
X136071965Y-71277219D01*
X136071967Y-71277215D01*
X136071970Y-71277213D01*
X136135523Y-71189738D01*
X136192286Y-71111610D01*
X136285219Y-70929219D01*
X136348476Y-70734534D01*
X136380499Y-70532352D01*
X136380499Y-70327648D01*
X136348476Y-70125466D01*
X136285219Y-69930781D01*
X136285217Y-69930778D01*
X136285217Y-69930776D01*
X136251502Y-69864607D01*
X136192286Y-69748390D01*
X136184555Y-69737749D01*
X136071970Y-69582786D01*
X135927212Y-69438028D01*
X135761612Y-69317715D01*
X135761611Y-69317714D01*
X135761609Y-69317713D01*
X135704652Y-69288691D01*
X135579222Y-69224781D01*
X135384533Y-69161522D01*
X135209994Y-69133878D01*
X135182351Y-69129500D01*
X134977647Y-69129500D01*
X134953328Y-69133351D01*
X134775464Y-69161522D01*
X134580775Y-69224781D01*
X134398385Y-69317715D01*
X134232785Y-69438028D01*
X134088027Y-69582786D01*
X133967714Y-69748386D01*
X133874780Y-69930776D01*
X133811521Y-70125465D01*
X133779499Y-70327648D01*
X133779499Y-70532351D01*
X133811521Y-70734534D01*
X133874780Y-70929223D01*
X133967714Y-71111613D01*
X134088027Y-71277213D01*
X134232785Y-71421971D01*
X134347443Y-71505273D01*
X134398389Y-71542287D01*
X134465469Y-71576466D01*
X134491079Y-71589515D01*
X134541875Y-71637490D01*
X134558670Y-71705311D01*
X134536133Y-71771446D01*
X134491079Y-71810485D01*
X134398385Y-71857715D01*
X134232785Y-71978028D01*
X134088027Y-72122786D01*
X133967714Y-72288386D01*
X133874780Y-72470776D01*
X133811521Y-72665465D01*
X133779499Y-72867648D01*
X133779499Y-73072351D01*
X133811521Y-73274534D01*
X133874780Y-73469223D01*
X133967714Y-73651613D01*
X134088027Y-73817213D01*
X134232785Y-73961971D01*
X134387748Y-74074556D01*
X134398389Y-74082287D01*
X134489839Y-74128883D01*
X134491079Y-74129515D01*
X134541875Y-74177490D01*
X134558670Y-74245311D01*
X134536133Y-74311446D01*
X134491079Y-74350485D01*
X134398385Y-74397715D01*
X134232785Y-74518028D01*
X134088027Y-74662786D01*
X133967714Y-74828386D01*
X133874780Y-75010776D01*
X133811521Y-75205465D01*
X133779499Y-75407648D01*
X133779499Y-75612351D01*
X133811521Y-75814534D01*
X133874780Y-76009223D01*
X133967714Y-76191613D01*
X134088027Y-76357213D01*
X134232785Y-76501971D01*
X134387748Y-76614556D01*
X134398389Y-76622287D01*
X134489839Y-76668883D01*
X134491079Y-76669515D01*
X134541875Y-76717490D01*
X134558670Y-76785311D01*
X134536133Y-76851446D01*
X134491079Y-76890485D01*
X134398385Y-76937715D01*
X134232785Y-77058028D01*
X134088027Y-77202786D01*
X133967714Y-77368386D01*
X133874780Y-77550776D01*
X133811521Y-77745465D01*
X133779499Y-77947648D01*
X133779499Y-78152351D01*
X133811521Y-78354534D01*
X133874780Y-78549223D01*
X133967714Y-78731613D01*
X134088027Y-78897213D01*
X134232785Y-79041971D01*
X134387748Y-79154556D01*
X134398389Y-79162287D01*
X134489839Y-79208883D01*
X134491079Y-79209515D01*
X134541875Y-79257490D01*
X134558670Y-79325311D01*
X134536133Y-79391446D01*
X134491079Y-79430485D01*
X134398385Y-79477715D01*
X134232785Y-79598028D01*
X134088027Y-79742786D01*
X133967714Y-79908386D01*
X133874780Y-80090776D01*
X133811521Y-80285465D01*
X133779499Y-80487648D01*
X133779499Y-80692351D01*
X133811521Y-80894534D01*
X133874780Y-81089223D01*
X133927085Y-81191876D01*
X133961702Y-81259815D01*
X133967714Y-81271613D01*
X134088027Y-81437213D01*
X134232785Y-81581971D01*
X134354900Y-81670691D01*
X134398389Y-81702287D01*
X134489839Y-81748883D01*
X134491079Y-81749515D01*
X134541875Y-81797490D01*
X134558670Y-81865311D01*
X134536133Y-81931446D01*
X134491079Y-81970485D01*
X134398385Y-82017715D01*
X134232785Y-82138028D01*
X134088027Y-82282786D01*
X133967714Y-82448386D01*
X133874780Y-82630776D01*
X133811521Y-82825465D01*
X133779499Y-83027648D01*
X133779499Y-83232351D01*
X133811521Y-83434534D01*
X133874780Y-83629223D01*
X133967714Y-83811613D01*
X134088027Y-83977213D01*
X134232785Y-84121971D01*
X134387748Y-84234556D01*
X134398389Y-84242287D01*
X134489839Y-84288883D01*
X134491079Y-84289515D01*
X134541875Y-84337490D01*
X134558670Y-84405311D01*
X134536133Y-84471446D01*
X134491079Y-84510485D01*
X134398385Y-84557715D01*
X134232785Y-84678028D01*
X134088027Y-84822786D01*
X133967714Y-84988386D01*
X133874780Y-85170776D01*
X133811521Y-85365465D01*
X133779499Y-85567648D01*
X133779499Y-85772351D01*
X133811521Y-85974534D01*
X133874780Y-86169223D01*
X133927085Y-86271876D01*
X133961702Y-86339815D01*
X133967714Y-86351613D01*
X134088027Y-86517213D01*
X134232785Y-86661971D01*
X134354900Y-86750691D01*
X134398389Y-86782287D01*
X134489839Y-86828883D01*
X134491079Y-86829515D01*
X134541875Y-86877490D01*
X134558670Y-86945311D01*
X134536133Y-87011446D01*
X134491079Y-87050485D01*
X134398385Y-87097715D01*
X134232785Y-87218028D01*
X134088027Y-87362786D01*
X133967714Y-87528386D01*
X133874780Y-87710776D01*
X133811521Y-87905465D01*
X133779499Y-88107648D01*
X133779499Y-88312351D01*
X133811521Y-88514534D01*
X133874780Y-88709223D01*
X133967714Y-88891613D01*
X134088027Y-89057213D01*
X134232785Y-89201971D01*
X134387748Y-89314556D01*
X134398389Y-89322287D01*
X134489839Y-89368883D01*
X134491079Y-89369515D01*
X134541875Y-89417490D01*
X134558670Y-89485311D01*
X134536133Y-89551446D01*
X134491079Y-89590485D01*
X134398385Y-89637715D01*
X134232785Y-89758028D01*
X134088027Y-89902786D01*
X133967714Y-90068386D01*
X133874780Y-90250776D01*
X133811521Y-90445465D01*
X133779499Y-90647648D01*
X133779499Y-90852351D01*
X133811521Y-91054534D01*
X133874780Y-91249223D01*
X133967714Y-91431613D01*
X134088027Y-91597213D01*
X134232785Y-91741971D01*
X134387748Y-91854556D01*
X134398389Y-91862287D01*
X134489839Y-91908883D01*
X134491079Y-91909515D01*
X134541875Y-91957490D01*
X134558670Y-92025311D01*
X134536133Y-92091446D01*
X134491079Y-92130485D01*
X134398385Y-92177715D01*
X134232785Y-92298028D01*
X134088027Y-92442786D01*
X133967714Y-92608386D01*
X133874780Y-92790776D01*
X133811521Y-92985465D01*
X133779499Y-93187648D01*
X133779499Y-93392351D01*
X133811521Y-93594534D01*
X133874780Y-93789223D01*
X133967714Y-93971613D01*
X134088027Y-94137213D01*
X134232785Y-94281971D01*
X134387748Y-94394556D01*
X134398389Y-94402287D01*
X134489839Y-94448883D01*
X134491079Y-94449515D01*
X134541875Y-94497490D01*
X134558670Y-94565311D01*
X134536133Y-94631446D01*
X134491079Y-94670485D01*
X134398385Y-94717715D01*
X134232785Y-94838028D01*
X134088027Y-94982786D01*
X133967714Y-95148386D01*
X133874780Y-95330776D01*
X133811521Y-95525465D01*
X133779499Y-95727648D01*
X133779499Y-95932351D01*
X133811521Y-96134534D01*
X133874780Y-96329223D01*
X133967714Y-96511613D01*
X134088027Y-96677213D01*
X134232785Y-96821971D01*
X134387748Y-96934556D01*
X134398389Y-96942287D01*
X134489839Y-96988883D01*
X134491079Y-96989515D01*
X134541875Y-97037490D01*
X134558670Y-97105311D01*
X134536133Y-97171446D01*
X134491079Y-97210485D01*
X134398385Y-97257715D01*
X134232785Y-97378028D01*
X134088027Y-97522786D01*
X133967714Y-97688386D01*
X133874780Y-97870776D01*
X133811521Y-98065465D01*
X133779499Y-98267648D01*
X133779499Y-98472351D01*
X133811521Y-98674534D01*
X133874780Y-98869223D01*
X133967714Y-99051613D01*
X134088027Y-99217213D01*
X134232785Y-99361971D01*
X134387748Y-99474556D01*
X134398389Y-99482287D01*
X134489839Y-99528883D01*
X134491079Y-99529515D01*
X134541875Y-99577490D01*
X134558670Y-99645311D01*
X134536133Y-99711446D01*
X134491079Y-99750485D01*
X134398385Y-99797715D01*
X134232785Y-99918028D01*
X134088027Y-100062786D01*
X133967714Y-100228386D01*
X133874780Y-100410776D01*
X133811521Y-100605465D01*
X133779499Y-100807648D01*
X133779499Y-101012351D01*
X133811521Y-101214534D01*
X133874780Y-101409223D01*
X133967714Y-101591613D01*
X134088027Y-101757213D01*
X134232785Y-101901971D01*
X134387748Y-102014556D01*
X134398389Y-102022287D01*
X134489839Y-102068883D01*
X134491079Y-102069515D01*
X134541875Y-102117490D01*
X134558670Y-102185311D01*
X134536133Y-102251446D01*
X134491079Y-102290485D01*
X134398385Y-102337715D01*
X134232785Y-102458028D01*
X134088027Y-102602786D01*
X133967714Y-102768386D01*
X133874780Y-102950776D01*
X133811521Y-103145465D01*
X133779499Y-103347648D01*
X133779499Y-103552351D01*
X133811521Y-103754534D01*
X133874780Y-103949223D01*
X133967714Y-104131613D01*
X134088027Y-104297213D01*
X134232781Y-104441967D01*
X134232783Y-104441968D01*
X134264733Y-104465181D01*
X134307399Y-104520510D01*
X134313380Y-104590123D01*
X134280775Y-104651919D01*
X134219937Y-104686277D01*
X134191850Y-104689500D01*
X134035143Y-104689500D01*
X134035116Y-104689502D01*
X134010011Y-104692413D01*
X134010007Y-104692415D01*
X133907234Y-104737793D01*
X133827793Y-104817234D01*
X133782414Y-104920006D01*
X133782414Y-104920008D01*
X133779499Y-104945131D01*
X133779499Y-107034856D01*
X133779501Y-107034882D01*
X133782412Y-107059987D01*
X133782414Y-107059991D01*
X133827792Y-107162764D01*
X133827793Y-107162765D01*
X133907234Y-107242206D01*
X134010008Y-107287585D01*
X134035134Y-107290500D01*
X136124863Y-107290499D01*
X136124878Y-107290497D01*
X136124881Y-107290497D01*
X136149986Y-107287586D01*
X136149987Y-107287585D01*
X136149990Y-107287585D01*
X136252764Y-107242206D01*
X136332205Y-107162765D01*
X136377584Y-107059991D01*
X136380499Y-107034865D01*
X136380498Y-104945136D01*
X136380496Y-104945117D01*
X136377585Y-104920012D01*
X136377584Y-104920010D01*
X136377584Y-104920009D01*
X136332205Y-104817235D01*
X136252764Y-104737794D01*
X136252762Y-104737793D01*
X136149991Y-104692415D01*
X136124867Y-104689500D01*
X136124864Y-104689500D01*
X135968150Y-104689500D01*
X135901111Y-104669815D01*
X135855356Y-104617011D01*
X135845412Y-104547853D01*
X135874437Y-104484297D01*
X135895265Y-104465182D01*
X135927212Y-104441971D01*
X135927214Y-104441968D01*
X135927218Y-104441966D01*
X136071965Y-104297219D01*
X136071967Y-104297215D01*
X136071970Y-104297213D01*
X136124731Y-104224590D01*
X136192286Y-104131610D01*
X136285219Y-103949219D01*
X136348476Y-103754534D01*
X136380499Y-103552352D01*
X136380499Y-103347648D01*
X136348476Y-103145466D01*
X136285219Y-102950781D01*
X136285217Y-102950778D01*
X136285217Y-102950776D01*
X136251502Y-102884607D01*
X136192286Y-102768390D01*
X136184555Y-102757749D01*
X136071970Y-102602786D01*
X135927212Y-102458028D01*
X135761613Y-102337715D01*
X135755005Y-102334348D01*
X135668916Y-102290483D01*
X135618122Y-102242511D01*
X135601327Y-102174690D01*
X135623864Y-102108555D01*
X135668916Y-102069516D01*
X135761609Y-102022287D01*
X135782769Y-102006913D01*
X135927212Y-101901971D01*
X135927214Y-101901968D01*
X135927218Y-101901966D01*
X136071965Y-101757219D01*
X136071967Y-101757215D01*
X136071970Y-101757213D01*
X136124731Y-101684590D01*
X136192286Y-101591610D01*
X136285219Y-101409219D01*
X136348476Y-101214534D01*
X136380499Y-101012352D01*
X136380499Y-100807648D01*
X136348476Y-100605466D01*
X136285219Y-100410781D01*
X136285217Y-100410778D01*
X136285217Y-100410776D01*
X136251502Y-100344607D01*
X136192286Y-100228390D01*
X136184555Y-100217749D01*
X136071970Y-100062786D01*
X135927212Y-99918028D01*
X135761613Y-99797715D01*
X135755005Y-99794348D01*
X135668916Y-99750483D01*
X135618122Y-99702511D01*
X135601327Y-99634690D01*
X135623864Y-99568555D01*
X135668916Y-99529516D01*
X135761609Y-99482287D01*
X135782769Y-99466913D01*
X135927212Y-99361971D01*
X135927214Y-99361968D01*
X135927218Y-99361966D01*
X136071965Y-99217219D01*
X136071967Y-99217215D01*
X136071970Y-99217213D01*
X136124731Y-99144590D01*
X136192286Y-99051610D01*
X136285219Y-98869219D01*
X136348476Y-98674534D01*
X136380499Y-98472352D01*
X136380499Y-98267648D01*
X136348476Y-98065466D01*
X136285219Y-97870781D01*
X136285217Y-97870778D01*
X136285217Y-97870776D01*
X136251502Y-97804607D01*
X136192286Y-97688390D01*
X136184555Y-97677749D01*
X136071970Y-97522786D01*
X135927212Y-97378028D01*
X135761613Y-97257715D01*
X135755005Y-97254348D01*
X135668916Y-97210483D01*
X135618122Y-97162511D01*
X135601327Y-97094690D01*
X135623864Y-97028555D01*
X135668916Y-96989516D01*
X135761609Y-96942287D01*
X135782769Y-96926913D01*
X135927212Y-96821971D01*
X135927214Y-96821968D01*
X135927218Y-96821966D01*
X136071965Y-96677219D01*
X136071967Y-96677215D01*
X136071970Y-96677213D01*
X136124731Y-96604590D01*
X136192286Y-96511610D01*
X136285219Y-96329219D01*
X136348476Y-96134534D01*
X136380499Y-95932352D01*
X136380499Y-95727648D01*
X136348476Y-95525466D01*
X136346962Y-95520807D01*
X136318472Y-95433124D01*
X136285219Y-95330781D01*
X136285217Y-95330778D01*
X136285217Y-95330776D01*
X136251502Y-95264607D01*
X136192286Y-95148390D01*
X136184555Y-95137749D01*
X136071970Y-94982786D01*
X135927212Y-94838028D01*
X135761613Y-94717715D01*
X135710881Y-94691866D01*
X135668916Y-94670483D01*
X135618122Y-94622511D01*
X135601327Y-94554690D01*
X135623864Y-94488555D01*
X135668916Y-94449516D01*
X135761609Y-94402287D01*
X135834265Y-94349500D01*
X135927212Y-94281971D01*
X135927214Y-94281968D01*
X135927218Y-94281966D01*
X136071965Y-94137219D01*
X136071967Y-94137215D01*
X136071970Y-94137213D01*
X136124731Y-94064590D01*
X136192286Y-93971610D01*
X136285219Y-93789219D01*
X136348476Y-93594534D01*
X136380499Y-93392352D01*
X136380499Y-93187648D01*
X136348476Y-92985466D01*
X136285219Y-92790781D01*
X136285217Y-92790778D01*
X136285217Y-92790776D01*
X136220875Y-92664499D01*
X136192286Y-92608390D01*
X136184555Y-92597749D01*
X136071970Y-92442786D01*
X135927212Y-92298028D01*
X135761613Y-92177715D01*
X135755005Y-92174348D01*
X135668916Y-92130483D01*
X135618122Y-92082511D01*
X135601327Y-92014690D01*
X135623864Y-91948555D01*
X135668916Y-91909516D01*
X135761609Y-91862287D01*
X135782769Y-91846913D01*
X135927212Y-91741971D01*
X135927214Y-91741968D01*
X135927218Y-91741966D01*
X136071965Y-91597219D01*
X136071967Y-91597215D01*
X136071970Y-91597213D01*
X136124731Y-91524590D01*
X136192286Y-91431610D01*
X136285219Y-91249219D01*
X136348476Y-91054534D01*
X136380499Y-90852352D01*
X136380499Y-90647648D01*
X136348476Y-90445466D01*
X136285219Y-90250781D01*
X136285217Y-90250778D01*
X136285217Y-90250776D01*
X136251502Y-90184607D01*
X136192286Y-90068390D01*
X136184555Y-90057749D01*
X136071970Y-89902786D01*
X135927212Y-89758028D01*
X135761613Y-89637715D01*
X135755005Y-89634348D01*
X135668916Y-89590483D01*
X135618122Y-89542511D01*
X135601327Y-89474690D01*
X135623864Y-89408555D01*
X135668916Y-89369516D01*
X135761609Y-89322287D01*
X135782769Y-89306913D01*
X135927212Y-89201971D01*
X135927214Y-89201968D01*
X135927218Y-89201966D01*
X136071965Y-89057219D01*
X136071967Y-89057215D01*
X136071970Y-89057213D01*
X136124731Y-88984590D01*
X136192286Y-88891610D01*
X136285219Y-88709219D01*
X136293048Y-88685122D01*
X136332483Y-88627450D01*
X136396841Y-88600251D01*
X136465687Y-88612164D01*
X136498659Y-88635761D01*
X136523387Y-88660489D01*
X136626114Y-88719799D01*
X136740691Y-88750500D01*
X136740694Y-88750500D01*
X141059306Y-88750500D01*
X141059309Y-88750500D01*
X141173886Y-88719799D01*
X141276613Y-88660489D01*
X141360489Y-88576613D01*
X141419799Y-88473886D01*
X141450500Y-88359309D01*
X141450500Y-88116031D01*
X141470185Y-88048992D01*
X141518205Y-88005546D01*
X141681610Y-87922287D01*
X141781776Y-87849513D01*
X141847213Y-87801971D01*
X141847215Y-87801968D01*
X141847219Y-87801966D01*
X141991966Y-87657219D01*
X141991968Y-87657215D01*
X141991971Y-87657213D01*
X142112284Y-87491614D01*
X142112285Y-87491613D01*
X142112287Y-87491610D01*
X142159516Y-87398917D01*
X142207489Y-87348123D01*
X142275310Y-87331328D01*
X142341445Y-87353865D01*
X142380483Y-87398917D01*
X142410166Y-87457172D01*
X142427715Y-87491614D01*
X142548028Y-87657213D01*
X142692786Y-87801971D01*
X142835236Y-87905465D01*
X142858390Y-87922287D01*
X142974607Y-87981503D01*
X143040776Y-88015218D01*
X143040778Y-88015218D01*
X143040781Y-88015220D01*
X143144721Y-88048992D01*
X143235465Y-88078477D01*
X143336557Y-88094488D01*
X143437648Y-88110500D01*
X143437649Y-88110500D01*
X143642351Y-88110500D01*
X143642352Y-88110500D01*
X143844534Y-88078477D01*
X144039219Y-88015220D01*
X144221610Y-87922287D01*
X144321794Y-87849500D01*
X144387213Y-87801971D01*
X144387215Y-87801968D01*
X144387219Y-87801966D01*
X144531966Y-87657219D01*
X144531968Y-87657215D01*
X144531971Y-87657213D01*
X144584732Y-87584590D01*
X144652287Y-87491610D01*
X144745220Y-87309219D01*
X144808477Y-87114534D01*
X144840500Y-86912352D01*
X144840500Y-86707648D01*
X144808477Y-86505466D01*
X144808476Y-86505464D01*
X144758486Y-86351610D01*
X144745220Y-86310781D01*
X144745218Y-86310778D01*
X144745218Y-86310776D01*
X144680876Y-86184499D01*
X144652287Y-86128390D01*
X144620522Y-86084669D01*
X144531971Y-85962786D01*
X144387213Y-85818028D01*
X144221614Y-85697715D01*
X144215006Y-85694348D01*
X144128917Y-85650483D01*
X144078123Y-85602511D01*
X144061328Y-85534690D01*
X144083865Y-85468555D01*
X144128917Y-85429516D01*
X144221610Y-85382287D01*
X144249717Y-85361866D01*
X144387213Y-85261971D01*
X144387215Y-85261968D01*
X144387219Y-85261966D01*
X144531966Y-85117219D01*
X144531968Y-85117215D01*
X144531971Y-85117213D01*
X144619179Y-84997179D01*
X144652287Y-84951610D01*
X144745220Y-84769219D01*
X144808477Y-84574534D01*
X144840500Y-84372352D01*
X144840500Y-84167648D01*
X144808477Y-83965466D01*
X144745220Y-83770781D01*
X144745218Y-83770778D01*
X144745218Y-83770776D01*
X144673090Y-83629219D01*
X144652287Y-83588390D01*
X144644556Y-83577749D01*
X144531971Y-83422786D01*
X144387213Y-83278028D01*
X144221614Y-83157715D01*
X144215006Y-83154348D01*
X144128917Y-83110483D01*
X144078123Y-83062511D01*
X144061328Y-82994690D01*
X144083865Y-82928555D01*
X144128917Y-82889516D01*
X144221610Y-82842287D01*
X144321776Y-82769513D01*
X144387213Y-82721971D01*
X144387215Y-82721968D01*
X144387219Y-82721966D01*
X144531966Y-82577219D01*
X144531968Y-82577215D01*
X144531971Y-82577213D01*
X144652284Y-82411614D01*
X144652285Y-82411613D01*
X144652287Y-82411610D01*
X144735546Y-82248204D01*
X144783521Y-82197409D01*
X144846031Y-82180500D01*
X151425500Y-82180500D01*
X151492539Y-82200185D01*
X151538294Y-82252989D01*
X151549500Y-82304500D01*
X151549500Y-112925500D01*
X151529815Y-112992539D01*
X151477011Y-113038294D01*
X151425500Y-113049500D01*
X138886964Y-113049500D01*
X138819925Y-113029815D01*
X138774170Y-112977011D01*
X138764226Y-112907853D01*
X138793251Y-112844297D01*
X138799283Y-112837819D01*
X138816567Y-112820535D01*
X138860489Y-112776613D01*
X138919799Y-112673886D01*
X138950500Y-112559309D01*
X138950500Y-95520807D01*
X138970185Y-95453768D01*
X138986821Y-95433124D01*
X139005274Y-95414671D01*
X139005276Y-95414669D01*
X139076465Y-95308127D01*
X139125501Y-95189744D01*
X139150500Y-95064069D01*
X139150500Y-94935931D01*
X139150500Y-94935928D01*
X139125502Y-94810261D01*
X139125501Y-94810260D01*
X139125501Y-94810256D01*
X139076465Y-94691873D01*
X139076464Y-94691872D01*
X139076461Y-94691866D01*
X139005276Y-94585331D01*
X139005273Y-94585327D01*
X138914672Y-94494726D01*
X138914668Y-94494723D01*
X138808133Y-94423538D01*
X138808124Y-94423533D01*
X138689744Y-94374499D01*
X138689738Y-94374497D01*
X138564071Y-94349500D01*
X138564069Y-94349500D01*
X138435931Y-94349500D01*
X138435929Y-94349500D01*
X138310261Y-94374497D01*
X138310255Y-94374499D01*
X138191875Y-94423533D01*
X138191866Y-94423538D01*
X138085331Y-94494723D01*
X138085327Y-94494726D01*
X137994726Y-94585327D01*
X137994723Y-94585331D01*
X137923538Y-94691866D01*
X137923533Y-94691875D01*
X137874499Y-94810255D01*
X137874497Y-94810261D01*
X137849500Y-94935928D01*
X137849500Y-94935931D01*
X137849500Y-95064069D01*
X137849500Y-95064071D01*
X137849499Y-95064071D01*
X137874497Y-95189738D01*
X137874499Y-95189744D01*
X137923533Y-95308124D01*
X137923538Y-95308133D01*
X137994723Y-95414668D01*
X137994725Y-95414671D01*
X138013179Y-95433124D01*
X138046666Y-95494446D01*
X138049500Y-95520807D01*
X138049500Y-111925500D01*
X138029815Y-111992539D01*
X137977011Y-112038294D01*
X137925500Y-112049500D01*
X108574500Y-112049500D01*
X108507461Y-112029815D01*
X108461706Y-111977011D01*
X108450500Y-111925500D01*
X108450500Y-107406431D01*
X108470185Y-107339392D01*
X108522989Y-107293637D01*
X108592147Y-107283693D01*
X108607060Y-107286782D01*
X108610005Y-107287583D01*
X108610009Y-107287585D01*
X108635135Y-107290500D01*
X110724864Y-107290499D01*
X110724879Y-107290497D01*
X110724882Y-107290497D01*
X110749987Y-107287586D01*
X110749988Y-107287585D01*
X110749991Y-107287585D01*
X110852765Y-107242206D01*
X110932206Y-107162765D01*
X110977585Y-107059991D01*
X110980500Y-107034865D01*
X110980499Y-104945136D01*
X110980497Y-104945117D01*
X110977586Y-104920012D01*
X110977585Y-104920010D01*
X110977585Y-104920009D01*
X110932206Y-104817235D01*
X110852765Y-104737794D01*
X110852763Y-104737793D01*
X110749992Y-104692415D01*
X110724865Y-104689500D01*
X108635143Y-104689500D01*
X108635117Y-104689502D01*
X108610013Y-104692413D01*
X108607050Y-104693220D01*
X108603648Y-104693151D01*
X108600742Y-104693489D01*
X108600696Y-104693092D01*
X108537194Y-104691823D01*
X108479183Y-104652881D01*
X108451434Y-104588758D01*
X108450500Y-104573568D01*
X108450500Y-101811914D01*
X108470185Y-101744875D01*
X108522989Y-101699120D01*
X108592147Y-101689176D01*
X108655703Y-101718201D01*
X108674820Y-101739031D01*
X108688032Y-101757217D01*
X108832786Y-101901971D01*
X108987749Y-102014556D01*
X108998390Y-102022287D01*
X109091080Y-102069515D01*
X109180776Y-102115218D01*
X109180778Y-102115218D01*
X109180781Y-102115220D01*
X109285137Y-102149127D01*
X109375465Y-102178477D01*
X109394697Y-102181523D01*
X109577648Y-102210500D01*
X109577649Y-102210500D01*
X109782351Y-102210500D01*
X109782352Y-102210500D01*
X109984534Y-102178477D01*
X110179219Y-102115220D01*
X110361610Y-102022287D01*
X110454590Y-101954732D01*
X110527213Y-101901971D01*
X110527215Y-101901968D01*
X110527219Y-101901966D01*
X110671966Y-101757219D01*
X110671968Y-101757215D01*
X110671971Y-101757213D01*
X110724732Y-101684590D01*
X110792287Y-101591610D01*
X110885220Y-101409219D01*
X110948477Y-101214534D01*
X110980500Y-101012352D01*
X110980500Y-100807648D01*
X110948477Y-100605466D01*
X110885220Y-100410781D01*
X110885218Y-100410778D01*
X110885218Y-100410776D01*
X110851503Y-100344607D01*
X110792287Y-100228390D01*
X110784556Y-100217749D01*
X110671971Y-100062786D01*
X110527213Y-99918028D01*
X110361614Y-99797715D01*
X110355006Y-99794348D01*
X110268917Y-99750483D01*
X110218123Y-99702511D01*
X110201328Y-99634690D01*
X110223865Y-99568555D01*
X110268917Y-99529516D01*
X110361610Y-99482287D01*
X110382770Y-99466913D01*
X110527213Y-99361971D01*
X110527215Y-99361968D01*
X110527219Y-99361966D01*
X110671966Y-99217219D01*
X110671968Y-99217215D01*
X110671971Y-99217213D01*
X110724732Y-99144590D01*
X110792287Y-99051610D01*
X110885220Y-98869219D01*
X110948477Y-98674534D01*
X110980500Y-98472352D01*
X110980500Y-98267648D01*
X110948477Y-98065466D01*
X110885220Y-97870781D01*
X110885218Y-97870778D01*
X110885218Y-97870776D01*
X110851503Y-97804607D01*
X110792287Y-97688390D01*
X110784556Y-97677749D01*
X110671971Y-97522786D01*
X110527213Y-97378028D01*
X110361614Y-97257715D01*
X110355006Y-97254348D01*
X110268917Y-97210483D01*
X110218123Y-97162511D01*
X110201328Y-97094690D01*
X110223865Y-97028555D01*
X110268917Y-96989516D01*
X110361610Y-96942287D01*
X110382770Y-96926913D01*
X110527213Y-96821971D01*
X110527215Y-96821968D01*
X110527219Y-96821966D01*
X110671966Y-96677219D01*
X110671968Y-96677215D01*
X110671971Y-96677213D01*
X110724732Y-96604590D01*
X110792287Y-96511610D01*
X110885220Y-96329219D01*
X110948477Y-96134534D01*
X110980500Y-95932352D01*
X110980500Y-95727648D01*
X110948477Y-95525466D01*
X110946963Y-95520807D01*
X110918473Y-95433124D01*
X110885220Y-95330781D01*
X110885218Y-95330778D01*
X110885218Y-95330776D01*
X110851503Y-95264607D01*
X110792287Y-95148390D01*
X110784556Y-95137749D01*
X110671971Y-94982786D01*
X110527213Y-94838028D01*
X110361614Y-94717715D01*
X110310882Y-94691866D01*
X110268917Y-94670483D01*
X110218123Y-94622511D01*
X110201328Y-94554690D01*
X110223865Y-94488555D01*
X110268917Y-94449516D01*
X110361610Y-94402287D01*
X110434266Y-94349500D01*
X110527213Y-94281971D01*
X110527215Y-94281968D01*
X110527219Y-94281966D01*
X110671966Y-94137219D01*
X110671968Y-94137215D01*
X110671971Y-94137213D01*
X110724732Y-94064590D01*
X110792287Y-93971610D01*
X110885220Y-93789219D01*
X110948477Y-93594534D01*
X110980500Y-93392352D01*
X110980500Y-93187648D01*
X110948477Y-92985466D01*
X110885220Y-92790781D01*
X110885218Y-92790778D01*
X110885218Y-92790776D01*
X110820876Y-92664499D01*
X110792287Y-92608390D01*
X110784556Y-92597749D01*
X110671971Y-92442786D01*
X110527213Y-92298028D01*
X110361614Y-92177715D01*
X110355006Y-92174348D01*
X110268917Y-92130483D01*
X110218123Y-92082511D01*
X110201328Y-92014690D01*
X110223865Y-91948555D01*
X110268917Y-91909516D01*
X110361610Y-91862287D01*
X110382770Y-91846913D01*
X110527213Y-91741971D01*
X110527215Y-91741968D01*
X110527219Y-91741966D01*
X110671966Y-91597219D01*
X110671968Y-91597215D01*
X110671971Y-91597213D01*
X110724732Y-91524590D01*
X110792287Y-91431610D01*
X110885220Y-91249219D01*
X110948477Y-91054534D01*
X110980500Y-90852352D01*
X110980500Y-90647648D01*
X110948477Y-90445466D01*
X110885220Y-90250781D01*
X110885218Y-90250778D01*
X110885218Y-90250776D01*
X110851503Y-90184607D01*
X110792287Y-90068390D01*
X110784556Y-90057749D01*
X110671971Y-89902786D01*
X110527213Y-89758028D01*
X110361614Y-89637715D01*
X110355006Y-89634348D01*
X110268917Y-89590483D01*
X110218123Y-89542511D01*
X110201328Y-89474690D01*
X110223865Y-89408555D01*
X110268917Y-89369516D01*
X110361610Y-89322287D01*
X110382770Y-89306913D01*
X110527213Y-89201971D01*
X110527215Y-89201968D01*
X110527219Y-89201966D01*
X110671966Y-89057219D01*
X110671968Y-89057215D01*
X110671971Y-89057213D01*
X110724732Y-88984590D01*
X110792287Y-88891610D01*
X110885220Y-88709219D01*
X110948477Y-88514534D01*
X110980500Y-88312352D01*
X110980500Y-88107648D01*
X110948477Y-87905466D01*
X110925636Y-87835170D01*
X110901050Y-87759500D01*
X110885220Y-87710781D01*
X110885218Y-87710778D01*
X110885218Y-87710776D01*
X110851503Y-87644607D01*
X110792287Y-87528390D01*
X110761402Y-87485880D01*
X110671971Y-87362786D01*
X110527213Y-87218028D01*
X110361614Y-87097715D01*
X110355006Y-87094348D01*
X110268917Y-87050483D01*
X110218123Y-87002511D01*
X110201328Y-86934690D01*
X110223865Y-86868555D01*
X110268917Y-86829516D01*
X110361610Y-86782287D01*
X110464343Y-86707648D01*
X110527213Y-86661971D01*
X110527215Y-86661968D01*
X110527219Y-86661966D01*
X110671966Y-86517219D01*
X110671968Y-86517215D01*
X110671971Y-86517213D01*
X110764249Y-86390201D01*
X110792287Y-86351610D01*
X110885220Y-86169219D01*
X110948477Y-85974534D01*
X110980500Y-85772352D01*
X110980500Y-85567648D01*
X110948477Y-85365466D01*
X110947310Y-85361875D01*
X110900129Y-85216666D01*
X110885220Y-85170781D01*
X110885218Y-85170778D01*
X110885218Y-85170776D01*
X110839512Y-85081075D01*
X110792287Y-84988390D01*
X110761402Y-84945880D01*
X110671971Y-84822786D01*
X110527213Y-84678028D01*
X110361614Y-84557715D01*
X110355006Y-84554348D01*
X110268917Y-84510483D01*
X110218123Y-84462511D01*
X110201328Y-84394690D01*
X110223865Y-84328555D01*
X110268917Y-84289516D01*
X110361610Y-84242287D01*
X110464343Y-84167648D01*
X110527213Y-84121971D01*
X110527215Y-84121968D01*
X110527219Y-84121966D01*
X110671966Y-83977219D01*
X110671968Y-83977215D01*
X110671971Y-83977213D01*
X110760525Y-83855327D01*
X110792287Y-83811610D01*
X110885220Y-83629219D01*
X110948477Y-83434534D01*
X110980500Y-83232352D01*
X110980500Y-83027648D01*
X110948477Y-82825466D01*
X110885220Y-82630781D01*
X110885218Y-82630778D01*
X110885218Y-82630776D01*
X110851503Y-82564607D01*
X110792287Y-82448390D01*
X110765565Y-82411610D01*
X110671971Y-82282786D01*
X110527213Y-82138028D01*
X110361614Y-82017715D01*
X110355006Y-82014348D01*
X110268917Y-81970483D01*
X110218123Y-81922511D01*
X110201328Y-81854690D01*
X110223865Y-81788555D01*
X110268917Y-81749516D01*
X110361610Y-81702287D01*
X110464343Y-81627648D01*
X110527213Y-81581971D01*
X110527215Y-81581968D01*
X110527219Y-81581966D01*
X110671966Y-81437219D01*
X110671968Y-81437215D01*
X110671971Y-81437213D01*
X110764249Y-81310201D01*
X110792287Y-81271610D01*
X110885220Y-81089219D01*
X110948477Y-80894534D01*
X110980500Y-80692352D01*
X110980500Y-80487648D01*
X110948477Y-80285466D01*
X110885220Y-80090781D01*
X110885218Y-80090778D01*
X110885218Y-80090776D01*
X110851503Y-80024607D01*
X110792287Y-79908390D01*
X110765565Y-79871610D01*
X110671971Y-79742786D01*
X110527213Y-79598028D01*
X110361614Y-79477715D01*
X110355006Y-79474348D01*
X110268917Y-79430483D01*
X110218123Y-79382511D01*
X110201328Y-79314690D01*
X110223865Y-79248555D01*
X110268917Y-79209516D01*
X110361610Y-79162287D01*
X110464343Y-79087648D01*
X110527213Y-79041971D01*
X110527215Y-79041968D01*
X110527219Y-79041966D01*
X110671966Y-78897219D01*
X110671968Y-78897215D01*
X110671971Y-78897213D01*
X110784360Y-78742520D01*
X110792287Y-78731610D01*
X110885220Y-78549219D01*
X110948477Y-78354534D01*
X110980500Y-78152352D01*
X110980500Y-77947648D01*
X110948477Y-77745466D01*
X110942605Y-77727395D01*
X110897695Y-77589175D01*
X110885220Y-77550781D01*
X110885218Y-77550778D01*
X110885218Y-77550776D01*
X110851503Y-77484607D01*
X110792287Y-77368390D01*
X110784556Y-77357749D01*
X110671971Y-77202786D01*
X110527213Y-77058028D01*
X110361614Y-76937715D01*
X110355006Y-76934348D01*
X110268917Y-76890483D01*
X110218123Y-76842511D01*
X110201328Y-76774690D01*
X110223865Y-76708555D01*
X110268917Y-76669516D01*
X110361610Y-76622287D01*
X110382770Y-76606913D01*
X110527213Y-76501971D01*
X110527215Y-76501968D01*
X110527219Y-76501966D01*
X110671966Y-76357219D01*
X110671968Y-76357215D01*
X110671971Y-76357213D01*
X110733441Y-76272605D01*
X110792287Y-76191610D01*
X110885220Y-76009219D01*
X110948477Y-75814534D01*
X110980500Y-75612352D01*
X110980500Y-75407648D01*
X110948477Y-75205466D01*
X110885220Y-75010781D01*
X110885218Y-75010778D01*
X110885218Y-75010776D01*
X110846894Y-74935562D01*
X110792287Y-74828390D01*
X110784556Y-74817749D01*
X110671971Y-74662786D01*
X110527213Y-74518028D01*
X110361614Y-74397715D01*
X110355006Y-74394348D01*
X110268917Y-74350483D01*
X110218123Y-74302511D01*
X110201328Y-74234690D01*
X110223865Y-74168555D01*
X110268917Y-74129516D01*
X110361610Y-74082287D01*
X110382770Y-74066913D01*
X110527213Y-73961971D01*
X110527215Y-73961968D01*
X110527219Y-73961966D01*
X110671966Y-73817219D01*
X110671968Y-73817215D01*
X110671971Y-73817213D01*
X110724732Y-73744590D01*
X110792287Y-73651610D01*
X110885220Y-73469219D01*
X110948477Y-73274534D01*
X110980500Y-73072352D01*
X110980500Y-72867648D01*
X110948477Y-72665466D01*
X110885220Y-72470781D01*
X110885218Y-72470778D01*
X110885218Y-72470776D01*
X110851503Y-72404607D01*
X110792287Y-72288390D01*
X110784556Y-72277749D01*
X110671971Y-72122786D01*
X110527213Y-71978028D01*
X110361614Y-71857715D01*
X110355006Y-71854348D01*
X110268917Y-71810483D01*
X110218123Y-71762511D01*
X110201328Y-71694690D01*
X110223865Y-71628555D01*
X110268917Y-71589516D01*
X110361610Y-71542287D01*
X110412556Y-71505273D01*
X110527213Y-71421971D01*
X110527215Y-71421968D01*
X110527219Y-71421966D01*
X110671966Y-71277219D01*
X110671968Y-71277215D01*
X110671971Y-71277213D01*
X110735524Y-71189738D01*
X110792287Y-71111610D01*
X110885220Y-70929219D01*
X110948477Y-70734534D01*
X110980500Y-70532352D01*
X110980500Y-70327648D01*
X110948477Y-70125466D01*
X110885220Y-69930781D01*
X110885218Y-69930778D01*
X110885218Y-69930776D01*
X110851503Y-69864607D01*
X110792287Y-69748390D01*
X110784556Y-69737749D01*
X110671971Y-69582786D01*
X110527213Y-69438028D01*
X110361613Y-69317715D01*
X110361612Y-69317714D01*
X110361610Y-69317713D01*
X110304653Y-69288691D01*
X110179223Y-69224781D01*
X109984534Y-69161522D01*
X109809995Y-69133878D01*
X109782352Y-69129500D01*
X109577648Y-69129500D01*
X109553329Y-69133351D01*
X109375465Y-69161522D01*
X109180776Y-69224781D01*
X108998386Y-69317715D01*
X108832786Y-69438028D01*
X108688028Y-69582786D01*
X108567715Y-69748386D01*
X108474781Y-69930776D01*
X108411522Y-70125465D01*
X108379500Y-70327648D01*
X108379500Y-70532351D01*
X108411522Y-70734534D01*
X108474781Y-70929223D01*
X108567715Y-71111613D01*
X108688028Y-71277213D01*
X108832786Y-71421971D01*
X108947444Y-71505273D01*
X108998390Y-71542287D01*
X109065470Y-71576466D01*
X109091080Y-71589515D01*
X109141876Y-71637490D01*
X109158671Y-71705311D01*
X109136134Y-71771446D01*
X109091080Y-71810485D01*
X108998386Y-71857715D01*
X108832786Y-71978028D01*
X108688028Y-72122786D01*
X108567715Y-72288386D01*
X108474781Y-72470776D01*
X108411522Y-72665465D01*
X108379500Y-72867648D01*
X108379500Y-73072351D01*
X108411522Y-73274534D01*
X108474781Y-73469223D01*
X108567715Y-73651613D01*
X108688028Y-73817213D01*
X108832786Y-73961971D01*
X108987749Y-74074556D01*
X108998390Y-74082287D01*
X109089840Y-74128883D01*
X109091080Y-74129515D01*
X109141876Y-74177490D01*
X109158671Y-74245311D01*
X109136134Y-74311446D01*
X109091080Y-74350485D01*
X108998386Y-74397715D01*
X108832786Y-74518028D01*
X108688028Y-74662786D01*
X108567715Y-74828386D01*
X108474781Y-75010776D01*
X108411522Y-75205465D01*
X108379500Y-75407648D01*
X108379500Y-75612351D01*
X108411522Y-75814534D01*
X108474781Y-76009223D01*
X108567715Y-76191613D01*
X108688028Y-76357213D01*
X108832786Y-76501971D01*
X108987749Y-76614556D01*
X108998390Y-76622287D01*
X109089840Y-76668883D01*
X109091080Y-76669515D01*
X109141876Y-76717490D01*
X109158671Y-76785311D01*
X109136134Y-76851446D01*
X109091080Y-76890485D01*
X108998386Y-76937715D01*
X108832786Y-77058028D01*
X108688028Y-77202786D01*
X108567715Y-77368386D01*
X108474781Y-77550776D01*
X108411522Y-77745465D01*
X108379500Y-77947648D01*
X108379500Y-78152351D01*
X108411522Y-78354534D01*
X108474781Y-78549223D01*
X108567715Y-78731613D01*
X108688028Y-78897213D01*
X108832786Y-79041971D01*
X108987749Y-79154556D01*
X108998390Y-79162287D01*
X109089840Y-79208883D01*
X109091080Y-79209515D01*
X109141876Y-79257490D01*
X109158671Y-79325311D01*
X109136134Y-79391446D01*
X109091080Y-79430485D01*
X108998386Y-79477715D01*
X108832786Y-79598028D01*
X108688028Y-79742786D01*
X108567715Y-79908386D01*
X108474781Y-80090776D01*
X108411522Y-80285465D01*
X108379500Y-80487648D01*
X108379500Y-80692351D01*
X108411522Y-80894534D01*
X108474781Y-81089223D01*
X108527086Y-81191876D01*
X108561703Y-81259815D01*
X108567715Y-81271613D01*
X108688028Y-81437213D01*
X108832786Y-81581971D01*
X108954901Y-81670691D01*
X108998390Y-81702287D01*
X109089840Y-81748883D01*
X109091080Y-81749515D01*
X109141876Y-81797490D01*
X109158671Y-81865311D01*
X109136134Y-81931446D01*
X109091080Y-81970485D01*
X108998386Y-82017715D01*
X108832786Y-82138028D01*
X108688028Y-82282786D01*
X108567715Y-82448386D01*
X108474781Y-82630776D01*
X108411522Y-82825465D01*
X108379500Y-83027648D01*
X108379500Y-83232351D01*
X108411522Y-83434534D01*
X108474781Y-83629223D01*
X108567715Y-83811613D01*
X108688028Y-83977213D01*
X108832786Y-84121971D01*
X108987749Y-84234556D01*
X108998390Y-84242287D01*
X109089840Y-84288883D01*
X109091080Y-84289515D01*
X109141876Y-84337490D01*
X109158671Y-84405311D01*
X109136134Y-84471446D01*
X109091080Y-84510485D01*
X108998386Y-84557715D01*
X108832786Y-84678028D01*
X108688028Y-84822786D01*
X108567715Y-84988386D01*
X108474781Y-85170776D01*
X108411522Y-85365465D01*
X108379500Y-85567648D01*
X108379500Y-85772351D01*
X108411522Y-85974534D01*
X108474781Y-86169223D01*
X108527086Y-86271876D01*
X108561703Y-86339815D01*
X108567715Y-86351613D01*
X108688028Y-86517213D01*
X108832786Y-86661971D01*
X108954901Y-86750691D01*
X108998390Y-86782287D01*
X109089840Y-86828883D01*
X109091080Y-86829515D01*
X109141876Y-86877490D01*
X109158671Y-86945311D01*
X109136134Y-87011446D01*
X109091080Y-87050485D01*
X108998386Y-87097715D01*
X108832786Y-87218028D01*
X108688028Y-87362786D01*
X108567715Y-87528385D01*
X108484454Y-87691795D01*
X108436479Y-87742591D01*
X108373969Y-87759500D01*
X106059309Y-87759500D01*
X105940691Y-87759500D01*
X105826114Y-87790201D01*
X105826112Y-87790201D01*
X105826112Y-87790202D01*
X105723387Y-87849511D01*
X105723384Y-87849513D01*
X105639513Y-87933384D01*
X105639511Y-87933387D01*
X105597850Y-88005546D01*
X105580201Y-88036114D01*
X105549500Y-88150691D01*
X105549500Y-88150693D01*
X105549500Y-112057181D01*
X105529815Y-112124220D01*
X105477011Y-112169975D01*
X105407853Y-112179919D01*
X105344297Y-112150894D01*
X105306523Y-112092116D01*
X105305736Y-112089315D01*
X105256054Y-111903900D01*
X105163224Y-111679788D01*
X105041936Y-111469711D01*
X104894265Y-111277262D01*
X104894260Y-111277256D01*
X104722743Y-111105739D01*
X104722736Y-111105733D01*
X104530293Y-110958067D01*
X104530292Y-110958066D01*
X104530289Y-110958064D01*
X104320212Y-110836776D01*
X104320205Y-110836773D01*
X104096104Y-110743947D01*
X103861785Y-110681161D01*
X103621289Y-110649500D01*
X103621288Y-110649500D01*
X103378712Y-110649500D01*
X103378711Y-110649500D01*
X103138214Y-110681161D01*
X102903895Y-110743947D01*
X102679794Y-110836773D01*
X102679785Y-110836777D01*
X102469706Y-110958067D01*
X102277263Y-111105733D01*
X102277256Y-111105739D01*
X102105739Y-111277256D01*
X102105733Y-111277263D01*
X101958067Y-111469706D01*
X101836777Y-111679785D01*
X101836773Y-111679794D01*
X101743947Y-111903895D01*
X101681161Y-112138214D01*
X101649500Y-112378711D01*
X100500500Y-112378711D01*
X100500500Y-53378711D01*
X101649500Y-53378711D01*
X101649500Y-53621288D01*
X101681161Y-53861785D01*
X101743947Y-54096104D01*
X101836773Y-54320205D01*
X101836776Y-54320212D01*
X101958064Y-54530289D01*
X101958066Y-54530292D01*
X101958067Y-54530293D01*
X102105733Y-54722736D01*
X102105739Y-54722743D01*
X102277256Y-54894260D01*
X102277262Y-54894265D01*
X102469711Y-55041936D01*
X102679788Y-55163224D01*
X102903900Y-55256054D01*
X103138211Y-55318838D01*
X103318586Y-55342584D01*
X103378711Y-55350500D01*
X103378712Y-55350500D01*
X103621289Y-55350500D01*
X103669388Y-55344167D01*
X103861789Y-55318838D01*
X104096100Y-55256054D01*
X104320212Y-55163224D01*
X104530289Y-55041936D01*
X104722738Y-54894265D01*
X104894265Y-54722738D01*
X105041936Y-54530289D01*
X105163224Y-54320212D01*
X105256054Y-54096100D01*
X105318838Y-53861789D01*
X105350500Y-53621288D01*
X105350500Y-53378712D01*
X105318838Y-53138211D01*
X105256054Y-52903900D01*
X105163224Y-52679788D01*
X105041936Y-52469711D01*
X104894265Y-52277262D01*
X104894260Y-52277256D01*
X104722743Y-52105739D01*
X104722736Y-52105733D01*
X104530293Y-51958067D01*
X104530292Y-51958066D01*
X104530289Y-51958064D01*
X104320212Y-51836776D01*
X104320205Y-51836773D01*
X104096104Y-51743947D01*
X103861785Y-51681161D01*
X103621289Y-51649500D01*
X103621288Y-51649500D01*
X103378712Y-51649500D01*
X103378711Y-51649500D01*
X103138214Y-51681161D01*
X102903895Y-51743947D01*
X102679794Y-51836773D01*
X102679785Y-51836777D01*
X102469706Y-51958067D01*
X102277263Y-52105733D01*
X102277256Y-52105739D01*
X102105739Y-52277256D01*
X102105733Y-52277263D01*
X101958067Y-52469706D01*
X101836777Y-52679785D01*
X101836773Y-52679794D01*
X101743947Y-52903895D01*
X101681161Y-53138214D01*
X101649500Y-53378711D01*
X100500500Y-53378711D01*
X100500500Y-50809757D01*
X100502027Y-50790359D01*
X100504279Y-50776135D01*
X100512086Y-50726846D01*
X100524072Y-50689955D01*
X100548786Y-50641452D01*
X100571585Y-50610073D01*
X100610073Y-50571585D01*
X100641452Y-50548786D01*
X100689955Y-50524072D01*
X100726846Y-50512086D01*
X100790360Y-50502026D01*
X100809758Y-50500500D01*
X100865893Y-50500500D01*
X106876000Y-50500500D01*
X106943039Y-50520185D01*
G37*
%TD.AperFunction*%
%TD*%
M02*
