<?xml version="1.0" standalone="no"?>
 <!DOCTYPE svg PUBLIC "-//W3C//DTD SVG 1.1//EN"
 "http://www.w3.org/Graphics/SVG/1.1/DTD/svg11.dtd">
<svg
  xmlns:svg="http://www.w3.org/2000/svg"
  xmlns="http://www.w3.org/2000/svg"
  xmlns:xlink="http://www.w3.org/1999/xlink"
  xmlns:inkscape="http://www.inkscape.org/namespaces/inkscape"
  version="1.1"
  width="297.0022mm" height="210.0072mm" viewBox="0.0000 0.0000 297.0022 210.0072">
<title>SVG Image created as rainpoint_carrier-NPTH-drl_map.svg date 2026-08-12T21:24:22 </title>
  <desc>Image generated by PCBNEW </desc>
<g style="fill:#000000; fill-opacity:1.0000;stroke:#000000; stroke-opacity:1.0000;
stroke-linecap:round; stroke-linejoin:round;"
 transform="translate(0 0) scale(1 1)">
<path style="fill:none;
stroke:#000000; stroke-width:0.0878; stroke-opacity:1;
stroke-linecap:round; stroke-linejoin:round;fill:none"
d="M 88.7865,6.4490
88.7874,6.3800
88.8009,6.2427
88.8278,6.1074
88.8679,5.9753
88.9207,5.8479
88.9857,5.7262
89.0624,5.6115
89.1499,5.5048
89.2474,5.4073
89.3541,5.3197
89.4688,5.2431
89.5905,5.1780
89.7180,5.1252
89.8500,5.0852
89.9853,5.0583
90.1226,5.0448
90.1916,5.0439
206.8106,5.0439
206.8796,5.0448
207.0169,5.0583
207.1522,5.0852
207.2842,5.1252
207.4117,5.1780
207.5334,5.2431
207.6481,5.3197
207.7548,5.4073
207.8523,5.5048
207.9398,5.6115
208.0165,5.7262
208.0815,5.8479
208.1343,5.9753
208.1744,6.1074
208.2013,6.2427
208.2148,6.3800
208.2157,6.4490
208.2157,119.5554
208.2148,119.6243
208.2013,119.7617
208.1744,119.8970
208.1343,120.0290
208.0815,120.1565
208.0165,120.2781
207.9398,120.3929
207.8523,120.4995
207.7548,120.5971
207.6481,120.6846
207.5334,120.7612
207.4117,120.8263
207.2842,120.8791
207.1522,120.9191
207.0169,120.9460
206.8796,120.9596
206.8106,120.9604
90.1916,120.9604
90.1226,120.9596
89.9853,120.9460
89.8500,120.9191
89.7180,120.8791
89.5905,120.8263
89.4688,120.7612
89.3541,120.6846
89.2474,120.5971
89.1499,120.4995
89.0624,120.3929
88.9857,120.2781
88.9207,120.1565
88.8679,120.0290
88.8278,119.8970
88.8009,119.7617
88.7874,119.6243
88.7865,119.5554
Z" />
</g>
<g style="fill:none;
stroke:#000000; stroke-width:0.5620; stroke-opacity:1;
stroke-linecap:round; stroke-linejoin:round;">
<path d="M92.1235 8.3809
L97.7437 14.0011
" />
<path d="M97.7437 8.3809
L92.1235 14.0011
" />
<path d="M92.1235 112.0032
L97.7437 117.6234
" />
<path d="M97.7437 112.0032
L92.1235 117.6234
" />
<path d="M199.2585 8.3809
L204.8787 14.0011
" />
<path d="M204.8787 8.3809
L199.2585 14.0011
" />
<path d="M199.2585 112.0032
L204.8787 117.6234
" />
<path d="M204.8787 112.0032
L199.2585 117.6234
" />
</g>
<g style="fill:none;
stroke:#000000; stroke-width:0.2000; stroke-opacity:1;
stroke-linecap:round; stroke-linejoin:round;">
<text x="90.7426" y="124.2043"
textLength="14.8667" font-size="2.6667" lengthAdjust="spacingAndGlyphs"
text-anchor="start" opacity="0" stroke-opacity="0">Drill Map:</text>
<g class="stroked-text"><desc>Drill Map:</desc>
<path d="M91.3504 124.1192
L91.3504 122.1192
" />
<path d="M91.3504 122.1192
L91.8266 122.1192
" />
<path d="M91.8266 122.1192
L92.1123 122.2144
" />
<path d="M92.1123 122.2144
L92.3028 122.4049
" />
<path d="M92.3028 122.4049
L92.3980 122.5953
" />
<path d="M92.3980 122.5953
L92.4933 122.9763
" />
<path d="M92.4933 122.9763
L92.4933 123.2620
" />
<path d="M92.4933 123.2620
L92.3980 123.6430
" />
<path d="M92.3980 123.6430
L92.3028 123.8334
" />
<path d="M92.3028 123.8334
L92.1123 124.0239
" />
<path d="M92.1123 124.0239
L91.8266 124.1192
" />
<path d="M91.8266 124.1192
L91.3504 124.1192
" />
<path d="M93.3504 124.1192
L93.3504 122.7858
" />
<path d="M93.3504 123.1668
L93.4456 122.9763
" />
<path d="M93.4456 122.9763
L93.5409 122.8811
" />
<path d="M93.5409 122.8811
L93.7314 122.7858
" />
<path d="M93.7314 122.7858
L93.9218 122.7858
" />
<path d="M94.5885 124.1192
L94.5885 122.7858
" />
<path d="M94.5885 122.1192
L94.4933 122.2144
" />
<path d="M94.4933 122.2144
L94.5885 122.3096
" />
<path d="M94.5885 122.3096
L94.6837 122.2144
" />
<path d="M94.6837 122.2144
L94.5885 122.1192
" />
<path d="M94.5885 122.1192
L94.5885 122.3096
" />
<path d="M95.8266 124.1192
L95.6361 124.0239
" />
<path d="M95.6361 124.0239
L95.5409 123.8334
" />
<path d="M95.5409 123.8334
L95.5409 122.1192
" />
<path d="M96.8742 124.1192
L96.6837 124.0239
" />
<path d="M96.6837 124.0239
L96.5885 123.8334
" />
<path d="M96.5885 123.8334
L96.5885 122.1192
" />
<path d="M99.1599 124.1192
L99.1599 122.1192
" />
<path d="M99.1599 122.1192
L99.8266 123.5477
" />
<path d="M99.8266 123.5477
L100.4933 122.1192
" />
<path d="M100.4933 122.1192
L100.4933 124.1192
" />
<path d="M102.3028 124.1192
L102.3028 123.0715
" />
<path d="M102.3028 123.0715
L102.2075 122.8811
" />
<path d="M102.2075 122.8811
L102.0171 122.7858
" />
<path d="M102.0171 122.7858
L101.6361 122.7858
" />
<path d="M101.6361 122.7858
L101.4456 122.8811
" />
<path d="M102.3028 124.0239
L102.1123 124.1192
" />
<path d="M102.1123 124.1192
L101.6361 124.1192
" />
<path d="M101.6361 124.1192
L101.4456 124.0239
" />
<path d="M101.4456 124.0239
L101.3504 123.8334
" />
<path d="M101.3504 123.8334
L101.3504 123.6430
" />
<path d="M101.3504 123.6430
L101.4456 123.4525
" />
<path d="M101.4456 123.4525
L101.6361 123.3573
" />
<path d="M101.6361 123.3573
L102.1123 123.3573
" />
<path d="M102.1123 123.3573
L102.3028 123.2620
" />
<path d="M103.2552 122.7858
L103.2552 124.7858
" />
<path d="M103.2552 122.8811
L103.4456 122.7858
" />
<path d="M103.4456 122.7858
L103.8266 122.7858
" />
<path d="M103.8266 122.7858
L104.0171 122.8811
" />
<path d="M104.0171 122.8811
L104.1123 122.9763
" />
<path d="M104.1123 122.9763
L104.2075 123.1668
" />
<path d="M104.2075 123.1668
L104.2075 123.7382
" />
<path d="M104.2075 123.7382
L104.1123 123.9287
" />
<path d="M104.1123 123.9287
L104.0171 124.0239
" />
<path d="M104.0171 124.0239
L103.8266 124.1192
" />
<path d="M103.8266 124.1192
L103.4456 124.1192
" />
<path d="M103.4456 124.1192
L103.2552 124.0239
" />
<path d="M105.0647 123.9287
L105.1599 124.0239
" />
<path d="M105.1599 124.0239
L105.0647 124.1192
" />
<path d="M105.0647 124.1192
L104.9694 124.0239
" />
<path d="M104.9694 124.0239
L105.0647 123.9287
" />
<path d="M105.0647 123.9287
L105.0647 124.1192
" />
<path d="M105.0647 122.8811
L105.1599 122.9763
" />
<path d="M105.1599 122.9763
L105.0647 123.0715
" />
<path d="M105.0647 123.0715
L104.9694 122.9763
" />
<path d="M104.9694 122.9763
L105.0647 122.8811
" />
<path d="M105.0647 122.8811
L105.0647 123.0715
" />
</g><path d="M86.7426 126.4043
L88.7426 128.4043
" />
<path d="M88.7426 126.4043
L86.7426 128.4043
" />
</g>
<g style="fill:none;
stroke:#000000; stroke-width:0.2000; stroke-opacity:1;
stroke-linecap:round; stroke-linejoin:round;">
<text x="90.7426" y="128.4043"
textLength="66.6762" font-size="2.6667" lengthAdjust="spacingAndGlyphs"
text-anchor="start" opacity="0" stroke-opacity="0">3.200mm / 0.1260" (4 holes) (not plated)</text>
<g class="stroked-text"><desc>3.200mm / 0.1260" (4 holes) (not plated)</desc>
<path d="M91.1599 126.3192
L92.3980 126.3192
" />
<path d="M92.3980 126.3192
L91.7313 127.0811
" />
<path d="M91.7313 127.0811
L92.0171 127.0811
" />
<path d="M92.0171 127.0811
L92.2075 127.1763
" />
<path d="M92.2075 127.1763
L92.3028 127.2715
" />
<path d="M92.3028 127.2715
L92.3980 127.4620
" />
<path d="M92.3980 127.4620
L92.3980 127.9382
" />
<path d="M92.3980 127.9382
L92.3028 128.1287
" />
<path d="M92.3028 128.1287
L92.2075 128.2239
" />
<path d="M92.2075 128.2239
L92.0171 128.3192
" />
<path d="M92.0171 128.3192
L91.4456 128.3192
" />
<path d="M91.4456 128.3192
L91.2552 128.2239
" />
<path d="M91.2552 128.2239
L91.1599 128.1287
" />
<path d="M93.2552 128.1287
L93.3504 128.2239
" />
<path d="M93.3504 128.2239
L93.2552 128.3192
" />
<path d="M93.2552 128.3192
L93.1599 128.2239
" />
<path d="M93.1599 128.2239
L93.2552 128.1287
" />
<path d="M93.2552 128.1287
L93.2552 128.3192
" />
<path d="M94.1123 126.5096
L94.2075 126.4144
" />
<path d="M94.2075 126.4144
L94.3980 126.3192
" />
<path d="M94.3980 126.3192
L94.8742 126.3192
" />
<path d="M94.8742 126.3192
L95.0647 126.4144
" />
<path d="M95.0647 126.4144
L95.1599 126.5096
" />
<path d="M95.1599 126.5096
L95.2552 126.7001
" />
<path d="M95.2552 126.7001
L95.2552 126.8906
" />
<path d="M95.2552 126.8906
L95.1599 127.1763
" />
<path d="M95.1599 127.1763
L94.0171 128.3192
" />
<path d="M94.0171 128.3192
L95.2552 128.3192
" />
<path d="M96.4933 126.3192
L96.6837 126.3192
" />
<path d="M96.6837 126.3192
L96.8742 126.4144
" />
<path d="M96.8742 126.4144
L96.9694 126.5096
" />
<path d="M96.9694 126.5096
L97.0647 126.7001
" />
<path d="M97.0647 126.7001
L97.1599 127.0811
" />
<path d="M97.1599 127.0811
L97.1599 127.5573
" />
<path d="M97.1599 127.5573
L97.0647 127.9382
" />
<path d="M97.0647 127.9382
L96.9694 128.1287
" />
<path d="M96.9694 128.1287
L96.8742 128.2239
" />
<path d="M96.8742 128.2239
L96.6837 128.3192
" />
<path d="M96.6837 128.3192
L96.4933 128.3192
" />
<path d="M96.4933 128.3192
L96.3028 128.2239
" />
<path d="M96.3028 128.2239
L96.2075 128.1287
" />
<path d="M96.2075 128.1287
L96.1123 127.9382
" />
<path d="M96.1123 127.9382
L96.0171 127.5573
" />
<path d="M96.0171 127.5573
L96.0171 127.0811
" />
<path d="M96.0171 127.0811
L96.1123 126.7001
" />
<path d="M96.1123 126.7001
L96.2075 126.5096
" />
<path d="M96.2075 126.5096
L96.3028 126.4144
" />
<path d="M96.3028 126.4144
L96.4933 126.3192
" />
<path d="M98.3980 126.3192
L98.5885 126.3192
" />
<path d="M98.5885 126.3192
L98.7790 126.4144
" />
<path d="M98.7790 126.4144
L98.8742 126.5096
" />
<path d="M98.8742 126.5096
L98.9694 126.7001
" />
<path d="M98.9694 126.7001
L99.0647 127.0811
" />
<path d="M99.0647 127.0811
L99.0647 127.5573
" />
<path d="M99.0647 127.5573
L98.9694 127.9382
" />
<path d="M98.9694 127.9382
L98.8742 128.1287
" />
<path d="M98.8742 128.1287
L98.7790 128.2239
" />
<path d="M98.7790 128.2239
L98.5885 128.3192
" />
<path d="M98.5885 128.3192
L98.3980 128.3192
" />
<path d="M98.3980 128.3192
L98.2075 128.2239
" />
<path d="M98.2075 128.2239
L98.1123 128.1287
" />
<path d="M98.1123 128.1287
L98.0171 127.9382
" />
<path d="M98.0171 127.9382
L97.9218 127.5573
" />
<path d="M97.9218 127.5573
L97.9218 127.0811
" />
<path d="M97.9218 127.0811
L98.0171 126.7001
" />
<path d="M98.0171 126.7001
L98.1123 126.5096
" />
<path d="M98.1123 126.5096
L98.2075 126.4144
" />
<path d="M98.2075 126.4144
L98.3980 126.3192
" />
<path d="M99.9218 128.3192
L99.9218 126.9858
" />
<path d="M99.9218 127.1763
L100.0171 127.0811
" />
<path d="M100.0171 127.0811
L100.2075 126.9858
" />
<path d="M100.2075 126.9858
L100.4933 126.9858
" />
<path d="M100.4933 126.9858
L100.6837 127.0811
" />
<path d="M100.6837 127.0811
L100.7790 127.2715
" />
<path d="M100.7790 127.2715
L100.7790 128.3192
" />
<path d="M100.7790 127.2715
L100.8742 127.0811
" />
<path d="M100.8742 127.0811
L101.0647 126.9858
" />
<path d="M101.0647 126.9858
L101.3504 126.9858
" />
<path d="M101.3504 126.9858
L101.5409 127.0811
" />
<path d="M101.5409 127.0811
L101.6361 127.2715
" />
<path d="M101.6361 127.2715
L101.6361 128.3192
" />
<path d="M102.5885 128.3192
L102.5885 126.9858
" />
<path d="M102.5885 127.1763
L102.6837 127.0811
" />
<path d="M102.6837 127.0811
L102.8742 126.9858
" />
<path d="M102.8742 126.9858
L103.1599 126.9858
" />
<path d="M103.1599 126.9858
L103.3504 127.0811
" />
<path d="M103.3504 127.0811
L103.4456 127.2715
" />
<path d="M103.4456 127.2715
L103.4456 128.3192
" />
<path d="M103.4456 127.2715
L103.5409 127.0811
" />
<path d="M103.5409 127.0811
L103.7314 126.9858
" />
<path d="M103.7314 126.9858
L104.0171 126.9858
" />
<path d="M104.0171 126.9858
L104.2075 127.0811
" />
<path d="M104.2075 127.0811
L104.3028 127.2715
" />
<path d="M104.3028 127.2715
L104.3028 128.3192
" />
<path d="M108.2075 126.2239
L106.4933 128.7953
" />
<path d="M110.7790 126.3192
L110.9695 126.3192
" />
<path d="M110.9695 126.3192
L111.1599 126.4144
" />
<path d="M111.1599 126.4144
L111.2552 126.5096
" />
<path d="M111.2552 126.5096
L111.3504 126.7001
" />
<path d="M111.3504 126.7001
L111.4456 127.0811
" />
<path d="M111.4456 127.0811
L111.4456 127.5573
" />
<path d="M111.4456 127.5573
L111.3504 127.9382
" />
<path d="M111.3504 127.9382
L111.2552 128.1287
" />
<path d="M111.2552 128.1287
L111.1599 128.2239
" />
<path d="M111.1599 128.2239
L110.9695 128.3192
" />
<path d="M110.9695 128.3192
L110.7790 128.3192
" />
<path d="M110.7790 128.3192
L110.5885 128.2239
" />
<path d="M110.5885 128.2239
L110.4933 128.1287
" />
<path d="M110.4933 128.1287
L110.3980 127.9382
" />
<path d="M110.3980 127.9382
L110.3028 127.5573
" />
<path d="M110.3028 127.5573
L110.3028 127.0811
" />
<path d="M110.3028 127.0811
L110.3980 126.7001
" />
<path d="M110.3980 126.7001
L110.4933 126.5096
" />
<path d="M110.4933 126.5096
L110.5885 126.4144
" />
<path d="M110.5885 126.4144
L110.7790 126.3192
" />
<path d="M112.3028 128.1287
L112.3980 128.2239
" />
<path d="M112.3980 128.2239
L112.3028 128.3192
" />
<path d="M112.3028 128.3192
L112.2075 128.2239
" />
<path d="M112.2075 128.2239
L112.3028 128.1287
" />
<path d="M112.3028 128.1287
L112.3028 128.3192
" />
<path d="M114.3028 128.3192
L113.1599 128.3192
" />
<path d="M113.7314 128.3192
L113.7314 126.3192
" />
<path d="M113.7314 126.3192
L113.5409 126.6049
" />
<path d="M113.5409 126.6049
L113.3504 126.7953
" />
<path d="M113.3504 126.7953
L113.1599 126.8906
" />
<path d="M115.0647 126.5096
L115.1599 126.4144
" />
<path d="M115.1599 126.4144
L115.3504 126.3192
" />
<path d="M115.3504 126.3192
L115.8266 126.3192
" />
<path d="M115.8266 126.3192
L116.0171 126.4144
" />
<path d="M116.0171 126.4144
L116.1123 126.5096
" />
<path d="M116.1123 126.5096
L116.2075 126.7001
" />
<path d="M116.2075 126.7001
L116.2075 126.8906
" />
<path d="M116.2075 126.8906
L116.1123 127.1763
" />
<path d="M116.1123 127.1763
L114.9695 128.3192
" />
<path d="M114.9695 128.3192
L116.2075 128.3192
" />
<path d="M117.9218 126.3192
L117.5409 126.3192
" />
<path d="M117.5409 126.3192
L117.3504 126.4144
" />
<path d="M117.3504 126.4144
L117.2552 126.5096
" />
<path d="M117.2552 126.5096
L117.0647 126.7953
" />
<path d="M117.0647 126.7953
L116.9695 127.1763
" />
<path d="M116.9695 127.1763
L116.9695 127.9382
" />
<path d="M116.9695 127.9382
L117.0647 128.1287
" />
<path d="M117.0647 128.1287
L117.1599 128.2239
" />
<path d="M117.1599 128.2239
L117.3504 128.3192
" />
<path d="M117.3504 128.3192
L117.7314 128.3192
" />
<path d="M117.7314 128.3192
L117.9218 128.2239
" />
<path d="M117.9218 128.2239
L118.0171 128.1287
" />
<path d="M118.0171 128.1287
L118.1123 127.9382
" />
<path d="M118.1123 127.9382
L118.1123 127.4620
" />
<path d="M118.1123 127.4620
L118.0171 127.2715
" />
<path d="M118.0171 127.2715
L117.9218 127.1763
" />
<path d="M117.9218 127.1763
L117.7314 127.0811
" />
<path d="M117.7314 127.0811
L117.3504 127.0811
" />
<path d="M117.3504 127.0811
L117.1599 127.1763
" />
<path d="M117.1599 127.1763
L117.0647 127.2715
" />
<path d="M117.0647 127.2715
L116.9695 127.4620
" />
<path d="M119.3504 126.3192
L119.5409 126.3192
" />
<path d="M119.5409 126.3192
L119.7314 126.4144
" />
<path d="M119.7314 126.4144
L119.8266 126.5096
" />
<path d="M119.8266 126.5096
L119.9218 126.7001
" />
<path d="M119.9218 126.7001
L120.0171 127.0811
" />
<path d="M120.0171 127.0811
L120.0171 127.5573
" />
<path d="M120.0171 127.5573
L119.9218 127.9382
" />
<path d="M119.9218 127.9382
L119.8266 128.1287
" />
<path d="M119.8266 128.1287
L119.7314 128.2239
" />
<path d="M119.7314 128.2239
L119.5409 128.3192
" />
<path d="M119.5409 128.3192
L119.3504 128.3192
" />
<path d="M119.3504 128.3192
L119.1599 128.2239
" />
<path d="M119.1599 128.2239
L119.0647 128.1287
" />
<path d="M119.0647 128.1287
L118.9695 127.9382
" />
<path d="M118.9695 127.9382
L118.8742 127.5573
" />
<path d="M118.8742 127.5573
L118.8742 127.0811
" />
<path d="M118.8742 127.0811
L118.9695 126.7001
" />
<path d="M118.9695 126.7001
L119.0647 126.5096
" />
<path d="M119.0647 126.5096
L119.1599 126.4144
" />
<path d="M119.1599 126.4144
L119.3504 126.3192
" />
<path d="M120.7790 126.3192
L120.7790 126.7001
" />
<path d="M121.5409 126.3192
L121.5409 126.7001
" />
<path d="M124.4933 129.0811
L124.3980 128.9858
" />
<path d="M124.3980 128.9858
L124.2076 128.7001
" />
<path d="M124.2076 128.7001
L124.1123 128.5096
" />
<path d="M124.1123 128.5096
L124.0171 128.2239
" />
<path d="M124.0171 128.2239
L123.9218 127.7477
" />
<path d="M123.9218 127.7477
L123.9218 127.3668
" />
<path d="M123.9218 127.3668
L124.0171 126.8906
" />
<path d="M124.0171 126.8906
L124.1123 126.6049
" />
<path d="M124.1123 126.6049
L124.2076 126.4144
" />
<path d="M124.2076 126.4144
L124.3980 126.1287
" />
<path d="M124.3980 126.1287
L124.4933 126.0334
" />
<path d="M126.1123 126.9858
L126.1123 128.3192
" />
<path d="M125.6361 126.2239
L125.1599 127.6525
" />
<path d="M125.1599 127.6525
L126.3980 127.6525
" />
<path d="M128.6837 128.3192
L128.6837 126.3192
" />
<path d="M129.5409 128.3192
L129.5409 127.2715
" />
<path d="M129.5409 127.2715
L129.4457 127.0811
" />
<path d="M129.4457 127.0811
L129.2552 126.9858
" />
<path d="M129.2552 126.9858
L128.9695 126.9858
" />
<path d="M128.9695 126.9858
L128.7790 127.0811
" />
<path d="M128.7790 127.0811
L128.6837 127.1763
" />
<path d="M130.7790 128.3192
L130.5885 128.2239
" />
<path d="M130.5885 128.2239
L130.4933 128.1287
" />
<path d="M130.4933 128.1287
L130.3980 127.9382
" />
<path d="M130.3980 127.9382
L130.3980 127.3668
" />
<path d="M130.3980 127.3668
L130.4933 127.1763
" />
<path d="M130.4933 127.1763
L130.5885 127.0811
" />
<path d="M130.5885 127.0811
L130.7790 126.9858
" />
<path d="M130.7790 126.9858
L131.0647 126.9858
" />
<path d="M131.0647 126.9858
L131.2552 127.0811
" />
<path d="M131.2552 127.0811
L131.3504 127.1763
" />
<path d="M131.3504 127.1763
L131.4457 127.3668
" />
<path d="M131.4457 127.3668
L131.4457 127.9382
" />
<path d="M131.4457 127.9382
L131.3504 128.1287
" />
<path d="M131.3504 128.1287
L131.2552 128.2239
" />
<path d="M131.2552 128.2239
L131.0647 128.3192
" />
<path d="M131.0647 128.3192
L130.7790 128.3192
" />
<path d="M132.5885 128.3192
L132.3980 128.2239
" />
<path d="M132.3980 128.2239
L132.3028 128.0334
" />
<path d="M132.3028 128.0334
L132.3028 126.3192
" />
<path d="M134.1123 128.2239
L133.9218 128.3192
" />
<path d="M133.9218 128.3192
L133.5409 128.3192
" />
<path d="M133.5409 128.3192
L133.3504 128.2239
" />
<path d="M133.3504 128.2239
L133.2552 128.0334
" />
<path d="M133.2552 128.0334
L133.2552 127.2715
" />
<path d="M133.2552 127.2715
L133.3504 127.0811
" />
<path d="M133.3504 127.0811
L133.5409 126.9858
" />
<path d="M133.5409 126.9858
L133.9218 126.9858
" />
<path d="M133.9218 126.9858
L134.1123 127.0811
" />
<path d="M134.1123 127.0811
L134.2076 127.2715
" />
<path d="M134.2076 127.2715
L134.2076 127.4620
" />
<path d="M134.2076 127.4620
L133.2552 127.6525
" />
<path d="M134.9695 128.2239
L135.1599 128.3192
" />
<path d="M135.1599 128.3192
L135.5409 128.3192
" />
<path d="M135.5409 128.3192
L135.7314 128.2239
" />
<path d="M135.7314 128.2239
L135.8266 128.0334
" />
<path d="M135.8266 128.0334
L135.8266 127.9382
" />
<path d="M135.8266 127.9382
L135.7314 127.7477
" />
<path d="M135.7314 127.7477
L135.5409 127.6525
" />
<path d="M135.5409 127.6525
L135.2552 127.6525
" />
<path d="M135.2552 127.6525
L135.0647 127.5573
" />
<path d="M135.0647 127.5573
L134.9695 127.3668
" />
<path d="M134.9695 127.3668
L134.9695 127.2715
" />
<path d="M134.9695 127.2715
L135.0647 127.0811
" />
<path d="M135.0647 127.0811
L135.2552 126.9858
" />
<path d="M135.2552 126.9858
L135.5409 126.9858
" />
<path d="M135.5409 126.9858
L135.7314 127.0811
" />
<path d="M136.4933 129.0811
L136.5885 128.9858
" />
<path d="M136.5885 128.9858
L136.7790 128.7001
" />
<path d="M136.7790 128.7001
L136.8742 128.5096
" />
<path d="M136.8742 128.5096
L136.9695 128.2239
" />
<path d="M136.9695 128.2239
L137.0647 127.7477
" />
<path d="M137.0647 127.7477
L137.0647 127.3668
" />
<path d="M137.0647 127.3668
L136.9695 126.8906
" />
<path d="M136.9695 126.8906
L136.8742 126.6049
" />
<path d="M136.8742 126.6049
L136.7790 126.4144
" />
<path d="M136.7790 126.4144
L136.5885 126.1287
" />
<path d="M136.5885 126.1287
L136.4933 126.0334
" />
<path d="M140.1123 129.0811
L140.0171 128.9858
" />
<path d="M140.0171 128.9858
L139.8266 128.7001
" />
<path d="M139.8266 128.7001
L139.7314 128.5096
" />
<path d="M139.7314 128.5096
L139.6361 128.2239
" />
<path d="M139.6361 128.2239
L139.5409 127.7477
" />
<path d="M139.5409 127.7477
L139.5409 127.3668
" />
<path d="M139.5409 127.3668
L139.6361 126.8906
" />
<path d="M139.6361 126.8906
L139.7314 126.6049
" />
<path d="M139.7314 126.6049
L139.8266 126.4144
" />
<path d="M139.8266 126.4144
L140.0171 126.1287
" />
<path d="M140.0171 126.1287
L140.1123 126.0334
" />
<path d="M140.8742 126.9858
L140.8742 128.3192
" />
<path d="M140.8742 127.1763
L140.9695 127.0811
" />
<path d="M140.9695 127.0811
L141.1599 126.9858
" />
<path d="M141.1599 126.9858
L141.4457 126.9858
" />
<path d="M141.4457 126.9858
L141.6361 127.0811
" />
<path d="M141.6361 127.0811
L141.7314 127.2715
" />
<path d="M141.7314 127.2715
L141.7314 128.3192
" />
<path d="M142.9695 128.3192
L142.7790 128.2239
" />
<path d="M142.7790 128.2239
L142.6838 128.1287
" />
<path d="M142.6838 128.1287
L142.5885 127.9382
" />
<path d="M142.5885 127.9382
L142.5885 127.3668
" />
<path d="M142.5885 127.3668
L142.6838 127.1763
" />
<path d="M142.6838 127.1763
L142.7790 127.0811
" />
<path d="M142.7790 127.0811
L142.9695 126.9858
" />
<path d="M142.9695 126.9858
L143.2552 126.9858
" />
<path d="M143.2552 126.9858
L143.4457 127.0811
" />
<path d="M143.4457 127.0811
L143.5409 127.1763
" />
<path d="M143.5409 127.1763
L143.6361 127.3668
" />
<path d="M143.6361 127.3668
L143.6361 127.9382
" />
<path d="M143.6361 127.9382
L143.5409 128.1287
" />
<path d="M143.5409 128.1287
L143.4457 128.2239
" />
<path d="M143.4457 128.2239
L143.2552 128.3192
" />
<path d="M143.2552 128.3192
L142.9695 128.3192
" />
<path d="M144.2076 126.9858
L144.9695 126.9858
" />
<path d="M144.4933 126.3192
L144.4933 128.0334
" />
<path d="M144.4933 128.0334
L144.5885 128.2239
" />
<path d="M144.5885 128.2239
L144.7790 128.3192
" />
<path d="M144.7790 128.3192
L144.9695 128.3192
" />
<path d="M147.1599 126.9858
L147.1599 128.9858
" />
<path d="M147.1599 127.0811
L147.3504 126.9858
" />
<path d="M147.3504 126.9858
L147.7314 126.9858
" />
<path d="M147.7314 126.9858
L147.9218 127.0811
" />
<path d="M147.9218 127.0811
L148.0171 127.1763
" />
<path d="M148.0171 127.1763
L148.1123 127.3668
" />
<path d="M148.1123 127.3668
L148.1123 127.9382
" />
<path d="M148.1123 127.9382
L148.0171 128.1287
" />
<path d="M148.0171 128.1287
L147.9218 128.2239
" />
<path d="M147.9218 128.2239
L147.7314 128.3192
" />
<path d="M147.7314 128.3192
L147.3504 128.3192
" />
<path d="M147.3504 128.3192
L147.1599 128.2239
" />
<path d="M149.2552 128.3192
L149.0647 128.2239
" />
<path d="M149.0647 128.2239
L148.9695 128.0334
" />
<path d="M148.9695 128.0334
L148.9695 126.3192
" />
<path d="M150.8742 128.3192
L150.8742 127.2715
" />
<path d="M150.8742 127.2715
L150.7790 127.0811
" />
<path d="M150.7790 127.0811
L150.5885 126.9858
" />
<path d="M150.5885 126.9858
L150.2076 126.9858
" />
<path d="M150.2076 126.9858
L150.0171 127.0811
" />
<path d="M150.8742 128.2239
L150.6838 128.3192
" />
<path d="M150.6838 128.3192
L150.2076 128.3192
" />
<path d="M150.2076 128.3192
L150.0171 128.2239
" />
<path d="M150.0171 128.2239
L149.9218 128.0334
" />
<path d="M149.9218 128.0334
L149.9218 127.8430
" />
<path d="M149.9218 127.8430
L150.0171 127.6525
" />
<path d="M150.0171 127.6525
L150.2076 127.5573
" />
<path d="M150.2076 127.5573
L150.6838 127.5573
" />
<path d="M150.6838 127.5573
L150.8742 127.4620
" />
<path d="M151.5409 126.9858
L152.3028 126.9858
" />
<path d="M151.8266 126.3192
L151.8266 128.0334
" />
<path d="M151.8266 128.0334
L151.9219 128.2239
" />
<path d="M151.9219 128.2239
L152.1123 128.3192
" />
<path d="M152.1123 128.3192
L152.3028 128.3192
" />
<path d="M153.7314 128.2239
L153.5409 128.3192
" />
<path d="M153.5409 128.3192
L153.1599 128.3192
" />
<path d="M153.1599 128.3192
L152.9695 128.2239
" />
<path d="M152.9695 128.2239
L152.8742 128.0334
" />
<path d="M152.8742 128.0334
L152.8742 127.2715
" />
<path d="M152.8742 127.2715
L152.9695 127.0811
" />
<path d="M152.9695 127.0811
L153.1599 126.9858
" />
<path d="M153.1599 126.9858
L153.5409 126.9858
" />
<path d="M153.5409 126.9858
L153.7314 127.0811
" />
<path d="M153.7314 127.0811
L153.8266 127.2715
" />
<path d="M153.8266 127.2715
L153.8266 127.4620
" />
<path d="M153.8266 127.4620
L152.8742 127.6525
" />
<path d="M155.5409 128.3192
L155.5409 126.3192
" />
<path d="M155.5409 128.2239
L155.3504 128.3192
" />
<path d="M155.3504 128.3192
L154.9695 128.3192
" />
<path d="M154.9695 128.3192
L154.7790 128.2239
" />
<path d="M154.7790 128.2239
L154.6838 128.1287
" />
<path d="M154.6838 128.1287
L154.5885 127.9382
" />
<path d="M154.5885 127.9382
L154.5885 127.3668
" />
<path d="M154.5885 127.3668
L154.6838 127.1763
" />
<path d="M154.6838 127.1763
L154.7790 127.0811
" />
<path d="M154.7790 127.0811
L154.9695 126.9858
" />
<path d="M154.9695 126.9858
L155.3504 126.9858
" />
<path d="M155.3504 126.9858
L155.5409 127.0811
" />
<path d="M156.3028 129.0811
L156.3980 128.9858
" />
<path d="M156.3980 128.9858
L156.5885 128.7001
" />
<path d="M156.5885 128.7001
L156.6838 128.5096
" />
<path d="M156.6838 128.5096
L156.7790 128.2239
" />
<path d="M156.7790 128.2239
L156.8742 127.7477
" />
<path d="M156.8742 127.7477
L156.8742 127.3668
" />
<path d="M156.8742 127.3668
L156.7790 126.8906
" />
<path d="M156.7790 126.8906
L156.6838 126.6049
" />
<path d="M156.6838 126.6049
L156.5885 126.4144
" />
<path d="M156.5885 126.4144
L156.3980 126.1287
" />
<path d="M156.3980 126.1287
L156.3028 126.0334
" />
</g></g>
</svg>
