%TF.GenerationSoftware,KiCad,Pcbnew,10.0.5*%
%TF.CreationDate,2026-08-12T21:24:19-04:00*%
%TF.ProjectId,rainpoint_carrier,7261696e-706f-4696-9e74-5f6361727269,A*%
%TF.SameCoordinates,Original*%
%TF.FileFunction,Soldermask,Top*%
%TF.FilePolarity,Negative*%
%FSLAX46Y46*%
G04 Gerber Fmt 4.6, Leading zero omitted, Abs format (unit mm)*
G04 Created by KiCad (PCBNEW 10.0.5) date 2026-08-12 21:24:19*
%MOMM*%
%LPD*%
G01*
G04 APERTURE LIST*
%ADD10R,2.000000X2.000000*%
%ADD11C,2.000000*%
%ADD12C,3.200000*%
G04 APERTURE END LIST*
D10*
%TO.C,J1*%
X109680000Y-105990000D03*
D11*
X109680000Y-103450000D03*
X109680000Y-100910000D03*
X109680000Y-98370000D03*
X109680000Y-95830000D03*
X109680000Y-93290000D03*
X109680000Y-90750000D03*
X109680000Y-88210000D03*
X109680000Y-85670000D03*
X109680000Y-83130000D03*
X109680000Y-80590000D03*
X109680000Y-78050000D03*
X109680000Y-75510000D03*
X109680000Y-72970000D03*
X109680000Y-70430000D03*
%TD*%
D10*
%TO.C,J2*%
X135079999Y-105990000D03*
D11*
X135079999Y-103450000D03*
X135079999Y-100910000D03*
X135079999Y-98370000D03*
X135079999Y-95830000D03*
X135079999Y-93290000D03*
X135079999Y-90750000D03*
X135079999Y-88210000D03*
X135079999Y-85670000D03*
X135079999Y-83130000D03*
X135079999Y-80590000D03*
X135079999Y-78050000D03*
X135079999Y-75510000D03*
X135079999Y-72970000D03*
X135079999Y-70430000D03*
%TD*%
D10*
%TO.C,J3*%
X141000000Y-86810000D03*
D11*
X143540000Y-86810000D03*
X141000000Y-84270000D03*
X143540000Y-84270000D03*
X141000000Y-81730000D03*
X143540000Y-81730000D03*
X141000000Y-79190000D03*
X143540000Y-79190000D03*
%TD*%
D12*
%TO.C,H1*%
X103500000Y-112500000D03*
%TD*%
%TO.C,H3*%
X103500000Y-53500000D03*
%TD*%
%TO.C,H4*%
X164500000Y-53500000D03*
%TD*%
%TO.C,H2*%
X164500000Y-112500000D03*
%TD*%
M02*
