%TF.GenerationSoftware,KiCad,Pcbnew,10.0.5*%
%TF.CreationDate,2026-08-12T21:24:19-04:00*%
%TF.ProjectId,rainpoint_carrier,7261696e-706f-4696-9e74-5f6361727269,A*%
%TF.SameCoordinates,Original*%
%TF.FileFunction,Legend,Top*%
%TF.FilePolarity,Positive*%
%FSLAX46Y46*%
G04 Gerber Fmt 4.6, Leading zero omitted, Abs format (unit mm)*
G04 Created by KiCad (PCBNEW 10.0.5) date 2026-08-12 21:24:19*
%MOMM*%
%LPD*%
G01*
G04 APERTURE LIST*
%ADD10C,0.200000*%
%ADD11C,0.150000*%
G04 APERTURE END LIST*
D10*
X108000000Y-57260000D02*
X137000000Y-57260000D01*
X137000000Y-109000000D01*
X108000000Y-109000000D01*
X108000000Y-57260000D01*
X139000000Y-75500000D02*
X167000000Y-75500000D01*
X167000000Y-90500000D01*
X139000000Y-90500000D01*
X139000000Y-75500000D01*
D11*
X113395238Y-52062295D02*
X113585714Y-52862295D01*
X113585714Y-52862295D02*
X113738095Y-52290866D01*
X113738095Y-52290866D02*
X113890476Y-52862295D01*
X113890476Y-52862295D02*
X114080953Y-52062295D01*
X114385715Y-52862295D02*
X114385715Y-52062295D01*
X114766667Y-52557533D02*
X115376191Y-52557533D01*
X116023809Y-52443247D02*
X115757143Y-52443247D01*
X115757143Y-52862295D02*
X115757143Y-52062295D01*
X115757143Y-52062295D02*
X116138095Y-52062295D01*
X116442857Y-52862295D02*
X116442857Y-52062295D01*
X117395237Y-52633723D02*
X117776190Y-52633723D01*
X117319047Y-52862295D02*
X117585714Y-52062295D01*
X117585714Y-52062295D02*
X117852380Y-52862295D01*
X118119047Y-52862295D02*
X118119047Y-52062295D01*
X118119047Y-52062295D02*
X118576190Y-52862295D01*
X118576190Y-52862295D02*
X118576190Y-52062295D01*
X118842856Y-52062295D02*
X119299999Y-52062295D01*
X119071427Y-52862295D02*
X119071427Y-52062295D01*
X119566666Y-52443247D02*
X119833332Y-52443247D01*
X119947618Y-52862295D02*
X119566666Y-52862295D01*
X119566666Y-52862295D02*
X119566666Y-52062295D01*
X119566666Y-52062295D02*
X119947618Y-52062295D01*
X120290476Y-52862295D02*
X120290476Y-52062295D01*
X120290476Y-52062295D02*
X120747619Y-52862295D01*
X120747619Y-52862295D02*
X120747619Y-52062295D01*
X121128571Y-52862295D02*
X121128571Y-52062295D01*
X121128571Y-52062295D02*
X121585714Y-52862295D01*
X121585714Y-52862295D02*
X121585714Y-52062295D01*
X121928570Y-52633723D02*
X122309523Y-52633723D01*
X121852380Y-52862295D02*
X122119047Y-52062295D01*
X122119047Y-52062295D02*
X122385713Y-52862295D01*
X123261904Y-52557533D02*
X123871428Y-52557533D01*
X124861904Y-52862295D02*
X124861904Y-52062295D01*
X124861904Y-52062295D02*
X125319047Y-52862295D01*
X125319047Y-52862295D02*
X125319047Y-52062295D01*
X125852380Y-52062295D02*
X126004761Y-52062295D01*
X126004761Y-52062295D02*
X126080951Y-52100390D01*
X126080951Y-52100390D02*
X126157142Y-52176580D01*
X126157142Y-52176580D02*
X126195237Y-52328961D01*
X126195237Y-52328961D02*
X126195237Y-52595628D01*
X126195237Y-52595628D02*
X126157142Y-52748009D01*
X126157142Y-52748009D02*
X126080951Y-52824200D01*
X126080951Y-52824200D02*
X126004761Y-52862295D01*
X126004761Y-52862295D02*
X125852380Y-52862295D01*
X125852380Y-52862295D02*
X125776189Y-52824200D01*
X125776189Y-52824200D02*
X125699999Y-52748009D01*
X125699999Y-52748009D02*
X125661903Y-52595628D01*
X125661903Y-52595628D02*
X125661903Y-52328961D01*
X125661903Y-52328961D02*
X125699999Y-52176580D01*
X125699999Y-52176580D02*
X125776189Y-52100390D01*
X125776189Y-52100390D02*
X125852380Y-52062295D01*
X127604761Y-52786104D02*
X127566665Y-52824200D01*
X127566665Y-52824200D02*
X127452380Y-52862295D01*
X127452380Y-52862295D02*
X127376189Y-52862295D01*
X127376189Y-52862295D02*
X127261903Y-52824200D01*
X127261903Y-52824200D02*
X127185713Y-52748009D01*
X127185713Y-52748009D02*
X127147618Y-52671819D01*
X127147618Y-52671819D02*
X127109522Y-52519438D01*
X127109522Y-52519438D02*
X127109522Y-52405152D01*
X127109522Y-52405152D02*
X127147618Y-52252771D01*
X127147618Y-52252771D02*
X127185713Y-52176580D01*
X127185713Y-52176580D02*
X127261903Y-52100390D01*
X127261903Y-52100390D02*
X127376189Y-52062295D01*
X127376189Y-52062295D02*
X127452380Y-52062295D01*
X127452380Y-52062295D02*
X127566665Y-52100390D01*
X127566665Y-52100390D02*
X127604761Y-52138485D01*
X128099999Y-52062295D02*
X128252380Y-52062295D01*
X128252380Y-52062295D02*
X128328570Y-52100390D01*
X128328570Y-52100390D02*
X128404761Y-52176580D01*
X128404761Y-52176580D02*
X128442856Y-52328961D01*
X128442856Y-52328961D02*
X128442856Y-52595628D01*
X128442856Y-52595628D02*
X128404761Y-52748009D01*
X128404761Y-52748009D02*
X128328570Y-52824200D01*
X128328570Y-52824200D02*
X128252380Y-52862295D01*
X128252380Y-52862295D02*
X128099999Y-52862295D01*
X128099999Y-52862295D02*
X128023808Y-52824200D01*
X128023808Y-52824200D02*
X127947618Y-52748009D01*
X127947618Y-52748009D02*
X127909522Y-52595628D01*
X127909522Y-52595628D02*
X127909522Y-52328961D01*
X127909522Y-52328961D02*
X127947618Y-52176580D01*
X127947618Y-52176580D02*
X128023808Y-52100390D01*
X128023808Y-52100390D02*
X128099999Y-52062295D01*
X128785713Y-52862295D02*
X128785713Y-52062295D01*
X128785713Y-52062295D02*
X129090475Y-52062295D01*
X129090475Y-52062295D02*
X129166665Y-52100390D01*
X129166665Y-52100390D02*
X129204760Y-52138485D01*
X129204760Y-52138485D02*
X129242856Y-52214676D01*
X129242856Y-52214676D02*
X129242856Y-52328961D01*
X129242856Y-52328961D02*
X129204760Y-52405152D01*
X129204760Y-52405152D02*
X129166665Y-52443247D01*
X129166665Y-52443247D02*
X129090475Y-52481342D01*
X129090475Y-52481342D02*
X128785713Y-52481342D01*
X129585713Y-52862295D02*
X129585713Y-52062295D01*
X129585713Y-52062295D02*
X129890475Y-52062295D01*
X129890475Y-52062295D02*
X129966665Y-52100390D01*
X129966665Y-52100390D02*
X130004760Y-52138485D01*
X130004760Y-52138485D02*
X130042856Y-52214676D01*
X130042856Y-52214676D02*
X130042856Y-52328961D01*
X130042856Y-52328961D02*
X130004760Y-52405152D01*
X130004760Y-52405152D02*
X129966665Y-52443247D01*
X129966665Y-52443247D02*
X129890475Y-52481342D01*
X129890475Y-52481342D02*
X129585713Y-52481342D01*
X130385713Y-52443247D02*
X130652379Y-52443247D01*
X130766665Y-52862295D02*
X130385713Y-52862295D01*
X130385713Y-52862295D02*
X130385713Y-52062295D01*
X130385713Y-52062295D02*
X130766665Y-52062295D01*
X131566666Y-52862295D02*
X131299999Y-52481342D01*
X131109523Y-52862295D02*
X131109523Y-52062295D01*
X131109523Y-52062295D02*
X131414285Y-52062295D01*
X131414285Y-52062295D02*
X131490475Y-52100390D01*
X131490475Y-52100390D02*
X131528570Y-52138485D01*
X131528570Y-52138485D02*
X131566666Y-52214676D01*
X131566666Y-52214676D02*
X131566666Y-52328961D01*
X131566666Y-52328961D02*
X131528570Y-52405152D01*
X131528570Y-52405152D02*
X131490475Y-52443247D01*
X131490475Y-52443247D02*
X131414285Y-52481342D01*
X131414285Y-52481342D02*
X131109523Y-52481342D01*
X143200000Y-91562295D02*
X143695238Y-91562295D01*
X143695238Y-91562295D02*
X143428572Y-91867057D01*
X143428572Y-91867057D02*
X143542857Y-91867057D01*
X143542857Y-91867057D02*
X143619048Y-91905152D01*
X143619048Y-91905152D02*
X143657143Y-91943247D01*
X143657143Y-91943247D02*
X143695238Y-92019438D01*
X143695238Y-92019438D02*
X143695238Y-92209914D01*
X143695238Y-92209914D02*
X143657143Y-92286104D01*
X143657143Y-92286104D02*
X143619048Y-92324200D01*
X143619048Y-92324200D02*
X143542857Y-92362295D01*
X143542857Y-92362295D02*
X143314286Y-92362295D01*
X143314286Y-92362295D02*
X143238095Y-92324200D01*
X143238095Y-92324200D02*
X143200000Y-92286104D01*
X143923810Y-91562295D02*
X144190477Y-92362295D01*
X144190477Y-92362295D02*
X144457143Y-91562295D01*
X144647619Y-91562295D02*
X145142857Y-91562295D01*
X145142857Y-91562295D02*
X144876191Y-91867057D01*
X144876191Y-91867057D02*
X144990476Y-91867057D01*
X144990476Y-91867057D02*
X145066667Y-91905152D01*
X145066667Y-91905152D02*
X145104762Y-91943247D01*
X145104762Y-91943247D02*
X145142857Y-92019438D01*
X145142857Y-92019438D02*
X145142857Y-92209914D01*
X145142857Y-92209914D02*
X145104762Y-92286104D01*
X145104762Y-92286104D02*
X145066667Y-92324200D01*
X145066667Y-92324200D02*
X144990476Y-92362295D01*
X144990476Y-92362295D02*
X144761905Y-92362295D01*
X144761905Y-92362295D02*
X144685714Y-92324200D01*
X144685714Y-92324200D02*
X144647619Y-92286104D01*
X146247620Y-91562295D02*
X146400001Y-91562295D01*
X146400001Y-91562295D02*
X146476191Y-91600390D01*
X146476191Y-91600390D02*
X146552382Y-91676580D01*
X146552382Y-91676580D02*
X146590477Y-91828961D01*
X146590477Y-91828961D02*
X146590477Y-92095628D01*
X146590477Y-92095628D02*
X146552382Y-92248009D01*
X146552382Y-92248009D02*
X146476191Y-92324200D01*
X146476191Y-92324200D02*
X146400001Y-92362295D01*
X146400001Y-92362295D02*
X146247620Y-92362295D01*
X146247620Y-92362295D02*
X146171429Y-92324200D01*
X146171429Y-92324200D02*
X146095239Y-92248009D01*
X146095239Y-92248009D02*
X146057143Y-92095628D01*
X146057143Y-92095628D02*
X146057143Y-91828961D01*
X146057143Y-91828961D02*
X146095239Y-91676580D01*
X146095239Y-91676580D02*
X146171429Y-91600390D01*
X146171429Y-91600390D02*
X146247620Y-91562295D01*
X146933334Y-92362295D02*
X146933334Y-91562295D01*
X146933334Y-91562295D02*
X147390477Y-92362295D01*
X147390477Y-92362295D02*
X147390477Y-91562295D01*
X148152381Y-92362295D02*
X147771429Y-92362295D01*
X147771429Y-92362295D02*
X147771429Y-91562295D01*
X148571429Y-91981342D02*
X148571429Y-92362295D01*
X148304762Y-91562295D02*
X148571429Y-91981342D01*
X148571429Y-91981342D02*
X148838095Y-91562295D01*
X147676190Y-73628961D02*
X147676190Y-74162295D01*
X147485714Y-73324200D02*
X147295237Y-73895628D01*
X147295237Y-73895628D02*
X147790476Y-73895628D01*
X148019047Y-73362295D02*
X148514285Y-73362295D01*
X148514285Y-73362295D02*
X148247619Y-73667057D01*
X148247619Y-73667057D02*
X148361904Y-73667057D01*
X148361904Y-73667057D02*
X148438095Y-73705152D01*
X148438095Y-73705152D02*
X148476190Y-73743247D01*
X148476190Y-73743247D02*
X148514285Y-73819438D01*
X148514285Y-73819438D02*
X148514285Y-74009914D01*
X148514285Y-74009914D02*
X148476190Y-74086104D01*
X148476190Y-74086104D02*
X148438095Y-74124200D01*
X148438095Y-74124200D02*
X148361904Y-74162295D01*
X148361904Y-74162295D02*
X148133333Y-74162295D01*
X148133333Y-74162295D02*
X148057142Y-74124200D01*
X148057142Y-74124200D02*
X148019047Y-74086104D01*
X148780952Y-73362295D02*
X149276190Y-73362295D01*
X149276190Y-73362295D02*
X149009524Y-73667057D01*
X149009524Y-73667057D02*
X149123809Y-73667057D01*
X149123809Y-73667057D02*
X149200000Y-73705152D01*
X149200000Y-73705152D02*
X149238095Y-73743247D01*
X149238095Y-73743247D02*
X149276190Y-73819438D01*
X149276190Y-73819438D02*
X149276190Y-74009914D01*
X149276190Y-74009914D02*
X149238095Y-74086104D01*
X149238095Y-74086104D02*
X149200000Y-74124200D01*
X149200000Y-74124200D02*
X149123809Y-74162295D01*
X149123809Y-74162295D02*
X148895238Y-74162295D01*
X148895238Y-74162295D02*
X148819047Y-74124200D01*
X148819047Y-74124200D02*
X148780952Y-74086104D01*
X150228572Y-74162295D02*
X150228572Y-73362295D01*
X150228572Y-73362295D02*
X150495238Y-73933723D01*
X150495238Y-73933723D02*
X150761905Y-73362295D01*
X150761905Y-73362295D02*
X150761905Y-74162295D01*
X151142858Y-74162295D02*
X151142858Y-73362295D01*
X151142858Y-73743247D02*
X151600001Y-73743247D01*
X151600001Y-74162295D02*
X151600001Y-73362295D01*
X151904762Y-73628961D02*
X152323810Y-73628961D01*
X152323810Y-73628961D02*
X151904762Y-74162295D01*
X151904762Y-74162295D02*
X152323810Y-74162295D01*
X153200000Y-73933723D02*
X153580953Y-73933723D01*
X153123810Y-74162295D02*
X153390477Y-73362295D01*
X153390477Y-73362295D02*
X153657143Y-74162295D01*
X153923810Y-74162295D02*
X153923810Y-73362295D01*
X153923810Y-73362295D02*
X154380953Y-74162295D01*
X154380953Y-74162295D02*
X154380953Y-73362295D01*
X154647619Y-73362295D02*
X155104762Y-73362295D01*
X154876190Y-74162295D02*
X154876190Y-73362295D01*
X155371429Y-73743247D02*
X155638095Y-73743247D01*
X155752381Y-74162295D02*
X155371429Y-74162295D01*
X155371429Y-74162295D02*
X155371429Y-73362295D01*
X155371429Y-73362295D02*
X155752381Y-73362295D01*
X156095239Y-74162295D02*
X156095239Y-73362295D01*
X156095239Y-73362295D02*
X156552382Y-74162295D01*
X156552382Y-74162295D02*
X156552382Y-73362295D01*
X156933334Y-74162295D02*
X156933334Y-73362295D01*
X156933334Y-73362295D02*
X157390477Y-74162295D01*
X157390477Y-74162295D02*
X157390477Y-73362295D01*
X157733333Y-73933723D02*
X158114286Y-73933723D01*
X157657143Y-74162295D02*
X157923810Y-73362295D01*
X157923810Y-73362295D02*
X158190476Y-74162295D01*
X159066667Y-73857533D02*
X159676191Y-73857533D01*
X160057143Y-73628961D02*
X160666667Y-73857533D01*
X160666667Y-73857533D02*
X160057143Y-74086104D01*
X117914286Y-110008557D02*
X117914286Y-110737128D01*
X117914286Y-110737128D02*
X117957143Y-110822842D01*
X117957143Y-110822842D02*
X118000001Y-110865700D01*
X118000001Y-110865700D02*
X118085715Y-110908557D01*
X118085715Y-110908557D02*
X118257143Y-110908557D01*
X118257143Y-110908557D02*
X118342858Y-110865700D01*
X118342858Y-110865700D02*
X118385715Y-110822842D01*
X118385715Y-110822842D02*
X118428572Y-110737128D01*
X118428572Y-110737128D02*
X118428572Y-110008557D01*
X118814286Y-110865700D02*
X118942858Y-110908557D01*
X118942858Y-110908557D02*
X119157143Y-110908557D01*
X119157143Y-110908557D02*
X119242858Y-110865700D01*
X119242858Y-110865700D02*
X119285715Y-110822842D01*
X119285715Y-110822842D02*
X119328572Y-110737128D01*
X119328572Y-110737128D02*
X119328572Y-110651414D01*
X119328572Y-110651414D02*
X119285715Y-110565700D01*
X119285715Y-110565700D02*
X119242858Y-110522842D01*
X119242858Y-110522842D02*
X119157143Y-110479985D01*
X119157143Y-110479985D02*
X118985715Y-110437128D01*
X118985715Y-110437128D02*
X118900000Y-110394271D01*
X118900000Y-110394271D02*
X118857143Y-110351414D01*
X118857143Y-110351414D02*
X118814286Y-110265700D01*
X118814286Y-110265700D02*
X118814286Y-110179985D01*
X118814286Y-110179985D02*
X118857143Y-110094271D01*
X118857143Y-110094271D02*
X118900000Y-110051414D01*
X118900000Y-110051414D02*
X118985715Y-110008557D01*
X118985715Y-110008557D02*
X119200000Y-110008557D01*
X119200000Y-110008557D02*
X119328572Y-110051414D01*
X120014286Y-110437128D02*
X120142858Y-110479985D01*
X120142858Y-110479985D02*
X120185715Y-110522842D01*
X120185715Y-110522842D02*
X120228572Y-110608557D01*
X120228572Y-110608557D02*
X120228572Y-110737128D01*
X120228572Y-110737128D02*
X120185715Y-110822842D01*
X120185715Y-110822842D02*
X120142858Y-110865700D01*
X120142858Y-110865700D02*
X120057143Y-110908557D01*
X120057143Y-110908557D02*
X119714286Y-110908557D01*
X119714286Y-110908557D02*
X119714286Y-110008557D01*
X119714286Y-110008557D02*
X120014286Y-110008557D01*
X120014286Y-110008557D02*
X120100001Y-110051414D01*
X120100001Y-110051414D02*
X120142858Y-110094271D01*
X120142858Y-110094271D02*
X120185715Y-110179985D01*
X120185715Y-110179985D02*
X120185715Y-110265700D01*
X120185715Y-110265700D02*
X120142858Y-110351414D01*
X120142858Y-110351414D02*
X120100001Y-110394271D01*
X120100001Y-110394271D02*
X120014286Y-110437128D01*
X120014286Y-110437128D02*
X119714286Y-110437128D01*
X121942857Y-109965700D02*
X121171429Y-111122842D01*
X122928571Y-110908557D02*
X122928571Y-110008557D01*
X122928571Y-110008557D02*
X123271428Y-110008557D01*
X123271428Y-110008557D02*
X123357143Y-110051414D01*
X123357143Y-110051414D02*
X123400000Y-110094271D01*
X123400000Y-110094271D02*
X123442857Y-110179985D01*
X123442857Y-110179985D02*
X123442857Y-110308557D01*
X123442857Y-110308557D02*
X123400000Y-110394271D01*
X123400000Y-110394271D02*
X123357143Y-110437128D01*
X123357143Y-110437128D02*
X123271428Y-110479985D01*
X123271428Y-110479985D02*
X122928571Y-110479985D01*
X124000000Y-110008557D02*
X124171428Y-110008557D01*
X124171428Y-110008557D02*
X124257143Y-110051414D01*
X124257143Y-110051414D02*
X124342857Y-110137128D01*
X124342857Y-110137128D02*
X124385714Y-110308557D01*
X124385714Y-110308557D02*
X124385714Y-110608557D01*
X124385714Y-110608557D02*
X124342857Y-110779985D01*
X124342857Y-110779985D02*
X124257143Y-110865700D01*
X124257143Y-110865700D02*
X124171428Y-110908557D01*
X124171428Y-110908557D02*
X124000000Y-110908557D01*
X124000000Y-110908557D02*
X123914286Y-110865700D01*
X123914286Y-110865700D02*
X123828571Y-110779985D01*
X123828571Y-110779985D02*
X123785714Y-110608557D01*
X123785714Y-110608557D02*
X123785714Y-110308557D01*
X123785714Y-110308557D02*
X123828571Y-110137128D01*
X123828571Y-110137128D02*
X123914286Y-110051414D01*
X123914286Y-110051414D02*
X124000000Y-110008557D01*
X124685714Y-110008557D02*
X124900000Y-110908557D01*
X124900000Y-110908557D02*
X125071428Y-110265700D01*
X125071428Y-110265700D02*
X125242857Y-110908557D01*
X125242857Y-110908557D02*
X125457143Y-110008557D01*
X125799999Y-110437128D02*
X126099999Y-110437128D01*
X126228571Y-110908557D02*
X125799999Y-110908557D01*
X125799999Y-110908557D02*
X125799999Y-110008557D01*
X125799999Y-110008557D02*
X126228571Y-110008557D01*
X127128571Y-110908557D02*
X126828571Y-110479985D01*
X126614285Y-110908557D02*
X126614285Y-110008557D01*
X126614285Y-110008557D02*
X126957142Y-110008557D01*
X126957142Y-110008557D02*
X127042857Y-110051414D01*
X127042857Y-110051414D02*
X127085714Y-110094271D01*
X127085714Y-110094271D02*
X127128571Y-110179985D01*
X127128571Y-110179985D02*
X127128571Y-110308557D01*
X127128571Y-110308557D02*
X127085714Y-110394271D01*
X127085714Y-110394271D02*
X127042857Y-110437128D01*
X127042857Y-110437128D02*
X126957142Y-110479985D01*
X126957142Y-110479985D02*
X126614285Y-110479985D01*
X117142857Y-74931009D02*
X117476190Y-74931009D01*
X117619047Y-75454819D02*
X117142857Y-75454819D01*
X117142857Y-75454819D02*
X117142857Y-74454819D01*
X117142857Y-74454819D02*
X117619047Y-74454819D01*
X118000000Y-75407200D02*
X118142857Y-75454819D01*
X118142857Y-75454819D02*
X118380952Y-75454819D01*
X118380952Y-75454819D02*
X118476190Y-75407200D01*
X118476190Y-75407200D02*
X118523809Y-75359580D01*
X118523809Y-75359580D02*
X118571428Y-75264342D01*
X118571428Y-75264342D02*
X118571428Y-75169104D01*
X118571428Y-75169104D02*
X118523809Y-75073866D01*
X118523809Y-75073866D02*
X118476190Y-75026247D01*
X118476190Y-75026247D02*
X118380952Y-74978628D01*
X118380952Y-74978628D02*
X118190476Y-74931009D01*
X118190476Y-74931009D02*
X118095238Y-74883390D01*
X118095238Y-74883390D02*
X118047619Y-74835771D01*
X118047619Y-74835771D02*
X118000000Y-74740533D01*
X118000000Y-74740533D02*
X118000000Y-74645295D01*
X118000000Y-74645295D02*
X118047619Y-74550057D01*
X118047619Y-74550057D02*
X118095238Y-74502438D01*
X118095238Y-74502438D02*
X118190476Y-74454819D01*
X118190476Y-74454819D02*
X118428571Y-74454819D01*
X118428571Y-74454819D02*
X118571428Y-74502438D01*
X119000000Y-75454819D02*
X119000000Y-74454819D01*
X119000000Y-74454819D02*
X119380952Y-74454819D01*
X119380952Y-74454819D02*
X119476190Y-74502438D01*
X119476190Y-74502438D02*
X119523809Y-74550057D01*
X119523809Y-74550057D02*
X119571428Y-74645295D01*
X119571428Y-74645295D02*
X119571428Y-74788152D01*
X119571428Y-74788152D02*
X119523809Y-74883390D01*
X119523809Y-74883390D02*
X119476190Y-74931009D01*
X119476190Y-74931009D02*
X119380952Y-74978628D01*
X119380952Y-74978628D02*
X119000000Y-74978628D01*
X119904762Y-74454819D02*
X120523809Y-74454819D01*
X120523809Y-74454819D02*
X120190476Y-74835771D01*
X120190476Y-74835771D02*
X120333333Y-74835771D01*
X120333333Y-74835771D02*
X120428571Y-74883390D01*
X120428571Y-74883390D02*
X120476190Y-74931009D01*
X120476190Y-74931009D02*
X120523809Y-75026247D01*
X120523809Y-75026247D02*
X120523809Y-75264342D01*
X120523809Y-75264342D02*
X120476190Y-75359580D01*
X120476190Y-75359580D02*
X120428571Y-75407200D01*
X120428571Y-75407200D02*
X120333333Y-75454819D01*
X120333333Y-75454819D02*
X120047619Y-75454819D01*
X120047619Y-75454819D02*
X119952381Y-75407200D01*
X119952381Y-75407200D02*
X119904762Y-75359580D01*
X120904762Y-74550057D02*
X120952381Y-74502438D01*
X120952381Y-74502438D02*
X121047619Y-74454819D01*
X121047619Y-74454819D02*
X121285714Y-74454819D01*
X121285714Y-74454819D02*
X121380952Y-74502438D01*
X121380952Y-74502438D02*
X121428571Y-74550057D01*
X121428571Y-74550057D02*
X121476190Y-74645295D01*
X121476190Y-74645295D02*
X121476190Y-74740533D01*
X121476190Y-74740533D02*
X121428571Y-74883390D01*
X121428571Y-74883390D02*
X120857143Y-75454819D01*
X120857143Y-75454819D02*
X121476190Y-75454819D01*
X122571429Y-74454819D02*
X123190476Y-74454819D01*
X123190476Y-74454819D02*
X122857143Y-74835771D01*
X122857143Y-74835771D02*
X123000000Y-74835771D01*
X123000000Y-74835771D02*
X123095238Y-74883390D01*
X123095238Y-74883390D02*
X123142857Y-74931009D01*
X123142857Y-74931009D02*
X123190476Y-75026247D01*
X123190476Y-75026247D02*
X123190476Y-75264342D01*
X123190476Y-75264342D02*
X123142857Y-75359580D01*
X123142857Y-75359580D02*
X123095238Y-75407200D01*
X123095238Y-75407200D02*
X123000000Y-75454819D01*
X123000000Y-75454819D02*
X122714286Y-75454819D01*
X122714286Y-75454819D02*
X122619048Y-75407200D01*
X122619048Y-75407200D02*
X122571429Y-75359580D01*
X123809524Y-74454819D02*
X123904762Y-74454819D01*
X123904762Y-74454819D02*
X124000000Y-74502438D01*
X124000000Y-74502438D02*
X124047619Y-74550057D01*
X124047619Y-74550057D02*
X124095238Y-74645295D01*
X124095238Y-74645295D02*
X124142857Y-74835771D01*
X124142857Y-74835771D02*
X124142857Y-75073866D01*
X124142857Y-75073866D02*
X124095238Y-75264342D01*
X124095238Y-75264342D02*
X124047619Y-75359580D01*
X124047619Y-75359580D02*
X124000000Y-75407200D01*
X124000000Y-75407200D02*
X123904762Y-75454819D01*
X123904762Y-75454819D02*
X123809524Y-75454819D01*
X123809524Y-75454819D02*
X123714286Y-75407200D01*
X123714286Y-75407200D02*
X123666667Y-75359580D01*
X123666667Y-75359580D02*
X123619048Y-75264342D01*
X123619048Y-75264342D02*
X123571429Y-75073866D01*
X123571429Y-75073866D02*
X123571429Y-74835771D01*
X123571429Y-74835771D02*
X123619048Y-74645295D01*
X123619048Y-74645295D02*
X123666667Y-74550057D01*
X123666667Y-74550057D02*
X123714286Y-74502438D01*
X123714286Y-74502438D02*
X123809524Y-74454819D01*
X124571429Y-75073866D02*
X125333334Y-75073866D01*
X125809524Y-75454819D02*
X125809524Y-74454819D01*
X125809524Y-74454819D02*
X126190476Y-74454819D01*
X126190476Y-74454819D02*
X126285714Y-74502438D01*
X126285714Y-74502438D02*
X126333333Y-74550057D01*
X126333333Y-74550057D02*
X126380952Y-74645295D01*
X126380952Y-74645295D02*
X126380952Y-74788152D01*
X126380952Y-74788152D02*
X126333333Y-74883390D01*
X126333333Y-74883390D02*
X126285714Y-74931009D01*
X126285714Y-74931009D02*
X126190476Y-74978628D01*
X126190476Y-74978628D02*
X125809524Y-74978628D01*
X126809524Y-75454819D02*
X126809524Y-74454819D01*
X127285714Y-75454819D02*
X127285714Y-74454819D01*
X127285714Y-74454819D02*
X127857142Y-75454819D01*
X127857142Y-75454819D02*
X127857142Y-74454819D01*
X151904761Y-83359580D02*
X151857142Y-83407200D01*
X151857142Y-83407200D02*
X151714285Y-83454819D01*
X151714285Y-83454819D02*
X151619047Y-83454819D01*
X151619047Y-83454819D02*
X151476190Y-83407200D01*
X151476190Y-83407200D02*
X151380952Y-83311961D01*
X151380952Y-83311961D02*
X151333333Y-83216723D01*
X151333333Y-83216723D02*
X151285714Y-83026247D01*
X151285714Y-83026247D02*
X151285714Y-82883390D01*
X151285714Y-82883390D02*
X151333333Y-82692914D01*
X151333333Y-82692914D02*
X151380952Y-82597676D01*
X151380952Y-82597676D02*
X151476190Y-82502438D01*
X151476190Y-82502438D02*
X151619047Y-82454819D01*
X151619047Y-82454819D02*
X151714285Y-82454819D01*
X151714285Y-82454819D02*
X151857142Y-82502438D01*
X151857142Y-82502438D02*
X151904761Y-82550057D01*
X152904761Y-83359580D02*
X152857142Y-83407200D01*
X152857142Y-83407200D02*
X152714285Y-83454819D01*
X152714285Y-83454819D02*
X152619047Y-83454819D01*
X152619047Y-83454819D02*
X152476190Y-83407200D01*
X152476190Y-83407200D02*
X152380952Y-83311961D01*
X152380952Y-83311961D02*
X152333333Y-83216723D01*
X152333333Y-83216723D02*
X152285714Y-83026247D01*
X152285714Y-83026247D02*
X152285714Y-82883390D01*
X152285714Y-82883390D02*
X152333333Y-82692914D01*
X152333333Y-82692914D02*
X152380952Y-82597676D01*
X152380952Y-82597676D02*
X152476190Y-82502438D01*
X152476190Y-82502438D02*
X152619047Y-82454819D01*
X152619047Y-82454819D02*
X152714285Y-82454819D01*
X152714285Y-82454819D02*
X152857142Y-82502438D01*
X152857142Y-82502438D02*
X152904761Y-82550057D01*
X153857142Y-83454819D02*
X153285714Y-83454819D01*
X153571428Y-83454819D02*
X153571428Y-82454819D01*
X153571428Y-82454819D02*
X153476190Y-82597676D01*
X153476190Y-82597676D02*
X153380952Y-82692914D01*
X153380952Y-82692914D02*
X153285714Y-82740533D01*
X154809523Y-83454819D02*
X154238095Y-83454819D01*
X154523809Y-83454819D02*
X154523809Y-82454819D01*
X154523809Y-82454819D02*
X154428571Y-82597676D01*
X154428571Y-82597676D02*
X154333333Y-82692914D01*
X154333333Y-82692914D02*
X154238095Y-82740533D01*
X155428571Y-82454819D02*
X155523809Y-82454819D01*
X155523809Y-82454819D02*
X155619047Y-82502438D01*
X155619047Y-82502438D02*
X155666666Y-82550057D01*
X155666666Y-82550057D02*
X155714285Y-82645295D01*
X155714285Y-82645295D02*
X155761904Y-82835771D01*
X155761904Y-82835771D02*
X155761904Y-83073866D01*
X155761904Y-83073866D02*
X155714285Y-83264342D01*
X155714285Y-83264342D02*
X155666666Y-83359580D01*
X155666666Y-83359580D02*
X155619047Y-83407200D01*
X155619047Y-83407200D02*
X155523809Y-83454819D01*
X155523809Y-83454819D02*
X155428571Y-83454819D01*
X155428571Y-83454819D02*
X155333333Y-83407200D01*
X155333333Y-83407200D02*
X155285714Y-83359580D01*
X155285714Y-83359580D02*
X155238095Y-83264342D01*
X155238095Y-83264342D02*
X155190476Y-83073866D01*
X155190476Y-83073866D02*
X155190476Y-82835771D01*
X155190476Y-82835771D02*
X155238095Y-82645295D01*
X155238095Y-82645295D02*
X155285714Y-82550057D01*
X155285714Y-82550057D02*
X155333333Y-82502438D01*
X155333333Y-82502438D02*
X155428571Y-82454819D01*
X156714285Y-83454819D02*
X156142857Y-83454819D01*
X156428571Y-83454819D02*
X156428571Y-82454819D01*
X156428571Y-82454819D02*
X156333333Y-82597676D01*
X156333333Y-82597676D02*
X156238095Y-82692914D01*
X156238095Y-82692914D02*
X156142857Y-82740533D01*
X121271429Y-113501080D02*
X120904762Y-112977271D01*
X120642857Y-113501080D02*
X120642857Y-112401080D01*
X120642857Y-112401080D02*
X121061905Y-112401080D01*
X121061905Y-112401080D02*
X121166667Y-112453461D01*
X121166667Y-112453461D02*
X121219048Y-112505842D01*
X121219048Y-112505842D02*
X121271429Y-112610604D01*
X121271429Y-112610604D02*
X121271429Y-112767747D01*
X121271429Y-112767747D02*
X121219048Y-112872509D01*
X121219048Y-112872509D02*
X121166667Y-112924890D01*
X121166667Y-112924890D02*
X121061905Y-112977271D01*
X121061905Y-112977271D02*
X120642857Y-112977271D01*
X121690476Y-113186795D02*
X122214286Y-113186795D01*
X121585714Y-113501080D02*
X121952381Y-112401080D01*
X121952381Y-112401080D02*
X122319048Y-113501080D01*
X122685714Y-113501080D02*
X122685714Y-112401080D01*
X123209524Y-113501080D02*
X123209524Y-112401080D01*
X123209524Y-112401080D02*
X123838096Y-113501080D01*
X123838096Y-113501080D02*
X123838096Y-112401080D01*
X124361905Y-113501080D02*
X124361905Y-112401080D01*
X124361905Y-112401080D02*
X124780953Y-112401080D01*
X124780953Y-112401080D02*
X124885715Y-112453461D01*
X124885715Y-112453461D02*
X124938096Y-112505842D01*
X124938096Y-112505842D02*
X124990477Y-112610604D01*
X124990477Y-112610604D02*
X124990477Y-112767747D01*
X124990477Y-112767747D02*
X124938096Y-112872509D01*
X124938096Y-112872509D02*
X124885715Y-112924890D01*
X124885715Y-112924890D02*
X124780953Y-112977271D01*
X124780953Y-112977271D02*
X124361905Y-112977271D01*
X125671429Y-112401080D02*
X125880953Y-112401080D01*
X125880953Y-112401080D02*
X125985715Y-112453461D01*
X125985715Y-112453461D02*
X126090477Y-112558223D01*
X126090477Y-112558223D02*
X126142858Y-112767747D01*
X126142858Y-112767747D02*
X126142858Y-113134414D01*
X126142858Y-113134414D02*
X126090477Y-113343938D01*
X126090477Y-113343938D02*
X125985715Y-113448700D01*
X125985715Y-113448700D02*
X125880953Y-113501080D01*
X125880953Y-113501080D02*
X125671429Y-113501080D01*
X125671429Y-113501080D02*
X125566667Y-113448700D01*
X125566667Y-113448700D02*
X125461905Y-113343938D01*
X125461905Y-113343938D02*
X125409524Y-113134414D01*
X125409524Y-113134414D02*
X125409524Y-112767747D01*
X125409524Y-112767747D02*
X125461905Y-112558223D01*
X125461905Y-112558223D02*
X125566667Y-112453461D01*
X125566667Y-112453461D02*
X125671429Y-112401080D01*
X126614286Y-113501080D02*
X126614286Y-112401080D01*
X127138096Y-113501080D02*
X127138096Y-112401080D01*
X127138096Y-112401080D02*
X127766668Y-113501080D01*
X127766668Y-113501080D02*
X127766668Y-112401080D01*
X128133334Y-112401080D02*
X128761906Y-112401080D01*
X128447620Y-113501080D02*
X128447620Y-112401080D01*
X130595239Y-113501080D02*
X130228572Y-112977271D01*
X129966667Y-113501080D02*
X129966667Y-112401080D01*
X129966667Y-112401080D02*
X130385715Y-112401080D01*
X130385715Y-112401080D02*
X130490477Y-112453461D01*
X130490477Y-112453461D02*
X130542858Y-112505842D01*
X130542858Y-112505842D02*
X130595239Y-112610604D01*
X130595239Y-112610604D02*
X130595239Y-112767747D01*
X130595239Y-112767747D02*
X130542858Y-112872509D01*
X130542858Y-112872509D02*
X130490477Y-112924890D01*
X130490477Y-112924890D02*
X130385715Y-112977271D01*
X130385715Y-112977271D02*
X129966667Y-112977271D01*
X131014286Y-113186795D02*
X131538096Y-113186795D01*
X130909524Y-113501080D02*
X131276191Y-112401080D01*
X131276191Y-112401080D02*
X131642858Y-113501080D01*
X132009524Y-113501080D02*
X132009524Y-112401080D01*
X132009524Y-112401080D02*
X132271429Y-112401080D01*
X132271429Y-112401080D02*
X132428572Y-112453461D01*
X132428572Y-112453461D02*
X132533334Y-112558223D01*
X132533334Y-112558223D02*
X132585715Y-112662985D01*
X132585715Y-112662985D02*
X132638096Y-112872509D01*
X132638096Y-112872509D02*
X132638096Y-113029652D01*
X132638096Y-113029652D02*
X132585715Y-113239176D01*
X132585715Y-113239176D02*
X132533334Y-113343938D01*
X132533334Y-113343938D02*
X132428572Y-113448700D01*
X132428572Y-113448700D02*
X132271429Y-113501080D01*
X132271429Y-113501080D02*
X132009524Y-113501080D01*
X133109524Y-113501080D02*
X133109524Y-112401080D01*
X133842858Y-112401080D02*
X134052382Y-112401080D01*
X134052382Y-112401080D02*
X134157144Y-112453461D01*
X134157144Y-112453461D02*
X134261906Y-112558223D01*
X134261906Y-112558223D02*
X134314287Y-112767747D01*
X134314287Y-112767747D02*
X134314287Y-113134414D01*
X134314287Y-113134414D02*
X134261906Y-113343938D01*
X134261906Y-113343938D02*
X134157144Y-113448700D01*
X134157144Y-113448700D02*
X134052382Y-113501080D01*
X134052382Y-113501080D02*
X133842858Y-113501080D01*
X133842858Y-113501080D02*
X133738096Y-113448700D01*
X133738096Y-113448700D02*
X133633334Y-113343938D01*
X133633334Y-113343938D02*
X133580953Y-113134414D01*
X133580953Y-113134414D02*
X133580953Y-112767747D01*
X133580953Y-112767747D02*
X133633334Y-112558223D01*
X133633334Y-112558223D02*
X133738096Y-112453461D01*
X133738096Y-112453461D02*
X133842858Y-112401080D01*
X135623810Y-113501080D02*
X135623810Y-112401080D01*
X135623810Y-112401080D02*
X136252382Y-113501080D01*
X136252382Y-113501080D02*
X136252382Y-112401080D01*
X136985715Y-112401080D02*
X137195239Y-112401080D01*
X137195239Y-112401080D02*
X137300001Y-112453461D01*
X137300001Y-112453461D02*
X137404763Y-112558223D01*
X137404763Y-112558223D02*
X137457144Y-112767747D01*
X137457144Y-112767747D02*
X137457144Y-113134414D01*
X137457144Y-113134414D02*
X137404763Y-113343938D01*
X137404763Y-113343938D02*
X137300001Y-113448700D01*
X137300001Y-113448700D02*
X137195239Y-113501080D01*
X137195239Y-113501080D02*
X136985715Y-113501080D01*
X136985715Y-113501080D02*
X136880953Y-113448700D01*
X136880953Y-113448700D02*
X136776191Y-113343938D01*
X136776191Y-113343938D02*
X136723810Y-113134414D01*
X136723810Y-113134414D02*
X136723810Y-112767747D01*
X136723810Y-112767747D02*
X136776191Y-112558223D01*
X136776191Y-112558223D02*
X136880953Y-112453461D01*
X136880953Y-112453461D02*
X136985715Y-112401080D01*
X137928572Y-113501080D02*
X137928572Y-112401080D01*
X137928572Y-112401080D02*
X138190477Y-112401080D01*
X138190477Y-112401080D02*
X138347620Y-112453461D01*
X138347620Y-112453461D02*
X138452382Y-112558223D01*
X138452382Y-112558223D02*
X138504763Y-112662985D01*
X138504763Y-112662985D02*
X138557144Y-112872509D01*
X138557144Y-112872509D02*
X138557144Y-113029652D01*
X138557144Y-113029652D02*
X138504763Y-113239176D01*
X138504763Y-113239176D02*
X138452382Y-113343938D01*
X138452382Y-113343938D02*
X138347620Y-113448700D01*
X138347620Y-113448700D02*
X138190477Y-113501080D01*
X138190477Y-113501080D02*
X137928572Y-113501080D01*
X139028572Y-112924890D02*
X139395239Y-112924890D01*
X139552382Y-113501080D02*
X139028572Y-113501080D01*
X139028572Y-113501080D02*
X139028572Y-112401080D01*
X139028572Y-112401080D02*
X139552382Y-112401080D01*
X140861905Y-113082033D02*
X141700001Y-113082033D01*
X143690477Y-113501080D02*
X143323810Y-112977271D01*
X143061905Y-113501080D02*
X143061905Y-112401080D01*
X143061905Y-112401080D02*
X143480953Y-112401080D01*
X143480953Y-112401080D02*
X143585715Y-112453461D01*
X143585715Y-112453461D02*
X143638096Y-112505842D01*
X143638096Y-112505842D02*
X143690477Y-112610604D01*
X143690477Y-112610604D02*
X143690477Y-112767747D01*
X143690477Y-112767747D02*
X143638096Y-112872509D01*
X143638096Y-112872509D02*
X143585715Y-112924890D01*
X143585715Y-112924890D02*
X143480953Y-112977271D01*
X143480953Y-112977271D02*
X143061905Y-112977271D01*
X144161905Y-112924890D02*
X144528572Y-112924890D01*
X144685715Y-113501080D02*
X144161905Y-113501080D01*
X144161905Y-113501080D02*
X144161905Y-112401080D01*
X144161905Y-112401080D02*
X144685715Y-112401080D01*
X145000000Y-112401080D02*
X145366667Y-113501080D01*
X145366667Y-113501080D02*
X145733334Y-112401080D01*
X146885714Y-113186795D02*
X147409524Y-113186795D01*
X146780952Y-113501080D02*
X147147619Y-112401080D01*
X147147619Y-112401080D02*
X147514286Y-113501080D01*
M02*
