M48
; DRILL file KiCad 10.0.5 date 2026-08-12T21:24:22
; FORMAT={-:-/ absolute / metric / decimal}
; #@! TF.CreationDate,2026-08-12T21:24:22-04:00
; #@! TF.GenerationSoftware,Kicad,Pcbnew,10.0.5
; #@! TF.FileFunction,Plated,1,2,PTH
FMAT,2
METRIC
; #@! TA.AperFunction,Plated,PTH,ViaDrill
T1C0.300
; #@! TA.AperFunction,Plated,PTH,ComponentDrill
T2C1.000
%
G90
G05
T1
X107.0Y-93.29
X138.5Y-95.0
T2
X109.68Y-70.43
X109.68Y-72.97
X109.68Y-75.51
X109.68Y-78.05
X109.68Y-80.59
X109.68Y-83.13
X109.68Y-85.67
X109.68Y-88.21
X109.68Y-90.75
X109.68Y-93.29
X109.68Y-95.83
X109.68Y-98.37
X109.68Y-100.91
X109.68Y-103.45
X109.68Y-105.99
X135.08Y-70.43
X135.08Y-72.97
X135.08Y-75.51
X135.08Y-78.05
X135.08Y-80.59
X135.08Y-83.13
X135.08Y-85.67
X135.08Y-88.21
X135.08Y-90.75
X135.08Y-93.29
X135.08Y-95.83
X135.08Y-98.37
X135.08Y-100.91
X135.08Y-103.45
X135.08Y-105.99
X141.0Y-79.19
X141.0Y-81.73
X141.0Y-84.27
X141.0Y-86.81
X143.54Y-79.19
X143.54Y-81.73
X143.54Y-84.27
X143.54Y-86.81
M30
