%TF.GenerationSoftware,KiCad,Pcbnew,10.0.6*%
%TF.CreationDate,2026-09-14T14:08:33-04:00*%
%TF.ProjectId,rainpoint_carrier,7261696e-706f-4696-9e74-5f6361727269,B*%
%TF.SameCoordinates,Original*%
%TF.FileFunction,Copper,L1,Top*%
%TF.FilePolarity,Positive*%
%FSLAX46Y46*%
G04 Gerber Fmt 4.6, Leading zero omitted, Abs format (unit mm)*
G04 Created by KiCad (PCBNEW 10.0.6) date 2026-09-14 14:08:33*
%MOMM*%
%LPD*%
G01*
G04 APERTURE LIST*
%TA.AperFunction,ComponentPad*%
%ADD10R,2.000000X2.000000*%
%TD*%
%TA.AperFunction,ComponentPad*%
%ADD11C,2.000000*%
%TD*%
%TA.AperFunction,ViaPad*%
%ADD12C,0.700000*%
%TD*%
%TA.AperFunction,Conductor*%
%ADD13C,0.500000*%
%TD*%
%TA.AperFunction,Conductor*%
%ADD14C,0.300000*%
%TD*%
G04 APERTURE END LIST*
D10*
%TO.P,J2,1*%
%TO.N,/3V3*%
X135079999Y-105990000D03*
D11*
%TO.P,J2,2*%
%TO.N,unconnected-(J2-GND-Pad2)*%
X135079999Y-103450000D03*
%TO.P,J2,3*%
%TO.N,unconnected-(J2-GPIO15-Pad3)*%
X135079999Y-100910000D03*
%TO.P,J2,4*%
%TO.N,unconnected-(J2-GPIO2-Pad4)*%
X135079999Y-98370000D03*
%TO.P,J2,5*%
%TO.N,unconnected-(J2-GPIO4-Pad5)*%
X135079999Y-95830000D03*
%TO.P,J2,6*%
%TO.N,unconnected-(J2-RX2-Pad6)*%
X135079999Y-93290000D03*
%TO.P,J2,7*%
%TO.N,unconnected-(J2-TX2-Pad7)*%
X135079999Y-90750000D03*
%TO.P,J2,8*%
%TO.N,unconnected-(J2-GPIO5-Pad8)*%
X135079999Y-88210000D03*
%TO.P,J2,9*%
%TO.N,/RADIO_SCK*%
X135079999Y-85670000D03*
%TO.P,J2,10*%
%TO.N,/RADIO_MISO*%
X135079999Y-83130000D03*
%TO.P,J2,11*%
%TO.N,unconnected-(J2-GPIO21-Pad11)*%
X135079999Y-80590000D03*
%TO.P,J2,12*%
%TO.N,unconnected-(J2-RX0-Pad12)*%
X135079999Y-78050000D03*
%TO.P,J2,13*%
%TO.N,unconnected-(J2-TX0-Pad13)*%
X135079999Y-75510000D03*
%TO.P,J2,14*%
%TO.N,unconnected-(J2-GPIO22-Pad14)*%
X135079999Y-72970000D03*
%TO.P,J2,15*%
%TO.N,/RADIO_MOSI*%
X135079999Y-70430000D03*
%TD*%
D10*
%TO.P,J1,1*%
%TO.N,unconnected-(J1-VIN-Pad1)*%
X109680000Y-105990000D03*
D11*
%TO.P,J1,2*%
%TO.N,/GND*%
X109680000Y-103450000D03*
%TO.P,J1,3*%
%TO.N,unconnected-(J1-GPIO13-Pad3)*%
X109680000Y-100910000D03*
%TO.P,J1,4*%
%TO.N,unconnected-(J1-GPIO12-Pad4)*%
X109680000Y-98370000D03*
%TO.P,J1,5*%
%TO.N,unconnected-(J1-GPIO14-Pad5)*%
X109680000Y-95830000D03*
%TO.P,J1,6*%
%TO.N,/RADIO_CSN*%
X109680000Y-93290000D03*
%TO.P,J1,7*%
%TO.N,/RADIO_GDO0*%
X109680000Y-90750000D03*
%TO.P,J1,8*%
%TO.N,/RADIO_GDO2*%
X109680000Y-88210000D03*
%TO.P,J1,9*%
%TO.N,unconnected-(J1-GPIO33-Pad9)*%
X109680000Y-85670000D03*
%TO.P,J1,10*%
%TO.N,unconnected-(J1-GPIO32-Pad10)*%
X109680000Y-83130000D03*
%TO.P,J1,11*%
%TO.N,unconnected-(J1-GPIO35-Pad11)*%
X109680000Y-80590000D03*
%TO.P,J1,12*%
%TO.N,unconnected-(J1-GPIO34-Pad12)*%
X109680000Y-78050000D03*
%TO.P,J1,13*%
%TO.N,unconnected-(J1-VN-Pad13)*%
X109680000Y-75510000D03*
%TO.P,J1,14*%
%TO.N,unconnected-(J1-VP-Pad14)*%
X109680000Y-72970000D03*
%TO.P,J1,15*%
%TO.N,unconnected-(J1-EN-Pad15)*%
X109680000Y-70430000D03*
%TD*%
D10*
%TO.P,J3,1*%
%TO.N,/GND*%
X141000000Y-79190000D03*
D11*
%TO.P,J3,2*%
%TO.N,/3V3*%
X143540000Y-79190000D03*
%TO.P,J3,3*%
%TO.N,/RADIO_GDO0*%
X141000000Y-81730000D03*
%TO.P,J3,4*%
%TO.N,/RADIO_CSN*%
X143540000Y-81730000D03*
%TO.P,J3,5*%
%TO.N,/RADIO_SCK*%
X141000000Y-84270000D03*
%TO.P,J3,6*%
%TO.N,/RADIO_MOSI*%
X143540000Y-84270000D03*
%TO.P,J3,7*%
%TO.N,/RADIO_MISO*%
X141000000Y-86810000D03*
%TO.P,J3,8*%
%TO.N,/RADIO_GDO2*%
X143540000Y-86810000D03*
%TD*%
D12*
%TO.N,/3V3*%
X150500000Y-71000000D03*
%TO.N,/RADIO_GDO0*%
X138500000Y-95000000D03*
%TO.N,/RADIO_CSN*%
X107000000Y-93290000D03*
%TO.N,/RADIO_SCK*%
X139200000Y-85670000D03*
X137700000Y-85670000D03*
%TO.N,/RADIO_GDO2*%
X154000000Y-86810000D03*
%TD*%
%TO.N,/3V3*%
D13*
X157000000Y-71000000D02*
X150500000Y-71000000D01*
X157000000Y-105990000D02*
X157000000Y-71000000D01*
X135080000Y-105990000D02*
X157000000Y-105990000D01*
%TO.N,/RADIO_GDO0*%
D14*
X138500000Y-95000000D02*
X138500000Y-81730000D01*
X138500000Y-81730000D02*
X141000000Y-81730000D01*
%TO.N,/RADIO_CSN*%
X109680000Y-93290000D02*
X107000000Y-93290000D01*
%TO.N,/RADIO_SCK*%
X139200000Y-84270000D02*
X141000000Y-84270000D01*
X139200000Y-85670000D02*
X139200000Y-84270000D01*
X135080000Y-85670000D02*
X137700000Y-85670000D01*
%TO.N,/RADIO_MOSI*%
X148000000Y-82000000D02*
X145730000Y-84270000D01*
X145730000Y-84270000D02*
X143540000Y-84270000D01*
X139000000Y-70430000D02*
X148000000Y-79430000D01*
X148000000Y-79430000D02*
X148000000Y-82000000D01*
X135080000Y-70430000D02*
X139000000Y-70430000D01*
%TO.N,/RADIO_GDO2*%
X154000000Y-86810000D02*
X143540000Y-86810000D01*
%TD*%
%TA.AperFunction,Conductor*%
%TO.N,/GND*%
G36*
X138829074Y-70900185D02*
G01*
X138849716Y-70916819D01*
X147513181Y-79580284D01*
X147546666Y-79641607D01*
X147549500Y-79667965D01*
X147549500Y-81762034D01*
X147529815Y-81829073D01*
X147513181Y-81849715D01*
X145579716Y-83783181D01*
X145518393Y-83816666D01*
X145492035Y-83819500D01*
X144846031Y-83819500D01*
X144778992Y-83799815D01*
X144735546Y-83751795D01*
X144652284Y-83588385D01*
X144531971Y-83422786D01*
X144387213Y-83278028D01*
X144221614Y-83157715D01*
X144215006Y-83154348D01*
X144128917Y-83110483D01*
X144078123Y-83062511D01*
X144061328Y-82994690D01*
X144083865Y-82928555D01*
X144128917Y-82889516D01*
X144221610Y-82842287D01*
X144244764Y-82825465D01*
X144387213Y-82721971D01*
X144387215Y-82721968D01*
X144387219Y-82721966D01*
X144531966Y-82577219D01*
X144531968Y-82577215D01*
X144531971Y-82577213D01*
X144584732Y-82504590D01*
X144652287Y-82411610D01*
X144745220Y-82229219D01*
X144808477Y-82034534D01*
X144840500Y-81832352D01*
X144840500Y-81627648D01*
X144808477Y-81425466D01*
X144745220Y-81230781D01*
X144745218Y-81230778D01*
X144745218Y-81230776D01*
X144673090Y-81089219D01*
X144652287Y-81048390D01*
X144644556Y-81037749D01*
X144531971Y-80882786D01*
X144387213Y-80738028D01*
X144221614Y-80617715D01*
X144215006Y-80614348D01*
X144128917Y-80570483D01*
X144078123Y-80522511D01*
X144061328Y-80454690D01*
X144083865Y-80388555D01*
X144128917Y-80349516D01*
X144221610Y-80302287D01*
X144244764Y-80285465D01*
X144387213Y-80181971D01*
X144387215Y-80181968D01*
X144387219Y-80181966D01*
X144531966Y-80037219D01*
X144531968Y-80037215D01*
X144531971Y-80037213D01*
X144584732Y-79964590D01*
X144652287Y-79871610D01*
X144745220Y-79689219D01*
X144808477Y-79494534D01*
X144840500Y-79292352D01*
X144840500Y-79087648D01*
X144808477Y-78885466D01*
X144745220Y-78690781D01*
X144745218Y-78690778D01*
X144745218Y-78690776D01*
X144673090Y-78549219D01*
X144652287Y-78508390D01*
X144644556Y-78497749D01*
X144531971Y-78342786D01*
X144387213Y-78198028D01*
X144221613Y-78077715D01*
X144221612Y-78077714D01*
X144221610Y-78077713D01*
X144164653Y-78048691D01*
X144039223Y-77984781D01*
X143844534Y-77921522D01*
X143669995Y-77893878D01*
X143642352Y-77889500D01*
X143437648Y-77889500D01*
X143413329Y-77893351D01*
X143235465Y-77921522D01*
X143040776Y-77984781D01*
X142858386Y-78077715D01*
X142692786Y-78198028D01*
X142548028Y-78342786D01*
X142427715Y-78508386D01*
X142334781Y-78690776D01*
X142271522Y-78885465D01*
X142239500Y-79087648D01*
X142239500Y-79292351D01*
X142271522Y-79494534D01*
X142334781Y-79689223D01*
X142427715Y-79871613D01*
X142548028Y-80037213D01*
X142692786Y-80181971D01*
X142835236Y-80285465D01*
X142858390Y-80302287D01*
X142949840Y-80348883D01*
X142951080Y-80349515D01*
X143001876Y-80397490D01*
X143018671Y-80465311D01*
X142996134Y-80531446D01*
X142951080Y-80570485D01*
X142858386Y-80617715D01*
X142692786Y-80738028D01*
X142548028Y-80882786D01*
X142427715Y-81048386D01*
X142380485Y-81141080D01*
X142332510Y-81191876D01*
X142264689Y-81208671D01*
X142198554Y-81186134D01*
X142159515Y-81141080D01*
X142133090Y-81089219D01*
X142112287Y-81048390D01*
X142104556Y-81037749D01*
X141991971Y-80882786D01*
X141847213Y-80738028D01*
X141681613Y-80617715D01*
X141681612Y-80617714D01*
X141681610Y-80617713D01*
X141624653Y-80588691D01*
X141499223Y-80524781D01*
X141304534Y-80461522D01*
X141129995Y-80433878D01*
X141102352Y-80429500D01*
X140897648Y-80429500D01*
X140873329Y-80433351D01*
X140695465Y-80461522D01*
X140500776Y-80524781D01*
X140318386Y-80617715D01*
X140152786Y-80738028D01*
X140008028Y-80882786D01*
X139887715Y-81048385D01*
X139804454Y-81211795D01*
X139756479Y-81262591D01*
X139693969Y-81279500D01*
X138559309Y-81279500D01*
X138440691Y-81279500D01*
X138326114Y-81310201D01*
X138326112Y-81310201D01*
X138326112Y-81310202D01*
X138223387Y-81369511D01*
X138223384Y-81369513D01*
X138139513Y-81453384D01*
X138139511Y-81453387D01*
X138080201Y-81556114D01*
X138049500Y-81670691D01*
X138049500Y-81670693D01*
X138049500Y-84925765D01*
X138029815Y-84992804D01*
X137977011Y-85038559D01*
X137907853Y-85048503D01*
X137890538Y-85044656D01*
X137764071Y-85019500D01*
X137764069Y-85019500D01*
X137635931Y-85019500D01*
X137635929Y-85019500D01*
X137510261Y-85044497D01*
X137510255Y-85044499D01*
X137391875Y-85093533D01*
X137391866Y-85093538D01*
X137285331Y-85164723D01*
X137285327Y-85164726D01*
X137266873Y-85183181D01*
X137205550Y-85216666D01*
X137179192Y-85219500D01*
X136386030Y-85219500D01*
X136318991Y-85199815D01*
X136275545Y-85151795D01*
X136257928Y-85117219D01*
X136192286Y-84988390D01*
X136192284Y-84988387D01*
X136192283Y-84988385D01*
X136071970Y-84822786D01*
X135927212Y-84678028D01*
X135761613Y-84557715D01*
X135755005Y-84554348D01*
X135668916Y-84510483D01*
X135618122Y-84462511D01*
X135601327Y-84394690D01*
X135623864Y-84328555D01*
X135668916Y-84289516D01*
X135761609Y-84242287D01*
X135782769Y-84226913D01*
X135927212Y-84121971D01*
X135927214Y-84121968D01*
X135927218Y-84121966D01*
X136071965Y-83977219D01*
X136071967Y-83977215D01*
X136071970Y-83977213D01*
X136124731Y-83904590D01*
X136192286Y-83811610D01*
X136285219Y-83629219D01*
X136348476Y-83434534D01*
X136380499Y-83232352D01*
X136380499Y-83027648D01*
X136348476Y-82825466D01*
X136285219Y-82630781D01*
X136285217Y-82630778D01*
X136285217Y-82630776D01*
X136251502Y-82564607D01*
X136192286Y-82448390D01*
X136165564Y-82411610D01*
X136071970Y-82282786D01*
X135927212Y-82138028D01*
X135761613Y-82017715D01*
X135755005Y-82014348D01*
X135668916Y-81970483D01*
X135618122Y-81922511D01*
X135601327Y-81854690D01*
X135623864Y-81788555D01*
X135668916Y-81749516D01*
X135761609Y-81702287D01*
X135864342Y-81627648D01*
X135927212Y-81581971D01*
X135927214Y-81581968D01*
X135927218Y-81581966D01*
X136071965Y-81437219D01*
X136071967Y-81437215D01*
X136071970Y-81437213D01*
X136164248Y-81310201D01*
X136192286Y-81271610D01*
X136285219Y-81089219D01*
X136348476Y-80894534D01*
X136380499Y-80692352D01*
X136380499Y-80487648D01*
X136348476Y-80285466D01*
X136285219Y-80090781D01*
X136285217Y-80090778D01*
X136285217Y-80090776D01*
X136251502Y-80024607D01*
X136192286Y-79908390D01*
X136165564Y-79871610D01*
X136071970Y-79742786D01*
X135927212Y-79598028D01*
X135761613Y-79477715D01*
X135755005Y-79474348D01*
X135668916Y-79430483D01*
X135618122Y-79382511D01*
X135601327Y-79314690D01*
X135623864Y-79248555D01*
X135668916Y-79209516D01*
X135761609Y-79162287D01*
X135864342Y-79087648D01*
X135927212Y-79041971D01*
X135927214Y-79041968D01*
X135927218Y-79041966D01*
X136071965Y-78897219D01*
X136071967Y-78897215D01*
X136071970Y-78897213D01*
X136124731Y-78824590D01*
X136192286Y-78731610D01*
X136285219Y-78549219D01*
X136348476Y-78354534D01*
X136380499Y-78152352D01*
X136380499Y-77947648D01*
X136348476Y-77745466D01*
X136285219Y-77550781D01*
X136285217Y-77550778D01*
X136285217Y-77550776D01*
X136251502Y-77484607D01*
X136192286Y-77368390D01*
X136184555Y-77357749D01*
X136071970Y-77202786D01*
X135927212Y-77058028D01*
X135761613Y-76937715D01*
X135755005Y-76934348D01*
X135668916Y-76890483D01*
X135618122Y-76842511D01*
X135601327Y-76774690D01*
X135623864Y-76708555D01*
X135668916Y-76669516D01*
X135761609Y-76622287D01*
X135782769Y-76606913D01*
X135927212Y-76501971D01*
X135927214Y-76501968D01*
X135927218Y-76501966D01*
X136071965Y-76357219D01*
X136071967Y-76357215D01*
X136071970Y-76357213D01*
X136124731Y-76284590D01*
X136192286Y-76191610D01*
X136285219Y-76009219D01*
X136348476Y-75814534D01*
X136380499Y-75612352D01*
X136380499Y-75407648D01*
X136348476Y-75205466D01*
X136285219Y-75010781D01*
X136285217Y-75010778D01*
X136285217Y-75010776D01*
X136251502Y-74944607D01*
X136192286Y-74828390D01*
X136184555Y-74817749D01*
X136071970Y-74662786D01*
X135927212Y-74518028D01*
X135761613Y-74397715D01*
X135755005Y-74394348D01*
X135668916Y-74350483D01*
X135618122Y-74302511D01*
X135601327Y-74234690D01*
X135623864Y-74168555D01*
X135668916Y-74129516D01*
X135761609Y-74082287D01*
X135782769Y-74066913D01*
X135927212Y-73961971D01*
X135927214Y-73961968D01*
X135927218Y-73961966D01*
X136071965Y-73817219D01*
X136071967Y-73817215D01*
X136071970Y-73817213D01*
X136124731Y-73744590D01*
X136192286Y-73651610D01*
X136285219Y-73469219D01*
X136348476Y-73274534D01*
X136380499Y-73072352D01*
X136380499Y-72867648D01*
X136348476Y-72665466D01*
X136285219Y-72470781D01*
X136285217Y-72470778D01*
X136285217Y-72470776D01*
X136251502Y-72404607D01*
X136192286Y-72288390D01*
X136184555Y-72277749D01*
X136071970Y-72122786D01*
X135927212Y-71978028D01*
X135761613Y-71857715D01*
X135755005Y-71854348D01*
X135668916Y-71810483D01*
X135618122Y-71762511D01*
X135601327Y-71694690D01*
X135623864Y-71628555D01*
X135668916Y-71589516D01*
X135761609Y-71542287D01*
X135812555Y-71505273D01*
X135927212Y-71421971D01*
X135927214Y-71421968D01*
X135927218Y-71421966D01*
X136071965Y-71277219D01*
X136071967Y-71277215D01*
X136071970Y-71277213D01*
X136192283Y-71111614D01*
X136192284Y-71111613D01*
X136192286Y-71111610D01*
X136275545Y-70948204D01*
X136323520Y-70897409D01*
X136386030Y-70880500D01*
X138762035Y-70880500D01*
X138829074Y-70900185D01*
G37*
%TD.AperFunction*%
%TA.AperFunction,Conductor*%
G36*
X106943039Y-50520185D02*
G01*
X106988794Y-50572989D01*
X107000000Y-50624500D01*
X107000000Y-68500000D01*
X138000000Y-68500000D01*
X138000000Y-53378711D01*
X162649500Y-53378711D01*
X162649500Y-53621288D01*
X162681161Y-53861785D01*
X162743947Y-54096104D01*
X162836773Y-54320205D01*
X162836776Y-54320212D01*
X162958064Y-54530289D01*
X162958066Y-54530292D01*
X162958067Y-54530293D01*
X163105733Y-54722736D01*
X163105739Y-54722743D01*
X163277256Y-54894260D01*
X163277262Y-54894265D01*
X163469711Y-55041936D01*
X163679788Y-55163224D01*
X163903900Y-55256054D01*
X164138211Y-55318838D01*
X164318586Y-55342584D01*
X164378711Y-55350500D01*
X164378712Y-55350500D01*
X164621289Y-55350500D01*
X164669388Y-55344167D01*
X164861789Y-55318838D01*
X165096100Y-55256054D01*
X165320212Y-55163224D01*
X165530289Y-55041936D01*
X165722738Y-54894265D01*
X165894265Y-54722738D01*
X166041936Y-54530289D01*
X166163224Y-54320212D01*
X166256054Y-54096100D01*
X166318838Y-53861789D01*
X166350500Y-53621288D01*
X166350500Y-53378712D01*
X166318838Y-53138211D01*
X166256054Y-52903900D01*
X166163224Y-52679788D01*
X166041936Y-52469711D01*
X165894265Y-52277262D01*
X165894260Y-52277256D01*
X165722743Y-52105739D01*
X165722736Y-52105733D01*
X165530293Y-51958067D01*
X165530292Y-51958066D01*
X165530289Y-51958064D01*
X165320212Y-51836776D01*
X165320205Y-51836773D01*
X165096104Y-51743947D01*
X164861785Y-51681161D01*
X164621289Y-51649500D01*
X164621288Y-51649500D01*
X164378712Y-51649500D01*
X164378711Y-51649500D01*
X164138214Y-51681161D01*
X163903895Y-51743947D01*
X163679794Y-51836773D01*
X163679785Y-51836777D01*
X163469706Y-51958067D01*
X163277263Y-52105733D01*
X163277256Y-52105739D01*
X163105739Y-52277256D01*
X163105733Y-52277263D01*
X162958067Y-52469706D01*
X162836777Y-52679785D01*
X162836773Y-52679794D01*
X162743947Y-52903895D01*
X162681161Y-53138214D01*
X162649500Y-53378711D01*
X138000000Y-53378711D01*
X138000000Y-50624500D01*
X138019685Y-50557461D01*
X138072489Y-50511706D01*
X138124000Y-50500500D01*
X167134107Y-50500500D01*
X167190242Y-50500500D01*
X167209639Y-50502026D01*
X167273151Y-50512086D01*
X167310045Y-50524073D01*
X167358544Y-50548784D01*
X167389929Y-50571588D01*
X167428411Y-50610070D01*
X167451215Y-50641456D01*
X167475925Y-50689952D01*
X167487913Y-50726847D01*
X167497973Y-50790357D01*
X167499500Y-50809757D01*
X167499500Y-115190241D01*
X167497973Y-115209640D01*
X167487913Y-115273151D01*
X167475925Y-115310047D01*
X167451215Y-115358543D01*
X167428411Y-115389929D01*
X167389929Y-115428411D01*
X167358543Y-115451215D01*
X167310047Y-115475925D01*
X167273152Y-115487913D01*
X167238106Y-115493464D01*
X167209637Y-115497973D01*
X167190242Y-115499500D01*
X100809758Y-115499500D01*
X100790361Y-115497973D01*
X100771182Y-115494935D01*
X100726848Y-115487913D01*
X100689952Y-115475925D01*
X100641456Y-115451215D01*
X100610070Y-115428411D01*
X100571588Y-115389929D01*
X100548784Y-115358543D01*
X100524074Y-115310047D01*
X100512086Y-115273150D01*
X100510936Y-115265892D01*
X100502027Y-115209639D01*
X100500500Y-115190241D01*
X100500500Y-112378711D01*
X101649500Y-112378711D01*
X101649500Y-112621288D01*
X101681161Y-112861785D01*
X101743947Y-113096104D01*
X101836773Y-113320205D01*
X101836776Y-113320212D01*
X101958064Y-113530289D01*
X101958066Y-113530292D01*
X101958067Y-113530293D01*
X102105733Y-113722736D01*
X102105739Y-113722743D01*
X102277256Y-113894260D01*
X102277262Y-113894265D01*
X102469711Y-114041936D01*
X102679788Y-114163224D01*
X102903900Y-114256054D01*
X103138211Y-114318838D01*
X103318586Y-114342584D01*
X103378711Y-114350500D01*
X103378712Y-114350500D01*
X103621289Y-114350500D01*
X103669388Y-114344167D01*
X103861789Y-114318838D01*
X104096100Y-114256054D01*
X104320212Y-114163224D01*
X104530289Y-114041936D01*
X104722738Y-113894265D01*
X104894265Y-113722738D01*
X105041936Y-113530289D01*
X105163224Y-113320212D01*
X105256054Y-113096100D01*
X105318838Y-112861789D01*
X105350500Y-112621288D01*
X105350500Y-112378712D01*
X105350500Y-112378711D01*
X162649500Y-112378711D01*
X162649500Y-112621288D01*
X162681161Y-112861785D01*
X162743947Y-113096104D01*
X162836773Y-113320205D01*
X162836776Y-113320212D01*
X162958064Y-113530289D01*
X162958066Y-113530292D01*
X162958067Y-113530293D01*
X163105733Y-113722736D01*
X163105739Y-113722743D01*
X163277256Y-113894260D01*
X163277262Y-113894265D01*
X163469711Y-114041936D01*
X163679788Y-114163224D01*
X163903900Y-114256054D01*
X164138211Y-114318838D01*
X164318586Y-114342584D01*
X164378711Y-114350500D01*
X164378712Y-114350500D01*
X164621289Y-114350500D01*
X164669388Y-114344167D01*
X164861789Y-114318838D01*
X165096100Y-114256054D01*
X165320212Y-114163224D01*
X165530289Y-114041936D01*
X165722738Y-113894265D01*
X165894265Y-113722738D01*
X166041936Y-113530289D01*
X166163224Y-113320212D01*
X166256054Y-113096100D01*
X166318838Y-112861789D01*
X166350500Y-112621288D01*
X166350500Y-112378712D01*
X166318838Y-112138211D01*
X166256054Y-111903900D01*
X166163224Y-111679788D01*
X166041936Y-111469711D01*
X165894265Y-111277262D01*
X165894260Y-111277256D01*
X165722743Y-111105739D01*
X165722736Y-111105733D01*
X165530293Y-110958067D01*
X165530292Y-110958066D01*
X165530289Y-110958064D01*
X165320212Y-110836776D01*
X165320205Y-110836773D01*
X165096104Y-110743947D01*
X164861785Y-110681161D01*
X164621289Y-110649500D01*
X164621288Y-110649500D01*
X164378712Y-110649500D01*
X164378711Y-110649500D01*
X164138214Y-110681161D01*
X163903895Y-110743947D01*
X163679794Y-110836773D01*
X163679785Y-110836777D01*
X163469706Y-110958067D01*
X163277263Y-111105733D01*
X163277256Y-111105739D01*
X163105739Y-111277256D01*
X163105733Y-111277263D01*
X162958067Y-111469706D01*
X162836777Y-111679785D01*
X162836773Y-111679794D01*
X162743947Y-111903895D01*
X162681161Y-112138214D01*
X162649500Y-112378711D01*
X105350500Y-112378711D01*
X105318838Y-112138211D01*
X105256054Y-111903900D01*
X105163224Y-111679788D01*
X105041936Y-111469711D01*
X104894265Y-111277262D01*
X104894260Y-111277256D01*
X104722743Y-111105739D01*
X104722736Y-111105733D01*
X104530293Y-110958067D01*
X104530292Y-110958066D01*
X104530289Y-110958064D01*
X104320212Y-110836776D01*
X104320205Y-110836773D01*
X104096104Y-110743947D01*
X103861785Y-110681161D01*
X103621289Y-110649500D01*
X103621288Y-110649500D01*
X103378712Y-110649500D01*
X103378711Y-110649500D01*
X103138214Y-110681161D01*
X102903895Y-110743947D01*
X102679794Y-110836773D01*
X102679785Y-110836777D01*
X102469706Y-110958067D01*
X102277263Y-111105733D01*
X102277256Y-111105739D01*
X102105739Y-111277256D01*
X102105733Y-111277263D01*
X101958067Y-111469706D01*
X101836777Y-111679785D01*
X101836773Y-111679794D01*
X101743947Y-111903895D01*
X101681161Y-112138214D01*
X101649500Y-112378711D01*
X100500500Y-112378711D01*
X100500500Y-104945131D01*
X108379500Y-104945131D01*
X108379500Y-107034856D01*
X108379502Y-107034882D01*
X108382413Y-107059987D01*
X108382415Y-107059991D01*
X108427793Y-107162764D01*
X108427794Y-107162765D01*
X108507235Y-107242206D01*
X108610009Y-107287585D01*
X108635135Y-107290500D01*
X110724864Y-107290499D01*
X110724879Y-107290497D01*
X110724882Y-107290497D01*
X110749987Y-107287586D01*
X110749988Y-107287585D01*
X110749991Y-107287585D01*
X110852765Y-107242206D01*
X110932206Y-107162765D01*
X110977585Y-107059991D01*
X110980500Y-107034865D01*
X110980499Y-104945136D01*
X110980497Y-104945117D01*
X110977586Y-104920012D01*
X110977585Y-104920010D01*
X110977585Y-104920009D01*
X110932206Y-104817235D01*
X110852765Y-104737794D01*
X110852763Y-104737793D01*
X110749992Y-104692415D01*
X110724865Y-104689500D01*
X108635143Y-104689500D01*
X108635117Y-104689502D01*
X108610012Y-104692413D01*
X108610008Y-104692415D01*
X108507235Y-104737793D01*
X108427794Y-104817234D01*
X108382415Y-104920006D01*
X108382415Y-104920008D01*
X108379500Y-104945131D01*
X100500500Y-104945131D01*
X100500500Y-93354071D01*
X106349499Y-93354071D01*
X106374497Y-93479738D01*
X106374499Y-93479744D01*
X106423533Y-93598124D01*
X106423538Y-93598133D01*
X106494723Y-93704668D01*
X106494726Y-93704672D01*
X106585327Y-93795273D01*
X106585331Y-93795276D01*
X106691866Y-93866461D01*
X106691872Y-93866464D01*
X106691873Y-93866465D01*
X106810256Y-93915501D01*
X106810260Y-93915501D01*
X106810261Y-93915502D01*
X106935928Y-93940500D01*
X106935931Y-93940500D01*
X107064071Y-93940500D01*
X107148615Y-93923682D01*
X107189744Y-93915501D01*
X107308127Y-93866465D01*
X107414669Y-93795276D01*
X107420726Y-93789219D01*
X107433127Y-93776819D01*
X107494450Y-93743334D01*
X107520808Y-93740500D01*
X108373969Y-93740500D01*
X108441008Y-93760185D01*
X108484453Y-93808204D01*
X108539124Y-93915501D01*
X108567715Y-93971614D01*
X108688028Y-94137213D01*
X108832786Y-94281971D01*
X108987749Y-94394556D01*
X108998390Y-94402287D01*
X109089840Y-94448883D01*
X109091080Y-94449515D01*
X109141876Y-94497490D01*
X109158671Y-94565311D01*
X109136134Y-94631446D01*
X109091080Y-94670485D01*
X108998386Y-94717715D01*
X108832786Y-94838028D01*
X108688028Y-94982786D01*
X108567715Y-95148386D01*
X108474781Y-95330776D01*
X108411522Y-95525465D01*
X108379500Y-95727648D01*
X108379500Y-95932351D01*
X108411522Y-96134534D01*
X108474781Y-96329223D01*
X108567715Y-96511613D01*
X108688028Y-96677213D01*
X108832786Y-96821971D01*
X108987749Y-96934556D01*
X108998390Y-96942287D01*
X109089840Y-96988883D01*
X109091080Y-96989515D01*
X109141876Y-97037490D01*
X109158671Y-97105311D01*
X109136134Y-97171446D01*
X109091080Y-97210485D01*
X108998386Y-97257715D01*
X108832786Y-97378028D01*
X108688028Y-97522786D01*
X108567715Y-97688386D01*
X108474781Y-97870776D01*
X108411522Y-98065465D01*
X108379500Y-98267648D01*
X108379500Y-98472351D01*
X108411522Y-98674534D01*
X108474781Y-98869223D01*
X108567715Y-99051613D01*
X108688028Y-99217213D01*
X108832786Y-99361971D01*
X108987749Y-99474556D01*
X108998390Y-99482287D01*
X109089840Y-99528883D01*
X109091080Y-99529515D01*
X109141876Y-99577490D01*
X109158671Y-99645311D01*
X109136134Y-99711446D01*
X109091080Y-99750485D01*
X108998386Y-99797715D01*
X108832786Y-99918028D01*
X108688028Y-100062786D01*
X108567715Y-100228386D01*
X108474781Y-100410776D01*
X108411522Y-100605465D01*
X108379500Y-100807648D01*
X108379500Y-101012351D01*
X108411522Y-101214534D01*
X108474781Y-101409223D01*
X108567715Y-101591613D01*
X108688028Y-101757213D01*
X108832786Y-101901971D01*
X108987749Y-102014556D01*
X108998390Y-102022287D01*
X109091080Y-102069515D01*
X109180776Y-102115218D01*
X109180778Y-102115218D01*
X109180781Y-102115220D01*
X109285137Y-102149127D01*
X109375465Y-102178477D01*
X109394697Y-102181523D01*
X109577648Y-102210500D01*
X109577649Y-102210500D01*
X109782351Y-102210500D01*
X109782352Y-102210500D01*
X109984534Y-102178477D01*
X110179219Y-102115220D01*
X110361610Y-102022287D01*
X110454590Y-101954732D01*
X110527213Y-101901971D01*
X110527215Y-101901968D01*
X110527219Y-101901966D01*
X110671966Y-101757219D01*
X110671968Y-101757215D01*
X110671971Y-101757213D01*
X110724732Y-101684590D01*
X110792287Y-101591610D01*
X110885220Y-101409219D01*
X110948477Y-101214534D01*
X110980500Y-101012352D01*
X110980500Y-100807648D01*
X110948477Y-100605466D01*
X110885220Y-100410781D01*
X110885218Y-100410778D01*
X110885218Y-100410776D01*
X110851503Y-100344607D01*
X110792287Y-100228390D01*
X110784556Y-100217749D01*
X110671971Y-100062786D01*
X110527213Y-99918028D01*
X110361614Y-99797715D01*
X110355006Y-99794348D01*
X110268917Y-99750483D01*
X110218123Y-99702511D01*
X110201328Y-99634690D01*
X110223865Y-99568555D01*
X110268917Y-99529516D01*
X110361610Y-99482287D01*
X110382770Y-99466913D01*
X110527213Y-99361971D01*
X110527215Y-99361968D01*
X110527219Y-99361966D01*
X110671966Y-99217219D01*
X110671968Y-99217215D01*
X110671971Y-99217213D01*
X110724732Y-99144590D01*
X110792287Y-99051610D01*
X110885220Y-98869219D01*
X110948477Y-98674534D01*
X110980500Y-98472352D01*
X110980500Y-98267648D01*
X110948477Y-98065466D01*
X110885220Y-97870781D01*
X110885218Y-97870778D01*
X110885218Y-97870776D01*
X110851503Y-97804607D01*
X110792287Y-97688390D01*
X110784556Y-97677749D01*
X110671971Y-97522786D01*
X110527213Y-97378028D01*
X110361614Y-97257715D01*
X110355006Y-97254348D01*
X110268917Y-97210483D01*
X110218123Y-97162511D01*
X110201328Y-97094690D01*
X110223865Y-97028555D01*
X110268917Y-96989516D01*
X110361610Y-96942287D01*
X110382770Y-96926913D01*
X110527213Y-96821971D01*
X110527215Y-96821968D01*
X110527219Y-96821966D01*
X110671966Y-96677219D01*
X110671968Y-96677215D01*
X110671971Y-96677213D01*
X110724732Y-96604590D01*
X110792287Y-96511610D01*
X110885220Y-96329219D01*
X110948477Y-96134534D01*
X110980500Y-95932352D01*
X110980500Y-95727648D01*
X110948477Y-95525466D01*
X110885220Y-95330781D01*
X110885218Y-95330778D01*
X110885218Y-95330776D01*
X110851503Y-95264607D01*
X110792287Y-95148390D01*
X110784556Y-95137749D01*
X110671971Y-94982786D01*
X110527213Y-94838028D01*
X110361614Y-94717715D01*
X110310882Y-94691866D01*
X110268917Y-94670483D01*
X110218123Y-94622511D01*
X110201328Y-94554690D01*
X110223865Y-94488555D01*
X110268917Y-94449516D01*
X110361610Y-94402287D01*
X110382770Y-94386913D01*
X110527213Y-94281971D01*
X110527215Y-94281968D01*
X110527219Y-94281966D01*
X110671966Y-94137219D01*
X110671968Y-94137215D01*
X110671971Y-94137213D01*
X110724732Y-94064590D01*
X110792287Y-93971610D01*
X110885220Y-93789219D01*
X110948477Y-93594534D01*
X110980500Y-93392352D01*
X110980500Y-93187648D01*
X110948477Y-92985466D01*
X110947310Y-92981875D01*
X110901050Y-92839500D01*
X110885220Y-92790781D01*
X110885218Y-92790778D01*
X110885218Y-92790776D01*
X110820876Y-92664499D01*
X110792287Y-92608390D01*
X110784556Y-92597749D01*
X110671971Y-92442786D01*
X110527213Y-92298028D01*
X110361614Y-92177715D01*
X110355006Y-92174348D01*
X110268917Y-92130483D01*
X110218123Y-92082511D01*
X110201328Y-92014690D01*
X110223865Y-91948555D01*
X110268917Y-91909516D01*
X110361610Y-91862287D01*
X110382770Y-91846913D01*
X110527213Y-91741971D01*
X110527215Y-91741968D01*
X110527219Y-91741966D01*
X110671966Y-91597219D01*
X110671968Y-91597215D01*
X110671971Y-91597213D01*
X110724732Y-91524590D01*
X110792287Y-91431610D01*
X110885220Y-91249219D01*
X110948477Y-91054534D01*
X110980500Y-90852352D01*
X110980500Y-90647648D01*
X110948477Y-90445466D01*
X110885220Y-90250781D01*
X110885218Y-90250778D01*
X110885218Y-90250776D01*
X110851503Y-90184607D01*
X110792287Y-90068390D01*
X110784556Y-90057749D01*
X110671971Y-89902786D01*
X110527213Y-89758028D01*
X110361614Y-89637715D01*
X110355006Y-89634348D01*
X110268917Y-89590483D01*
X110218123Y-89542511D01*
X110201328Y-89474690D01*
X110223865Y-89408555D01*
X110268917Y-89369516D01*
X110361610Y-89322287D01*
X110382770Y-89306913D01*
X110527213Y-89201971D01*
X110527215Y-89201968D01*
X110527219Y-89201966D01*
X110671966Y-89057219D01*
X110671968Y-89057215D01*
X110671971Y-89057213D01*
X110724732Y-88984590D01*
X110792287Y-88891610D01*
X110885220Y-88709219D01*
X110948477Y-88514534D01*
X110980500Y-88312352D01*
X110980500Y-88107648D01*
X110948477Y-87905466D01*
X110885220Y-87710781D01*
X110885218Y-87710778D01*
X110885218Y-87710776D01*
X110851503Y-87644607D01*
X110792287Y-87528390D01*
X110765565Y-87491610D01*
X110671971Y-87362786D01*
X110527213Y-87218028D01*
X110361614Y-87097715D01*
X110355006Y-87094348D01*
X110268917Y-87050483D01*
X110218123Y-87002511D01*
X110201328Y-86934690D01*
X110223865Y-86868555D01*
X110268917Y-86829516D01*
X110361610Y-86782287D01*
X110464343Y-86707648D01*
X110527213Y-86661971D01*
X110527215Y-86661968D01*
X110527219Y-86661966D01*
X110671966Y-86517219D01*
X110671968Y-86517215D01*
X110671971Y-86517213D01*
X110724732Y-86444590D01*
X110792287Y-86351610D01*
X110885220Y-86169219D01*
X110948477Y-85974534D01*
X110980500Y-85772352D01*
X110980500Y-85567648D01*
X110948477Y-85365466D01*
X110947310Y-85361875D01*
X110912691Y-85255327D01*
X110885220Y-85170781D01*
X110885218Y-85170778D01*
X110885218Y-85170776D01*
X110820876Y-85044499D01*
X110792287Y-84988390D01*
X110765568Y-84951614D01*
X110671971Y-84822786D01*
X110527213Y-84678028D01*
X110361614Y-84557715D01*
X110355006Y-84554348D01*
X110268917Y-84510483D01*
X110218123Y-84462511D01*
X110201328Y-84394690D01*
X110223865Y-84328555D01*
X110268917Y-84289516D01*
X110361610Y-84242287D01*
X110382770Y-84226913D01*
X110527213Y-84121971D01*
X110527215Y-84121968D01*
X110527219Y-84121966D01*
X110671966Y-83977219D01*
X110671968Y-83977215D01*
X110671971Y-83977213D01*
X110724732Y-83904590D01*
X110792287Y-83811610D01*
X110885220Y-83629219D01*
X110948477Y-83434534D01*
X110980500Y-83232352D01*
X110980500Y-83027648D01*
X110948477Y-82825466D01*
X110885220Y-82630781D01*
X110885218Y-82630778D01*
X110885218Y-82630776D01*
X110851503Y-82564607D01*
X110792287Y-82448390D01*
X110765565Y-82411610D01*
X110671971Y-82282786D01*
X110527213Y-82138028D01*
X110361614Y-82017715D01*
X110355006Y-82014348D01*
X110268917Y-81970483D01*
X110218123Y-81922511D01*
X110201328Y-81854690D01*
X110223865Y-81788555D01*
X110268917Y-81749516D01*
X110361610Y-81702287D01*
X110464343Y-81627648D01*
X110527213Y-81581971D01*
X110527215Y-81581968D01*
X110527219Y-81581966D01*
X110671966Y-81437219D01*
X110671968Y-81437215D01*
X110671971Y-81437213D01*
X110764249Y-81310201D01*
X110792287Y-81271610D01*
X110885220Y-81089219D01*
X110948477Y-80894534D01*
X110980500Y-80692352D01*
X110980500Y-80487648D01*
X110948477Y-80285466D01*
X110885220Y-80090781D01*
X110885218Y-80090778D01*
X110885218Y-80090776D01*
X110851503Y-80024607D01*
X110792287Y-79908390D01*
X110765565Y-79871610D01*
X110671971Y-79742786D01*
X110527213Y-79598028D01*
X110361614Y-79477715D01*
X110355006Y-79474348D01*
X110268917Y-79430483D01*
X110218123Y-79382511D01*
X110201328Y-79314690D01*
X110223865Y-79248555D01*
X110268917Y-79209516D01*
X110361610Y-79162287D01*
X110464343Y-79087648D01*
X110527213Y-79041971D01*
X110527215Y-79041968D01*
X110527219Y-79041966D01*
X110671966Y-78897219D01*
X110671968Y-78897215D01*
X110671971Y-78897213D01*
X110724732Y-78824590D01*
X110792287Y-78731610D01*
X110885220Y-78549219D01*
X110948477Y-78354534D01*
X110980500Y-78152352D01*
X110980500Y-77947648D01*
X110948477Y-77745466D01*
X110885220Y-77550781D01*
X110885218Y-77550778D01*
X110885218Y-77550776D01*
X110851503Y-77484607D01*
X110792287Y-77368390D01*
X110784556Y-77357749D01*
X110671971Y-77202786D01*
X110527213Y-77058028D01*
X110361614Y-76937715D01*
X110355006Y-76934348D01*
X110268917Y-76890483D01*
X110218123Y-76842511D01*
X110201328Y-76774690D01*
X110223865Y-76708555D01*
X110268917Y-76669516D01*
X110361610Y-76622287D01*
X110382770Y-76606913D01*
X110527213Y-76501971D01*
X110527215Y-76501968D01*
X110527219Y-76501966D01*
X110671966Y-76357219D01*
X110671968Y-76357215D01*
X110671971Y-76357213D01*
X110724732Y-76284590D01*
X110792287Y-76191610D01*
X110885220Y-76009219D01*
X110948477Y-75814534D01*
X110980500Y-75612352D01*
X110980500Y-75407648D01*
X110948477Y-75205466D01*
X110885220Y-75010781D01*
X110885218Y-75010778D01*
X110885218Y-75010776D01*
X110851503Y-74944607D01*
X110792287Y-74828390D01*
X110784556Y-74817749D01*
X110671971Y-74662786D01*
X110527213Y-74518028D01*
X110361614Y-74397715D01*
X110355006Y-74394348D01*
X110268917Y-74350483D01*
X110218123Y-74302511D01*
X110201328Y-74234690D01*
X110223865Y-74168555D01*
X110268917Y-74129516D01*
X110361610Y-74082287D01*
X110382770Y-74066913D01*
X110527213Y-73961971D01*
X110527215Y-73961968D01*
X110527219Y-73961966D01*
X110671966Y-73817219D01*
X110671968Y-73817215D01*
X110671971Y-73817213D01*
X110724732Y-73744590D01*
X110792287Y-73651610D01*
X110885220Y-73469219D01*
X110948477Y-73274534D01*
X110980500Y-73072352D01*
X110980500Y-72867648D01*
X110948477Y-72665466D01*
X110885220Y-72470781D01*
X110885218Y-72470778D01*
X110885218Y-72470776D01*
X110851503Y-72404607D01*
X110792287Y-72288390D01*
X110784556Y-72277749D01*
X110671971Y-72122786D01*
X110527213Y-71978028D01*
X110361614Y-71857715D01*
X110355006Y-71854348D01*
X110268917Y-71810483D01*
X110218123Y-71762511D01*
X110201328Y-71694690D01*
X110223865Y-71628555D01*
X110268917Y-71589516D01*
X110361610Y-71542287D01*
X110412556Y-71505273D01*
X110527213Y-71421971D01*
X110527215Y-71421968D01*
X110527219Y-71421966D01*
X110671966Y-71277219D01*
X110671968Y-71277215D01*
X110671971Y-71277213D01*
X110735524Y-71189738D01*
X110792287Y-71111610D01*
X110885220Y-70929219D01*
X110948477Y-70734534D01*
X110980500Y-70532352D01*
X110980500Y-70327648D01*
X133779499Y-70327648D01*
X133779499Y-70532351D01*
X133811521Y-70734534D01*
X133874780Y-70929223D01*
X133967714Y-71111613D01*
X134088027Y-71277213D01*
X134232785Y-71421971D01*
X134347443Y-71505273D01*
X134398389Y-71542287D01*
X134465469Y-71576466D01*
X134491079Y-71589515D01*
X134541875Y-71637490D01*
X134558670Y-71705311D01*
X134536133Y-71771446D01*
X134491079Y-71810485D01*
X134398385Y-71857715D01*
X134232785Y-71978028D01*
X134088027Y-72122786D01*
X133967714Y-72288386D01*
X133874780Y-72470776D01*
X133811521Y-72665465D01*
X133779499Y-72867648D01*
X133779499Y-73072351D01*
X133811521Y-73274534D01*
X133874780Y-73469223D01*
X133967714Y-73651613D01*
X134088027Y-73817213D01*
X134232785Y-73961971D01*
X134387748Y-74074556D01*
X134398389Y-74082287D01*
X134489839Y-74128883D01*
X134491079Y-74129515D01*
X134541875Y-74177490D01*
X134558670Y-74245311D01*
X134536133Y-74311446D01*
X134491079Y-74350485D01*
X134398385Y-74397715D01*
X134232785Y-74518028D01*
X134088027Y-74662786D01*
X133967714Y-74828386D01*
X133874780Y-75010776D01*
X133811521Y-75205465D01*
X133779499Y-75407648D01*
X133779499Y-75612351D01*
X133811521Y-75814534D01*
X133874780Y-76009223D01*
X133967714Y-76191613D01*
X134088027Y-76357213D01*
X134232785Y-76501971D01*
X134387748Y-76614556D01*
X134398389Y-76622287D01*
X134489839Y-76668883D01*
X134491079Y-76669515D01*
X134541875Y-76717490D01*
X134558670Y-76785311D01*
X134536133Y-76851446D01*
X134491079Y-76890485D01*
X134398385Y-76937715D01*
X134232785Y-77058028D01*
X134088027Y-77202786D01*
X133967714Y-77368386D01*
X133874780Y-77550776D01*
X133811521Y-77745465D01*
X133779499Y-77947648D01*
X133779499Y-78152351D01*
X133811521Y-78354534D01*
X133874780Y-78549223D01*
X133967714Y-78731613D01*
X134088027Y-78897213D01*
X134232785Y-79041971D01*
X134386134Y-79153383D01*
X134398389Y-79162287D01*
X134489839Y-79208883D01*
X134491079Y-79209515D01*
X134541875Y-79257490D01*
X134558670Y-79325311D01*
X134536133Y-79391446D01*
X134491079Y-79430485D01*
X134398385Y-79477715D01*
X134232785Y-79598028D01*
X134088027Y-79742786D01*
X133967714Y-79908386D01*
X133874780Y-80090776D01*
X133811521Y-80285465D01*
X133779499Y-80487648D01*
X133779499Y-80692351D01*
X133811521Y-80894534D01*
X133874780Y-81089223D01*
X133967714Y-81271613D01*
X134088027Y-81437213D01*
X134232785Y-81581971D01*
X134354900Y-81670691D01*
X134398389Y-81702287D01*
X134489839Y-81748883D01*
X134491079Y-81749515D01*
X134541875Y-81797490D01*
X134558670Y-81865311D01*
X134536133Y-81931446D01*
X134491079Y-81970485D01*
X134398385Y-82017715D01*
X134232785Y-82138028D01*
X134088027Y-82282786D01*
X133967714Y-82448386D01*
X133874780Y-82630776D01*
X133811521Y-82825465D01*
X133779499Y-83027648D01*
X133779499Y-83232351D01*
X133811521Y-83434534D01*
X133874780Y-83629223D01*
X133927085Y-83731876D01*
X133961702Y-83799815D01*
X133967714Y-83811613D01*
X134088027Y-83977213D01*
X134232785Y-84121971D01*
X134387748Y-84234556D01*
X134398389Y-84242287D01*
X134489839Y-84288883D01*
X134491079Y-84289515D01*
X134541875Y-84337490D01*
X134558670Y-84405311D01*
X134536133Y-84471446D01*
X134491079Y-84510485D01*
X134398385Y-84557715D01*
X134232785Y-84678028D01*
X134088027Y-84822786D01*
X133967714Y-84988386D01*
X133874780Y-85170776D01*
X133811521Y-85365465D01*
X133779499Y-85567648D01*
X133779499Y-85772351D01*
X133811521Y-85974534D01*
X133874780Y-86169223D01*
X133926511Y-86270749D01*
X133961702Y-86339815D01*
X133967714Y-86351613D01*
X134088027Y-86517213D01*
X134232785Y-86661971D01*
X134387748Y-86774556D01*
X134398389Y-86782287D01*
X134489839Y-86828883D01*
X134491079Y-86829515D01*
X134541875Y-86877490D01*
X134558670Y-86945311D01*
X134536133Y-87011446D01*
X134491079Y-87050485D01*
X134398385Y-87097715D01*
X134232785Y-87218028D01*
X134088027Y-87362786D01*
X133967714Y-87528386D01*
X133874780Y-87710776D01*
X133811521Y-87905465D01*
X133779499Y-88107648D01*
X133779499Y-88312351D01*
X133811521Y-88514534D01*
X133874780Y-88709223D01*
X133967714Y-88891613D01*
X134088027Y-89057213D01*
X134232785Y-89201971D01*
X134387748Y-89314556D01*
X134398389Y-89322287D01*
X134489839Y-89368883D01*
X134491079Y-89369515D01*
X134541875Y-89417490D01*
X134558670Y-89485311D01*
X134536133Y-89551446D01*
X134491079Y-89590485D01*
X134398385Y-89637715D01*
X134232785Y-89758028D01*
X134088027Y-89902786D01*
X133967714Y-90068386D01*
X133874780Y-90250776D01*
X133811521Y-90445465D01*
X133779499Y-90647648D01*
X133779499Y-90852351D01*
X133811521Y-91054534D01*
X133874780Y-91249223D01*
X133967714Y-91431613D01*
X134088027Y-91597213D01*
X134232785Y-91741971D01*
X134387748Y-91854556D01*
X134398389Y-91862287D01*
X134489839Y-91908883D01*
X134491079Y-91909515D01*
X134541875Y-91957490D01*
X134558670Y-92025311D01*
X134536133Y-92091446D01*
X134491079Y-92130485D01*
X134398385Y-92177715D01*
X134232785Y-92298028D01*
X134088027Y-92442786D01*
X133967714Y-92608386D01*
X133874780Y-92790776D01*
X133811521Y-92985465D01*
X133779499Y-93187648D01*
X133779499Y-93392351D01*
X133811521Y-93594534D01*
X133874780Y-93789223D01*
X133967714Y-93971613D01*
X134088027Y-94137213D01*
X134232785Y-94281971D01*
X134387748Y-94394556D01*
X134398389Y-94402287D01*
X134489839Y-94448883D01*
X134491079Y-94449515D01*
X134541875Y-94497490D01*
X134558670Y-94565311D01*
X134536133Y-94631446D01*
X134491079Y-94670485D01*
X134398385Y-94717715D01*
X134232785Y-94838028D01*
X134088027Y-94982786D01*
X133967714Y-95148386D01*
X133874780Y-95330776D01*
X133811521Y-95525465D01*
X133779499Y-95727648D01*
X133779499Y-95932351D01*
X133811521Y-96134534D01*
X133874780Y-96329223D01*
X133967714Y-96511613D01*
X134088027Y-96677213D01*
X134232785Y-96821971D01*
X134387748Y-96934556D01*
X134398389Y-96942287D01*
X134489839Y-96988883D01*
X134491079Y-96989515D01*
X134541875Y-97037490D01*
X134558670Y-97105311D01*
X134536133Y-97171446D01*
X134491079Y-97210485D01*
X134398385Y-97257715D01*
X134232785Y-97378028D01*
X134088027Y-97522786D01*
X133967714Y-97688386D01*
X133874780Y-97870776D01*
X133811521Y-98065465D01*
X133779499Y-98267648D01*
X133779499Y-98472351D01*
X133811521Y-98674534D01*
X133874780Y-98869223D01*
X133967714Y-99051613D01*
X134088027Y-99217213D01*
X134232785Y-99361971D01*
X134387748Y-99474556D01*
X134398389Y-99482287D01*
X134489839Y-99528883D01*
X134491079Y-99529515D01*
X134541875Y-99577490D01*
X134558670Y-99645311D01*
X134536133Y-99711446D01*
X134491079Y-99750485D01*
X134398385Y-99797715D01*
X134232785Y-99918028D01*
X134088027Y-100062786D01*
X133967714Y-100228386D01*
X133874780Y-100410776D01*
X133811521Y-100605465D01*
X133779499Y-100807648D01*
X133779499Y-101012351D01*
X133811521Y-101214534D01*
X133874780Y-101409223D01*
X133967714Y-101591613D01*
X134088027Y-101757213D01*
X134232785Y-101901971D01*
X134387748Y-102014556D01*
X134398389Y-102022287D01*
X134489839Y-102068883D01*
X134491079Y-102069515D01*
X134541875Y-102117490D01*
X134558670Y-102185311D01*
X134536133Y-102251446D01*
X134491079Y-102290485D01*
X134398385Y-102337715D01*
X134232785Y-102458028D01*
X134088027Y-102602786D01*
X133967714Y-102768386D01*
X133874780Y-102950776D01*
X133811521Y-103145465D01*
X133779499Y-103347648D01*
X133779499Y-103552351D01*
X133811521Y-103754534D01*
X133874780Y-103949223D01*
X133967714Y-104131613D01*
X134088027Y-104297213D01*
X134232781Y-104441967D01*
X134232783Y-104441968D01*
X134264733Y-104465181D01*
X134307399Y-104520510D01*
X134313380Y-104590123D01*
X134280775Y-104651919D01*
X134219937Y-104686277D01*
X134191850Y-104689500D01*
X134035143Y-104689500D01*
X134035116Y-104689502D01*
X134010011Y-104692413D01*
X134010007Y-104692415D01*
X133907234Y-104737793D01*
X133827793Y-104817234D01*
X133782414Y-104920006D01*
X133782414Y-104920008D01*
X133779499Y-104945131D01*
X133779499Y-107034856D01*
X133779501Y-107034882D01*
X133782412Y-107059987D01*
X133782414Y-107059991D01*
X133827792Y-107162764D01*
X133827793Y-107162765D01*
X133907234Y-107242206D01*
X134010008Y-107287585D01*
X134035134Y-107290500D01*
X136124863Y-107290499D01*
X136124878Y-107290497D01*
X136124881Y-107290497D01*
X136149986Y-107287586D01*
X136149987Y-107287585D01*
X136149990Y-107287585D01*
X136252764Y-107242206D01*
X136332205Y-107162765D01*
X136377584Y-107059991D01*
X136380499Y-107034865D01*
X136380499Y-106664500D01*
X136400184Y-106597461D01*
X136452988Y-106551706D01*
X136504499Y-106540500D01*
X157072472Y-106540500D01*
X157072475Y-106540500D01*
X157212485Y-106502984D01*
X157338015Y-106430509D01*
X157440509Y-106328015D01*
X157512984Y-106202485D01*
X157550500Y-106062475D01*
X157550500Y-70927525D01*
X157512984Y-70787515D01*
X157482395Y-70734534D01*
X157440511Y-70661988D01*
X157440506Y-70661982D01*
X157338017Y-70559493D01*
X157338011Y-70559488D01*
X157212488Y-70487017D01*
X157212489Y-70487017D01*
X157201006Y-70483940D01*
X157072475Y-70449500D01*
X157072472Y-70449500D01*
X150884601Y-70449500D01*
X150817562Y-70429815D01*
X150815747Y-70428626D01*
X150808127Y-70423535D01*
X150808124Y-70423533D01*
X150808123Y-70423533D01*
X150689744Y-70374499D01*
X150689738Y-70374497D01*
X150564071Y-70349500D01*
X150564069Y-70349500D01*
X150435931Y-70349500D01*
X150435929Y-70349500D01*
X150310261Y-70374497D01*
X150310255Y-70374499D01*
X150191875Y-70423533D01*
X150191866Y-70423538D01*
X150085331Y-70494723D01*
X150085327Y-70494726D01*
X149994726Y-70585327D01*
X149994723Y-70585331D01*
X149923538Y-70691866D01*
X149923533Y-70691875D01*
X149874499Y-70810255D01*
X149874497Y-70810261D01*
X149849500Y-70935928D01*
X149849500Y-70935931D01*
X149849500Y-71064069D01*
X149849500Y-71064071D01*
X149849499Y-71064071D01*
X149874497Y-71189738D01*
X149874499Y-71189744D01*
X149923533Y-71308124D01*
X149923538Y-71308133D01*
X149994723Y-71414668D01*
X149994726Y-71414672D01*
X150085327Y-71505273D01*
X150085331Y-71505276D01*
X150191866Y-71576461D01*
X150191872Y-71576464D01*
X150191873Y-71576465D01*
X150310256Y-71625501D01*
X150310260Y-71625501D01*
X150310261Y-71625502D01*
X150435928Y-71650500D01*
X150435931Y-71650500D01*
X150564071Y-71650500D01*
X150648615Y-71633682D01*
X150689744Y-71625501D01*
X150808127Y-71576465D01*
X150815712Y-71571396D01*
X150882389Y-71550520D01*
X150884601Y-71550500D01*
X156325500Y-71550500D01*
X156392539Y-71570185D01*
X156438294Y-71622989D01*
X156449500Y-71674500D01*
X156449500Y-105315500D01*
X156429815Y-105382539D01*
X156377011Y-105428294D01*
X156325500Y-105439500D01*
X136504498Y-105439500D01*
X136437459Y-105419815D01*
X136391704Y-105367011D01*
X136380498Y-105315500D01*
X136380498Y-104945143D01*
X136380498Y-104945136D01*
X136380496Y-104945117D01*
X136377585Y-104920012D01*
X136377584Y-104920010D01*
X136377584Y-104920009D01*
X136332205Y-104817235D01*
X136252764Y-104737794D01*
X136252762Y-104737793D01*
X136149991Y-104692415D01*
X136124867Y-104689500D01*
X136124864Y-104689500D01*
X135968150Y-104689500D01*
X135901111Y-104669815D01*
X135855356Y-104617011D01*
X135845412Y-104547853D01*
X135874437Y-104484297D01*
X135895265Y-104465182D01*
X135927212Y-104441971D01*
X135927214Y-104441968D01*
X135927218Y-104441966D01*
X136071965Y-104297219D01*
X136071967Y-104297215D01*
X136071970Y-104297213D01*
X136124731Y-104224590D01*
X136192286Y-104131610D01*
X136285219Y-103949219D01*
X136348476Y-103754534D01*
X136380499Y-103552352D01*
X136380499Y-103347648D01*
X136348476Y-103145466D01*
X136285219Y-102950781D01*
X136285217Y-102950778D01*
X136285217Y-102950776D01*
X136251502Y-102884607D01*
X136192286Y-102768390D01*
X136184555Y-102757749D01*
X136071970Y-102602786D01*
X135927212Y-102458028D01*
X135761613Y-102337715D01*
X135755005Y-102334348D01*
X135668916Y-102290483D01*
X135618122Y-102242511D01*
X135601327Y-102174690D01*
X135623864Y-102108555D01*
X135668916Y-102069516D01*
X135761609Y-102022287D01*
X135782769Y-102006913D01*
X135927212Y-101901971D01*
X135927214Y-101901968D01*
X135927218Y-101901966D01*
X136071965Y-101757219D01*
X136071967Y-101757215D01*
X136071970Y-101757213D01*
X136124731Y-101684590D01*
X136192286Y-101591610D01*
X136285219Y-101409219D01*
X136348476Y-101214534D01*
X136380499Y-101012352D01*
X136380499Y-100807648D01*
X136348476Y-100605466D01*
X136285219Y-100410781D01*
X136285217Y-100410778D01*
X136285217Y-100410776D01*
X136251502Y-100344607D01*
X136192286Y-100228390D01*
X136184555Y-100217749D01*
X136071970Y-100062786D01*
X135927212Y-99918028D01*
X135761613Y-99797715D01*
X135755005Y-99794348D01*
X135668916Y-99750483D01*
X135618122Y-99702511D01*
X135601327Y-99634690D01*
X135623864Y-99568555D01*
X135668916Y-99529516D01*
X135761609Y-99482287D01*
X135782769Y-99466913D01*
X135927212Y-99361971D01*
X135927214Y-99361968D01*
X135927218Y-99361966D01*
X136071965Y-99217219D01*
X136071967Y-99217215D01*
X136071970Y-99217213D01*
X136124731Y-99144590D01*
X136192286Y-99051610D01*
X136285219Y-98869219D01*
X136348476Y-98674534D01*
X136380499Y-98472352D01*
X136380499Y-98267648D01*
X136348476Y-98065466D01*
X136285219Y-97870781D01*
X136285217Y-97870778D01*
X136285217Y-97870776D01*
X136251502Y-97804607D01*
X136192286Y-97688390D01*
X136184555Y-97677749D01*
X136071970Y-97522786D01*
X135927212Y-97378028D01*
X135761613Y-97257715D01*
X135755005Y-97254348D01*
X135668916Y-97210483D01*
X135618122Y-97162511D01*
X135601327Y-97094690D01*
X135623864Y-97028555D01*
X135668916Y-96989516D01*
X135761609Y-96942287D01*
X135782769Y-96926913D01*
X135927212Y-96821971D01*
X135927214Y-96821968D01*
X135927218Y-96821966D01*
X136071965Y-96677219D01*
X136071967Y-96677215D01*
X136071970Y-96677213D01*
X136124731Y-96604590D01*
X136192286Y-96511610D01*
X136285219Y-96329219D01*
X136348476Y-96134534D01*
X136380499Y-95932352D01*
X136380499Y-95727648D01*
X136348476Y-95525466D01*
X136285219Y-95330781D01*
X136285217Y-95330778D01*
X136285217Y-95330776D01*
X136251502Y-95264607D01*
X136192286Y-95148390D01*
X136184555Y-95137749D01*
X136071970Y-94982786D01*
X135927212Y-94838028D01*
X135761613Y-94717715D01*
X135710881Y-94691866D01*
X135668916Y-94670483D01*
X135618122Y-94622511D01*
X135601327Y-94554690D01*
X135623864Y-94488555D01*
X135668916Y-94449516D01*
X135761609Y-94402287D01*
X135782769Y-94386913D01*
X135927212Y-94281971D01*
X135927214Y-94281968D01*
X135927218Y-94281966D01*
X136071965Y-94137219D01*
X136071967Y-94137215D01*
X136071970Y-94137213D01*
X136124731Y-94064590D01*
X136192286Y-93971610D01*
X136285219Y-93789219D01*
X136348476Y-93594534D01*
X136380499Y-93392352D01*
X136380499Y-93187648D01*
X136348476Y-92985466D01*
X136347309Y-92981875D01*
X136301049Y-92839500D01*
X136285219Y-92790781D01*
X136285217Y-92790778D01*
X136285217Y-92790776D01*
X136220875Y-92664499D01*
X136192286Y-92608390D01*
X136184555Y-92597749D01*
X136071970Y-92442786D01*
X135927212Y-92298028D01*
X135761613Y-92177715D01*
X135755005Y-92174348D01*
X135668916Y-92130483D01*
X135618122Y-92082511D01*
X135601327Y-92014690D01*
X135623864Y-91948555D01*
X135668916Y-91909516D01*
X135761609Y-91862287D01*
X135782769Y-91846913D01*
X135927212Y-91741971D01*
X135927214Y-91741968D01*
X135927218Y-91741966D01*
X136071965Y-91597219D01*
X136071967Y-91597215D01*
X136071970Y-91597213D01*
X136124731Y-91524590D01*
X136192286Y-91431610D01*
X136285219Y-91249219D01*
X136348476Y-91054534D01*
X136380499Y-90852352D01*
X136380499Y-90647648D01*
X136348476Y-90445466D01*
X136285219Y-90250781D01*
X136285217Y-90250778D01*
X136285217Y-90250776D01*
X136251502Y-90184607D01*
X136192286Y-90068390D01*
X136184555Y-90057749D01*
X136071970Y-89902786D01*
X135927212Y-89758028D01*
X135761613Y-89637715D01*
X135755005Y-89634348D01*
X135668916Y-89590483D01*
X135618122Y-89542511D01*
X135601327Y-89474690D01*
X135623864Y-89408555D01*
X135668916Y-89369516D01*
X135761609Y-89322287D01*
X135782769Y-89306913D01*
X135927212Y-89201971D01*
X135927214Y-89201968D01*
X135927218Y-89201966D01*
X136071965Y-89057219D01*
X136071967Y-89057215D01*
X136071970Y-89057213D01*
X136124731Y-88984590D01*
X136192286Y-88891610D01*
X136285219Y-88709219D01*
X136348476Y-88514534D01*
X136380499Y-88312352D01*
X136380499Y-88107648D01*
X136348476Y-87905466D01*
X136285219Y-87710781D01*
X136285217Y-87710778D01*
X136285217Y-87710776D01*
X136251502Y-87644607D01*
X136192286Y-87528390D01*
X136165564Y-87491610D01*
X136071970Y-87362786D01*
X135927212Y-87218028D01*
X135761613Y-87097715D01*
X135755005Y-87094348D01*
X135668916Y-87050483D01*
X135618122Y-87002511D01*
X135601327Y-86934690D01*
X135623864Y-86868555D01*
X135668916Y-86829516D01*
X135761609Y-86782287D01*
X135864342Y-86707648D01*
X135927212Y-86661971D01*
X135927214Y-86661968D01*
X135927218Y-86661966D01*
X136071965Y-86517219D01*
X136071967Y-86517215D01*
X136071970Y-86517213D01*
X136192283Y-86351614D01*
X136192284Y-86351613D01*
X136192286Y-86351610D01*
X136275545Y-86188204D01*
X136323520Y-86137409D01*
X136386030Y-86120500D01*
X137179192Y-86120500D01*
X137246231Y-86140185D01*
X137266873Y-86156819D01*
X137285327Y-86175273D01*
X137285331Y-86175276D01*
X137391866Y-86246461D01*
X137391872Y-86246464D01*
X137391873Y-86246465D01*
X137510256Y-86295501D01*
X137510260Y-86295501D01*
X137510261Y-86295502D01*
X137635928Y-86320500D01*
X137635931Y-86320500D01*
X137764071Y-86320500D01*
X137895718Y-86294313D01*
X137895957Y-86295517D01*
X137959366Y-86294948D01*
X138018481Y-86332194D01*
X138048075Y-86395486D01*
X138049500Y-86414234D01*
X138049500Y-94479192D01*
X138029815Y-94546231D01*
X138013181Y-94566873D01*
X137994726Y-94585327D01*
X137994723Y-94585331D01*
X137923538Y-94691866D01*
X137923533Y-94691875D01*
X137874499Y-94810255D01*
X137874497Y-94810261D01*
X137849500Y-94935928D01*
X137849500Y-94935931D01*
X137849500Y-95064069D01*
X137849500Y-95064071D01*
X137849499Y-95064071D01*
X137874497Y-95189738D01*
X137874499Y-95189744D01*
X137923533Y-95308124D01*
X137923538Y-95308133D01*
X137994723Y-95414668D01*
X137994726Y-95414672D01*
X138085327Y-95505273D01*
X138085331Y-95505276D01*
X138191866Y-95576461D01*
X138191872Y-95576464D01*
X138191873Y-95576465D01*
X138310256Y-95625501D01*
X138310260Y-95625501D01*
X138310261Y-95625502D01*
X138435928Y-95650500D01*
X138435931Y-95650500D01*
X138564071Y-95650500D01*
X138648615Y-95633682D01*
X138689744Y-95625501D01*
X138808127Y-95576465D01*
X138914669Y-95505276D01*
X139005276Y-95414669D01*
X139076465Y-95308127D01*
X139125501Y-95189744D01*
X139150500Y-95064069D01*
X139150500Y-94935931D01*
X139150500Y-94935928D01*
X139125502Y-94810261D01*
X139125501Y-94810260D01*
X139125501Y-94810256D01*
X139076465Y-94691873D01*
X139076464Y-94691872D01*
X139076461Y-94691866D01*
X139005276Y-94585331D01*
X139005273Y-94585327D01*
X138986819Y-94566873D01*
X138953334Y-94505550D01*
X138950500Y-94479192D01*
X138950500Y-86434709D01*
X138970185Y-86367670D01*
X139022989Y-86321915D01*
X139092147Y-86311971D01*
X139098661Y-86313086D01*
X139135931Y-86320500D01*
X139264071Y-86320500D01*
X139361099Y-86301199D01*
X139389744Y-86295501D01*
X139508127Y-86246465D01*
X139603642Y-86182644D01*
X139670319Y-86161766D01*
X139737699Y-86180250D01*
X139784390Y-86232229D01*
X139795566Y-86301199D01*
X139790464Y-86324064D01*
X139731523Y-86505461D01*
X139731523Y-86505464D01*
X139699500Y-86707648D01*
X139699500Y-86912351D01*
X139731522Y-87114534D01*
X139794781Y-87309223D01*
X139887715Y-87491613D01*
X140008028Y-87657213D01*
X140152786Y-87801971D01*
X140295236Y-87905465D01*
X140318390Y-87922287D01*
X140434607Y-87981503D01*
X140500776Y-88015218D01*
X140500778Y-88015218D01*
X140500781Y-88015220D01*
X140605137Y-88049127D01*
X140695465Y-88078477D01*
X140796557Y-88094488D01*
X140897648Y-88110500D01*
X140897649Y-88110500D01*
X141102351Y-88110500D01*
X141102352Y-88110500D01*
X141304534Y-88078477D01*
X141499219Y-88015220D01*
X141681610Y-87922287D01*
X141774590Y-87854732D01*
X141847213Y-87801971D01*
X141847215Y-87801968D01*
X141847219Y-87801966D01*
X141991966Y-87657219D01*
X141991968Y-87657215D01*
X141991971Y-87657213D01*
X142112284Y-87491614D01*
X142112285Y-87491613D01*
X142112287Y-87491610D01*
X142159516Y-87398917D01*
X142207489Y-87348123D01*
X142275310Y-87331328D01*
X142341445Y-87353865D01*
X142380483Y-87398917D01*
X142399124Y-87435501D01*
X142427715Y-87491614D01*
X142548028Y-87657213D01*
X142692786Y-87801971D01*
X142835236Y-87905465D01*
X142858390Y-87922287D01*
X142974607Y-87981503D01*
X143040776Y-88015218D01*
X143040778Y-88015218D01*
X143040781Y-88015220D01*
X143145137Y-88049127D01*
X143235465Y-88078477D01*
X143336557Y-88094488D01*
X143437648Y-88110500D01*
X143437649Y-88110500D01*
X143642351Y-88110500D01*
X143642352Y-88110500D01*
X143844534Y-88078477D01*
X144039219Y-88015220D01*
X144221610Y-87922287D01*
X144314590Y-87854732D01*
X144387213Y-87801971D01*
X144387215Y-87801968D01*
X144387219Y-87801966D01*
X144531966Y-87657219D01*
X144531968Y-87657215D01*
X144531971Y-87657213D01*
X144652284Y-87491614D01*
X144652285Y-87491613D01*
X144652287Y-87491610D01*
X144735546Y-87328204D01*
X144783521Y-87277409D01*
X144846031Y-87260500D01*
X153479192Y-87260500D01*
X153546231Y-87280185D01*
X153566873Y-87296819D01*
X153585327Y-87315273D01*
X153585331Y-87315276D01*
X153691866Y-87386461D01*
X153691872Y-87386464D01*
X153691873Y-87386465D01*
X153810256Y-87435501D01*
X153810260Y-87435501D01*
X153810261Y-87435502D01*
X153935928Y-87460500D01*
X153935931Y-87460500D01*
X154064071Y-87460500D01*
X154148615Y-87443682D01*
X154189744Y-87435501D01*
X154308127Y-87386465D01*
X154414669Y-87315276D01*
X154505276Y-87224669D01*
X154576465Y-87118127D01*
X154625501Y-86999744D01*
X154637688Y-86938477D01*
X154650500Y-86874071D01*
X154650500Y-86745928D01*
X154625502Y-86620261D01*
X154625501Y-86620260D01*
X154625501Y-86620256D01*
X154577953Y-86505466D01*
X154576466Y-86501875D01*
X154576461Y-86501866D01*
X154505276Y-86395331D01*
X154505273Y-86395327D01*
X154414672Y-86304726D01*
X154414668Y-86304723D01*
X154308133Y-86233538D01*
X154308124Y-86233533D01*
X154189744Y-86184499D01*
X154189738Y-86184497D01*
X154064071Y-86159500D01*
X154064069Y-86159500D01*
X153935931Y-86159500D01*
X153935929Y-86159500D01*
X153810261Y-86184497D01*
X153810255Y-86184499D01*
X153691875Y-86233533D01*
X153691866Y-86233538D01*
X153585331Y-86304723D01*
X153585327Y-86304726D01*
X153566873Y-86323181D01*
X153505550Y-86356666D01*
X153479192Y-86359500D01*
X144846031Y-86359500D01*
X144778992Y-86339815D01*
X144735546Y-86291795D01*
X144725397Y-86271876D01*
X144652287Y-86128390D01*
X144652285Y-86128387D01*
X144652284Y-86128385D01*
X144531971Y-85962786D01*
X144387213Y-85818028D01*
X144221614Y-85697715D01*
X144215006Y-85694348D01*
X144128917Y-85650483D01*
X144078123Y-85602511D01*
X144061328Y-85534690D01*
X144083865Y-85468555D01*
X144128917Y-85429516D01*
X144221610Y-85382287D01*
X144249717Y-85361866D01*
X144387213Y-85261971D01*
X144387215Y-85261968D01*
X144387219Y-85261966D01*
X144531966Y-85117219D01*
X144531968Y-85117215D01*
X144531971Y-85117213D01*
X144652284Y-84951614D01*
X144652283Y-84951614D01*
X144652287Y-84951610D01*
X144735546Y-84788204D01*
X144783521Y-84737409D01*
X144846031Y-84720500D01*
X145789308Y-84720500D01*
X145789309Y-84720500D01*
X145879673Y-84696286D01*
X145903887Y-84689799D01*
X146006614Y-84630489D01*
X148360490Y-82276614D01*
X148419799Y-82173887D01*
X148426285Y-82149675D01*
X148426286Y-82149675D01*
X148426286Y-82149671D01*
X148450500Y-82059309D01*
X148450500Y-79370691D01*
X148435494Y-79314690D01*
X148426286Y-79280325D01*
X148426286Y-79280324D01*
X148423544Y-79270091D01*
X148419799Y-79256113D01*
X148360489Y-79153386D01*
X139276614Y-70069511D01*
X139225250Y-70039856D01*
X139173888Y-70010201D01*
X139161780Y-70006957D01*
X139149673Y-70003713D01*
X139149670Y-70003712D01*
X139111478Y-69993478D01*
X139059309Y-69979500D01*
X139059308Y-69979500D01*
X136386030Y-69979500D01*
X136318991Y-69959815D01*
X136275545Y-69911795D01*
X136192283Y-69748385D01*
X136071970Y-69582786D01*
X135927212Y-69438028D01*
X135761612Y-69317715D01*
X135761611Y-69317714D01*
X135761609Y-69317713D01*
X135704652Y-69288691D01*
X135579222Y-69224781D01*
X135384533Y-69161522D01*
X135209994Y-69133878D01*
X135182351Y-69129500D01*
X134977647Y-69129500D01*
X134953328Y-69133351D01*
X134775464Y-69161522D01*
X134580775Y-69224781D01*
X134398385Y-69317715D01*
X134232785Y-69438028D01*
X134088027Y-69582786D01*
X133967714Y-69748386D01*
X133874780Y-69930776D01*
X133811521Y-70125465D01*
X133779499Y-70327648D01*
X110980500Y-70327648D01*
X110948477Y-70125466D01*
X110885220Y-69930781D01*
X110885218Y-69930778D01*
X110885218Y-69930776D01*
X110851503Y-69864607D01*
X110792287Y-69748390D01*
X110784556Y-69737749D01*
X110671971Y-69582786D01*
X110527213Y-69438028D01*
X110361613Y-69317715D01*
X110361612Y-69317714D01*
X110361610Y-69317713D01*
X110304653Y-69288691D01*
X110179223Y-69224781D01*
X109984534Y-69161522D01*
X109809995Y-69133878D01*
X109782352Y-69129500D01*
X109577648Y-69129500D01*
X109553329Y-69133351D01*
X109375465Y-69161522D01*
X109180776Y-69224781D01*
X108998386Y-69317715D01*
X108832786Y-69438028D01*
X108688028Y-69582786D01*
X108567715Y-69748386D01*
X108474781Y-69930776D01*
X108411522Y-70125465D01*
X108379500Y-70327648D01*
X108379500Y-70532351D01*
X108411522Y-70734534D01*
X108474781Y-70929223D01*
X108567715Y-71111613D01*
X108688028Y-71277213D01*
X108832786Y-71421971D01*
X108947444Y-71505273D01*
X108998390Y-71542287D01*
X109065470Y-71576466D01*
X109091080Y-71589515D01*
X109141876Y-71637490D01*
X109158671Y-71705311D01*
X109136134Y-71771446D01*
X109091080Y-71810485D01*
X108998386Y-71857715D01*
X108832786Y-71978028D01*
X108688028Y-72122786D01*
X108567715Y-72288386D01*
X108474781Y-72470776D01*
X108411522Y-72665465D01*
X108379500Y-72867648D01*
X108379500Y-73072351D01*
X108411522Y-73274534D01*
X108474781Y-73469223D01*
X108567715Y-73651613D01*
X108688028Y-73817213D01*
X108832786Y-73961971D01*
X108987749Y-74074556D01*
X108998390Y-74082287D01*
X109089840Y-74128883D01*
X109091080Y-74129515D01*
X109141876Y-74177490D01*
X109158671Y-74245311D01*
X109136134Y-74311446D01*
X109091080Y-74350485D01*
X108998386Y-74397715D01*
X108832786Y-74518028D01*
X108688028Y-74662786D01*
X108567715Y-74828386D01*
X108474781Y-75010776D01*
X108411522Y-75205465D01*
X108379500Y-75407648D01*
X108379500Y-75612351D01*
X108411522Y-75814534D01*
X108474781Y-76009223D01*
X108567715Y-76191613D01*
X108688028Y-76357213D01*
X108832786Y-76501971D01*
X108987749Y-76614556D01*
X108998390Y-76622287D01*
X109089840Y-76668883D01*
X109091080Y-76669515D01*
X109141876Y-76717490D01*
X109158671Y-76785311D01*
X109136134Y-76851446D01*
X109091080Y-76890485D01*
X108998386Y-76937715D01*
X108832786Y-77058028D01*
X108688028Y-77202786D01*
X108567715Y-77368386D01*
X108474781Y-77550776D01*
X108411522Y-77745465D01*
X108379500Y-77947648D01*
X108379500Y-78152351D01*
X108411522Y-78354534D01*
X108474781Y-78549223D01*
X108567715Y-78731613D01*
X108688028Y-78897213D01*
X108832786Y-79041971D01*
X108986135Y-79153383D01*
X108998390Y-79162287D01*
X109089840Y-79208883D01*
X109091080Y-79209515D01*
X109141876Y-79257490D01*
X109158671Y-79325311D01*
X109136134Y-79391446D01*
X109091080Y-79430485D01*
X108998386Y-79477715D01*
X108832786Y-79598028D01*
X108688028Y-79742786D01*
X108567715Y-79908386D01*
X108474781Y-80090776D01*
X108411522Y-80285465D01*
X108379500Y-80487648D01*
X108379500Y-80692351D01*
X108411522Y-80894534D01*
X108474781Y-81089223D01*
X108567715Y-81271613D01*
X108688028Y-81437213D01*
X108832786Y-81581971D01*
X108954901Y-81670691D01*
X108998390Y-81702287D01*
X109089840Y-81748883D01*
X109091080Y-81749515D01*
X109141876Y-81797490D01*
X109158671Y-81865311D01*
X109136134Y-81931446D01*
X109091080Y-81970485D01*
X108998386Y-82017715D01*
X108832786Y-82138028D01*
X108688028Y-82282786D01*
X108567715Y-82448386D01*
X108474781Y-82630776D01*
X108411522Y-82825465D01*
X108379500Y-83027648D01*
X108379500Y-83232351D01*
X108411522Y-83434534D01*
X108474781Y-83629223D01*
X108527086Y-83731876D01*
X108561703Y-83799815D01*
X108567715Y-83811613D01*
X108688028Y-83977213D01*
X108832786Y-84121971D01*
X108987749Y-84234556D01*
X108998390Y-84242287D01*
X109089840Y-84288883D01*
X109091080Y-84289515D01*
X109141876Y-84337490D01*
X109158671Y-84405311D01*
X109136134Y-84471446D01*
X109091080Y-84510485D01*
X108998386Y-84557715D01*
X108832786Y-84678028D01*
X108688028Y-84822786D01*
X108567715Y-84988386D01*
X108474781Y-85170776D01*
X108411522Y-85365465D01*
X108379500Y-85567648D01*
X108379500Y-85772351D01*
X108411522Y-85974534D01*
X108474781Y-86169223D01*
X108526512Y-86270749D01*
X108561703Y-86339815D01*
X108567715Y-86351613D01*
X108688028Y-86517213D01*
X108832786Y-86661971D01*
X108987749Y-86774556D01*
X108998390Y-86782287D01*
X109089840Y-86828883D01*
X109091080Y-86829515D01*
X109141876Y-86877490D01*
X109158671Y-86945311D01*
X109136134Y-87011446D01*
X109091080Y-87050485D01*
X108998386Y-87097715D01*
X108832786Y-87218028D01*
X108688028Y-87362786D01*
X108567715Y-87528386D01*
X108474781Y-87710776D01*
X108411522Y-87905465D01*
X108379500Y-88107648D01*
X108379500Y-88312351D01*
X108411522Y-88514534D01*
X108474781Y-88709223D01*
X108567715Y-88891613D01*
X108688028Y-89057213D01*
X108832786Y-89201971D01*
X108987749Y-89314556D01*
X108998390Y-89322287D01*
X109089840Y-89368883D01*
X109091080Y-89369515D01*
X109141876Y-89417490D01*
X109158671Y-89485311D01*
X109136134Y-89551446D01*
X109091080Y-89590485D01*
X108998386Y-89637715D01*
X108832786Y-89758028D01*
X108688028Y-89902786D01*
X108567715Y-90068386D01*
X108474781Y-90250776D01*
X108411522Y-90445465D01*
X108379500Y-90647648D01*
X108379500Y-90852351D01*
X108411522Y-91054534D01*
X108474781Y-91249223D01*
X108567715Y-91431613D01*
X108688028Y-91597213D01*
X108832786Y-91741971D01*
X108987749Y-91854556D01*
X108998390Y-91862287D01*
X109089840Y-91908883D01*
X109091080Y-91909515D01*
X109141876Y-91957490D01*
X109158671Y-92025311D01*
X109136134Y-92091446D01*
X109091080Y-92130485D01*
X108998386Y-92177715D01*
X108832786Y-92298028D01*
X108688028Y-92442786D01*
X108567715Y-92608385D01*
X108484454Y-92771795D01*
X108436479Y-92822591D01*
X108373969Y-92839500D01*
X107520808Y-92839500D01*
X107453769Y-92819815D01*
X107433127Y-92803181D01*
X107414672Y-92784726D01*
X107414668Y-92784723D01*
X107308133Y-92713538D01*
X107308124Y-92713533D01*
X107189744Y-92664499D01*
X107189738Y-92664497D01*
X107064071Y-92639500D01*
X107064069Y-92639500D01*
X106935931Y-92639500D01*
X106935929Y-92639500D01*
X106810261Y-92664497D01*
X106810255Y-92664499D01*
X106691875Y-92713533D01*
X106691866Y-92713538D01*
X106585331Y-92784723D01*
X106585327Y-92784726D01*
X106494726Y-92875327D01*
X106494723Y-92875331D01*
X106423538Y-92981866D01*
X106423533Y-92981875D01*
X106374499Y-93100255D01*
X106374497Y-93100261D01*
X106349500Y-93225928D01*
X106349500Y-93225931D01*
X106349500Y-93354069D01*
X106349500Y-93354071D01*
X106349499Y-93354071D01*
X100500500Y-93354071D01*
X100500500Y-53378711D01*
X101649500Y-53378711D01*
X101649500Y-53621288D01*
X101681161Y-53861785D01*
X101743947Y-54096104D01*
X101836773Y-54320205D01*
X101836776Y-54320212D01*
X101958064Y-54530289D01*
X101958066Y-54530292D01*
X101958067Y-54530293D01*
X102105733Y-54722736D01*
X102105739Y-54722743D01*
X102277256Y-54894260D01*
X102277262Y-54894265D01*
X102469711Y-55041936D01*
X102679788Y-55163224D01*
X102903900Y-55256054D01*
X103138211Y-55318838D01*
X103318586Y-55342584D01*
X103378711Y-55350500D01*
X103378712Y-55350500D01*
X103621289Y-55350500D01*
X103669388Y-55344167D01*
X103861789Y-55318838D01*
X104096100Y-55256054D01*
X104320212Y-55163224D01*
X104530289Y-55041936D01*
X104722738Y-54894265D01*
X104894265Y-54722738D01*
X105041936Y-54530289D01*
X105163224Y-54320212D01*
X105256054Y-54096100D01*
X105318838Y-53861789D01*
X105350500Y-53621288D01*
X105350500Y-53378712D01*
X105318838Y-53138211D01*
X105256054Y-52903900D01*
X105163224Y-52679788D01*
X105041936Y-52469711D01*
X104894265Y-52277262D01*
X104894260Y-52277256D01*
X104722743Y-52105739D01*
X104722736Y-52105733D01*
X104530293Y-51958067D01*
X104530292Y-51958066D01*
X104530289Y-51958064D01*
X104320212Y-51836776D01*
X104320205Y-51836773D01*
X104096104Y-51743947D01*
X103861785Y-51681161D01*
X103621289Y-51649500D01*
X103621288Y-51649500D01*
X103378712Y-51649500D01*
X103378711Y-51649500D01*
X103138214Y-51681161D01*
X102903895Y-51743947D01*
X102679794Y-51836773D01*
X102679785Y-51836777D01*
X102469706Y-51958067D01*
X102277263Y-52105733D01*
X102277256Y-52105739D01*
X102105739Y-52277256D01*
X102105733Y-52277263D01*
X101958067Y-52469706D01*
X101836777Y-52679785D01*
X101836773Y-52679794D01*
X101743947Y-52903895D01*
X101681161Y-53138214D01*
X101649500Y-53378711D01*
X100500500Y-53378711D01*
X100500500Y-50809757D01*
X100502027Y-50790359D01*
X100504279Y-50776135D01*
X100512086Y-50726846D01*
X100524072Y-50689955D01*
X100548786Y-50641452D01*
X100571585Y-50610073D01*
X100610073Y-50571585D01*
X100641452Y-50548786D01*
X100689955Y-50524072D01*
X100726846Y-50512086D01*
X100790360Y-50502026D01*
X100809758Y-50500500D01*
X100865893Y-50500500D01*
X106876000Y-50500500D01*
X106943039Y-50520185D01*
G37*
%TD.AperFunction*%
%TD*%
M02*
