%TF.GenerationSoftware,KiCad,Pcbnew,10.0.6*%
%TF.CreationDate,2026-09-14T14:08:33-04:00*%
%TF.ProjectId,rainpoint_carrier,7261696e-706f-4696-9e74-5f6361727269,B*%
%TF.SameCoordinates,Original*%
%TF.FileFunction,Legend,Bot*%
%TF.FilePolarity,Positive*%
%FSLAX46Y46*%
G04 Gerber Fmt 4.6, Leading zero omitted, Abs format (unit mm)*
G04 Created by KiCad (PCBNEW 10.0.6) date 2026-09-14 14:08:33*
%MOMM*%
%LPD*%
G01*
G04 APERTURE LIST*
%ADD10C,0.150000*%
G04 APERTURE END LIST*
D10*
X131295238Y-79552295D02*
X131752381Y-79552295D01*
X131523809Y-79552295D02*
X131523809Y-78752295D01*
X131523809Y-78752295D02*
X131600000Y-78866580D01*
X131600000Y-78866580D02*
X131676190Y-78942771D01*
X131676190Y-78942771D02*
X131752381Y-78980866D01*
X129923809Y-78790390D02*
X129999999Y-78752295D01*
X129999999Y-78752295D02*
X130114285Y-78752295D01*
X130114285Y-78752295D02*
X130228571Y-78790390D01*
X130228571Y-78790390D02*
X130304761Y-78866580D01*
X130304761Y-78866580D02*
X130342856Y-78942771D01*
X130342856Y-78942771D02*
X130380952Y-79095152D01*
X130380952Y-79095152D02*
X130380952Y-79209438D01*
X130380952Y-79209438D02*
X130342856Y-79361819D01*
X130342856Y-79361819D02*
X130304761Y-79438009D01*
X130304761Y-79438009D02*
X130228571Y-79514200D01*
X130228571Y-79514200D02*
X130114285Y-79552295D01*
X130114285Y-79552295D02*
X130038094Y-79552295D01*
X130038094Y-79552295D02*
X129923809Y-79514200D01*
X129923809Y-79514200D02*
X129885713Y-79476104D01*
X129885713Y-79476104D02*
X129885713Y-79209438D01*
X129885713Y-79209438D02*
X130038094Y-79209438D01*
X129542856Y-79552295D02*
X129542856Y-78752295D01*
X129542856Y-78752295D02*
X129085713Y-79552295D01*
X129085713Y-79552295D02*
X129085713Y-78752295D01*
X128704761Y-79552295D02*
X128704761Y-78752295D01*
X128704761Y-78752295D02*
X128514285Y-78752295D01*
X128514285Y-78752295D02*
X128399999Y-78790390D01*
X128399999Y-78790390D02*
X128323809Y-78866580D01*
X128323809Y-78866580D02*
X128285714Y-78942771D01*
X128285714Y-78942771D02*
X128247618Y-79095152D01*
X128247618Y-79095152D02*
X128247618Y-79209438D01*
X128247618Y-79209438D02*
X128285714Y-79361819D01*
X128285714Y-79361819D02*
X128323809Y-79438009D01*
X128323809Y-79438009D02*
X128399999Y-79514200D01*
X128399999Y-79514200D02*
X128514285Y-79552295D01*
X128514285Y-79552295D02*
X128704761Y-79552295D01*
X132171428Y-81292295D02*
X131676190Y-81292295D01*
X131676190Y-81292295D02*
X131942856Y-81597057D01*
X131942856Y-81597057D02*
X131828571Y-81597057D01*
X131828571Y-81597057D02*
X131752380Y-81635152D01*
X131752380Y-81635152D02*
X131714285Y-81673247D01*
X131714285Y-81673247D02*
X131676190Y-81749438D01*
X131676190Y-81749438D02*
X131676190Y-81939914D01*
X131676190Y-81939914D02*
X131714285Y-82016104D01*
X131714285Y-82016104D02*
X131752380Y-82054200D01*
X131752380Y-82054200D02*
X131828571Y-82092295D01*
X131828571Y-82092295D02*
X132057142Y-82092295D01*
X132057142Y-82092295D02*
X132133333Y-82054200D01*
X132133333Y-82054200D02*
X132171428Y-82016104D01*
X130304761Y-81330390D02*
X130380951Y-81292295D01*
X130380951Y-81292295D02*
X130495237Y-81292295D01*
X130495237Y-81292295D02*
X130609523Y-81330390D01*
X130609523Y-81330390D02*
X130685713Y-81406580D01*
X130685713Y-81406580D02*
X130723808Y-81482771D01*
X130723808Y-81482771D02*
X130761904Y-81635152D01*
X130761904Y-81635152D02*
X130761904Y-81749438D01*
X130761904Y-81749438D02*
X130723808Y-81901819D01*
X130723808Y-81901819D02*
X130685713Y-81978009D01*
X130685713Y-81978009D02*
X130609523Y-82054200D01*
X130609523Y-82054200D02*
X130495237Y-82092295D01*
X130495237Y-82092295D02*
X130419046Y-82092295D01*
X130419046Y-82092295D02*
X130304761Y-82054200D01*
X130304761Y-82054200D02*
X130266665Y-82016104D01*
X130266665Y-82016104D02*
X130266665Y-81749438D01*
X130266665Y-81749438D02*
X130419046Y-81749438D01*
X129923808Y-82092295D02*
X129923808Y-81292295D01*
X129923808Y-81292295D02*
X129733332Y-81292295D01*
X129733332Y-81292295D02*
X129619046Y-81330390D01*
X129619046Y-81330390D02*
X129542856Y-81406580D01*
X129542856Y-81406580D02*
X129504761Y-81482771D01*
X129504761Y-81482771D02*
X129466665Y-81635152D01*
X129466665Y-81635152D02*
X129466665Y-81749438D01*
X129466665Y-81749438D02*
X129504761Y-81901819D01*
X129504761Y-81901819D02*
X129542856Y-81978009D01*
X129542856Y-81978009D02*
X129619046Y-82054200D01*
X129619046Y-82054200D02*
X129733332Y-82092295D01*
X129733332Y-82092295D02*
X129923808Y-82092295D01*
X128971427Y-81292295D02*
X128819046Y-81292295D01*
X128819046Y-81292295D02*
X128742856Y-81330390D01*
X128742856Y-81330390D02*
X128666665Y-81406580D01*
X128666665Y-81406580D02*
X128628570Y-81558961D01*
X128628570Y-81558961D02*
X128628570Y-81825628D01*
X128628570Y-81825628D02*
X128666665Y-81978009D01*
X128666665Y-81978009D02*
X128742856Y-82054200D01*
X128742856Y-82054200D02*
X128819046Y-82092295D01*
X128819046Y-82092295D02*
X128971427Y-82092295D01*
X128971427Y-82092295D02*
X129047618Y-82054200D01*
X129047618Y-82054200D02*
X129123808Y-81978009D01*
X129123808Y-81978009D02*
X129161904Y-81825628D01*
X129161904Y-81825628D02*
X129161904Y-81558961D01*
X129161904Y-81558961D02*
X129123808Y-81406580D01*
X129123808Y-81406580D02*
X129047618Y-81330390D01*
X129047618Y-81330390D02*
X128971427Y-81292295D01*
X128133332Y-81292295D02*
X128057142Y-81292295D01*
X128057142Y-81292295D02*
X127980951Y-81330390D01*
X127980951Y-81330390D02*
X127942856Y-81368485D01*
X127942856Y-81368485D02*
X127904761Y-81444676D01*
X127904761Y-81444676D02*
X127866666Y-81597057D01*
X127866666Y-81597057D02*
X127866666Y-81787533D01*
X127866666Y-81787533D02*
X127904761Y-81939914D01*
X127904761Y-81939914D02*
X127942856Y-82016104D01*
X127942856Y-82016104D02*
X127980951Y-82054200D01*
X127980951Y-82054200D02*
X128057142Y-82092295D01*
X128057142Y-82092295D02*
X128133332Y-82092295D01*
X128133332Y-82092295D02*
X128209523Y-82054200D01*
X128209523Y-82054200D02*
X128247618Y-82016104D01*
X128247618Y-82016104D02*
X128285713Y-81939914D01*
X128285713Y-81939914D02*
X128323809Y-81787533D01*
X128323809Y-81787533D02*
X128323809Y-81597057D01*
X128323809Y-81597057D02*
X128285713Y-81444676D01*
X128285713Y-81444676D02*
X128247618Y-81368485D01*
X128247618Y-81368485D02*
X128209523Y-81330390D01*
X128209523Y-81330390D02*
X128133332Y-81292295D01*
X131295238Y-83832295D02*
X131676190Y-83832295D01*
X131676190Y-83832295D02*
X131714286Y-84213247D01*
X131714286Y-84213247D02*
X131676190Y-84175152D01*
X131676190Y-84175152D02*
X131600000Y-84137057D01*
X131600000Y-84137057D02*
X131409524Y-84137057D01*
X131409524Y-84137057D02*
X131333333Y-84175152D01*
X131333333Y-84175152D02*
X131295238Y-84213247D01*
X131295238Y-84213247D02*
X131257143Y-84289438D01*
X131257143Y-84289438D02*
X131257143Y-84479914D01*
X131257143Y-84479914D02*
X131295238Y-84556104D01*
X131295238Y-84556104D02*
X131333333Y-84594200D01*
X131333333Y-84594200D02*
X131409524Y-84632295D01*
X131409524Y-84632295D02*
X131600000Y-84632295D01*
X131600000Y-84632295D02*
X131676190Y-84594200D01*
X131676190Y-84594200D02*
X131714286Y-84556104D01*
X130342857Y-84594200D02*
X130228571Y-84632295D01*
X130228571Y-84632295D02*
X130038095Y-84632295D01*
X130038095Y-84632295D02*
X129961904Y-84594200D01*
X129961904Y-84594200D02*
X129923809Y-84556104D01*
X129923809Y-84556104D02*
X129885714Y-84479914D01*
X129885714Y-84479914D02*
X129885714Y-84403723D01*
X129885714Y-84403723D02*
X129923809Y-84327533D01*
X129923809Y-84327533D02*
X129961904Y-84289438D01*
X129961904Y-84289438D02*
X130038095Y-84251342D01*
X130038095Y-84251342D02*
X130190476Y-84213247D01*
X130190476Y-84213247D02*
X130266666Y-84175152D01*
X130266666Y-84175152D02*
X130304761Y-84137057D01*
X130304761Y-84137057D02*
X130342857Y-84060866D01*
X130342857Y-84060866D02*
X130342857Y-83984676D01*
X130342857Y-83984676D02*
X130304761Y-83908485D01*
X130304761Y-83908485D02*
X130266666Y-83870390D01*
X130266666Y-83870390D02*
X130190476Y-83832295D01*
X130190476Y-83832295D02*
X129999999Y-83832295D01*
X129999999Y-83832295D02*
X129885714Y-83870390D01*
X129085713Y-84556104D02*
X129123809Y-84594200D01*
X129123809Y-84594200D02*
X129238094Y-84632295D01*
X129238094Y-84632295D02*
X129314285Y-84632295D01*
X129314285Y-84632295D02*
X129428571Y-84594200D01*
X129428571Y-84594200D02*
X129504761Y-84518009D01*
X129504761Y-84518009D02*
X129542856Y-84441819D01*
X129542856Y-84441819D02*
X129580952Y-84289438D01*
X129580952Y-84289438D02*
X129580952Y-84175152D01*
X129580952Y-84175152D02*
X129542856Y-84022771D01*
X129542856Y-84022771D02*
X129504761Y-83946580D01*
X129504761Y-83946580D02*
X129428571Y-83870390D01*
X129428571Y-83870390D02*
X129314285Y-83832295D01*
X129314285Y-83832295D02*
X129238094Y-83832295D01*
X129238094Y-83832295D02*
X129123809Y-83870390D01*
X129123809Y-83870390D02*
X129085713Y-83908485D01*
X128742856Y-84632295D02*
X128742856Y-83832295D01*
X128285713Y-84632295D02*
X128628571Y-84175152D01*
X128285713Y-83832295D02*
X128742856Y-84289438D01*
X132019047Y-86372295D02*
X131485713Y-86372295D01*
X131485713Y-86372295D02*
X131828571Y-87172295D01*
X130571427Y-87172295D02*
X130571427Y-86372295D01*
X130571427Y-86372295D02*
X130304761Y-86943723D01*
X130304761Y-86943723D02*
X130038094Y-86372295D01*
X130038094Y-86372295D02*
X130038094Y-87172295D01*
X129657141Y-87172295D02*
X129657141Y-86372295D01*
X129314285Y-87134200D02*
X129199999Y-87172295D01*
X129199999Y-87172295D02*
X129009523Y-87172295D01*
X129009523Y-87172295D02*
X128933332Y-87134200D01*
X128933332Y-87134200D02*
X128895237Y-87096104D01*
X128895237Y-87096104D02*
X128857142Y-87019914D01*
X128857142Y-87019914D02*
X128857142Y-86943723D01*
X128857142Y-86943723D02*
X128895237Y-86867533D01*
X128895237Y-86867533D02*
X128933332Y-86829438D01*
X128933332Y-86829438D02*
X129009523Y-86791342D01*
X129009523Y-86791342D02*
X129161904Y-86753247D01*
X129161904Y-86753247D02*
X129238094Y-86715152D01*
X129238094Y-86715152D02*
X129276189Y-86677057D01*
X129276189Y-86677057D02*
X129314285Y-86600866D01*
X129314285Y-86600866D02*
X129314285Y-86524676D01*
X129314285Y-86524676D02*
X129276189Y-86448485D01*
X129276189Y-86448485D02*
X129238094Y-86410390D01*
X129238094Y-86410390D02*
X129161904Y-86372295D01*
X129161904Y-86372295D02*
X128971427Y-86372295D01*
X128971427Y-86372295D02*
X128857142Y-86410390D01*
X128361903Y-86372295D02*
X128209522Y-86372295D01*
X128209522Y-86372295D02*
X128133332Y-86410390D01*
X128133332Y-86410390D02*
X128057141Y-86486580D01*
X128057141Y-86486580D02*
X128019046Y-86638961D01*
X128019046Y-86638961D02*
X128019046Y-86905628D01*
X128019046Y-86905628D02*
X128057141Y-87058009D01*
X128057141Y-87058009D02*
X128133332Y-87134200D01*
X128133332Y-87134200D02*
X128209522Y-87172295D01*
X128209522Y-87172295D02*
X128361903Y-87172295D01*
X128361903Y-87172295D02*
X128438094Y-87134200D01*
X128438094Y-87134200D02*
X128514284Y-87058009D01*
X128514284Y-87058009D02*
X128552380Y-86905628D01*
X128552380Y-86905628D02*
X128552380Y-86638961D01*
X128552380Y-86638961D02*
X128514284Y-86486580D01*
X128514284Y-86486580D02*
X128438094Y-86410390D01*
X128438094Y-86410390D02*
X128361903Y-86372295D01*
X138952381Y-110862295D02*
X138952381Y-110062295D01*
X138952381Y-110062295D02*
X138495238Y-110862295D01*
X138495238Y-110862295D02*
X138495238Y-110062295D01*
X137961905Y-110062295D02*
X137809524Y-110062295D01*
X137809524Y-110062295D02*
X137733334Y-110100390D01*
X137733334Y-110100390D02*
X137657143Y-110176580D01*
X137657143Y-110176580D02*
X137619048Y-110328961D01*
X137619048Y-110328961D02*
X137619048Y-110595628D01*
X137619048Y-110595628D02*
X137657143Y-110748009D01*
X137657143Y-110748009D02*
X137733334Y-110824200D01*
X137733334Y-110824200D02*
X137809524Y-110862295D01*
X137809524Y-110862295D02*
X137961905Y-110862295D01*
X137961905Y-110862295D02*
X138038096Y-110824200D01*
X138038096Y-110824200D02*
X138114286Y-110748009D01*
X138114286Y-110748009D02*
X138152382Y-110595628D01*
X138152382Y-110595628D02*
X138152382Y-110328961D01*
X138152382Y-110328961D02*
X138114286Y-110176580D01*
X138114286Y-110176580D02*
X138038096Y-110100390D01*
X138038096Y-110100390D02*
X137961905Y-110062295D01*
X137276191Y-110862295D02*
X137276191Y-110062295D01*
X137276191Y-110062295D02*
X137085715Y-110062295D01*
X137085715Y-110062295D02*
X136971429Y-110100390D01*
X136971429Y-110100390D02*
X136895239Y-110176580D01*
X136895239Y-110176580D02*
X136857144Y-110252771D01*
X136857144Y-110252771D02*
X136819048Y-110405152D01*
X136819048Y-110405152D02*
X136819048Y-110519438D01*
X136819048Y-110519438D02*
X136857144Y-110671819D01*
X136857144Y-110671819D02*
X136895239Y-110748009D01*
X136895239Y-110748009D02*
X136971429Y-110824200D01*
X136971429Y-110824200D02*
X137085715Y-110862295D01*
X137085715Y-110862295D02*
X137276191Y-110862295D01*
X136476191Y-110443247D02*
X136209525Y-110443247D01*
X136095239Y-110862295D02*
X136476191Y-110862295D01*
X136476191Y-110862295D02*
X136476191Y-110062295D01*
X136476191Y-110062295D02*
X136095239Y-110062295D01*
X135752381Y-110786104D02*
X135714286Y-110824200D01*
X135714286Y-110824200D02*
X135752381Y-110862295D01*
X135752381Y-110862295D02*
X135790477Y-110824200D01*
X135790477Y-110824200D02*
X135752381Y-110786104D01*
X135752381Y-110786104D02*
X135752381Y-110862295D01*
X135752381Y-110367057D02*
X135714286Y-110405152D01*
X135714286Y-110405152D02*
X135752381Y-110443247D01*
X135752381Y-110443247D02*
X135790477Y-110405152D01*
X135790477Y-110405152D02*
X135752381Y-110367057D01*
X135752381Y-110367057D02*
X135752381Y-110443247D01*
X134952382Y-110938485D02*
X134342858Y-110938485D01*
X134342858Y-110938485D02*
X133733334Y-110938485D01*
X133733334Y-110938485D02*
X133123810Y-110938485D01*
X133123810Y-110938485D02*
X132514286Y-110938485D01*
X132514286Y-110938485D02*
X131904762Y-110938485D01*
X131904762Y-110938485D02*
X131295238Y-110938485D01*
X131295238Y-110938485D02*
X130685714Y-110938485D01*
X130685714Y-110938485D02*
X130076190Y-110938485D01*
X130076190Y-110938485D02*
X129466666Y-110938485D01*
X129466666Y-110938485D02*
X128857142Y-110938485D01*
X144857146Y-112828961D02*
X144857146Y-113476580D01*
X144857146Y-113476580D02*
X144895241Y-113552771D01*
X144895241Y-113552771D02*
X144933337Y-113590866D01*
X144933337Y-113590866D02*
X145009527Y-113628961D01*
X145009527Y-113628961D02*
X145123813Y-113628961D01*
X145123813Y-113628961D02*
X145200003Y-113590866D01*
X144857146Y-113324200D02*
X144933337Y-113362295D01*
X144933337Y-113362295D02*
X145085718Y-113362295D01*
X145085718Y-113362295D02*
X145161908Y-113324200D01*
X145161908Y-113324200D02*
X145200003Y-113286104D01*
X145200003Y-113286104D02*
X145238099Y-113209914D01*
X145238099Y-113209914D02*
X145238099Y-112981342D01*
X145238099Y-112981342D02*
X145200003Y-112905152D01*
X145200003Y-112905152D02*
X145161908Y-112867057D01*
X145161908Y-112867057D02*
X145085718Y-112828961D01*
X145085718Y-112828961D02*
X144933337Y-112828961D01*
X144933337Y-112828961D02*
X144857146Y-112867057D01*
X144476193Y-113362295D02*
X144476193Y-112828961D01*
X144476193Y-112562295D02*
X144514289Y-112600390D01*
X144514289Y-112600390D02*
X144476193Y-112638485D01*
X144476193Y-112638485D02*
X144438098Y-112600390D01*
X144438098Y-112600390D02*
X144476193Y-112562295D01*
X144476193Y-112562295D02*
X144476193Y-112638485D01*
X144209527Y-112828961D02*
X143904765Y-112828961D01*
X144095241Y-112562295D02*
X144095241Y-113248009D01*
X144095241Y-113248009D02*
X144057146Y-113324200D01*
X144057146Y-113324200D02*
X143980956Y-113362295D01*
X143980956Y-113362295D02*
X143904765Y-113362295D01*
X143638098Y-113362295D02*
X143638098Y-112562295D01*
X143295241Y-113362295D02*
X143295241Y-112943247D01*
X143295241Y-112943247D02*
X143333336Y-112867057D01*
X143333336Y-112867057D02*
X143409527Y-112828961D01*
X143409527Y-112828961D02*
X143523813Y-112828961D01*
X143523813Y-112828961D02*
X143600003Y-112867057D01*
X143600003Y-112867057D02*
X143638098Y-112905152D01*
X142571431Y-112828961D02*
X142571431Y-113362295D01*
X142914288Y-112828961D02*
X142914288Y-113248009D01*
X142914288Y-113248009D02*
X142876193Y-113324200D01*
X142876193Y-113324200D02*
X142800003Y-113362295D01*
X142800003Y-113362295D02*
X142685717Y-113362295D01*
X142685717Y-113362295D02*
X142609526Y-113324200D01*
X142609526Y-113324200D02*
X142571431Y-113286104D01*
X142190478Y-113362295D02*
X142190478Y-112562295D01*
X142190478Y-112867057D02*
X142114288Y-112828961D01*
X142114288Y-112828961D02*
X141961907Y-112828961D01*
X141961907Y-112828961D02*
X141885716Y-112867057D01*
X141885716Y-112867057D02*
X141847621Y-112905152D01*
X141847621Y-112905152D02*
X141809526Y-112981342D01*
X141809526Y-112981342D02*
X141809526Y-113209914D01*
X141809526Y-113209914D02*
X141847621Y-113286104D01*
X141847621Y-113286104D02*
X141885716Y-113324200D01*
X141885716Y-113324200D02*
X141961907Y-113362295D01*
X141961907Y-113362295D02*
X142114288Y-113362295D01*
X142114288Y-113362295D02*
X142190478Y-113324200D01*
X141466668Y-113286104D02*
X141428573Y-113324200D01*
X141428573Y-113324200D02*
X141466668Y-113362295D01*
X141466668Y-113362295D02*
X141504764Y-113324200D01*
X141504764Y-113324200D02*
X141466668Y-113286104D01*
X141466668Y-113286104D02*
X141466668Y-113362295D01*
X140742859Y-113324200D02*
X140819050Y-113362295D01*
X140819050Y-113362295D02*
X140971431Y-113362295D01*
X140971431Y-113362295D02*
X141047621Y-113324200D01*
X141047621Y-113324200D02*
X141085716Y-113286104D01*
X141085716Y-113286104D02*
X141123812Y-113209914D01*
X141123812Y-113209914D02*
X141123812Y-112981342D01*
X141123812Y-112981342D02*
X141085716Y-112905152D01*
X141085716Y-112905152D02*
X141047621Y-112867057D01*
X141047621Y-112867057D02*
X140971431Y-112828961D01*
X140971431Y-112828961D02*
X140819050Y-112828961D01*
X140819050Y-112828961D02*
X140742859Y-112867057D01*
X140285717Y-113362295D02*
X140361907Y-113324200D01*
X140361907Y-113324200D02*
X140400002Y-113286104D01*
X140400002Y-113286104D02*
X140438098Y-113209914D01*
X140438098Y-113209914D02*
X140438098Y-112981342D01*
X140438098Y-112981342D02*
X140400002Y-112905152D01*
X140400002Y-112905152D02*
X140361907Y-112867057D01*
X140361907Y-112867057D02*
X140285717Y-112828961D01*
X140285717Y-112828961D02*
X140171431Y-112828961D01*
X140171431Y-112828961D02*
X140095240Y-112867057D01*
X140095240Y-112867057D02*
X140057145Y-112905152D01*
X140057145Y-112905152D02*
X140019050Y-112981342D01*
X140019050Y-112981342D02*
X140019050Y-113209914D01*
X140019050Y-113209914D02*
X140057145Y-113286104D01*
X140057145Y-113286104D02*
X140095240Y-113324200D01*
X140095240Y-113324200D02*
X140171431Y-113362295D01*
X140171431Y-113362295D02*
X140285717Y-113362295D01*
X139676192Y-113362295D02*
X139676192Y-112828961D01*
X139676192Y-112905152D02*
X139638097Y-112867057D01*
X139638097Y-112867057D02*
X139561907Y-112828961D01*
X139561907Y-112828961D02*
X139447621Y-112828961D01*
X139447621Y-112828961D02*
X139371430Y-112867057D01*
X139371430Y-112867057D02*
X139333335Y-112943247D01*
X139333335Y-112943247D02*
X139333335Y-113362295D01*
X139333335Y-112943247D02*
X139295240Y-112867057D01*
X139295240Y-112867057D02*
X139219049Y-112828961D01*
X139219049Y-112828961D02*
X139104764Y-112828961D01*
X139104764Y-112828961D02*
X139028573Y-112867057D01*
X139028573Y-112867057D02*
X138990478Y-112943247D01*
X138990478Y-112943247D02*
X138990478Y-113362295D01*
X138038097Y-112524200D02*
X138723811Y-113552771D01*
X137885716Y-112828961D02*
X137580954Y-112828961D01*
X137771430Y-113362295D02*
X137771430Y-112676580D01*
X137771430Y-112676580D02*
X137733335Y-112600390D01*
X137733335Y-112600390D02*
X137657145Y-112562295D01*
X137657145Y-112562295D02*
X137580954Y-112562295D01*
X137314287Y-113362295D02*
X137314287Y-112562295D01*
X136971430Y-113362295D02*
X136971430Y-112943247D01*
X136971430Y-112943247D02*
X137009525Y-112867057D01*
X137009525Y-112867057D02*
X137085716Y-112828961D01*
X137085716Y-112828961D02*
X137200002Y-112828961D01*
X137200002Y-112828961D02*
X137276192Y-112867057D01*
X137276192Y-112867057D02*
X137314287Y-112905152D01*
X136476192Y-113362295D02*
X136552382Y-113324200D01*
X136552382Y-113324200D02*
X136590477Y-113286104D01*
X136590477Y-113286104D02*
X136628573Y-113209914D01*
X136628573Y-113209914D02*
X136628573Y-112981342D01*
X136628573Y-112981342D02*
X136590477Y-112905152D01*
X136590477Y-112905152D02*
X136552382Y-112867057D01*
X136552382Y-112867057D02*
X136476192Y-112828961D01*
X136476192Y-112828961D02*
X136361906Y-112828961D01*
X136361906Y-112828961D02*
X136285715Y-112867057D01*
X136285715Y-112867057D02*
X136247620Y-112905152D01*
X136247620Y-112905152D02*
X136209525Y-112981342D01*
X136209525Y-112981342D02*
X136209525Y-113209914D01*
X136209525Y-113209914D02*
X136247620Y-113286104D01*
X136247620Y-113286104D02*
X136285715Y-113324200D01*
X136285715Y-113324200D02*
X136361906Y-113362295D01*
X136361906Y-113362295D02*
X136476192Y-113362295D01*
X135752382Y-113362295D02*
X135828572Y-113324200D01*
X135828572Y-113324200D02*
X135866667Y-113248009D01*
X135866667Y-113248009D02*
X135866667Y-112562295D01*
X135104762Y-112828961D02*
X135104762Y-113476580D01*
X135104762Y-113476580D02*
X135142857Y-113552771D01*
X135142857Y-113552771D02*
X135180953Y-113590866D01*
X135180953Y-113590866D02*
X135257143Y-113628961D01*
X135257143Y-113628961D02*
X135371429Y-113628961D01*
X135371429Y-113628961D02*
X135447619Y-113590866D01*
X135104762Y-113324200D02*
X135180953Y-113362295D01*
X135180953Y-113362295D02*
X135333334Y-113362295D01*
X135333334Y-113362295D02*
X135409524Y-113324200D01*
X135409524Y-113324200D02*
X135447619Y-113286104D01*
X135447619Y-113286104D02*
X135485715Y-113209914D01*
X135485715Y-113209914D02*
X135485715Y-112981342D01*
X135485715Y-112981342D02*
X135447619Y-112905152D01*
X135447619Y-112905152D02*
X135409524Y-112867057D01*
X135409524Y-112867057D02*
X135333334Y-112828961D01*
X135333334Y-112828961D02*
X135180953Y-112828961D01*
X135180953Y-112828961D02*
X135104762Y-112867057D01*
X134380952Y-113362295D02*
X134380952Y-112943247D01*
X134380952Y-112943247D02*
X134419047Y-112867057D01*
X134419047Y-112867057D02*
X134495238Y-112828961D01*
X134495238Y-112828961D02*
X134647619Y-112828961D01*
X134647619Y-112828961D02*
X134723809Y-112867057D01*
X134380952Y-113324200D02*
X134457143Y-113362295D01*
X134457143Y-113362295D02*
X134647619Y-113362295D01*
X134647619Y-113362295D02*
X134723809Y-113324200D01*
X134723809Y-113324200D02*
X134761905Y-113248009D01*
X134761905Y-113248009D02*
X134761905Y-113171819D01*
X134761905Y-113171819D02*
X134723809Y-113095628D01*
X134723809Y-113095628D02*
X134647619Y-113057533D01*
X134647619Y-113057533D02*
X134457143Y-113057533D01*
X134457143Y-113057533D02*
X134380952Y-113019438D01*
X133657142Y-113362295D02*
X133657142Y-112562295D01*
X133657142Y-113324200D02*
X133733333Y-113362295D01*
X133733333Y-113362295D02*
X133885714Y-113362295D01*
X133885714Y-113362295D02*
X133961904Y-113324200D01*
X133961904Y-113324200D02*
X133999999Y-113286104D01*
X133999999Y-113286104D02*
X134038095Y-113209914D01*
X134038095Y-113209914D02*
X134038095Y-112981342D01*
X134038095Y-112981342D02*
X133999999Y-112905152D01*
X133999999Y-112905152D02*
X133961904Y-112867057D01*
X133961904Y-112867057D02*
X133885714Y-112828961D01*
X133885714Y-112828961D02*
X133733333Y-112828961D01*
X133733333Y-112828961D02*
X133657142Y-112867057D01*
X133161904Y-113362295D02*
X133238094Y-113324200D01*
X133238094Y-113324200D02*
X133276189Y-113286104D01*
X133276189Y-113286104D02*
X133314285Y-113209914D01*
X133314285Y-113209914D02*
X133314285Y-112981342D01*
X133314285Y-112981342D02*
X133276189Y-112905152D01*
X133276189Y-112905152D02*
X133238094Y-112867057D01*
X133238094Y-112867057D02*
X133161904Y-112828961D01*
X133161904Y-112828961D02*
X133047618Y-112828961D01*
X133047618Y-112828961D02*
X132971427Y-112867057D01*
X132971427Y-112867057D02*
X132933332Y-112905152D01*
X132933332Y-112905152D02*
X132895237Y-112981342D01*
X132895237Y-112981342D02*
X132895237Y-113209914D01*
X132895237Y-113209914D02*
X132933332Y-113286104D01*
X132933332Y-113286104D02*
X132971427Y-113324200D01*
X132971427Y-113324200D02*
X133047618Y-113362295D01*
X133047618Y-113362295D02*
X133161904Y-113362295D01*
X131980951Y-112524200D02*
X132666665Y-113552771D01*
X131714284Y-113362295D02*
X131714284Y-112828961D01*
X131714284Y-112981342D02*
X131676189Y-112905152D01*
X131676189Y-112905152D02*
X131638094Y-112867057D01*
X131638094Y-112867057D02*
X131561903Y-112828961D01*
X131561903Y-112828961D02*
X131485713Y-112828961D01*
X130876189Y-113362295D02*
X130876189Y-112943247D01*
X130876189Y-112943247D02*
X130914284Y-112867057D01*
X130914284Y-112867057D02*
X130990475Y-112828961D01*
X130990475Y-112828961D02*
X131142856Y-112828961D01*
X131142856Y-112828961D02*
X131219046Y-112867057D01*
X130876189Y-113324200D02*
X130952380Y-113362295D01*
X130952380Y-113362295D02*
X131142856Y-113362295D01*
X131142856Y-113362295D02*
X131219046Y-113324200D01*
X131219046Y-113324200D02*
X131257142Y-113248009D01*
X131257142Y-113248009D02*
X131257142Y-113171819D01*
X131257142Y-113171819D02*
X131219046Y-113095628D01*
X131219046Y-113095628D02*
X131142856Y-113057533D01*
X131142856Y-113057533D02*
X130952380Y-113057533D01*
X130952380Y-113057533D02*
X130876189Y-113019438D01*
X130495236Y-113362295D02*
X130495236Y-112828961D01*
X130495236Y-112562295D02*
X130533332Y-112600390D01*
X130533332Y-112600390D02*
X130495236Y-112638485D01*
X130495236Y-112638485D02*
X130457141Y-112600390D01*
X130457141Y-112600390D02*
X130495236Y-112562295D01*
X130495236Y-112562295D02*
X130495236Y-112638485D01*
X130114284Y-112828961D02*
X130114284Y-113362295D01*
X130114284Y-112905152D02*
X130076189Y-112867057D01*
X130076189Y-112867057D02*
X129999999Y-112828961D01*
X129999999Y-112828961D02*
X129885713Y-112828961D01*
X129885713Y-112828961D02*
X129809522Y-112867057D01*
X129809522Y-112867057D02*
X129771427Y-112943247D01*
X129771427Y-112943247D02*
X129771427Y-113362295D01*
X129390474Y-112828961D02*
X129390474Y-113628961D01*
X129390474Y-112867057D02*
X129314284Y-112828961D01*
X129314284Y-112828961D02*
X129161903Y-112828961D01*
X129161903Y-112828961D02*
X129085712Y-112867057D01*
X129085712Y-112867057D02*
X129047617Y-112905152D01*
X129047617Y-112905152D02*
X129009522Y-112981342D01*
X129009522Y-112981342D02*
X129009522Y-113209914D01*
X129009522Y-113209914D02*
X129047617Y-113286104D01*
X129047617Y-113286104D02*
X129085712Y-113324200D01*
X129085712Y-113324200D02*
X129161903Y-113362295D01*
X129161903Y-113362295D02*
X129314284Y-113362295D01*
X129314284Y-113362295D02*
X129390474Y-113324200D01*
X128552379Y-113362295D02*
X128628569Y-113324200D01*
X128628569Y-113324200D02*
X128666664Y-113286104D01*
X128666664Y-113286104D02*
X128704760Y-113209914D01*
X128704760Y-113209914D02*
X128704760Y-112981342D01*
X128704760Y-112981342D02*
X128666664Y-112905152D01*
X128666664Y-112905152D02*
X128628569Y-112867057D01*
X128628569Y-112867057D02*
X128552379Y-112828961D01*
X128552379Y-112828961D02*
X128438093Y-112828961D01*
X128438093Y-112828961D02*
X128361902Y-112867057D01*
X128361902Y-112867057D02*
X128323807Y-112905152D01*
X128323807Y-112905152D02*
X128285712Y-112981342D01*
X128285712Y-112981342D02*
X128285712Y-113209914D01*
X128285712Y-113209914D02*
X128323807Y-113286104D01*
X128323807Y-113286104D02*
X128361902Y-113324200D01*
X128361902Y-113324200D02*
X128438093Y-113362295D01*
X128438093Y-113362295D02*
X128552379Y-113362295D01*
X127942854Y-113362295D02*
X127942854Y-112828961D01*
X127942854Y-112562295D02*
X127980950Y-112600390D01*
X127980950Y-112600390D02*
X127942854Y-112638485D01*
X127942854Y-112638485D02*
X127904759Y-112600390D01*
X127904759Y-112600390D02*
X127942854Y-112562295D01*
X127942854Y-112562295D02*
X127942854Y-112638485D01*
X127561902Y-112828961D02*
X127561902Y-113362295D01*
X127561902Y-112905152D02*
X127523807Y-112867057D01*
X127523807Y-112867057D02*
X127447617Y-112828961D01*
X127447617Y-112828961D02*
X127333331Y-112828961D01*
X127333331Y-112828961D02*
X127257140Y-112867057D01*
X127257140Y-112867057D02*
X127219045Y-112943247D01*
X127219045Y-112943247D02*
X127219045Y-113362295D01*
X126952378Y-112828961D02*
X126647616Y-112828961D01*
X126838092Y-112562295D02*
X126838092Y-113248009D01*
X126838092Y-113248009D02*
X126799997Y-113324200D01*
X126799997Y-113324200D02*
X126723807Y-113362295D01*
X126723807Y-113362295D02*
X126647616Y-113362295D01*
X126380949Y-113057533D02*
X125771426Y-113057533D01*
X125276188Y-113362295D02*
X125352378Y-113324200D01*
X125352378Y-113324200D02*
X125390473Y-113248009D01*
X125390473Y-113248009D02*
X125390473Y-112562295D01*
X124857140Y-113362295D02*
X124933330Y-113324200D01*
X124933330Y-113324200D02*
X124971425Y-113286104D01*
X124971425Y-113286104D02*
X125009521Y-113209914D01*
X125009521Y-113209914D02*
X125009521Y-112981342D01*
X125009521Y-112981342D02*
X124971425Y-112905152D01*
X124971425Y-112905152D02*
X124933330Y-112867057D01*
X124933330Y-112867057D02*
X124857140Y-112828961D01*
X124857140Y-112828961D02*
X124742854Y-112828961D01*
X124742854Y-112828961D02*
X124666663Y-112867057D01*
X124666663Y-112867057D02*
X124628568Y-112905152D01*
X124628568Y-112905152D02*
X124590473Y-112981342D01*
X124590473Y-112981342D02*
X124590473Y-113209914D01*
X124590473Y-113209914D02*
X124628568Y-113286104D01*
X124628568Y-113286104D02*
X124666663Y-113324200D01*
X124666663Y-113324200D02*
X124742854Y-113362295D01*
X124742854Y-113362295D02*
X124857140Y-113362295D01*
X123904758Y-113324200D02*
X123980949Y-113362295D01*
X123980949Y-113362295D02*
X124133330Y-113362295D01*
X124133330Y-113362295D02*
X124209520Y-113324200D01*
X124209520Y-113324200D02*
X124247615Y-113286104D01*
X124247615Y-113286104D02*
X124285711Y-113209914D01*
X124285711Y-113209914D02*
X124285711Y-112981342D01*
X124285711Y-112981342D02*
X124247615Y-112905152D01*
X124247615Y-112905152D02*
X124209520Y-112867057D01*
X124209520Y-112867057D02*
X124133330Y-112828961D01*
X124133330Y-112828961D02*
X123980949Y-112828961D01*
X123980949Y-112828961D02*
X123904758Y-112867057D01*
X123219044Y-113362295D02*
X123219044Y-112943247D01*
X123219044Y-112943247D02*
X123257139Y-112867057D01*
X123257139Y-112867057D02*
X123333330Y-112828961D01*
X123333330Y-112828961D02*
X123485711Y-112828961D01*
X123485711Y-112828961D02*
X123561901Y-112867057D01*
X123219044Y-113324200D02*
X123295235Y-113362295D01*
X123295235Y-113362295D02*
X123485711Y-113362295D01*
X123485711Y-113362295D02*
X123561901Y-113324200D01*
X123561901Y-113324200D02*
X123599997Y-113248009D01*
X123599997Y-113248009D02*
X123599997Y-113171819D01*
X123599997Y-113171819D02*
X123561901Y-113095628D01*
X123561901Y-113095628D02*
X123485711Y-113057533D01*
X123485711Y-113057533D02*
X123295235Y-113057533D01*
X123295235Y-113057533D02*
X123219044Y-113019438D01*
X122723806Y-113362295D02*
X122799996Y-113324200D01*
X122799996Y-113324200D02*
X122838091Y-113248009D01*
X122838091Y-113248009D02*
X122838091Y-112562295D01*
X162638095Y-78828485D02*
X162599999Y-78790390D01*
X162599999Y-78790390D02*
X162523809Y-78752295D01*
X162523809Y-78752295D02*
X162333333Y-78752295D01*
X162333333Y-78752295D02*
X162257142Y-78790390D01*
X162257142Y-78790390D02*
X162219047Y-78828485D01*
X162219047Y-78828485D02*
X162180952Y-78904676D01*
X162180952Y-78904676D02*
X162180952Y-78980866D01*
X162180952Y-78980866D02*
X162219047Y-79095152D01*
X162219047Y-79095152D02*
X162676190Y-79552295D01*
X162676190Y-79552295D02*
X162180952Y-79552295D01*
X161304761Y-78752295D02*
X160809523Y-78752295D01*
X160809523Y-78752295D02*
X161076189Y-79057057D01*
X161076189Y-79057057D02*
X160961904Y-79057057D01*
X160961904Y-79057057D02*
X160885713Y-79095152D01*
X160885713Y-79095152D02*
X160847618Y-79133247D01*
X160847618Y-79133247D02*
X160809523Y-79209438D01*
X160809523Y-79209438D02*
X160809523Y-79399914D01*
X160809523Y-79399914D02*
X160847618Y-79476104D01*
X160847618Y-79476104D02*
X160885713Y-79514200D01*
X160885713Y-79514200D02*
X160961904Y-79552295D01*
X160961904Y-79552295D02*
X161190475Y-79552295D01*
X161190475Y-79552295D02*
X161266666Y-79514200D01*
X161266666Y-79514200D02*
X161304761Y-79476104D01*
X160580951Y-78752295D02*
X160314284Y-79552295D01*
X160314284Y-79552295D02*
X160047618Y-78752295D01*
X159857142Y-78752295D02*
X159361904Y-78752295D01*
X159361904Y-78752295D02*
X159628570Y-79057057D01*
X159628570Y-79057057D02*
X159514285Y-79057057D01*
X159514285Y-79057057D02*
X159438094Y-79095152D01*
X159438094Y-79095152D02*
X159399999Y-79133247D01*
X159399999Y-79133247D02*
X159361904Y-79209438D01*
X159361904Y-79209438D02*
X159361904Y-79399914D01*
X159361904Y-79399914D02*
X159399999Y-79476104D01*
X159399999Y-79476104D02*
X159438094Y-79514200D01*
X159438094Y-79514200D02*
X159514285Y-79552295D01*
X159514285Y-79552295D02*
X159742856Y-79552295D01*
X159742856Y-79552295D02*
X159819047Y-79514200D01*
X159819047Y-79514200D02*
X159857142Y-79476104D01*
X162352380Y-81558961D02*
X162352380Y-82092295D01*
X162542856Y-81254200D02*
X162733333Y-81825628D01*
X162733333Y-81825628D02*
X162238094Y-81825628D01*
X160866665Y-82016104D02*
X160904761Y-82054200D01*
X160904761Y-82054200D02*
X161019046Y-82092295D01*
X161019046Y-82092295D02*
X161095237Y-82092295D01*
X161095237Y-82092295D02*
X161209523Y-82054200D01*
X161209523Y-82054200D02*
X161285713Y-81978009D01*
X161285713Y-81978009D02*
X161323808Y-81901819D01*
X161323808Y-81901819D02*
X161361904Y-81749438D01*
X161361904Y-81749438D02*
X161361904Y-81635152D01*
X161361904Y-81635152D02*
X161323808Y-81482771D01*
X161323808Y-81482771D02*
X161285713Y-81406580D01*
X161285713Y-81406580D02*
X161209523Y-81330390D01*
X161209523Y-81330390D02*
X161095237Y-81292295D01*
X161095237Y-81292295D02*
X161019046Y-81292295D01*
X161019046Y-81292295D02*
X160904761Y-81330390D01*
X160904761Y-81330390D02*
X160866665Y-81368485D01*
X160561904Y-82054200D02*
X160447618Y-82092295D01*
X160447618Y-82092295D02*
X160257142Y-82092295D01*
X160257142Y-82092295D02*
X160180951Y-82054200D01*
X160180951Y-82054200D02*
X160142856Y-82016104D01*
X160142856Y-82016104D02*
X160104761Y-81939914D01*
X160104761Y-81939914D02*
X160104761Y-81863723D01*
X160104761Y-81863723D02*
X160142856Y-81787533D01*
X160142856Y-81787533D02*
X160180951Y-81749438D01*
X160180951Y-81749438D02*
X160257142Y-81711342D01*
X160257142Y-81711342D02*
X160409523Y-81673247D01*
X160409523Y-81673247D02*
X160485713Y-81635152D01*
X160485713Y-81635152D02*
X160523808Y-81597057D01*
X160523808Y-81597057D02*
X160561904Y-81520866D01*
X160561904Y-81520866D02*
X160561904Y-81444676D01*
X160561904Y-81444676D02*
X160523808Y-81368485D01*
X160523808Y-81368485D02*
X160485713Y-81330390D01*
X160485713Y-81330390D02*
X160409523Y-81292295D01*
X160409523Y-81292295D02*
X160219046Y-81292295D01*
X160219046Y-81292295D02*
X160104761Y-81330390D01*
X159761903Y-82092295D02*
X159761903Y-81292295D01*
X159761903Y-81292295D02*
X159304760Y-82092295D01*
X159304760Y-82092295D02*
X159304760Y-81292295D01*
X162599999Y-83832295D02*
X162752380Y-83832295D01*
X162752380Y-83832295D02*
X162828571Y-83870390D01*
X162828571Y-83870390D02*
X162866666Y-83908485D01*
X162866666Y-83908485D02*
X162942856Y-84022771D01*
X162942856Y-84022771D02*
X162980952Y-84175152D01*
X162980952Y-84175152D02*
X162980952Y-84479914D01*
X162980952Y-84479914D02*
X162942856Y-84556104D01*
X162942856Y-84556104D02*
X162904761Y-84594200D01*
X162904761Y-84594200D02*
X162828571Y-84632295D01*
X162828571Y-84632295D02*
X162676190Y-84632295D01*
X162676190Y-84632295D02*
X162599999Y-84594200D01*
X162599999Y-84594200D02*
X162561904Y-84556104D01*
X162561904Y-84556104D02*
X162523809Y-84479914D01*
X162523809Y-84479914D02*
X162523809Y-84289438D01*
X162523809Y-84289438D02*
X162561904Y-84213247D01*
X162561904Y-84213247D02*
X162599999Y-84175152D01*
X162599999Y-84175152D02*
X162676190Y-84137057D01*
X162676190Y-84137057D02*
X162828571Y-84137057D01*
X162828571Y-84137057D02*
X162904761Y-84175152D01*
X162904761Y-84175152D02*
X162942856Y-84213247D01*
X162942856Y-84213247D02*
X162980952Y-84289438D01*
X161571427Y-84632295D02*
X161571427Y-83832295D01*
X161571427Y-83832295D02*
X161304761Y-84403723D01*
X161304761Y-84403723D02*
X161038094Y-83832295D01*
X161038094Y-83832295D02*
X161038094Y-84632295D01*
X160504760Y-83832295D02*
X160352379Y-83832295D01*
X160352379Y-83832295D02*
X160276189Y-83870390D01*
X160276189Y-83870390D02*
X160199998Y-83946580D01*
X160199998Y-83946580D02*
X160161903Y-84098961D01*
X160161903Y-84098961D02*
X160161903Y-84365628D01*
X160161903Y-84365628D02*
X160199998Y-84518009D01*
X160199998Y-84518009D02*
X160276189Y-84594200D01*
X160276189Y-84594200D02*
X160352379Y-84632295D01*
X160352379Y-84632295D02*
X160504760Y-84632295D01*
X160504760Y-84632295D02*
X160580951Y-84594200D01*
X160580951Y-84594200D02*
X160657141Y-84518009D01*
X160657141Y-84518009D02*
X160695237Y-84365628D01*
X160695237Y-84365628D02*
X160695237Y-84098961D01*
X160695237Y-84098961D02*
X160657141Y-83946580D01*
X160657141Y-83946580D02*
X160580951Y-83870390D01*
X160580951Y-83870390D02*
X160504760Y-83832295D01*
X159857142Y-84594200D02*
X159742856Y-84632295D01*
X159742856Y-84632295D02*
X159552380Y-84632295D01*
X159552380Y-84632295D02*
X159476189Y-84594200D01*
X159476189Y-84594200D02*
X159438094Y-84556104D01*
X159438094Y-84556104D02*
X159399999Y-84479914D01*
X159399999Y-84479914D02*
X159399999Y-84403723D01*
X159399999Y-84403723D02*
X159438094Y-84327533D01*
X159438094Y-84327533D02*
X159476189Y-84289438D01*
X159476189Y-84289438D02*
X159552380Y-84251342D01*
X159552380Y-84251342D02*
X159704761Y-84213247D01*
X159704761Y-84213247D02*
X159780951Y-84175152D01*
X159780951Y-84175152D02*
X159819046Y-84137057D01*
X159819046Y-84137057D02*
X159857142Y-84060866D01*
X159857142Y-84060866D02*
X159857142Y-83984676D01*
X159857142Y-83984676D02*
X159819046Y-83908485D01*
X159819046Y-83908485D02*
X159780951Y-83870390D01*
X159780951Y-83870390D02*
X159704761Y-83832295D01*
X159704761Y-83832295D02*
X159514284Y-83832295D01*
X159514284Y-83832295D02*
X159399999Y-83870390D01*
X159057141Y-84632295D02*
X159057141Y-83832295D01*
X162980952Y-86715152D02*
X163057142Y-86677057D01*
X163057142Y-86677057D02*
X163095237Y-86638961D01*
X163095237Y-86638961D02*
X163133333Y-86562771D01*
X163133333Y-86562771D02*
X163133333Y-86524676D01*
X163133333Y-86524676D02*
X163095237Y-86448485D01*
X163095237Y-86448485D02*
X163057142Y-86410390D01*
X163057142Y-86410390D02*
X162980952Y-86372295D01*
X162980952Y-86372295D02*
X162828571Y-86372295D01*
X162828571Y-86372295D02*
X162752380Y-86410390D01*
X162752380Y-86410390D02*
X162714285Y-86448485D01*
X162714285Y-86448485D02*
X162676190Y-86524676D01*
X162676190Y-86524676D02*
X162676190Y-86562771D01*
X162676190Y-86562771D02*
X162714285Y-86638961D01*
X162714285Y-86638961D02*
X162752380Y-86677057D01*
X162752380Y-86677057D02*
X162828571Y-86715152D01*
X162828571Y-86715152D02*
X162980952Y-86715152D01*
X162980952Y-86715152D02*
X163057142Y-86753247D01*
X163057142Y-86753247D02*
X163095237Y-86791342D01*
X163095237Y-86791342D02*
X163133333Y-86867533D01*
X163133333Y-86867533D02*
X163133333Y-87019914D01*
X163133333Y-87019914D02*
X163095237Y-87096104D01*
X163095237Y-87096104D02*
X163057142Y-87134200D01*
X163057142Y-87134200D02*
X162980952Y-87172295D01*
X162980952Y-87172295D02*
X162828571Y-87172295D01*
X162828571Y-87172295D02*
X162752380Y-87134200D01*
X162752380Y-87134200D02*
X162714285Y-87096104D01*
X162714285Y-87096104D02*
X162676190Y-87019914D01*
X162676190Y-87019914D02*
X162676190Y-86867533D01*
X162676190Y-86867533D02*
X162714285Y-86791342D01*
X162714285Y-86791342D02*
X162752380Y-86753247D01*
X162752380Y-86753247D02*
X162828571Y-86715152D01*
X161304761Y-86410390D02*
X161380951Y-86372295D01*
X161380951Y-86372295D02*
X161495237Y-86372295D01*
X161495237Y-86372295D02*
X161609523Y-86410390D01*
X161609523Y-86410390D02*
X161685713Y-86486580D01*
X161685713Y-86486580D02*
X161723808Y-86562771D01*
X161723808Y-86562771D02*
X161761904Y-86715152D01*
X161761904Y-86715152D02*
X161761904Y-86829438D01*
X161761904Y-86829438D02*
X161723808Y-86981819D01*
X161723808Y-86981819D02*
X161685713Y-87058009D01*
X161685713Y-87058009D02*
X161609523Y-87134200D01*
X161609523Y-87134200D02*
X161495237Y-87172295D01*
X161495237Y-87172295D02*
X161419046Y-87172295D01*
X161419046Y-87172295D02*
X161304761Y-87134200D01*
X161304761Y-87134200D02*
X161266665Y-87096104D01*
X161266665Y-87096104D02*
X161266665Y-86829438D01*
X161266665Y-86829438D02*
X161419046Y-86829438D01*
X160923808Y-87172295D02*
X160923808Y-86372295D01*
X160923808Y-86372295D02*
X160733332Y-86372295D01*
X160733332Y-86372295D02*
X160619046Y-86410390D01*
X160619046Y-86410390D02*
X160542856Y-86486580D01*
X160542856Y-86486580D02*
X160504761Y-86562771D01*
X160504761Y-86562771D02*
X160466665Y-86715152D01*
X160466665Y-86715152D02*
X160466665Y-86829438D01*
X160466665Y-86829438D02*
X160504761Y-86981819D01*
X160504761Y-86981819D02*
X160542856Y-87058009D01*
X160542856Y-87058009D02*
X160619046Y-87134200D01*
X160619046Y-87134200D02*
X160733332Y-87172295D01*
X160733332Y-87172295D02*
X160923808Y-87172295D01*
X159971427Y-86372295D02*
X159819046Y-86372295D01*
X159819046Y-86372295D02*
X159742856Y-86410390D01*
X159742856Y-86410390D02*
X159666665Y-86486580D01*
X159666665Y-86486580D02*
X159628570Y-86638961D01*
X159628570Y-86638961D02*
X159628570Y-86905628D01*
X159628570Y-86905628D02*
X159666665Y-87058009D01*
X159666665Y-87058009D02*
X159742856Y-87134200D01*
X159742856Y-87134200D02*
X159819046Y-87172295D01*
X159819046Y-87172295D02*
X159971427Y-87172295D01*
X159971427Y-87172295D02*
X160047618Y-87134200D01*
X160047618Y-87134200D02*
X160123808Y-87058009D01*
X160123808Y-87058009D02*
X160161904Y-86905628D01*
X160161904Y-86905628D02*
X160161904Y-86638961D01*
X160161904Y-86638961D02*
X160123808Y-86486580D01*
X160123808Y-86486580D02*
X160047618Y-86410390D01*
X160047618Y-86410390D02*
X159971427Y-86372295D01*
X159323809Y-86448485D02*
X159285713Y-86410390D01*
X159285713Y-86410390D02*
X159209523Y-86372295D01*
X159209523Y-86372295D02*
X159019047Y-86372295D01*
X159019047Y-86372295D02*
X158942856Y-86410390D01*
X158942856Y-86410390D02*
X158904761Y-86448485D01*
X158904761Y-86448485D02*
X158866666Y-86524676D01*
X158866666Y-86524676D02*
X158866666Y-86600866D01*
X158866666Y-86600866D02*
X158904761Y-86715152D01*
X158904761Y-86715152D02*
X159361904Y-87172295D01*
X159361904Y-87172295D02*
X158866666Y-87172295D01*
X146633332Y-79086104D02*
X146671428Y-79124200D01*
X146671428Y-79124200D02*
X146785713Y-79162295D01*
X146785713Y-79162295D02*
X146861904Y-79162295D01*
X146861904Y-79162295D02*
X146976190Y-79124200D01*
X146976190Y-79124200D02*
X147052380Y-79048009D01*
X147052380Y-79048009D02*
X147090475Y-78971819D01*
X147090475Y-78971819D02*
X147128571Y-78819438D01*
X147128571Y-78819438D02*
X147128571Y-78705152D01*
X147128571Y-78705152D02*
X147090475Y-78552771D01*
X147090475Y-78552771D02*
X147052380Y-78476580D01*
X147052380Y-78476580D02*
X146976190Y-78400390D01*
X146976190Y-78400390D02*
X146861904Y-78362295D01*
X146861904Y-78362295D02*
X146785713Y-78362295D01*
X146785713Y-78362295D02*
X146671428Y-78400390D01*
X146671428Y-78400390D02*
X146633332Y-78438485D01*
X145871428Y-79162295D02*
X146328571Y-79162295D01*
X146099999Y-79162295D02*
X146099999Y-78362295D01*
X146099999Y-78362295D02*
X146176190Y-78476580D01*
X146176190Y-78476580D02*
X146252380Y-78552771D01*
X146252380Y-78552771D02*
X146328571Y-78590866D01*
X146633332Y-76086104D02*
X146671428Y-76124200D01*
X146671428Y-76124200D02*
X146785713Y-76162295D01*
X146785713Y-76162295D02*
X146861904Y-76162295D01*
X146861904Y-76162295D02*
X146976190Y-76124200D01*
X146976190Y-76124200D02*
X147052380Y-76048009D01*
X147052380Y-76048009D02*
X147090475Y-75971819D01*
X147090475Y-75971819D02*
X147128571Y-75819438D01*
X147128571Y-75819438D02*
X147128571Y-75705152D01*
X147128571Y-75705152D02*
X147090475Y-75552771D01*
X147090475Y-75552771D02*
X147052380Y-75476580D01*
X147052380Y-75476580D02*
X146976190Y-75400390D01*
X146976190Y-75400390D02*
X146861904Y-75362295D01*
X146861904Y-75362295D02*
X146785713Y-75362295D01*
X146785713Y-75362295D02*
X146671428Y-75400390D01*
X146671428Y-75400390D02*
X146633332Y-75438485D01*
X146328571Y-75438485D02*
X146290475Y-75400390D01*
X146290475Y-75400390D02*
X146214285Y-75362295D01*
X146214285Y-75362295D02*
X146023809Y-75362295D01*
X146023809Y-75362295D02*
X145947618Y-75400390D01*
X145947618Y-75400390D02*
X145909523Y-75438485D01*
X145909523Y-75438485D02*
X145871428Y-75514676D01*
X145871428Y-75514676D02*
X145871428Y-75590866D01*
X145871428Y-75590866D02*
X145909523Y-75705152D01*
X145909523Y-75705152D02*
X146366666Y-76162295D01*
X146366666Y-76162295D02*
X145871428Y-76162295D01*
M02*
