<?xml version="1.0" standalone="no"?>
 <!DOCTYPE svg PUBLIC "-//W3C//DTD SVG 1.1//EN"
 "http://www.w3.org/Graphics/SVG/1.1/DTD/svg11.dtd">
<svg
  xmlns:svg="http://www.w3.org/2000/svg"
  xmlns="http://www.w3.org/2000/svg"
  xmlns:xlink="http://www.w3.org/1999/xlink"
  xmlns:inkscape="http://www.inkscape.org/namespaces/inkscape"
  version="1.1"
  width="67.9958mm" height="65.9892mm" viewBox="0.0000 0.0000 67.9958 65.9892">
<title>SVG Image created as rainpoint_carrier-top.svg date 2026-08-12T21:24:41 </title>
  <desc>Image generated by PCBNEW </desc>
<g style="fill:#000000; fill-opacity:1.0000;stroke:#000000; stroke-opacity:1.0000;
stroke-linecap:round; stroke-linejoin:round;"
 transform="translate(0 0) scale(1 1)">
<path style="fill:#C83434; fill-opacity:1.0000; stroke:none;fill-rule:evenodd;"
d="M 8.6800,56.9900
8.6800,54.9900
10.6800,54.9900
10.6800,56.9900
Z" />
</g>
<g style="fill:#C83434; fill-opacity:1.0000; stroke:none;">
<circle cx="9.6800" cy="53.4500" r="1.0000" />
<circle cx="9.6800" cy="50.9100" r="1.0000" />
<circle cx="9.6800" cy="48.3700" r="1.0000" />
<circle cx="9.6800" cy="45.8300" r="1.0000" />
<circle cx="9.6800" cy="43.2900" r="1.0000" />
<circle cx="9.6800" cy="40.7500" r="1.0000" />
<circle cx="9.6800" cy="38.2100" r="1.0000" />
<circle cx="9.6800" cy="35.6700" r="1.0000" />
<circle cx="9.6800" cy="33.1300" r="1.0000" />
<circle cx="9.6800" cy="30.5900" r="1.0000" />
<circle cx="9.6800" cy="28.0500" r="1.0000" />
<circle cx="9.6800" cy="25.5100" r="1.0000" />
<circle cx="9.6800" cy="22.9700" r="1.0000" />
<circle cx="9.6800" cy="20.4300" r="1.0000" />
<path style="fill:#C83434; fill-opacity:1.0000; stroke:none;fill-rule:evenodd;"
d="M 34.0800,56.9900
34.0800,54.9900
36.0800,54.9900
36.0800,56.9900
Z" />
<circle cx="35.0800" cy="53.4500" r="1.0000" />
<circle cx="35.0800" cy="50.9100" r="1.0000" />
<circle cx="35.0800" cy="48.3700" r="1.0000" />
<circle cx="35.0800" cy="45.8300" r="1.0000" />
<circle cx="35.0800" cy="43.2900" r="1.0000" />
<circle cx="35.0800" cy="40.7500" r="1.0000" />
<circle cx="35.0800" cy="38.2100" r="1.0000" />
<circle cx="35.0800" cy="35.6700" r="1.0000" />
<circle cx="35.0800" cy="33.1300" r="1.0000" />
<circle cx="35.0800" cy="30.5900" r="1.0000" />
<circle cx="35.0800" cy="28.0500" r="1.0000" />
<circle cx="35.0800" cy="25.5100" r="1.0000" />
<circle cx="35.0800" cy="22.9700" r="1.0000" />
<circle cx="35.0800" cy="20.4300" r="1.0000" />
<path style="fill:#C83434; fill-opacity:1.0000; stroke:none;fill-rule:evenodd;"
d="M 40.0000,37.8100
40.0000,35.8100
42.0000,35.8100
42.0000,37.8100
Z" />
<circle cx="43.5400" cy="36.8100" r="1.0000" />
<circle cx="41.0000" cy="34.2700" r="1.0000" />
<circle cx="43.5400" cy="34.2700" r="1.0000" />
<circle cx="41.0000" cy="31.7300" r="1.0000" />
<circle cx="43.5400" cy="31.7300" r="1.0000" />
<circle cx="41.0000" cy="29.1900" r="1.0000" />
<circle cx="43.5400" cy="29.1900" r="1.0000" />
<circle cx="7.0000" cy="43.2900" r="0.3500" />
<circle cx="38.5000" cy="45.0000" r="0.3500" />
</g>
<g style="fill:none;
stroke:#C83434; stroke-width:0.3000; stroke-opacity:1;
stroke-linecap:round; stroke-linejoin:round;">
<path d="M9.6800 43.2900
L7.0000 43.2900
" />
<path d="M38.5000 45.0000
L38.5000 34.2700
" />
<path d="M38.5000 34.2700
L41.0000 34.2700
" />
</g>
<g style="fill:none;
stroke:#C83434; stroke-width:0.5000; stroke-opacity:1;
stroke-linecap:round; stroke-linejoin:round;">
<path d="M40.0000 42.0000
L46.0000 36.8100
" />
<path d="M46.0000 36.8100
L43.5400 36.8100
" />
<path d="M35.0800 55.9900
L40.0000 55.9900
" />
<path d="M40.0000 55.9900
L40.0000 42.0000
" />
</g>
<g style="fill:none;
stroke:#C83434; stroke-width:0.3000; stroke-opacity:1;
stroke-linecap:round; stroke-linejoin:round;">
<path d="M37.0000 33.1300
L40.9400 29.1900
" />
<path d="M40.9400 29.1900
L41.0000 29.1900
" />
<path d="M35.0800 33.1300
L37.0000 33.1300
" />
<path d="M47.0000 28.4300
L47.0000 30.2700
" />
<path d="M45.5400 31.7300
L43.5400 31.7300
" />
<path d="M35.0800 20.4300
L39.0000 20.4300
" />
<path d="M47.0000 30.2700
L45.5400 31.7300
" />
<path d="M39.0000 20.4300
L47.0000 28.4300
" />
<path style="fill:#C83434; fill-opacity:1.0000; stroke:none;fill-rule:evenodd;"
d="M 39.6850,31.1846
39.7409,31.2265
39.7653,31.2920
39.7596,31.3391
39.7315,31.4255
39.7315,31.4255
39.6995,31.6276
39.6995,31.8324
39.7315,32.0345
39.7948,32.2292
39.8877,32.4116
40.0080,32.5772
40.1528,32.7220
40.2952,32.8255
40.3184,32.8423
40.4098,32.8889
40.4111,32.8895
40.4619,32.9375
40.4787,33.0053
40.4561,33.0714
40.4111,33.1105
40.3184,33.1577
40.1528,33.2780
40.0080,33.4228
39.8877,33.5884
39.8045,33.7518
39.7565,33.8026
39.6940,33.8195
38.5593,33.8195
38.4407,33.8195
38.3261,33.8502
38.3261,33.8502
38.3261,33.8502
38.2234,33.9095
38.2234,33.9095
38.1395,33.9934
38.1395,33.9934
38.0802,34.0961
38.0495,34.2107
38.0495,34.2107
38.0495,44.4792
38.0298,44.5462
38.0132,44.5669
37.9947,44.5853
37.9947,44.5853
37.9235,44.6919
37.9235,44.6919
37.8745,44.8103
37.8745,44.8103
37.8495,44.9359
37.8495,44.9359
37.8495,45.0641
37.8495,45.0641
37.8495,45.0641
37.8745,45.1897
37.8745,45.1897
37.9235,45.3081
37.9235,45.3081
37.9947,45.4147
37.9947,45.4147
38.0853,45.5053
38.0853,45.5053
38.1919,45.5765
38.1919,45.5765
38.1919,45.5765
38.3103,45.6255
38.3103,45.6255
38.3103,45.6255
38.4359,45.6505
38.4359,45.6505
38.5641,45.6505
38.6486,45.6337
38.6897,45.6255
38.8081,45.5765
38.9147,45.5053
39.0053,45.4147
39.0765,45.3081
39.1255,45.1897
39.1505,45.0641
39.1505,44.9359
39.1505,44.9359
39.1255,44.8103
39.1255,44.8103
39.1255,44.8103
39.0765,44.6919
39.0765,44.6919
39.0765,44.6919
39.0053,44.5853
39.0053,44.5853
38.9868,44.5669
38.9533,44.5055
38.9505,44.4792
38.9505,34.8445
38.9702,34.7775
39.0230,34.7317
39.0745,34.7205
39.6940,34.7205
39.7610,34.7402
39.8045,34.7882
39.8877,34.9516
40.0080,35.1172
40.1528,35.2620
40.2952,35.3655
40.3184,35.3823
40.4111,35.4295
40.5008,35.4752
40.5008,35.4752
40.5008,35.4752
40.6051,35.5091
40.6955,35.5385
40.7147,35.5415
40.8976,35.5705
40.8976,35.5705
41.1024,35.5705
41.1024,35.5705
41.3045,35.5385
41.4992,35.4752
41.6816,35.3823
41.7746,35.3147
41.8472,35.2620
41.8472,35.2620
41.8472,35.2620
41.9920,35.1172
41.9920,35.1172
41.9920,35.1172
42.1123,34.9516
42.1123,34.9516
42.1123,34.9516
42.1595,34.8589
42.2075,34.8081
42.2753,34.7913
42.3414,34.8139
42.3805,34.8589
42.4277,34.9516
42.5480,35.1172
42.6928,35.2620
42.8352,35.3655
42.8584,35.3823
42.9498,35.4289
42.9511,35.4295
43.0019,35.4775
43.0187,35.5453
42.9961,35.6114
42.9511,35.6505
42.8584,35.6977
42.6928,35.8180
42.5480,35.9628
42.4277,36.1284
42.3348,36.3108
42.2715,36.5055
42.2395,36.7076
42.2395,36.9124
42.2715,37.1145
42.3348,37.3092
42.4277,37.4916
42.5480,37.6572
42.6928,37.8020
42.8352,37.9055
42.8584,37.9223
42.9746,37.9815
43.0408,38.0152
43.0408,38.0152
43.0408,38.0152
43.1451,38.0491
43.2355,38.0785
43.2567,38.0818
43.3579,38.0979
43.4211,38.1278
43.4580,38.1871
43.4570,38.2570
43.4196,38.3141
39.6883,41.5417
39.6692,41.5553
39.6620,41.5595
39.6620,41.5595
39.6280,41.5935
39.6214,41.5996
39.5850,41.6311
39.5850,41.6311
39.5803,41.6380
39.5654,41.6561
39.5595,41.6620
39.5354,41.7036
39.5307,41.7112
39.5037,41.7510
39.5037,41.7510
39.5010,41.7589
39.4912,41.7803
39.4870,41.7875
39.4870,41.7875
39.4746,41.8340
39.4719,41.8425
39.4562,41.8880
39.4562,41.8880
39.4556,41.8963
39.4517,41.9194
39.4495,41.9275
39.4495,41.9756
39.4492,41.9846
39.4457,42.0325
39.4457,42.0325
39.4473,42.0407
39.4495,42.0641
39.4495,55.3155
39.4298,55.3825
39.3770,55.4283
39.3255,55.4395
36.5045,55.4395
36.4375,55.4198
36.3917,55.3670
36.3805,55.3155
36.3805,54.9451
36.3805,54.9451
36.3805,54.9451
36.3776,54.9200
36.3776,54.9200
36.3776,54.9200
36.3322,54.8172
36.2528,54.7378
36.2528,54.7378
36.1500,54.6924
36.1249,54.6895
36.1249,54.6895
35.9682,54.6895
35.9011,54.6698
35.8554,54.6170
35.8454,54.5479
35.8744,54.4843
35.8953,54.4652
35.9272,54.4420
35.9272,54.4420
35.9272,54.4420
36.0720,54.2972
36.0720,54.2972
36.0720,54.2972
36.1247,54.2246
36.1923,54.1316
36.2852,53.9492
36.3485,53.7545
36.3805,53.5524
36.3805,53.3476
36.3485,53.1455
36.2852,52.9508
36.2852,52.9508
36.2852,52.9508
36.2515,52.8846
36.1923,52.7684
36.1846,52.7577
36.0720,52.6028
35.9272,52.4580
35.7616,52.3377
35.7550,52.3343
35.6689,52.2905
35.6181,52.2425
35.6013,52.1747
35.6239,52.1086
35.6689,52.0695
35.7616,52.0223
35.7828,52.0069
35.9272,51.9020
35.9272,51.9020
35.9272,51.9020
36.0720,51.7572
36.0720,51.7572
36.0720,51.7572
36.1247,51.6846
36.1923,51.5916
36.2852,51.4092
36.3485,51.2145
36.3805,51.0124
36.3805,50.8076
36.3485,50.6055
36.2852,50.4108
36.2852,50.4108
36.2852,50.4108
36.2515,50.3446
36.1923,50.2284
36.1846,50.2177
36.0720,50.0628
35.9272,49.9180
35.7616,49.7977
35.7550,49.7943
35.6689,49.7505
35.6181,49.7025
35.6013,49.6347
35.6239,49.5686
35.6689,49.5295
35.7616,49.4823
35.7828,49.4669
35.9272,49.3620
35.9272,49.3620
35.9272,49.3620
36.0720,49.2172
36.0720,49.2172
36.0720,49.2172
36.1247,49.1446
36.1923,49.0516
36.2852,48.8692
36.3485,48.6745
36.3805,48.4724
36.3805,48.2676
36.3485,48.0655
36.2852,47.8708
36.2852,47.8708
36.2852,47.8708
36.2515,47.8046
36.1923,47.6884
36.1846,47.6777
36.0720,47.5228
35.9272,47.3780
35.7616,47.2577
35.7550,47.2543
35.6689,47.2105
35.6181,47.1625
35.6013,47.0947
35.6239,47.0286
35.6689,46.9895
35.7616,46.9423
35.7828,46.9269
35.9272,46.8220
35.9272,46.8220
35.9272,46.8220
36.0720,46.6772
36.0720,46.6772
36.0720,46.6772
36.1247,46.6046
36.1923,46.5116
36.2852,46.3292
36.3485,46.1345
36.3805,45.9324
36.3805,45.7276
36.3485,45.5255
36.2852,45.3308
36.2852,45.3308
36.2852,45.3308
36.2515,45.2646
36.1923,45.1484
36.1846,45.1377
36.0720,44.9828
35.9272,44.8380
35.7616,44.7177
35.7109,44.6919
35.6689,44.6705
35.6181,44.6225
35.6013,44.5547
35.6239,44.4886
35.6689,44.4495
35.7616,44.4023
35.7828,44.3869
35.9272,44.2820
35.9272,44.2820
35.9272,44.2820
36.0720,44.1372
36.0720,44.1372
36.0720,44.1372
36.1247,44.0646
36.1923,43.9716
36.2852,43.7892
36.3485,43.5945
36.3805,43.3924
36.3805,43.1876
36.3485,42.9855
36.3473,42.9819
36.3010,42.8395
36.2852,42.7908
36.2852,42.7908
36.2852,42.7908
36.2209,42.6645
36.1923,42.6084
36.1846,42.5977
36.0720,42.4428
35.9272,42.2980
35.7616,42.1777
35.7550,42.1743
35.6689,42.1305
35.6181,42.0825
35.6013,42.0147
35.6239,41.9486
35.6689,41.9095
35.7616,41.8623
35.7946,41.8383
35.9272,41.7420
35.9272,41.7420
35.9272,41.7420
36.0720,41.5972
36.0720,41.5972
36.0720,41.5972
36.1247,41.5246
36.1923,41.4316
36.2852,41.2492
36.3485,41.0545
36.3805,40.8524
36.3805,40.6476
36.3485,40.4455
36.2852,40.2508
36.2852,40.2508
36.2852,40.2508
36.2515,40.1846
36.1923,40.0684
36.1846,40.0577
36.0720,39.9028
35.9272,39.7580
35.7616,39.6377
35.7550,39.6343
35.6689,39.5905
35.6181,39.5425
35.6013,39.4747
35.6239,39.4086
35.6689,39.3695
35.7616,39.3223
35.7828,39.3069
35.9272,39.2020
35.9272,39.2020
35.9272,39.2020
36.0720,39.0572
36.0720,39.0572
36.0720,39.0572
36.1247,38.9846
36.1923,38.8916
36.2852,38.7092
36.3485,38.5145
36.3805,38.3124
36.3805,38.1076
36.3485,37.9055
36.2852,37.7108
36.2852,37.7108
36.2852,37.7108
36.2515,37.6446
36.1923,37.5284
36.1656,37.4916
36.0720,37.3628
35.9272,37.2180
35.7616,37.0977
35.7550,37.0943
35.6689,37.0505
35.6181,37.0025
35.6013,36.9347
35.6239,36.8686
35.6689,36.8295
35.7616,36.7823
35.8232,36.7375
35.9272,36.6620
35.9272,36.6620
35.9272,36.6620
36.0720,36.5172
36.0720,36.5172
36.0720,36.5172
36.1343,36.4314
36.1923,36.3516
36.2852,36.1692
36.3485,35.9745
36.3805,35.7724
36.3805,35.5676
36.3485,35.3655
36.2852,35.1708
36.2852,35.1708
36.2852,35.1708
36.2515,35.1046
36.1923,34.9884
36.1656,34.9516
36.0720,34.8228
35.9272,34.6780
35.7616,34.5577
35.7550,34.5543
35.6689,34.5105
35.6181,34.4625
35.6013,34.3947
35.6239,34.3286
35.6689,34.2895
35.7616,34.2423
35.8643,34.1676
35.9272,34.1220
35.9272,34.1220
35.9272,34.1220
36.0720,33.9772
36.0720,33.9772
36.0720,33.9772
36.1923,33.8116
36.1923,33.8116
36.1923,33.8116
36.2755,33.6482
36.3235,33.5974
36.3860,33.5805
37.0593,33.5805
37.0593,33.5805
37.1497,33.5563
37.1739,33.5498
37.2766,33.4905
39.5540,31.2131
39.6153,31.1797
Z" />
<path style="fill:#C83434; fill-opacity:1.0000; stroke:none;fill-rule:evenodd;"
d="M 6.9430,0.5202
6.9888,0.5730
7.0000,0.6245
7.0000,18.5000
38.0000,18.5000
38.0000,3.3787
62.6495,3.3787
62.6495,3.6213
62.6812,3.8618
62.7439,4.0961
62.8368,4.3202
62.8368,4.3202
62.9581,4.5303
62.9581,4.5303
62.9581,4.5303
63.1057,4.7227
63.1057,4.7227
63.2773,4.8943
63.2773,4.8943
63.4697,5.0419
63.6798,5.1632
63.9039,5.2561
64.1382,5.3188
64.3186,5.3426
64.3787,5.3505
64.3787,5.3505
64.6213,5.3505
64.6694,5.3442
64.8618,5.3188
65.0961,5.2561
65.3202,5.1632
65.5303,5.0419
65.7227,4.8943
65.8943,4.7227
66.0419,4.5303
66.1632,4.3202
66.2561,4.0961
66.3188,3.8618
66.3505,3.6213
66.3505,3.3787
66.3188,3.1382
66.2561,2.9039
66.1632,2.6798
66.0419,2.4697
65.8943,2.2773
65.8943,2.2773
65.7227,2.1057
65.7227,2.1057
65.5303,1.9581
65.5303,1.9581
65.5303,1.9581
65.3202,1.8368
65.3202,1.8368
65.0961,1.7439
64.8618,1.6812
64.6213,1.6495
64.6213,1.6495
64.3787,1.6495
64.3787,1.6495
64.1382,1.6812
63.9039,1.7439
63.6798,1.8368
63.6798,1.8368
63.4697,1.9581
63.2773,2.1057
63.2773,2.1057
63.1057,2.2773
63.1057,2.2773
62.9581,2.4697
62.8368,2.6798
62.8368,2.6798
62.7439,2.9039
62.6812,3.1382
62.6495,3.3787
38.0000,3.3787
38.0000,0.6245
38.0197,0.5575
38.0725,0.5117
38.1240,0.5005
67.1341,0.5005
67.1902,0.5005
67.2096,0.5020
67.2732,0.5121
67.3100,0.5241
67.3585,0.5488
67.3899,0.5716
67.4284,0.6101
67.4512,0.6415
67.4759,0.6900
67.4879,0.7268
67.4980,0.7904
67.4995,0.8098
67.4995,65.1902
67.4980,65.2096
67.4879,65.2732
67.4759,65.3100
67.4512,65.3585
67.4284,65.3899
67.3899,65.4284
67.3585,65.4512
67.3100,65.4759
67.2732,65.4879
67.2381,65.4935
67.2096,65.4980
67.1902,65.4995
0.8098,65.4995
0.7904,65.4980
0.7712,65.4949
0.7268,65.4879
0.6900,65.4759
0.6415,65.4512
0.6101,65.4284
0.5716,65.3899
0.5488,65.3585
0.5241,65.3100
0.5121,65.2732
0.5109,65.2659
0.5020,65.2096
0.5005,65.1902
0.5005,62.3787
1.6495,62.3787
1.6495,62.6213
1.6812,62.8618
1.7439,63.0961
1.8368,63.3202
1.8368,63.3202
1.9581,63.5303
1.9581,63.5303
1.9581,63.5303
2.1057,63.7227
2.1057,63.7227
2.2773,63.8943
2.2773,63.8943
2.4697,64.0419
2.6798,64.1632
2.9039,64.2561
3.1382,64.3188
3.3186,64.3426
3.3787,64.3505
3.3787,64.3505
3.6213,64.3505
3.6694,64.3442
3.8618,64.3188
4.0961,64.2561
4.3202,64.1632
4.5303,64.0419
4.7227,63.8943
4.8943,63.7227
5.0419,63.5303
5.1632,63.3202
5.2561,63.0961
5.3188,62.8618
5.3505,62.6213
5.3505,62.3787
5.3505,62.3787
62.6495,62.3787
62.6495,62.6213
62.6812,62.8618
62.7439,63.0961
62.8368,63.3202
62.8368,63.3202
62.9581,63.5303
62.9581,63.5303
62.9581,63.5303
63.1057,63.7227
63.1057,63.7227
63.2773,63.8943
63.2773,63.8943
63.4697,64.0419
63.6798,64.1632
63.9039,64.2561
64.1382,64.3188
64.3186,64.3426
64.3787,64.3505
64.3787,64.3505
64.6213,64.3505
64.6694,64.3442
64.8618,64.3188
65.0961,64.2561
65.3202,64.1632
65.5303,64.0419
65.7227,63.8943
65.8943,63.7227
66.0419,63.5303
66.1632,63.3202
66.2561,63.0961
66.3188,62.8618
66.3505,62.6213
66.3505,62.3787
66.3188,62.1382
66.2561,61.9039
66.1632,61.6798
66.0419,61.4697
65.8943,61.2773
65.8943,61.2773
65.7227,61.1057
65.7227,61.1057
65.5303,60.9581
65.5303,60.9581
65.5303,60.9581
65.3202,60.8368
65.3202,60.8368
65.0961,60.7439
64.8618,60.6812
64.6213,60.6495
64.6213,60.6495
64.3787,60.6495
64.3787,60.6495
64.1382,60.6812
63.9039,60.7439
63.6798,60.8368
63.6798,60.8368
63.4697,60.9581
63.2773,61.1057
63.2773,61.1057
63.1057,61.2773
63.1057,61.2773
62.9581,61.4697
62.8368,61.6798
62.8368,61.6798
62.7439,61.9039
62.6812,62.1382
62.6495,62.3787
5.3505,62.3787
5.3188,62.1382
5.2561,61.9039
5.1632,61.6798
5.0419,61.4697
4.8943,61.2773
4.8943,61.2773
4.7227,61.1057
4.7227,61.1057
4.5303,60.9581
4.5303,60.9581
4.5303,60.9581
4.3202,60.8368
4.3202,60.8368
4.0961,60.7439
3.8618,60.6812
3.6213,60.6495
3.6213,60.6495
3.3787,60.6495
3.3787,60.6495
3.1382,60.6812
2.9039,60.7439
2.6798,60.8368
2.6798,60.8368
2.4697,60.9581
2.2773,61.1057
2.2773,61.1057
2.1057,61.2773
2.1057,61.2773
1.9581,61.4697
1.8368,61.6798
1.8368,61.6798
1.7439,61.9039
1.6812,62.1382
1.6495,62.3787
0.5005,62.3787
0.5005,54.9451
8.3795,54.9451
8.3795,57.0349
8.3795,57.0349
8.3824,57.0600
8.3824,57.0600
8.4278,57.1628
8.4278,57.1628
8.5072,57.2422
8.6100,57.2876
8.6351,57.2905
10.7249,57.2905
10.7249,57.2905
10.7249,57.2905
10.7500,57.2876
10.7500,57.2876
10.7500,57.2876
10.8528,57.2422
10.9322,57.1628
10.9776,57.0600
10.9805,57.0349
10.9805,54.9451
10.9805,54.9451
10.9776,54.9200
10.9776,54.9200
10.9776,54.9200
10.9322,54.8172
10.8528,54.7378
10.8528,54.7378
10.7500,54.6924
10.7249,54.6895
8.6351,54.6895
8.6351,54.6895
8.6100,54.6924
8.6100,54.6924
8.5072,54.7378
8.4278,54.8172
8.3824,54.9200
8.3824,54.9200
8.3795,54.9451
0.5005,54.9451
0.5005,43.3541
6.3495,43.3541
6.3745,43.4797
6.3745,43.4797
6.4235,43.5981
6.4235,43.5981
6.4947,43.7047
6.4947,43.7047
6.5853,43.7953
6.5853,43.7953
6.6919,43.8665
6.6919,43.8665
6.6919,43.8665
6.8103,43.9155
6.8103,43.9155
6.8103,43.9155
6.9359,43.9405
6.9359,43.9405
7.0641,43.9405
7.1486,43.9237
7.1897,43.9155
7.3081,43.8665
7.4147,43.7953
7.4207,43.7892
7.4331,43.7768
7.4944,43.7433
7.5208,43.7405
8.3740,43.7405
8.4410,43.7602
8.4845,43.8082
8.5391,43.9155
8.5677,43.9716
8.6880,44.1372
8.8328,44.2820
8.9877,44.3946
8.9984,44.4023
9.0898,44.4489
9.0911,44.4495
9.1419,44.4975
9.1587,44.5653
9.1361,44.6314
9.0911,44.6705
8.9984,44.7177
8.8328,44.8380
8.6880,44.9828
8.5677,45.1484
8.4748,45.3308
8.4115,45.5255
8.3795,45.7276
8.3795,45.9324
8.4115,46.1345
8.4748,46.3292
8.5677,46.5116
8.6880,46.6772
8.8328,46.8220
8.9877,46.9346
8.9984,46.9423
9.0898,46.9889
9.0911,46.9895
9.1419,47.0375
9.1587,47.1053
9.1361,47.1714
9.0911,47.2105
8.9984,47.2577
8.8328,47.3780
8.6880,47.5228
8.5677,47.6884
8.4748,47.8708
8.4115,48.0655
8.3795,48.2676
8.3795,48.4724
8.4115,48.6745
8.4748,48.8692
8.5677,49.0516
8.6880,49.2172
8.8328,49.3620
8.9877,49.4746
8.9984,49.4823
9.0898,49.5289
9.0911,49.5295
9.1419,49.5775
9.1587,49.6453
9.1361,49.7114
9.0911,49.7505
8.9984,49.7977
8.8328,49.9180
8.6880,50.0628
8.5677,50.2284
8.4748,50.4108
8.4115,50.6055
8.3795,50.8076
8.3795,51.0124
8.4115,51.2145
8.4748,51.4092
8.5677,51.5916
8.6880,51.7572
8.8328,51.9020
8.9877,52.0146
8.9984,52.0223
9.0911,52.0695
9.1808,52.1152
9.1808,52.1152
9.1808,52.1152
9.2851,52.1491
9.3755,52.1785
9.3947,52.1815
9.5776,52.2105
9.5776,52.2105
9.7824,52.2105
9.7824,52.2105
9.9845,52.1785
10.1792,52.1152
10.3616,52.0223
10.4546,51.9547
10.5272,51.9020
10.5272,51.9020
10.5272,51.9020
10.6720,51.7572
10.6720,51.7572
10.6720,51.7572
10.7247,51.6846
10.7923,51.5916
10.8852,51.4092
10.9485,51.2145
10.9805,51.0124
10.9805,50.8076
10.9485,50.6055
10.8852,50.4108
10.8852,50.4108
10.8852,50.4108
10.8515,50.3446
10.7923,50.2284
10.7846,50.2177
10.6720,50.0628
10.5272,49.9180
10.3616,49.7977
10.3550,49.7943
10.2689,49.7505
10.2181,49.7025
10.2013,49.6347
10.2239,49.5686
10.2689,49.5295
10.3616,49.4823
10.3828,49.4669
10.5272,49.3620
10.5272,49.3620
10.5272,49.3620
10.6720,49.2172
10.6720,49.2172
10.6720,49.2172
10.7247,49.1446
10.7923,49.0516
10.8852,48.8692
10.9485,48.6745
10.9805,48.4724
10.9805,48.2676
10.9485,48.0655
10.8852,47.8708
10.8852,47.8708
10.8852,47.8708
10.8515,47.8046
10.7923,47.6884
10.7846,47.6777
10.6720,47.5228
10.5272,47.3780
10.3616,47.2577
10.3550,47.2543
10.2689,47.2105
10.2181,47.1625
10.2013,47.0947
10.2239,47.0286
10.2689,46.9895
10.3616,46.9423
10.3828,46.9269
10.5272,46.8220
10.5272,46.8220
10.5272,46.8220
10.6720,46.6772
10.6720,46.6772
10.6720,46.6772
10.7247,46.6046
10.7923,46.5116
10.8852,46.3292
10.9485,46.1345
10.9805,45.9324
10.9805,45.7276
10.9485,45.5255
10.8852,45.3308
10.8852,45.3308
10.8852,45.3308
10.8515,45.2646
10.7923,45.1484
10.7846,45.1377
10.6720,44.9828
10.5272,44.8380
10.3616,44.7177
10.3109,44.6919
10.2689,44.6705
10.2181,44.6225
10.2013,44.5547
10.2239,44.4886
10.2689,44.4495
10.3616,44.4023
10.3828,44.3869
10.5272,44.2820
10.5272,44.2820
10.5272,44.2820
10.6720,44.1372
10.6720,44.1372
10.6720,44.1372
10.7247,44.0646
10.7923,43.9716
10.8852,43.7892
10.9485,43.5945
10.9805,43.3924
10.9805,43.1876
10.9485,42.9855
10.9473,42.9819
10.9010,42.8395
10.8852,42.7908
10.8852,42.7908
10.8852,42.7908
10.8209,42.6645
10.7923,42.6084
10.7846,42.5977
10.6720,42.4428
10.5272,42.2980
10.3616,42.1777
10.3550,42.1743
10.2689,42.1305
10.2181,42.0825
10.2013,42.0147
10.2239,41.9486
10.2689,41.9095
10.3616,41.8623
10.3946,41.8383
10.5272,41.7420
10.5272,41.7420
10.5272,41.7420
10.6720,41.5972
10.6720,41.5972
10.6720,41.5972
10.7247,41.5246
10.7923,41.4316
10.8852,41.2492
10.9485,41.0545
10.9805,40.8524
10.9805,40.6476
10.9485,40.4455
10.8852,40.2508
10.8852,40.2508
10.8852,40.2508
10.8515,40.1846
10.7923,40.0684
10.7846,40.0577
10.6720,39.9028
10.5272,39.7580
10.3616,39.6377
10.3550,39.6343
10.2689,39.5905
10.2181,39.5425
10.2013,39.4747
10.2239,39.4086
10.2689,39.3695
10.3616,39.3223
10.3828,39.3069
10.5272,39.2020
10.5272,39.2020
10.5272,39.2020
10.6720,39.0572
10.6720,39.0572
10.6720,39.0572
10.7247,38.9846
10.7923,38.8916
10.8852,38.7092
10.9485,38.5145
10.9805,38.3124
10.9805,38.1076
10.9485,37.9055
10.8852,37.7108
10.8852,37.7108
10.8852,37.7108
10.8515,37.6446
10.7923,37.5284
10.7656,37.4916
10.6720,37.3628
10.5272,37.2180
10.3616,37.0977
10.3550,37.0943
10.2689,37.0505
10.2181,37.0025
10.2013,36.9347
10.2239,36.8686
10.2689,36.8295
10.3616,36.7823
10.4232,36.7375
10.5272,36.6620
10.5272,36.6620
10.5272,36.6620
10.6720,36.5172
10.6720,36.5172
10.6720,36.5172
10.7343,36.4314
10.7923,36.3516
10.8852,36.1692
10.9485,35.9745
10.9805,35.7724
10.9805,35.5676
10.9485,35.3655
10.8852,35.1708
10.8852,35.1708
10.8852,35.1708
10.8515,35.1046
10.7923,34.9884
10.7656,34.9516
10.6720,34.8228
10.5272,34.6780
10.3616,34.5577
10.3550,34.5543
10.2689,34.5105
10.2181,34.4625
10.2013,34.3947
10.2239,34.3286
10.2689,34.2895
10.3616,34.2423
10.4643,34.1676
10.5272,34.1220
10.5272,34.1220
10.5272,34.1220
10.6720,33.9772
10.6720,33.9772
10.6720,33.9772
10.7642,33.8502
10.7923,33.8116
10.8852,33.6292
10.9485,33.4345
10.9805,33.2324
10.9805,33.0276
10.9485,32.8255
10.8852,32.6308
10.8852,32.6308
10.8852,32.6308
10.8515,32.5646
10.7923,32.4484
10.7656,32.4116
10.6720,32.2828
10.5272,32.1380
10.3616,32.0177
10.3550,32.0143
10.2689,31.9705
10.2181,31.9225
10.2013,31.8547
10.2239,31.7886
10.2689,31.7495
10.3616,31.7023
10.4643,31.6276
10.5272,31.5820
10.5272,31.5820
10.5272,31.5820
10.6720,31.4372
10.6720,31.4372
10.6720,31.4372
10.7247,31.3646
10.7923,31.2716
10.8852,31.0892
10.9485,30.8945
10.9805,30.6924
10.9805,30.4876
10.9586,30.3495
10.9485,30.2855
10.8852,30.0908
10.8515,30.0246
10.7923,29.9084
10.7656,29.8716
10.6720,29.7428
10.5272,29.5980
10.3616,29.4777
10.3550,29.4743
10.2689,29.4305
10.2181,29.3825
10.2013,29.3147
10.2239,29.2486
10.2689,29.2095
10.3616,29.1623
10.4643,29.0876
10.5272,29.0420
10.5272,29.0420
10.5272,29.0420
10.6720,28.8972
10.6720,28.8972
10.6720,28.8972
10.7247,28.8246
10.7923,28.7316
10.8852,28.5492
10.9485,28.3545
10.9805,28.1524
10.9805,27.9476
10.9485,27.7455
10.8852,27.5508
10.8852,27.5508
10.8852,27.5508
10.8515,27.4846
10.7923,27.3684
10.7846,27.3577
10.6720,27.2028
10.5272,27.0580
10.3616,26.9377
10.3550,26.9343
10.2689,26.8905
10.2181,26.8425
10.2013,26.7747
10.2239,26.7086
10.2689,26.6695
10.3616,26.6223
10.3828,26.6069
10.5272,26.5020
10.5272,26.5020
10.5272,26.5020
10.6720,26.3572
10.6720,26.3572
10.6720,26.3572
10.7247,26.2846
10.7923,26.1916
10.8852,26.0092
10.9485,25.8145
10.9805,25.6124
10.9805,25.4076
10.9485,25.2055
10.8852,25.0108
10.8852,25.0108
10.8852,25.0108
10.8515,24.9446
10.7923,24.8284
10.7846,24.8177
10.6720,24.6628
10.5272,24.5180
10.3616,24.3977
10.3550,24.3943
10.2689,24.3505
10.2181,24.3025
10.2013,24.2347
10.2239,24.1686
10.2689,24.1295
10.3616,24.0823
10.3828,24.0669
10.5272,23.9620
10.5272,23.9620
10.5272,23.9620
10.6720,23.8172
10.6720,23.8172
10.6720,23.8172
10.7247,23.7446
10.7923,23.6516
10.8852,23.4692
10.9485,23.2745
10.9805,23.0724
10.9805,22.8676
10.9485,22.6655
10.8852,22.4708
10.8852,22.4708
10.8852,22.4708
10.8515,22.4046
10.7923,22.2884
10.7846,22.2777
10.6720,22.1228
10.5272,21.9780
10.3616,21.8577
10.3550,21.8543
10.2689,21.8105
10.2181,21.7625
10.2013,21.6947
10.2239,21.6286
10.2689,21.5895
10.3616,21.5423
10.3828,21.5269
10.5272,21.4220
10.5272,21.4220
10.5272,21.4220
10.6720,21.2772
10.6720,21.2772
10.6720,21.2772
10.7247,21.2046
10.7923,21.1116
10.8852,20.9292
10.9485,20.7345
10.9805,20.5324
10.9805,20.3276
33.7795,20.3276
33.7795,20.5324
33.8115,20.7345
33.8748,20.9292
33.9677,21.1116
34.0880,21.2772
34.2328,21.4220
34.3877,21.5346
34.3984,21.5423
34.4898,21.5889
34.4911,21.5895
34.5419,21.6375
34.5587,21.7053
34.5361,21.7714
34.4911,21.8105
34.3984,21.8577
34.2328,21.9780
34.0880,22.1228
33.9677,22.2884
33.8748,22.4708
33.8115,22.6655
33.7795,22.8676
33.7795,23.0724
33.8115,23.2745
33.8748,23.4692
33.9677,23.6516
34.0880,23.8172
34.2328,23.9620
34.3877,24.0746
34.3984,24.0823
34.4898,24.1289
34.4911,24.1295
34.5419,24.1775
34.5587,24.2453
34.5361,24.3114
34.4911,24.3505
34.3984,24.3977
34.2328,24.5180
34.0880,24.6628
33.9677,24.8284
33.8748,25.0108
33.8115,25.2055
33.7795,25.4076
33.7795,25.6124
33.8115,25.8145
33.8748,26.0092
33.9677,26.1916
34.0880,26.3572
34.2328,26.5020
34.3877,26.6146
34.3984,26.6223
34.4898,26.6689
34.4911,26.6695
34.5419,26.7175
34.5587,26.7853
34.5361,26.8514
34.4911,26.8905
34.3984,26.9377
34.2328,27.0580
34.0880,27.2028
33.9677,27.3684
33.8748,27.5508
33.8115,27.7455
33.7887,27.8895
33.7795,27.9476
33.7795,28.1524
33.7797,28.1534
33.8115,28.3545
33.8748,28.5492
33.9677,28.7316
34.0880,28.8972
34.2328,29.0420
34.3877,29.1546
34.3984,29.1623
34.4898,29.2089
34.4911,29.2095
34.5419,29.2575
34.5587,29.3253
34.5361,29.3914
34.4911,29.4305
34.3984,29.4777
34.2328,29.5980
34.0880,29.7428
33.9677,29.9084
33.8748,30.0908
33.8115,30.2855
33.7795,30.4876
33.7795,30.6924
33.8115,30.8945
33.8748,31.0892
33.9271,31.1919
33.9617,31.2598
33.9677,31.2716
34.0880,31.4372
34.2328,31.5820
34.3877,31.6946
34.3984,31.7023
34.4898,31.7489
34.4911,31.7495
34.5419,31.7975
34.5587,31.8653
34.5361,31.9314
34.4911,31.9705
34.3984,32.0177
34.2328,32.1380
34.0880,32.2828
33.9677,32.4484
33.8748,32.6308
33.8115,32.8255
33.7795,33.0276
33.7795,33.2324
33.8115,33.4345
33.8748,33.6292
33.9677,33.8116
34.0880,33.9772
34.2328,34.1220
34.3549,34.2107
34.3984,34.2423
34.4898,34.2889
34.4911,34.2895
34.5419,34.3375
34.5587,34.4053
34.5361,34.4714
34.4911,34.5105
34.3984,34.5577
34.2328,34.6780
34.0880,34.8228
33.9677,34.9884
33.8748,35.1708
33.8115,35.3655
33.7795,35.5676
33.7795,35.7724
33.8115,35.9745
33.8748,36.1692
33.9677,36.3516
34.0880,36.5172
34.2328,36.6620
34.3877,36.7746
34.3984,36.7823
34.4830,36.8254
34.4911,36.8295
34.5419,36.8775
34.5587,36.9453
34.5361,37.0114
34.4911,37.0505
34.3984,37.0977
34.2328,37.2180
34.0880,37.3628
33.9677,37.5284
33.8748,37.7108
33.8115,37.9055
33.7795,38.1076
33.7795,38.3124
33.8115,38.5145
33.8748,38.7092
33.9677,38.8916
34.0880,39.0572
34.2328,39.2020
34.3877,39.3146
34.3984,39.3223
34.4898,39.3689
34.4911,39.3695
34.5419,39.4175
34.5587,39.4853
34.5361,39.5514
34.4911,39.5905
34.3984,39.6377
34.2328,39.7580
34.0880,39.9028
33.9677,40.0684
33.8748,40.2508
33.8115,40.4455
33.7795,40.6476
33.7795,40.8524
33.8115,41.0545
33.8748,41.2492
33.9677,41.4316
34.0880,41.5972
34.2328,41.7420
34.3654,41.8383
34.3984,41.8623
34.4488,41.8880
34.4911,41.9095
34.5419,41.9575
34.5587,42.0253
34.5361,42.0914
34.4911,42.1305
34.3984,42.1777
34.2328,42.2980
34.0880,42.4428
33.9677,42.6084
33.8748,42.7908
33.8115,42.9855
33.7795,43.1876
33.7795,43.3924
33.8115,43.5945
33.8748,43.7892
33.9677,43.9716
34.0880,44.1372
34.2328,44.2820
34.3877,44.3946
34.3984,44.4023
34.4898,44.4489
34.4911,44.4495
34.5419,44.4975
34.5587,44.5653
34.5361,44.6314
34.4911,44.6705
34.3984,44.7177
34.2328,44.8380
34.0880,44.9828
33.9677,45.1484
33.8748,45.3308
33.8115,45.5255
33.7795,45.7276
33.7795,45.9324
33.8115,46.1345
33.8748,46.3292
33.9677,46.5116
34.0880,46.6772
34.2328,46.8220
34.3877,46.9346
34.3984,46.9423
34.4898,46.9889
34.4911,46.9895
34.5419,47.0375
34.5587,47.1053
34.5361,47.1714
34.4911,47.2105
34.3984,47.2577
34.2328,47.3780
34.0880,47.5228
33.9677,47.6884
33.8748,47.8708
33.8115,48.0655
33.7795,48.2676
33.7795,48.4724
33.8115,48.6745
33.8748,48.8692
33.9677,49.0516
34.0880,49.2172
34.2328,49.3620
34.3877,49.4746
34.3984,49.4823
34.4898,49.5289
34.4911,49.5295
34.5419,49.5775
34.5587,49.6453
34.5361,49.7114
34.4911,49.7505
34.3984,49.7977
34.2328,49.9180
34.0880,50.0628
33.9677,50.2284
33.8748,50.4108
33.8115,50.6055
33.7795,50.8076
33.7795,51.0124
33.8115,51.2145
33.8748,51.4092
33.9677,51.5916
34.0880,51.7572
34.2328,51.9020
34.3877,52.0146
34.3984,52.0223
34.4898,52.0689
34.4911,52.0695
34.5419,52.1175
34.5587,52.1853
34.5361,52.2514
34.4911,52.2905
34.3984,52.3377
34.2328,52.4580
34.0880,52.6028
33.9677,52.7684
33.8748,52.9508
33.8115,53.1455
33.7795,53.3476
33.7795,53.5524
33.8115,53.7545
33.8748,53.9492
33.9677,54.1316
34.0880,54.2972
34.2328,54.4420
34.2328,54.4420
34.2647,54.4652
34.3074,54.5205
34.3134,54.5901
34.2808,54.6519
34.2199,54.6863
34.1918,54.6895
34.0351,54.6895
34.0351,54.6895
34.0100,54.6924
34.0100,54.6924
33.9072,54.7378
33.8278,54.8172
33.7824,54.9200
33.7824,54.9200
33.7795,54.9451
33.7795,57.0349
33.7795,57.0349
33.7824,57.0600
33.7824,57.0600
33.8278,57.1628
33.8278,57.1628
33.9072,57.2422
34.0100,57.2876
34.0351,57.2905
36.1249,57.2905
36.1249,57.2905
36.1249,57.2905
36.1500,57.2876
36.1500,57.2876
36.1500,57.2876
36.2528,57.2422
36.3322,57.1628
36.3776,57.0600
36.3805,57.0349
36.3805,56.6645
36.4002,56.5975
36.4530,56.5517
36.5045,56.5405
40.0725,56.5405
40.0725,56.5405
40.2125,56.5030
40.3380,56.4305
40.4405,56.3280
40.5130,56.2025
40.5505,56.0625
40.5505,42.3084
40.5702,42.2413
40.5934,42.2146
46.3117,37.2683
46.3308,37.2547
46.3380,37.2505
46.3720,37.2165
46.3786,37.2104
46.4150,37.1789
46.4197,37.1720
46.4346,37.1539
46.4405,37.1480
46.4646,37.1064
46.4693,37.0988
46.4963,37.0590
46.4990,37.0511
46.5088,37.0297
46.5130,37.0225
46.5254,36.9760
46.5281,36.9675
46.5438,36.9220
46.5444,36.9137
46.5483,36.8905
46.5505,36.8825
46.5505,36.8344
46.5508,36.8254
46.5543,36.7775
46.5527,36.7692
46.5505,36.7459
46.5505,36.7375
46.5505,36.7375
46.5380,36.6911
46.5360,36.6824
46.5270,36.6351
46.5251,36.6313
46.5233,36.6276
46.5151,36.6056
46.5130,36.5975
46.5130,36.5975
46.4889,36.5558
46.4848,36.5480
46.4638,36.5047
46.4638,36.5047
46.4638,36.5047
46.4583,36.4983
46.4447,36.4792
46.4405,36.4720
46.4405,36.4720
46.4065,36.4380
46.4004,36.4314
46.3689,36.3950
46.3620,36.3903
46.3439,36.3754
46.3380,36.3695
46.3380,36.3695
46.2964,36.3455
46.2888,36.3407
46.2490,36.3137
46.2490,36.3137
46.2411,36.3109
46.2197,36.3012
46.2125,36.2970
46.1975,36.2930
46.1660,36.2846
46.1575,36.2819
46.1120,36.2662
46.1037,36.2656
46.0806,36.2617
46.0725,36.2595
46.0244,36.2595
46.0154,36.2592
45.9675,36.2557
45.9614,36.2569
45.9592,36.2573
45.9359,36.2595
44.7951,36.2595
44.7280,36.2398
44.6846,36.1918
44.6523,36.1284
44.5320,35.9628
44.3872,35.8180
44.2216,35.6977
44.2150,35.6943
44.1289,35.6505
44.0781,35.6025
44.0613,35.5347
44.0839,35.4686
44.1289,35.4295
44.2216,35.3823
44.2448,35.3655
44.3872,35.2620
44.3872,35.2620
44.3872,35.2620
44.5320,35.1172
44.5320,35.1172
44.5320,35.1172
44.5847,35.0446
44.6523,34.9516
44.7452,34.7692
44.8085,34.5745
44.8405,34.3724
44.8405,34.1676
44.8085,33.9655
44.7452,33.7708
44.7452,33.7708
44.7452,33.7708
44.6569,33.5974
44.6523,33.5884
44.6242,33.5498
44.5320,33.4228
44.3872,33.2780
44.2216,33.1577
44.2150,33.1543
44.1289,33.1105
44.0781,33.0625
44.0613,32.9947
44.0839,32.9286
44.1289,32.8895
44.2216,32.8423
44.2448,32.8255
44.3872,32.7220
44.3872,32.7220
44.3872,32.7220
44.5320,32.5772
44.5320,32.5772
44.5320,32.5772
44.6523,32.4116
44.6523,32.4116
44.6523,32.4116
44.7355,32.2482
44.7835,32.1974
44.8460,32.1805
45.5993,32.1805
45.5993,32.1805
45.6897,32.1563
45.7139,32.1498
45.8166,32.0905
47.3605,30.5466
47.4096,30.4615
47.4198,30.4439
47.4198,30.4439
47.4198,30.4439
47.4198,30.4439
47.4432,30.3565
47.4505,30.3293
47.4505,28.3707
47.4198,28.2561
47.3863,28.1980
47.3863,28.1980
47.3605,28.1534
47.3605,28.1534
39.2766,20.0695
39.2766,20.0695
39.2252,20.0399
39.1739,20.0102
39.1618,20.0070
39.1497,20.0037
39.1497,20.0037
39.1115,19.9935
39.0593,19.9795
39.0593,19.9795
36.3860,19.9795
36.3190,19.9598
36.2755,19.9118
36.1923,19.7484
36.0720,19.5828
35.9272,19.4380
35.7616,19.3177
35.7616,19.3177
35.7616,19.3177
35.7047,19.2887
35.5792,19.2248
35.3845,19.1615
35.2100,19.1339
35.1824,19.1295
34.9776,19.1295
34.9533,19.1334
34.7755,19.1615
34.5808,19.2248
34.3984,19.3177
34.2328,19.4380
34.0880,19.5828
33.9677,19.7484
33.8748,19.9308
33.8115,20.1255
33.7795,20.3276
10.9805,20.3276
10.9485,20.1255
10.8852,19.9308
10.8852,19.9308
10.8852,19.9308
10.8515,19.8646
10.7923,19.7484
10.7846,19.7377
10.6720,19.5828
10.5272,19.4380
10.3616,19.3177
10.3616,19.3177
10.3616,19.3177
10.3047,19.2887
10.1792,19.2248
9.9845,19.1615
9.8100,19.1339
9.7824,19.1295
9.5776,19.1295
9.5533,19.1334
9.3755,19.1615
9.1808,19.2248
8.9984,19.3177
8.8328,19.4380
8.6880,19.5828
8.5677,19.7484
8.4748,19.9308
8.4115,20.1255
8.3795,20.3276
8.3795,20.5324
8.4115,20.7345
8.4748,20.9292
8.5677,21.1116
8.6880,21.2772
8.8328,21.4220
8.9877,21.5346
8.9984,21.5423
9.0898,21.5889
9.0911,21.5895
9.1419,21.6375
9.1587,21.7053
9.1361,21.7714
9.0911,21.8105
8.9984,21.8577
8.8328,21.9780
8.6880,22.1228
8.5677,22.2884
8.4748,22.4708
8.4115,22.6655
8.3795,22.8676
8.3795,23.0724
8.4115,23.2745
8.4748,23.4692
8.5677,23.6516
8.6880,23.8172
8.8328,23.9620
8.9877,24.0746
8.9984,24.0823
9.0898,24.1289
9.0911,24.1295
9.1419,24.1775
9.1587,24.2453
9.1361,24.3114
9.0911,24.3505
8.9984,24.3977
8.8328,24.5180
8.6880,24.6628
8.5677,24.8284
8.4748,25.0108
8.4115,25.2055
8.3795,25.4076
8.3795,25.6124
8.4115,25.8145
8.4748,26.0092
8.5677,26.1916
8.6880,26.3572
8.8328,26.5020
8.9877,26.6146
8.9984,26.6223
9.0898,26.6689
9.0911,26.6695
9.1419,26.7175
9.1587,26.7853
9.1361,26.8514
9.0911,26.8905
8.9984,26.9377
8.8328,27.0580
8.6880,27.2028
8.5677,27.3684
8.4748,27.5508
8.4115,27.7455
8.3887,27.8895
8.3795,27.9476
8.3795,28.1524
8.3797,28.1534
8.4115,28.3545
8.4748,28.5492
8.5677,28.7316
8.6880,28.8972
8.8328,29.0420
8.9877,29.1546
8.9984,29.1623
9.0898,29.2089
9.0911,29.2095
9.1419,29.2575
9.1587,29.3253
9.1361,29.3914
9.0911,29.4305
8.9984,29.4777
8.8328,29.5980
8.6880,29.7428
8.5677,29.9084
8.4748,30.0908
8.4115,30.2855
8.3795,30.4876
8.3795,30.6924
8.4115,30.8945
8.4748,31.0892
8.5271,31.1919
8.5617,31.2598
8.5677,31.2716
8.6880,31.4372
8.8328,31.5820
8.9877,31.6946
8.9984,31.7023
9.0898,31.7489
9.0911,31.7495
9.1419,31.7975
9.1587,31.8653
9.1361,31.9314
9.0911,31.9705
8.9984,32.0177
8.8328,32.1380
8.6880,32.2828
8.5677,32.4484
8.4748,32.6308
8.4115,32.8255
8.3795,33.0276
8.3795,33.2324
8.4115,33.4345
8.4748,33.6292
8.5677,33.8116
8.6880,33.9772
8.8328,34.1220
8.9549,34.2107
8.9984,34.2423
9.0898,34.2889
9.0911,34.2895
9.1419,34.3375
9.1587,34.4053
9.1361,34.4714
9.0911,34.5105
8.9984,34.5577
8.8328,34.6780
8.6880,34.8228
8.5677,34.9884
8.4748,35.1708
8.4115,35.3655
8.3795,35.5676
8.3795,35.7724
8.4115,35.9745
8.4748,36.1692
8.5677,36.3516
8.6880,36.5172
8.8328,36.6620
8.9877,36.7746
8.9984,36.7823
9.0830,36.8254
9.0911,36.8295
9.1419,36.8775
9.1587,36.9453
9.1361,37.0114
9.0911,37.0505
8.9984,37.0977
8.8328,37.2180
8.6880,37.3628
8.5677,37.5284
8.4748,37.7108
8.4115,37.9055
8.3795,38.1076
8.3795,38.3124
8.4115,38.5145
8.4748,38.7092
8.5677,38.8916
8.6880,39.0572
8.8328,39.2020
8.9877,39.3146
8.9984,39.3223
9.0898,39.3689
9.0911,39.3695
9.1419,39.4175
9.1587,39.4853
9.1361,39.5514
9.0911,39.5905
8.9984,39.6377
8.8328,39.7580
8.6880,39.9028
8.5677,40.0684
8.4748,40.2508
8.4115,40.4455
8.3795,40.6476
8.3795,40.8524
8.4115,41.0545
8.4748,41.2492
8.5677,41.4316
8.6880,41.5972
8.8328,41.7420
8.9654,41.8383
8.9984,41.8623
9.0488,41.8880
9.0911,41.9095
9.1419,41.9575
9.1587,42.0253
9.1361,42.0914
9.0911,42.1305
8.9984,42.1777
8.8328,42.2980
8.6880,42.4428
8.5677,42.6084
8.4845,42.7718
8.4365,42.8226
8.3740,42.8395
7.5208,42.8395
7.4538,42.8198
7.4331,42.8032
7.4147,42.7847
7.4147,42.7847
7.3081,42.7135
7.3081,42.7135
7.1897,42.6645
7.1897,42.6645
7.0641,42.6395
7.0641,42.6395
6.9359,42.6395
6.9359,42.6395
6.8103,42.6645
6.8103,42.6645
6.6919,42.7135
6.6919,42.7135
6.5853,42.7847
6.5853,42.7847
6.4947,42.8753
6.4947,42.8753
6.4235,42.9819
6.4235,42.9819
6.3745,43.1003
6.3745,43.1003
6.3495,43.2259
6.3495,43.2259
6.3495,43.3541
6.3495,43.3541
6.3495,43.3541
0.5005,43.3541
0.5005,3.3787
1.6495,3.3787
1.6495,3.6213
1.6812,3.8618
1.7439,4.0961
1.8368,4.3202
1.8368,4.3202
1.9581,4.5303
1.9581,4.5303
1.9581,4.5303
2.1057,4.7227
2.1057,4.7227
2.2773,4.8943
2.2773,4.8943
2.4697,5.0419
2.6798,5.1632
2.9039,5.2561
3.1382,5.3188
3.3186,5.3426
3.3787,5.3505
3.3787,5.3505
3.6213,5.3505
3.6694,5.3442
3.8618,5.3188
4.0961,5.2561
4.3202,5.1632
4.5303,5.0419
4.7227,4.8943
4.8943,4.7227
5.0419,4.5303
5.1632,4.3202
5.2561,4.0961
5.3188,3.8618
5.3505,3.6213
5.3505,3.3787
5.3188,3.1382
5.2561,2.9039
5.1632,2.6798
5.0419,2.4697
4.8943,2.2773
4.8943,2.2773
4.7227,2.1057
4.7227,2.1057
4.5303,1.9581
4.5303,1.9581
4.5303,1.9581
4.3202,1.8368
4.3202,1.8368
4.0961,1.7439
3.8618,1.6812
3.6213,1.6495
3.6213,1.6495
3.3787,1.6495
3.3787,1.6495
3.1382,1.6812
2.9039,1.7439
2.6798,1.8368
2.6798,1.8368
2.4697,1.9581
2.2773,2.1057
2.2773,2.1057
2.1057,2.2773
2.1057,2.2773
1.9581,2.4697
1.8368,2.6798
1.8368,2.6798
1.7439,2.9039
1.6812,3.1382
1.6495,3.3787
0.5005,3.3787
0.5005,0.8098
0.5020,0.7904
0.5043,0.7761
0.5121,0.7268
0.5241,0.6900
0.5488,0.6415
0.5716,0.6101
0.6101,0.5716
0.6415,0.5488
0.6900,0.5241
0.7268,0.5121
0.7904,0.5020
0.8098,0.5005
0.8659,0.5005
6.8760,0.5005
Z" />
<path style="fill:#D864FF; fill-opacity:0.4000; stroke:none;fill-rule:evenodd;"
d="M 8.6800,56.9900
8.6800,54.9900
10.6800,54.9900
10.6800,56.9900
Z" />
</g>
<g style="fill:#D864FF; fill-opacity:0.4000; stroke:none;">
<circle cx="9.6800" cy="53.4500" r="1.0000" />
<circle cx="9.6800" cy="50.9100" r="1.0000" />
<circle cx="9.6800" cy="48.3700" r="1.0000" />
<circle cx="9.6800" cy="45.8300" r="1.0000" />
<circle cx="9.6800" cy="43.2900" r="1.0000" />
<circle cx="9.6800" cy="40.7500" r="1.0000" />
<circle cx="9.6800" cy="38.2100" r="1.0000" />
<circle cx="9.6800" cy="35.6700" r="1.0000" />
<circle cx="9.6800" cy="33.1300" r="1.0000" />
<circle cx="9.6800" cy="30.5900" r="1.0000" />
<circle cx="9.6800" cy="28.0500" r="1.0000" />
<circle cx="9.6800" cy="25.5100" r="1.0000" />
<circle cx="9.6800" cy="22.9700" r="1.0000" />
<circle cx="9.6800" cy="20.4300" r="1.0000" />
<path style="fill:#D864FF; fill-opacity:0.4000; stroke:none;fill-rule:evenodd;"
d="M 34.0800,56.9900
34.0800,54.9900
36.0800,54.9900
36.0800,56.9900
Z" />
<circle cx="35.0800" cy="53.4500" r="1.0000" />
<circle cx="35.0800" cy="50.9100" r="1.0000" />
<circle cx="35.0800" cy="48.3700" r="1.0000" />
<circle cx="35.0800" cy="45.8300" r="1.0000" />
<circle cx="35.0800" cy="43.2900" r="1.0000" />
<circle cx="35.0800" cy="40.7500" r="1.0000" />
<circle cx="35.0800" cy="38.2100" r="1.0000" />
<circle cx="35.0800" cy="35.6700" r="1.0000" />
<circle cx="35.0800" cy="33.1300" r="1.0000" />
<circle cx="35.0800" cy="30.5900" r="1.0000" />
<circle cx="35.0800" cy="28.0500" r="1.0000" />
<circle cx="35.0800" cy="25.5100" r="1.0000" />
<circle cx="35.0800" cy="22.9700" r="1.0000" />
<circle cx="35.0800" cy="20.4300" r="1.0000" />
<path style="fill:#D864FF; fill-opacity:0.4000; stroke:none;fill-rule:evenodd;"
d="M 40.0000,37.8100
40.0000,35.8100
42.0000,35.8100
42.0000,37.8100
Z" />
<circle cx="43.5400" cy="36.8100" r="1.0000" />
<circle cx="41.0000" cy="34.2700" r="1.0000" />
<circle cx="43.5400" cy="34.2700" r="1.0000" />
<circle cx="41.0000" cy="31.7300" r="1.0000" />
<circle cx="43.5400" cy="31.7300" r="1.0000" />
<circle cx="41.0000" cy="29.1900" r="1.0000" />
<circle cx="43.5400" cy="29.1900" r="1.0000" />
<circle cx="3.5000" cy="62.5000" r="1.6000" />
<circle cx="3.5000" cy="3.5000" r="1.6000" />
<circle cx="64.5000" cy="3.5000" r="1.6000" />
<circle cx="64.5000" cy="62.5000" r="1.6000" />
<path style="fill:none;
stroke:#F2EDA1; stroke-width:0.2000; stroke-opacity:1;
stroke-linecap:round; stroke-linejoin:round;fill:none"
d="M 8.0000,7.2600
37.0000,7.2600
37.0000,59.0000
8.0000,59.0000
Z" />
<path style="fill:none;
stroke:#F2EDA1; stroke-width:0.2000; stroke-opacity:1;
stroke-linecap:round; stroke-linejoin:round;fill:none"
d="M 39.0000,25.5000
67.0000,25.5000
67.0000,40.5000
39.0000,40.5000
Z" />
</g>
<g style="fill:none;
stroke:#F2EDA1; stroke-width:0.1500; stroke-opacity:1;
stroke-linecap:round; stroke-linejoin:round;">
<text x="22.5000" y="2.9000"
textLength="18.7281" font-size="1.0667" lengthAdjust="spacingAndGlyphs"
text-anchor="middle" opacity="0" stroke-opacity="0">WI-FI ANTENNA - NO COPPER</text>
<g class="stroked-text"><desc>WI-FI ANTENNA - NO COPPER</desc>
<path d="M13.3952 2.0623
L13.5857 2.8623
" />
<path d="M13.5857 2.8623
L13.7381 2.2909
" />
<path d="M13.7381 2.2909
L13.8905 2.8623
" />
<path d="M13.8905 2.8623
L14.0810 2.0623
" />
<path d="M14.3857 2.8623
L14.3857 2.0623
" />
<path d="M14.7667 2.5575
L15.3762 2.5575
" />
<path d="M16.0238 2.4432
L15.7571 2.4432
" />
<path d="M15.7571 2.8623
L15.7571 2.0623
" />
<path d="M15.7571 2.0623
L16.1381 2.0623
" />
<path d="M16.4429 2.8623
L16.4429 2.0623
" />
<path d="M17.3952 2.6337
L17.7762 2.6337
" />
<path d="M17.3190 2.8623
L17.5857 2.0623
" />
<path d="M17.5857 2.0623
L17.8524 2.8623
" />
<path d="M18.1190 2.8623
L18.1190 2.0623
" />
<path d="M18.1190 2.0623
L18.5762 2.8623
" />
<path d="M18.5762 2.8623
L18.5762 2.0623
" />
<path d="M18.8429 2.0623
L19.3000 2.0623
" />
<path d="M19.0714 2.8623
L19.0714 2.0623
" />
<path d="M19.5667 2.4432
L19.8333 2.4432
" />
<path d="M19.9476 2.8623
L19.5667 2.8623
" />
<path d="M19.5667 2.8623
L19.5667 2.0623
" />
<path d="M19.5667 2.0623
L19.9476 2.0623
" />
<path d="M20.2905 2.8623
L20.2905 2.0623
" />
<path d="M20.2905 2.0623
L20.7476 2.8623
" />
<path d="M20.7476 2.8623
L20.7476 2.0623
" />
<path d="M21.1286 2.8623
L21.1286 2.0623
" />
<path d="M21.1286 2.0623
L21.5857 2.8623
" />
<path d="M21.5857 2.8623
L21.5857 2.0623
" />
<path d="M21.9286 2.6337
L22.3095 2.6337
" />
<path d="M21.8524 2.8623
L22.1190 2.0623
" />
<path d="M22.1190 2.0623
L22.3857 2.8623
" />
<path d="M23.2619 2.5575
L23.8714 2.5575
" />
<path d="M24.8619 2.8623
L24.8619 2.0623
" />
<path d="M24.8619 2.0623
L25.3190 2.8623
" />
<path d="M25.3190 2.8623
L25.3190 2.0623
" />
<path d="M25.8524 2.0623
L26.0048 2.0623
" />
<path d="M26.0048 2.0623
L26.0810 2.1004
" />
<path d="M26.0810 2.1004
L26.1571 2.1766
" />
<path d="M26.1571 2.1766
L26.1952 2.3290
" />
<path d="M26.1952 2.3290
L26.1952 2.5956
" />
<path d="M26.1952 2.5956
L26.1571 2.7480
" />
<path d="M26.1571 2.7480
L26.0810 2.8242
" />
<path d="M26.0810 2.8242
L26.0048 2.8623
" />
<path d="M26.0048 2.8623
L25.8524 2.8623
" />
<path d="M25.8524 2.8623
L25.7762 2.8242
" />
<path d="M25.7762 2.8242
L25.7000 2.7480
" />
<path d="M25.7000 2.7480
L25.6619 2.5956
" />
<path d="M25.6619 2.5956
L25.6619 2.3290
" />
<path d="M25.6619 2.3290
L25.7000 2.1766
" />
<path d="M25.7000 2.1766
L25.7762 2.1004
" />
<path d="M25.7762 2.1004
L25.8524 2.0623
" />
<path d="M27.6048 2.7861
L27.5667 2.8242
" />
<path d="M27.5667 2.8242
L27.4524 2.8623
" />
<path d="M27.4524 2.8623
L27.3762 2.8623
" />
<path d="M27.3762 2.8623
L27.2619 2.8242
" />
<path d="M27.2619 2.8242
L27.1857 2.7480
" />
<path d="M27.1857 2.7480
L27.1476 2.6718
" />
<path d="M27.1476 2.6718
L27.1095 2.5194
" />
<path d="M27.1095 2.5194
L27.1095 2.4052
" />
<path d="M27.1095 2.4052
L27.1476 2.2528
" />
<path d="M27.1476 2.2528
L27.1857 2.1766
" />
<path d="M27.1857 2.1766
L27.2619 2.1004
" />
<path d="M27.2619 2.1004
L27.3762 2.0623
" />
<path d="M27.3762 2.0623
L27.4524 2.0623
" />
<path d="M27.4524 2.0623
L27.5667 2.1004
" />
<path d="M27.5667 2.1004
L27.6048 2.1385
" />
<path d="M28.1000 2.0623
L28.2524 2.0623
" />
<path d="M28.2524 2.0623
L28.3286 2.1004
" />
<path d="M28.3286 2.1004
L28.4048 2.1766
" />
<path d="M28.4048 2.1766
L28.4429 2.3290
" />
<path d="M28.4429 2.3290
L28.4429 2.5956
" />
<path d="M28.4429 2.5956
L28.4048 2.7480
" />
<path d="M28.4048 2.7480
L28.3286 2.8242
" />
<path d="M28.3286 2.8242
L28.2524 2.8623
" />
<path d="M28.2524 2.8623
L28.1000 2.8623
" />
<path d="M28.1000 2.8623
L28.0238 2.8242
" />
<path d="M28.0238 2.8242
L27.9476 2.7480
" />
<path d="M27.9476 2.7480
L27.9095 2.5956
" />
<path d="M27.9095 2.5956
L27.9095 2.3290
" />
<path d="M27.9095 2.3290
L27.9476 2.1766
" />
<path d="M27.9476 2.1766
L28.0238 2.1004
" />
<path d="M28.0238 2.1004
L28.1000 2.0623
" />
<path d="M28.7857 2.8623
L28.7857 2.0623
" />
<path d="M28.7857 2.0623
L29.0905 2.0623
" />
<path d="M29.0905 2.0623
L29.1667 2.1004
" />
<path d="M29.1667 2.1004
L29.2048 2.1385
" />
<path d="M29.2048 2.1385
L29.2429 2.2147
" />
<path d="M29.2429 2.2147
L29.2429 2.3290
" />
<path d="M29.2429 2.3290
L29.2048 2.4052
" />
<path d="M29.2048 2.4052
L29.1667 2.4432
" />
<path d="M29.1667 2.4432
L29.0905 2.4813
" />
<path d="M29.0905 2.4813
L28.7857 2.4813
" />
<path d="M29.5857 2.8623
L29.5857 2.0623
" />
<path d="M29.5857 2.0623
L29.8905 2.0623
" />
<path d="M29.8905 2.0623
L29.9667 2.1004
" />
<path d="M29.9667 2.1004
L30.0048 2.1385
" />
<path d="M30.0048 2.1385
L30.0429 2.2147
" />
<path d="M30.0429 2.2147
L30.0429 2.3290
" />
<path d="M30.0429 2.3290
L30.0048 2.4052
" />
<path d="M30.0048 2.4052
L29.9667 2.4432
" />
<path d="M29.9667 2.4432
L29.8905 2.4813
" />
<path d="M29.8905 2.4813
L29.5857 2.4813
" />
<path d="M30.3857 2.4432
L30.6524 2.4432
" />
<path d="M30.7667 2.8623
L30.3857 2.8623
" />
<path d="M30.3857 2.8623
L30.3857 2.0623
" />
<path d="M30.3857 2.0623
L30.7667 2.0623
" />
<path d="M31.5667 2.8623
L31.3000 2.4813
" />
<path d="M31.1095 2.8623
L31.1095 2.0623
" />
<path d="M31.1095 2.0623
L31.4143 2.0623
" />
<path d="M31.4143 2.0623
L31.4905 2.1004
" />
<path d="M31.4905 2.1004
L31.5286 2.1385
" />
<path d="M31.5286 2.1385
L31.5667 2.2147
" />
<path d="M31.5667 2.2147
L31.5667 2.3290
" />
<path d="M31.5667 2.3290
L31.5286 2.4052
" />
<path d="M31.5286 2.4052
L31.4905 2.4432
" />
<path d="M31.4905 2.4432
L31.4143 2.4813
" />
<path d="M31.4143 2.4813
L31.1095 2.4813
" />
</g><text x="46.0000" y="42.4000"
textLength="6.1186" font-size="1.0667" lengthAdjust="spacingAndGlyphs"
text-anchor="middle" opacity="0" stroke-opacity="0">3V3 ONLY</text>
<g class="stroked-text"><desc>3V3 ONLY</desc>
<path d="M43.2000 41.5623
L43.6952 41.5623
" />
<path d="M43.6952 41.5623
L43.4286 41.8671
" />
<path d="M43.4286 41.8671
L43.5429 41.8671
" />
<path d="M43.5429 41.8671
L43.6190 41.9052
" />
<path d="M43.6190 41.9052
L43.6571 41.9432
" />
<path d="M43.6571 41.9432
L43.6952 42.0194
" />
<path d="M43.6952 42.0194
L43.6952 42.2099
" />
<path d="M43.6952 42.2099
L43.6571 42.2861
" />
<path d="M43.6571 42.2861
L43.6190 42.3242
" />
<path d="M43.6190 42.3242
L43.5429 42.3623
" />
<path d="M43.5429 42.3623
L43.3143 42.3623
" />
<path d="M43.3143 42.3623
L43.2381 42.3242
" />
<path d="M43.2381 42.3242
L43.2000 42.2861
" />
<path d="M43.9238 41.5623
L44.1905 42.3623
" />
<path d="M44.1905 42.3623
L44.4571 41.5623
" />
<path d="M44.6476 41.5623
L45.1429 41.5623
" />
<path d="M45.1429 41.5623
L44.8762 41.8671
" />
<path d="M44.8762 41.8671
L44.9905 41.8671
" />
<path d="M44.9905 41.8671
L45.0667 41.9052
" />
<path d="M45.0667 41.9052
L45.1048 41.9432
" />
<path d="M45.1048 41.9432
L45.1429 42.0194
" />
<path d="M45.1429 42.0194
L45.1429 42.2099
" />
<path d="M45.1429 42.2099
L45.1048 42.2861
" />
<path d="M45.1048 42.2861
L45.0667 42.3242
" />
<path d="M45.0667 42.3242
L44.9905 42.3623
" />
<path d="M44.9905 42.3623
L44.7619 42.3623
" />
<path d="M44.7619 42.3623
L44.6857 42.3242
" />
<path d="M44.6857 42.3242
L44.6476 42.2861
" />
<path d="M46.2476 41.5623
L46.4000 41.5623
" />
<path d="M46.4000 41.5623
L46.4762 41.6004
" />
<path d="M46.4762 41.6004
L46.5524 41.6766
" />
<path d="M46.5524 41.6766
L46.5905 41.8290
" />
<path d="M46.5905 41.8290
L46.5905 42.0956
" />
<path d="M46.5905 42.0956
L46.5524 42.2480
" />
<path d="M46.5524 42.2480
L46.4762 42.3242
" />
<path d="M46.4762 42.3242
L46.4000 42.3623
" />
<path d="M46.4000 42.3623
L46.2476 42.3623
" />
<path d="M46.2476 42.3623
L46.1714 42.3242
" />
<path d="M46.1714 42.3242
L46.0952 42.2480
" />
<path d="M46.0952 42.2480
L46.0571 42.0956
" />
<path d="M46.0571 42.0956
L46.0571 41.8290
" />
<path d="M46.0571 41.8290
L46.0952 41.6766
" />
<path d="M46.0952 41.6766
L46.1714 41.6004
" />
<path d="M46.1714 41.6004
L46.2476 41.5623
" />
<path d="M46.9333 42.3623
L46.9333 41.5623
" />
<path d="M46.9333 41.5623
L47.3905 42.3623
" />
<path d="M47.3905 42.3623
L47.3905 41.5623
" />
<path d="M48.1524 42.3623
L47.7714 42.3623
" />
<path d="M47.7714 42.3623
L47.7714 41.5623
" />
<path d="M48.5714 41.9813
L48.5714 42.3623
" />
<path d="M48.3048 41.5623
L48.5714 41.9813
" />
<path d="M48.5714 41.9813
L48.8381 41.5623
" />
</g><text x="54.0000" y="24.2000"
textLength="14.0043" font-size="1.0667" lengthAdjust="spacingAndGlyphs"
text-anchor="middle" opacity="0" stroke-opacity="0">433 MHz ANTENNA -&gt;</text>
<g class="stroked-text"><desc>433 MHz ANTENNA -&gt;</desc>
<path d="M47.6762 23.6290
L47.6762 24.1623
" />
<path d="M47.4857 23.3242
L47.2952 23.8956
" />
<path d="M47.2952 23.8956
L47.7905 23.8956
" />
<path d="M48.0190 23.3623
L48.5143 23.3623
" />
<path d="M48.5143 23.3623
L48.2476 23.6671
" />
<path d="M48.2476 23.6671
L48.3619 23.6671
" />
<path d="M48.3619 23.6671
L48.4381 23.7052
" />
<path d="M48.4381 23.7052
L48.4762 23.7432
" />
<path d="M48.4762 23.7432
L48.5143 23.8194
" />
<path d="M48.5143 23.8194
L48.5143 24.0099
" />
<path d="M48.5143 24.0099
L48.4762 24.0861
" />
<path d="M48.4762 24.0861
L48.4381 24.1242
" />
<path d="M48.4381 24.1242
L48.3619 24.1623
" />
<path d="M48.3619 24.1623
L48.1333 24.1623
" />
<path d="M48.1333 24.1623
L48.0571 24.1242
" />
<path d="M48.0571 24.1242
L48.0190 24.0861
" />
<path d="M48.7810 23.3623
L49.2762 23.3623
" />
<path d="M49.2762 23.3623
L49.0095 23.6671
" />
<path d="M49.0095 23.6671
L49.1238 23.6671
" />
<path d="M49.1238 23.6671
L49.2000 23.7052
" />
<path d="M49.2000 23.7052
L49.2381 23.7432
" />
<path d="M49.2381 23.7432
L49.2762 23.8194
" />
<path d="M49.2762 23.8194
L49.2762 24.0099
" />
<path d="M49.2762 24.0099
L49.2381 24.0861
" />
<path d="M49.2381 24.0861
L49.2000 24.1242
" />
<path d="M49.2000 24.1242
L49.1238 24.1623
" />
<path d="M49.1238 24.1623
L48.8952 24.1623
" />
<path d="M48.8952 24.1623
L48.8190 24.1242
" />
<path d="M48.8190 24.1242
L48.7810 24.0861
" />
<path d="M50.2286 24.1623
L50.2286 23.3623
" />
<path d="M50.2286 23.3623
L50.4952 23.9337
" />
<path d="M50.4952 23.9337
L50.7619 23.3623
" />
<path d="M50.7619 23.3623
L50.7619 24.1623
" />
<path d="M51.1429 24.1623
L51.1429 23.3623
" />
<path d="M51.1429 23.7432
L51.6000 23.7432
" />
<path d="M51.6000 24.1623
L51.6000 23.3623
" />
<path d="M51.9048 23.6290
L52.3238 23.6290
" />
<path d="M52.3238 23.6290
L51.9048 24.1623
" />
<path d="M51.9048 24.1623
L52.3238 24.1623
" />
<path d="M53.2000 23.9337
L53.5810 23.9337
" />
<path d="M53.1238 24.1623
L53.3905 23.3623
" />
<path d="M53.3905 23.3623
L53.6571 24.1623
" />
<path d="M53.9238 24.1623
L53.9238 23.3623
" />
<path d="M53.9238 23.3623
L54.3810 24.1623
" />
<path d="M54.3810 24.1623
L54.3810 23.3623
" />
<path d="M54.6476 23.3623
L55.1048 23.3623
" />
<path d="M54.8762 24.1623
L54.8762 23.3623
" />
<path d="M55.3714 23.7432
L55.6381 23.7432
" />
<path d="M55.7524 24.1623
L55.3714 24.1623
" />
<path d="M55.3714 24.1623
L55.3714 23.3623
" />
<path d="M55.3714 23.3623
L55.7524 23.3623
" />
<path d="M56.0952 24.1623
L56.0952 23.3623
" />
<path d="M56.0952 23.3623
L56.5524 24.1623
" />
<path d="M56.5524 24.1623
L56.5524 23.3623
" />
<path d="M56.9333 24.1623
L56.9333 23.3623
" />
<path d="M56.9333 23.3623
L57.3905 24.1623
" />
<path d="M57.3905 24.1623
L57.3905 23.3623
" />
<path d="M57.7333 23.9337
L58.1143 23.9337
" />
<path d="M57.6571 24.1623
L57.9238 23.3623
" />
<path d="M57.9238 23.3623
L58.1905 24.1623
" />
<path d="M59.0667 23.8575
L59.6762 23.8575
" />
<path d="M60.0571 23.6290
L60.6667 23.8575
" />
<path d="M60.6667 23.8575
L60.0571 24.0861
" />
</g><text x="22.5000" y="60.9500"
textLength="9.8700" font-size="1.2000" lengthAdjust="spacingAndGlyphs"
text-anchor="middle" opacity="0" stroke-opacity="0">USB / POWER</text>
<g class="stroked-text"><desc>USB / POWER</desc>
<path d="M17.9143 60.0086
L17.9143 60.7371
" />
<path d="M17.9143 60.7371
L17.9571 60.8228
" />
<path d="M17.9571 60.8228
L18.0000 60.8657
" />
<path d="M18.0000 60.8657
L18.0857 60.9086
" />
<path d="M18.0857 60.9086
L18.2571 60.9086
" />
<path d="M18.2571 60.9086
L18.3429 60.8657
" />
<path d="M18.3429 60.8657
L18.3857 60.8228
" />
<path d="M18.3857 60.8228
L18.4286 60.7371
" />
<path d="M18.4286 60.7371
L18.4286 60.0086
" />
<path d="M18.8143 60.8657
L18.9429 60.9086
" />
<path d="M18.9429 60.9086
L19.1571 60.9086
" />
<path d="M19.1571 60.9086
L19.2429 60.8657
" />
<path d="M19.2429 60.8657
L19.2857 60.8228
" />
<path d="M19.2857 60.8228
L19.3286 60.7371
" />
<path d="M19.3286 60.7371
L19.3286 60.6514
" />
<path d="M19.3286 60.6514
L19.2857 60.5657
" />
<path d="M19.2857 60.5657
L19.2429 60.5228
" />
<path d="M19.2429 60.5228
L19.1571 60.4800
" />
<path d="M19.1571 60.4800
L18.9857 60.4371
" />
<path d="M18.9857 60.4371
L18.9000 60.3943
" />
<path d="M18.9000 60.3943
L18.8571 60.3514
" />
<path d="M18.8571 60.3514
L18.8143 60.2657
" />
<path d="M18.8143 60.2657
L18.8143 60.1800
" />
<path d="M18.8143 60.1800
L18.8571 60.0943
" />
<path d="M18.8571 60.0943
L18.9000 60.0514
" />
<path d="M18.9000 60.0514
L18.9857 60.0086
" />
<path d="M18.9857 60.0086
L19.2000 60.0086
" />
<path d="M19.2000 60.0086
L19.3286 60.0514
" />
<path d="M20.0143 60.4371
L20.1429 60.4800
" />
<path d="M20.1429 60.4800
L20.1857 60.5228
" />
<path d="M20.1857 60.5228
L20.2286 60.6086
" />
<path d="M20.2286 60.6086
L20.2286 60.7371
" />
<path d="M20.2286 60.7371
L20.1857 60.8228
" />
<path d="M20.1857 60.8228
L20.1429 60.8657
" />
<path d="M20.1429 60.8657
L20.0571 60.9086
" />
<path d="M20.0571 60.9086
L19.7143 60.9086
" />
<path d="M19.7143 60.9086
L19.7143 60.0086
" />
<path d="M19.7143 60.0086
L20.0143 60.0086
" />
<path d="M20.0143 60.0086
L20.1000 60.0514
" />
<path d="M20.1000 60.0514
L20.1429 60.0943
" />
<path d="M20.1429 60.0943
L20.1857 60.1800
" />
<path d="M20.1857 60.1800
L20.1857 60.2657
" />
<path d="M20.1857 60.2657
L20.1429 60.3514
" />
<path d="M20.1429 60.3514
L20.1000 60.3943
" />
<path d="M20.1000 60.3943
L20.0143 60.4371
" />
<path d="M20.0143 60.4371
L19.7143 60.4371
" />
<path d="M21.9429 59.9657
L21.1714 61.1228
" />
<path d="M22.9286 60.9086
L22.9286 60.0086
" />
<path d="M22.9286 60.0086
L23.2714 60.0086
" />
<path d="M23.2714 60.0086
L23.3571 60.0514
" />
<path d="M23.3571 60.0514
L23.4000 60.0943
" />
<path d="M23.4000 60.0943
L23.4429 60.1800
" />
<path d="M23.4429 60.1800
L23.4429 60.3086
" />
<path d="M23.4429 60.3086
L23.4000 60.3943
" />
<path d="M23.4000 60.3943
L23.3571 60.4371
" />
<path d="M23.3571 60.4371
L23.2714 60.4800
" />
<path d="M23.2714 60.4800
L22.9286 60.4800
" />
<path d="M24.0000 60.0086
L24.1714 60.0086
" />
<path d="M24.1714 60.0086
L24.2571 60.0514
" />
<path d="M24.2571 60.0514
L24.3429 60.1371
" />
<path d="M24.3429 60.1371
L24.3857 60.3086
" />
<path d="M24.3857 60.3086
L24.3857 60.6086
" />
<path d="M24.3857 60.6086
L24.3429 60.7800
" />
<path d="M24.3429 60.7800
L24.2571 60.8657
" />
<path d="M24.2571 60.8657
L24.1714 60.9086
" />
<path d="M24.1714 60.9086
L24.0000 60.9086
" />
<path d="M24.0000 60.9086
L23.9143 60.8657
" />
<path d="M23.9143 60.8657
L23.8286 60.7800
" />
<path d="M23.8286 60.7800
L23.7857 60.6086
" />
<path d="M23.7857 60.6086
L23.7857 60.3086
" />
<path d="M23.7857 60.3086
L23.8286 60.1371
" />
<path d="M23.8286 60.1371
L23.9143 60.0514
" />
<path d="M23.9143 60.0514
L24.0000 60.0086
" />
<path d="M24.6857 60.0086
L24.9000 60.9086
" />
<path d="M24.9000 60.9086
L25.0714 60.2657
" />
<path d="M25.0714 60.2657
L25.2429 60.9086
" />
<path d="M25.2429 60.9086
L25.4571 60.0086
" />
<path d="M25.8000 60.4371
L26.1000 60.4371
" />
<path d="M26.2286 60.9086
L25.8000 60.9086
" />
<path d="M25.8000 60.9086
L25.8000 60.0086
" />
<path d="M25.8000 60.0086
L26.2286 60.0086
" />
<path d="M27.1286 60.9086
L26.8286 60.4800
" />
<path d="M26.6143 60.9086
L26.6143 60.0086
" />
<path d="M26.6143 60.0086
L26.9571 60.0086
" />
<path d="M26.9571 60.0086
L27.0429 60.0514
" />
<path d="M27.0429 60.0514
L27.0857 60.0943
" />
<path d="M27.0857 60.0943
L27.1286 60.1800
" />
<path d="M27.1286 60.1800
L27.1286 60.3086
" />
<path d="M27.1286 60.3086
L27.0857 60.3943
" />
<path d="M27.0857 60.3943
L27.0429 60.4371
" />
<path d="M27.0429 60.4371
L26.9571 60.4800
" />
<path d="M26.9571 60.4800
L26.6143 60.4800
" />
</g><text x="22.5000" y="25.5000"
textLength="11.4405" font-size="1.3333" lengthAdjust="spacingAndGlyphs"
text-anchor="middle" opacity="0" stroke-opacity="0">ESP32 30-PIN</text>
<g class="stroked-text"><desc>ESP32 30-PIN</desc>
<path d="M17.1429 24.9310
L17.4762 24.9310
" />
<path d="M17.6190 25.4548
L17.1429 25.4548
" />
<path d="M17.1429 25.4548
L17.1429 24.4548
" />
<path d="M17.1429 24.4548
L17.6190 24.4548
" />
<path d="M18.0000 25.4072
L18.1429 25.4548
" />
<path d="M18.1429 25.4548
L18.3810 25.4548
" />
<path d="M18.3810 25.4548
L18.4762 25.4072
" />
<path d="M18.4762 25.4072
L18.5238 25.3596
" />
<path d="M18.5238 25.3596
L18.5714 25.2643
" />
<path d="M18.5714 25.2643
L18.5714 25.1691
" />
<path d="M18.5714 25.1691
L18.5238 25.0739
" />
<path d="M18.5238 25.0739
L18.4762 25.0262
" />
<path d="M18.4762 25.0262
L18.3810 24.9786
" />
<path d="M18.3810 24.9786
L18.1905 24.9310
" />
<path d="M18.1905 24.9310
L18.0952 24.8834
" />
<path d="M18.0952 24.8834
L18.0476 24.8358
" />
<path d="M18.0476 24.8358
L18.0000 24.7405
" />
<path d="M18.0000 24.7405
L18.0000 24.6453
" />
<path d="M18.0000 24.6453
L18.0476 24.5501
" />
<path d="M18.0476 24.5501
L18.0952 24.5024
" />
<path d="M18.0952 24.5024
L18.1905 24.4548
" />
<path d="M18.1905 24.4548
L18.4286 24.4548
" />
<path d="M18.4286 24.4548
L18.5714 24.5024
" />
<path d="M19.0000 25.4548
L19.0000 24.4548
" />
<path d="M19.0000 24.4548
L19.3810 24.4548
" />
<path d="M19.3810 24.4548
L19.4762 24.5024
" />
<path d="M19.4762 24.5024
L19.5238 24.5501
" />
<path d="M19.5238 24.5501
L19.5714 24.6453
" />
<path d="M19.5714 24.6453
L19.5714 24.7882
" />
<path d="M19.5714 24.7882
L19.5238 24.8834
" />
<path d="M19.5238 24.8834
L19.4762 24.9310
" />
<path d="M19.4762 24.9310
L19.3810 24.9786
" />
<path d="M19.3810 24.9786
L19.0000 24.9786
" />
<path d="M19.9048 24.4548
L20.5238 24.4548
" />
<path d="M20.5238 24.4548
L20.1905 24.8358
" />
<path d="M20.1905 24.8358
L20.3333 24.8358
" />
<path d="M20.3333 24.8358
L20.4286 24.8834
" />
<path d="M20.4286 24.8834
L20.4762 24.9310
" />
<path d="M20.4762 24.9310
L20.5238 25.0262
" />
<path d="M20.5238 25.0262
L20.5238 25.2643
" />
<path d="M20.5238 25.2643
L20.4762 25.3596
" />
<path d="M20.4762 25.3596
L20.4286 25.4072
" />
<path d="M20.4286 25.4072
L20.3333 25.4548
" />
<path d="M20.3333 25.4548
L20.0476 25.4548
" />
<path d="M20.0476 25.4548
L19.9524 25.4072
" />
<path d="M19.9524 25.4072
L19.9048 25.3596
" />
<path d="M20.9048 24.5501
L20.9524 24.5024
" />
<path d="M20.9524 24.5024
L21.0476 24.4548
" />
<path d="M21.0476 24.4548
L21.2857 24.4548
" />
<path d="M21.2857 24.4548
L21.3810 24.5024
" />
<path d="M21.3810 24.5024
L21.4286 24.5501
" />
<path d="M21.4286 24.5501
L21.4762 24.6453
" />
<path d="M21.4762 24.6453
L21.4762 24.7405
" />
<path d="M21.4762 24.7405
L21.4286 24.8834
" />
<path d="M21.4286 24.8834
L20.8571 25.4548
" />
<path d="M20.8571 25.4548
L21.4762 25.4548
" />
<path d="M22.5714 24.4548
L23.1905 24.4548
" />
<path d="M23.1905 24.4548
L22.8571 24.8358
" />
<path d="M22.8571 24.8358
L23.0000 24.8358
" />
<path d="M23.0000 24.8358
L23.0952 24.8834
" />
<path d="M23.0952 24.8834
L23.1429 24.9310
" />
<path d="M23.1429 24.9310
L23.1905 25.0262
" />
<path d="M23.1905 25.0262
L23.1905 25.2643
" />
<path d="M23.1905 25.2643
L23.1429 25.3596
" />
<path d="M23.1429 25.3596
L23.0952 25.4072
" />
<path d="M23.0952 25.4072
L23.0000 25.4548
" />
<path d="M23.0000 25.4548
L22.7143 25.4548
" />
<path d="M22.7143 25.4548
L22.6190 25.4072
" />
<path d="M22.6190 25.4072
L22.5714 25.3596
" />
<path d="M23.8095 24.4548
L23.9048 24.4548
" />
<path d="M23.9048 24.4548
L24.0000 24.5024
" />
<path d="M24.0000 24.5024
L24.0476 24.5501
" />
<path d="M24.0476 24.5501
L24.0952 24.6453
" />
<path d="M24.0952 24.6453
L24.1429 24.8358
" />
<path d="M24.1429 24.8358
L24.1429 25.0739
" />
<path d="M24.1429 25.0739
L24.0952 25.2643
" />
<path d="M24.0952 25.2643
L24.0476 25.3596
" />
<path d="M24.0476 25.3596
L24.0000 25.4072
" />
<path d="M24.0000 25.4072
L23.9048 25.4548
" />
<path d="M23.9048 25.4548
L23.8095 25.4548
" />
<path d="M23.8095 25.4548
L23.7143 25.4072
" />
<path d="M23.7143 25.4072
L23.6667 25.3596
" />
<path d="M23.6667 25.3596
L23.6190 25.2643
" />
<path d="M23.6190 25.2643
L23.5714 25.0739
" />
<path d="M23.5714 25.0739
L23.5714 24.8358
" />
<path d="M23.5714 24.8358
L23.6190 24.6453
" />
<path d="M23.6190 24.6453
L23.6667 24.5501
" />
<path d="M23.6667 24.5501
L23.7143 24.5024
" />
<path d="M23.7143 24.5024
L23.8095 24.4548
" />
<path d="M24.5714 25.0739
L25.3333 25.0739
" />
<path d="M25.8095 25.4548
L25.8095 24.4548
" />
<path d="M25.8095 24.4548
L26.1905 24.4548
" />
<path d="M26.1905 24.4548
L26.2857 24.5024
" />
<path d="M26.2857 24.5024
L26.3333 24.5501
" />
<path d="M26.3333 24.5501
L26.3810 24.6453
" />
<path d="M26.3810 24.6453
L26.3810 24.7882
" />
<path d="M26.3810 24.7882
L26.3333 24.8834
" />
<path d="M26.3333 24.8834
L26.2857 24.9310
" />
<path d="M26.2857 24.9310
L26.1905 24.9786
" />
<path d="M26.1905 24.9786
L25.8095 24.9786
" />
<path d="M26.8095 25.4548
L26.8095 24.4548
" />
<path d="M27.2857 25.4548
L27.2857 24.4548
" />
<path d="M27.2857 24.4548
L27.8571 25.4548
" />
<path d="M27.8571 25.4548
L27.8571 24.4548
" />
</g><text x="54.0000" y="33.5000"
textLength="6.0595" font-size="1.3333" lengthAdjust="spacingAndGlyphs"
text-anchor="middle" opacity="0" stroke-opacity="0">CC1101</text>
<g class="stroked-text"><desc>CC1101</desc>
<path d="M51.9048 33.3596
L51.8571 33.4072
" />
<path d="M51.8571 33.4072
L51.7143 33.4548
" />
<path d="M51.7143 33.4548
L51.6190 33.4548
" />
<path d="M51.6190 33.4548
L51.4762 33.4072
" />
<path d="M51.4762 33.4072
L51.3810 33.3120
" />
<path d="M51.3810 33.3120
L51.3333 33.2167
" />
<path d="M51.3333 33.2167
L51.2857 33.0262
" />
<path d="M51.2857 33.0262
L51.2857 32.8834
" />
<path d="M51.2857 32.8834
L51.3333 32.6929
" />
<path d="M51.3333 32.6929
L51.3810 32.5977
" />
<path d="M51.3810 32.5977
L51.4762 32.5024
" />
<path d="M51.4762 32.5024
L51.6190 32.4548
" />
<path d="M51.6190 32.4548
L51.7143 32.4548
" />
<path d="M51.7143 32.4548
L51.8571 32.5024
" />
<path d="M51.8571 32.5024
L51.9048 32.5501
" />
<path d="M52.9048 33.3596
L52.8571 33.4072
" />
<path d="M52.8571 33.4072
L52.7143 33.4548
" />
<path d="M52.7143 33.4548
L52.6190 33.4548
" />
<path d="M52.6190 33.4548
L52.4762 33.4072
" />
<path d="M52.4762 33.4072
L52.3810 33.3120
" />
<path d="M52.3810 33.3120
L52.3333 33.2167
" />
<path d="M52.3333 33.2167
L52.2857 33.0262
" />
<path d="M52.2857 33.0262
L52.2857 32.8834
" />
<path d="M52.2857 32.8834
L52.3333 32.6929
" />
<path d="M52.3333 32.6929
L52.3810 32.5977
" />
<path d="M52.3810 32.5977
L52.4762 32.5024
" />
<path d="M52.4762 32.5024
L52.6190 32.4548
" />
<path d="M52.6190 32.4548
L52.7143 32.4548
" />
<path d="M52.7143 32.4548
L52.8571 32.5024
" />
<path d="M52.8571 32.5024
L52.9048 32.5501
" />
<path d="M53.8571 33.4548
L53.2857 33.4548
" />
<path d="M53.5714 33.4548
L53.5714 32.4548
" />
<path d="M53.5714 32.4548
L53.4762 32.5977
" />
<path d="M53.4762 32.5977
L53.3810 32.6929
" />
<path d="M53.3810 32.6929
L53.2857 32.7405
" />
<path d="M54.8095 33.4548
L54.2381 33.4548
" />
<path d="M54.5238 33.4548
L54.5238 32.4548
" />
<path d="M54.5238 32.4548
L54.4286 32.5977
" />
<path d="M54.4286 32.5977
L54.3333 32.6929
" />
<path d="M54.3333 32.6929
L54.2381 32.7405
" />
<path d="M55.4286 32.4548
L55.5238 32.4548
" />
<path d="M55.5238 32.4548
L55.6190 32.5024
" />
<path d="M55.6190 32.5024
L55.6667 32.5501
" />
<path d="M55.6667 32.5501
L55.7143 32.6453
" />
<path d="M55.7143 32.6453
L55.7619 32.8358
" />
<path d="M55.7619 32.8358
L55.7619 33.0739
" />
<path d="M55.7619 33.0739
L55.7143 33.2643
" />
<path d="M55.7143 33.2643
L55.6667 33.3596
" />
<path d="M55.6667 33.3596
L55.6190 33.4072
" />
<path d="M55.6190 33.4072
L55.5238 33.4548
" />
<path d="M55.5238 33.4548
L55.4286 33.4548
" />
<path d="M55.4286 33.4548
L55.3333 33.4072
" />
<path d="M55.3333 33.4072
L55.2857 33.3596
" />
<path d="M55.2857 33.3596
L55.2381 33.2643
" />
<path d="M55.2381 33.2643
L55.1905 33.0739
" />
<path d="M55.1905 33.0739
L55.1905 32.8358
" />
<path d="M55.1905 32.8358
L55.2381 32.6453
" />
<path d="M55.2381 32.6453
L55.2857 32.5501
" />
<path d="M55.2857 32.5501
L55.3333 32.5024
" />
<path d="M55.3333 32.5024
L55.4286 32.4548
" />
<path d="M56.7143 33.4548
L56.1429 33.4548
" />
<path d="M56.4286 33.4548
L56.4286 32.4548
" />
<path d="M56.4286 32.4548
L56.3333 32.5977
" />
<path d="M56.3333 32.5977
L56.2381 32.6929
" />
<path d="M56.2381 32.6929
L56.1429 32.7405
" />
</g><text x="34.0000" y="63.5500"
textLength="27.4681" font-size="1.4667" lengthAdjust="spacingAndGlyphs"
text-anchor="middle" opacity="0" stroke-opacity="0">RAINPOINT RADIO NODE - REV A</text>
<g class="stroked-text"><desc>RAINPOINT RADIO NODE - REV A</desc>
<path d="M21.2714 63.5011
L20.9048 62.9773
" />
<path d="M20.6429 63.5011
L20.6429 62.4011
" />
<path d="M20.6429 62.4011
L21.0619 62.4011
" />
<path d="M21.0619 62.4011
L21.1667 62.4535
" />
<path d="M21.1667 62.4535
L21.2190 62.5058
" />
<path d="M21.2190 62.5058
L21.2714 62.6106
" />
<path d="M21.2714 62.6106
L21.2714 62.7677
" />
<path d="M21.2714 62.7677
L21.2190 62.8725
" />
<path d="M21.2190 62.8725
L21.1667 62.9249
" />
<path d="M21.1667 62.9249
L21.0619 62.9773
" />
<path d="M21.0619 62.9773
L20.6429 62.9773
" />
<path d="M21.6905 63.1868
L22.2143 63.1868
" />
<path d="M21.5857 63.5011
L21.9524 62.4011
" />
<path d="M21.9524 62.4011
L22.3190 63.5011
" />
<path d="M22.6857 63.5011
L22.6857 62.4011
" />
<path d="M23.2095 63.5011
L23.2095 62.4011
" />
<path d="M23.2095 62.4011
L23.8381 63.5011
" />
<path d="M23.8381 63.5011
L23.8381 62.4011
" />
<path d="M24.3619 63.5011
L24.3619 62.4011
" />
<path d="M24.3619 62.4011
L24.7810 62.4011
" />
<path d="M24.7810 62.4011
L24.8857 62.4535
" />
<path d="M24.8857 62.4535
L24.9381 62.5058
" />
<path d="M24.9381 62.5058
L24.9905 62.6106
" />
<path d="M24.9905 62.6106
L24.9905 62.7677
" />
<path d="M24.9905 62.7677
L24.9381 62.8725
" />
<path d="M24.9381 62.8725
L24.8857 62.9249
" />
<path d="M24.8857 62.9249
L24.7810 62.9773
" />
<path d="M24.7810 62.9773
L24.3619 62.9773
" />
<path d="M25.6714 62.4011
L25.8810 62.4011
" />
<path d="M25.8810 62.4011
L25.9857 62.4535
" />
<path d="M25.9857 62.4535
L26.0905 62.5582
" />
<path d="M26.0905 62.5582
L26.1429 62.7677
" />
<path d="M26.1429 62.7677
L26.1429 63.1344
" />
<path d="M26.1429 63.1344
L26.0905 63.3439
" />
<path d="M26.0905 63.3439
L25.9857 63.4487
" />
<path d="M25.9857 63.4487
L25.8810 63.5011
" />
<path d="M25.8810 63.5011
L25.6714 63.5011
" />
<path d="M25.6714 63.5011
L25.5667 63.4487
" />
<path d="M25.5667 63.4487
L25.4619 63.3439
" />
<path d="M25.4619 63.3439
L25.4095 63.1344
" />
<path d="M25.4095 63.1344
L25.4095 62.7677
" />
<path d="M25.4095 62.7677
L25.4619 62.5582
" />
<path d="M25.4619 62.5582
L25.5667 62.4535
" />
<path d="M25.5667 62.4535
L25.6714 62.4011
" />
<path d="M26.6143 63.5011
L26.6143 62.4011
" />
<path d="M27.1381 63.5011
L27.1381 62.4011
" />
<path d="M27.1381 62.4011
L27.7667 63.5011
" />
<path d="M27.7667 63.5011
L27.7667 62.4011
" />
<path d="M28.1333 62.4011
L28.7619 62.4011
" />
<path d="M28.4476 63.5011
L28.4476 62.4011
" />
<path d="M30.5952 63.5011
L30.2286 62.9773
" />
<path d="M29.9667 63.5011
L29.9667 62.4011
" />
<path d="M29.9667 62.4011
L30.3857 62.4011
" />
<path d="M30.3857 62.4011
L30.4905 62.4535
" />
<path d="M30.4905 62.4535
L30.5429 62.5058
" />
<path d="M30.5429 62.5058
L30.5952 62.6106
" />
<path d="M30.5952 62.6106
L30.5952 62.7677
" />
<path d="M30.5952 62.7677
L30.5429 62.8725
" />
<path d="M30.5429 62.8725
L30.4905 62.9249
" />
<path d="M30.4905 62.9249
L30.3857 62.9773
" />
<path d="M30.3857 62.9773
L29.9667 62.9773
" />
<path d="M31.0143 63.1868
L31.5381 63.1868
" />
<path d="M30.9095 63.5011
L31.2762 62.4011
" />
<path d="M31.2762 62.4011
L31.6429 63.5011
" />
<path d="M32.0095 63.5011
L32.0095 62.4011
" />
<path d="M32.0095 62.4011
L32.2714 62.4011
" />
<path d="M32.2714 62.4011
L32.4286 62.4535
" />
<path d="M32.4286 62.4535
L32.5333 62.5582
" />
<path d="M32.5333 62.5582
L32.5857 62.6630
" />
<path d="M32.5857 62.6630
L32.6381 62.8725
" />
<path d="M32.6381 62.8725
L32.6381 63.0297
" />
<path d="M32.6381 63.0297
L32.5857 63.2392
" />
<path d="M32.5857 63.2392
L32.5333 63.3439
" />
<path d="M32.5333 63.3439
L32.4286 63.4487
" />
<path d="M32.4286 63.4487
L32.2714 63.5011
" />
<path d="M32.2714 63.5011
L32.0095 63.5011
" />
<path d="M33.1095 63.5011
L33.1095 62.4011
" />
<path d="M33.8429 62.4011
L34.0524 62.4011
" />
<path d="M34.0524 62.4011
L34.1571 62.4535
" />
<path d="M34.1571 62.4535
L34.2619 62.5582
" />
<path d="M34.2619 62.5582
L34.3143 62.7677
" />
<path d="M34.3143 62.7677
L34.3143 63.1344
" />
<path d="M34.3143 63.1344
L34.2619 63.3439
" />
<path d="M34.2619 63.3439
L34.1571 63.4487
" />
<path d="M34.1571 63.4487
L34.0524 63.5011
" />
<path d="M34.0524 63.5011
L33.8429 63.5011
" />
<path d="M33.8429 63.5011
L33.7381 63.4487
" />
<path d="M33.7381 63.4487
L33.6333 63.3439
" />
<path d="M33.6333 63.3439
L33.5810 63.1344
" />
<path d="M33.5810 63.1344
L33.5810 62.7677
" />
<path d="M33.5810 62.7677
L33.6333 62.5582
" />
<path d="M33.6333 62.5582
L33.7381 62.4535
" />
<path d="M33.7381 62.4535
L33.8429 62.4011
" />
<path d="M35.6238 63.5011
L35.6238 62.4011
" />
<path d="M35.6238 62.4011
L36.2524 63.5011
" />
<path d="M36.2524 63.5011
L36.2524 62.4011
" />
<path d="M36.9857 62.4011
L37.1952 62.4011
" />
<path d="M37.1952 62.4011
L37.3000 62.4535
" />
<path d="M37.3000 62.4535
L37.4048 62.5582
" />
<path d="M37.4048 62.5582
L37.4571 62.7677
" />
<path d="M37.4571 62.7677
L37.4571 63.1344
" />
<path d="M37.4571 63.1344
L37.4048 63.3439
" />
<path d="M37.4048 63.3439
L37.3000 63.4487
" />
<path d="M37.3000 63.4487
L37.1952 63.5011
" />
<path d="M37.1952 63.5011
L36.9857 63.5011
" />
<path d="M36.9857 63.5011
L36.8810 63.4487
" />
<path d="M36.8810 63.4487
L36.7762 63.3439
" />
<path d="M36.7762 63.3439
L36.7238 63.1344
" />
<path d="M36.7238 63.1344
L36.7238 62.7677
" />
<path d="M36.7238 62.7677
L36.7762 62.5582
" />
<path d="M36.7762 62.5582
L36.8810 62.4535
" />
<path d="M36.8810 62.4535
L36.9857 62.4011
" />
<path d="M37.9286 63.5011
L37.9286 62.4011
" />
<path d="M37.9286 62.4011
L38.1905 62.4011
" />
<path d="M38.1905 62.4011
L38.3476 62.4535
" />
<path d="M38.3476 62.4535
L38.4524 62.5582
" />
<path d="M38.4524 62.5582
L38.5048 62.6630
" />
<path d="M38.5048 62.6630
L38.5571 62.8725
" />
<path d="M38.5571 62.8725
L38.5571 63.0297
" />
<path d="M38.5571 63.0297
L38.5048 63.2392
" />
<path d="M38.5048 63.2392
L38.4524 63.3439
" />
<path d="M38.4524 63.3439
L38.3476 63.4487
" />
<path d="M38.3476 63.4487
L38.1905 63.5011
" />
<path d="M38.1905 63.5011
L37.9286 63.5011
" />
<path d="M39.0286 62.9249
L39.3952 62.9249
" />
<path d="M39.5524 63.5011
L39.0286 63.5011
" />
<path d="M39.0286 63.5011
L39.0286 62.4011
" />
<path d="M39.0286 62.4011
L39.5524 62.4011
" />
<path d="M40.8619 63.0820
L41.7000 63.0820
" />
<path d="M43.6905 63.5011
L43.3238 62.9773
" />
<path d="M43.0619 63.5011
L43.0619 62.4011
" />
<path d="M43.0619 62.4011
L43.4810 62.4011
" />
<path d="M43.4810 62.4011
L43.5857 62.4535
" />
<path d="M43.5857 62.4535
L43.6381 62.5058
" />
<path d="M43.6381 62.5058
L43.6905 62.6106
" />
<path d="M43.6905 62.6106
L43.6905 62.7677
" />
<path d="M43.6905 62.7677
L43.6381 62.8725
" />
<path d="M43.6381 62.8725
L43.5857 62.9249
" />
<path d="M43.5857 62.9249
L43.4810 62.9773
" />
<path d="M43.4810 62.9773
L43.0619 62.9773
" />
<path d="M44.1619 62.9249
L44.5286 62.9249
" />
<path d="M44.6857 63.5011
L44.1619 63.5011
" />
<path d="M44.1619 63.5011
L44.1619 62.4011
" />
<path d="M44.1619 62.4011
L44.6857 62.4011
" />
<path d="M45.0000 62.4011
L45.3667 63.5011
" />
<path d="M45.3667 63.5011
L45.7333 62.4011
" />
<path d="M46.8857 63.1868
L47.4095 63.1868
" />
<path d="M46.7810 63.5011
L47.1476 62.4011
" />
<path d="M47.1476 62.4011
L47.5143 63.5011
" />
</g><path style="fill:none;
stroke:#D0D2CD; stroke-width:0.0500; stroke-opacity:1;
stroke-linecap:round; stroke-linejoin:round;fill:none"
d="M 0.0000,0.8000
0.0005,0.7607
0.0082,0.6825
0.0235,0.6055
0.0463,0.5303
0.0764,0.4577
0.1134,0.3885
0.1570,0.3232
0.2069,0.2624
0.2624,0.2069
0.3232,0.1570
0.3885,0.1134
0.4577,0.0764
0.5303,0.0463
0.6055,0.0235
0.6825,0.0082
0.7607,0.0005
0.8000,0.0000
67.2000,0.0000
67.2393,0.0005
67.3175,0.0082
67.3945,0.0235
67.4697,0.0463
67.5422,0.0764
67.6115,0.1134
67.6768,0.1570
67.7376,0.2069
67.7931,0.2624
67.8430,0.3232
67.8866,0.3885
67.9236,0.4577
67.9537,0.5303
67.9765,0.6055
67.9918,0.6825
67.9995,0.7607
68.0000,0.8000
68.0000,65.2000
67.9995,65.2393
67.9918,65.3175
67.9765,65.3945
67.9537,65.4697
67.9236,65.5422
67.8866,65.6115
67.8430,65.6768
67.7931,65.7376
67.7376,65.7931
67.6768,65.8430
67.6115,65.8866
67.5422,65.9236
67.4697,65.9537
67.3945,65.9765
67.3175,65.9918
67.2393,65.9995
67.2000,66.0000
0.8000,66.0000
0.7607,65.9995
0.6825,65.9918
0.6055,65.9765
0.5303,65.9537
0.4577,65.9236
0.3885,65.8866
0.3232,65.8430
0.2624,65.7931
0.2069,65.7376
0.1570,65.6768
0.1134,65.6115
0.0764,65.5422
0.0463,65.4697
0.0235,65.3945
0.0082,65.3175
0.0005,65.2393
0.0000,65.2000
Z" />
</g>
<g style="fill:#FFFFFF; fill-opacity:1.0000; stroke:none;">
<circle cx="7.0000" cy="43.2900" r="0.1500" />
<circle cx="38.5000" cy="45.0000" r="0.1500" />
</g>
<g style="fill:#FFFFFF; fill-opacity:1.0000; stroke:none;">
<circle cx="9.6800" cy="55.9900" r="0.5000" />
</g>
<g style="fill:#FFFFFF; fill-opacity:1.0000; stroke:none;">
<circle cx="9.6800" cy="53.4500" r="0.5000" />
</g>
<g style="fill:#FFFFFF; fill-opacity:1.0000; stroke:none;">
<circle cx="9.6800" cy="50.9100" r="0.5000" />
</g>
<g style="fill:#FFFFFF; fill-opacity:1.0000; stroke:none;">
<circle cx="9.6800" cy="48.3700" r="0.5000" />
</g>
<g style="fill:#FFFFFF; fill-opacity:1.0000; stroke:none;">
<circle cx="9.6800" cy="45.8300" r="0.5000" />
</g>
<g style="fill:#FFFFFF; fill-opacity:1.0000; stroke:none;">
<circle cx="9.6800" cy="43.2900" r="0.5000" />
</g>
<g style="fill:#FFFFFF; fill-opacity:1.0000; stroke:none;">
<circle cx="9.6800" cy="40.7500" r="0.5000" />
</g>
<g style="fill:#FFFFFF; fill-opacity:1.0000; stroke:none;">
<circle cx="9.6800" cy="38.2100" r="0.5000" />
</g>
<g style="fill:#FFFFFF; fill-opacity:1.0000; stroke:none;">
<circle cx="9.6800" cy="35.6700" r="0.5000" />
</g>
<g style="fill:#FFFFFF; fill-opacity:1.0000; stroke:none;">
<circle cx="9.6800" cy="33.1300" r="0.5000" />
</g>
<g style="fill:#FFFFFF; fill-opacity:1.0000; stroke:none;">
<circle cx="9.6800" cy="30.5900" r="0.5000" />
</g>
<g style="fill:#FFFFFF; fill-opacity:1.0000; stroke:none;">
<circle cx="9.6800" cy="28.0500" r="0.5000" />
</g>
<g style="fill:#FFFFFF; fill-opacity:1.0000; stroke:none;">
<circle cx="9.6800" cy="25.5100" r="0.5000" />
</g>
<g style="fill:#FFFFFF; fill-opacity:1.0000; stroke:none;">
<circle cx="9.6800" cy="22.9700" r="0.5000" />
</g>
<g style="fill:#FFFFFF; fill-opacity:1.0000; stroke:none;">
<circle cx="9.6800" cy="20.4300" r="0.5000" />
</g>
<g style="fill:#FFFFFF; fill-opacity:1.0000; stroke:none;">
<circle cx="35.0800" cy="55.9900" r="0.5000" />
</g>
<g style="fill:#FFFFFF; fill-opacity:1.0000; stroke:none;">
<circle cx="35.0800" cy="53.4500" r="0.5000" />
</g>
<g style="fill:#FFFFFF; fill-opacity:1.0000; stroke:none;">
<circle cx="35.0800" cy="50.9100" r="0.5000" />
</g>
<g style="fill:#FFFFFF; fill-opacity:1.0000; stroke:none;">
<circle cx="35.0800" cy="48.3700" r="0.5000" />
</g>
<g style="fill:#FFFFFF; fill-opacity:1.0000; stroke:none;">
<circle cx="35.0800" cy="45.8300" r="0.5000" />
</g>
<g style="fill:#FFFFFF; fill-opacity:1.0000; stroke:none;">
<circle cx="35.0800" cy="43.2900" r="0.5000" />
</g>
<g style="fill:#FFFFFF; fill-opacity:1.0000; stroke:none;">
<circle cx="35.0800" cy="40.7500" r="0.5000" />
</g>
<g style="fill:#FFFFFF; fill-opacity:1.0000; stroke:none;">
<circle cx="35.0800" cy="38.2100" r="0.5000" />
</g>
<g style="fill:#FFFFFF; fill-opacity:1.0000; stroke:none;">
<circle cx="35.0800" cy="35.6700" r="0.5000" />
</g>
<g style="fill:#FFFFFF; fill-opacity:1.0000; stroke:none;">
<circle cx="35.0800" cy="33.1300" r="0.5000" />
</g>
<g style="fill:#FFFFFF; fill-opacity:1.0000; stroke:none;">
<circle cx="35.0800" cy="30.5900" r="0.5000" />
</g>
<g style="fill:#FFFFFF; fill-opacity:1.0000; stroke:none;">
<circle cx="35.0800" cy="28.0500" r="0.5000" />
</g>
<g style="fill:#FFFFFF; fill-opacity:1.0000; stroke:none;">
<circle cx="35.0800" cy="25.5100" r="0.5000" />
</g>
<g style="fill:#FFFFFF; fill-opacity:1.0000; stroke:none;">
<circle cx="35.0800" cy="22.9700" r="0.5000" />
</g>
<g style="fill:#FFFFFF; fill-opacity:1.0000; stroke:none;">
<circle cx="35.0800" cy="20.4300" r="0.5000" />
</g>
<g style="fill:#FFFFFF; fill-opacity:1.0000; stroke:none;">
<circle cx="41.0000" cy="36.8100" r="0.5000" />
</g>
<g style="fill:#FFFFFF; fill-opacity:1.0000; stroke:none;">
<circle cx="43.5400" cy="36.8100" r="0.5000" />
</g>
<g style="fill:#FFFFFF; fill-opacity:1.0000; stroke:none;">
<circle cx="41.0000" cy="34.2700" r="0.5000" />
</g>
<g style="fill:#FFFFFF; fill-opacity:1.0000; stroke:none;">
<circle cx="43.5400" cy="34.2700" r="0.5000" />
</g>
<g style="fill:#FFFFFF; fill-opacity:1.0000; stroke:none;">
<circle cx="41.0000" cy="31.7300" r="0.5000" />
</g>
<g style="fill:#FFFFFF; fill-opacity:1.0000; stroke:none;">
<circle cx="43.5400" cy="31.7300" r="0.5000" />
</g>
<g style="fill:#FFFFFF; fill-opacity:1.0000; stroke:none;">
<circle cx="41.0000" cy="29.1900" r="0.5000" />
</g>
<g style="fill:#FFFFFF; fill-opacity:1.0000; stroke:none;">
<circle cx="43.5400" cy="29.1900" r="0.5000" />
</g>
<g style="fill:#000000; fill-opacity:1.0000; stroke:none;">
<circle cx="3.5000" cy="62.5000" r="1.6000" />
<circle cx="3.5000" cy="3.5000" r="1.6000" />
<circle cx="64.5000" cy="3.5000" r="1.6000" />
<circle cx="64.5000" cy="62.5000" r="1.6000" />
</g>
</svg>
