<?xml version="1.0" standalone="no"?>
 <!DOCTYPE svg PUBLIC "-//W3C//DTD SVG 1.1//EN"
 "http://www.w3.org/Graphics/SVG/1.1/DTD/svg11.dtd">
<svg
  xmlns:svg="http://www.w3.org/2000/svg"
  xmlns="http://www.w3.org/2000/svg"
  xmlns:xlink="http://www.w3.org/1999/xlink"
  xmlns:inkscape="http://www.inkscape.org/namespaces/inkscape"
  version="1.1"
  width="67.9958mm" height="65.9892mm" viewBox="0.0000 0.0000 67.9958 65.9892">
<title>SVG Image created as rainpoint_carrier-bottom.svg date 2026-08-12T21:24:44 </title>
  <desc>Image generated by PCBNEW </desc>
<g style="fill:#000000; fill-opacity:1.0000;stroke:#000000; stroke-opacity:1.0000;
stroke-linecap:round; stroke-linejoin:round;"
 transform="translate(0 0) scale(1 1)">
<path style="fill:#4D7FC4; fill-opacity:1.0000; stroke:none;fill-rule:evenodd;"
d="M 59.3158,56.9900
59.3158,54.9900
57.3158,54.9900
57.3158,56.9900
Z" />
</g>
<g style="fill:#4D7FC4; fill-opacity:1.0000; stroke:none;">
<circle cx="58.3158" cy="53.4500" r="1.0000" />
<circle cx="58.3158" cy="50.9100" r="1.0000" />
<circle cx="58.3158" cy="48.3700" r="1.0000" />
<circle cx="58.3158" cy="45.8300" r="1.0000" />
<circle cx="58.3158" cy="43.2900" r="1.0000" />
<circle cx="58.3158" cy="40.7500" r="1.0000" />
<circle cx="58.3158" cy="38.2100" r="1.0000" />
<circle cx="58.3158" cy="35.6700" r="1.0000" />
<circle cx="58.3158" cy="33.1300" r="1.0000" />
<circle cx="58.3158" cy="30.5900" r="1.0000" />
<circle cx="58.3158" cy="28.0500" r="1.0000" />
<circle cx="58.3158" cy="25.5100" r="1.0000" />
<circle cx="58.3158" cy="22.9700" r="1.0000" />
<circle cx="58.3158" cy="20.4300" r="1.0000" />
<path style="fill:#4D7FC4; fill-opacity:1.0000; stroke:none;fill-rule:evenodd;"
d="M 33.9158,56.9900
33.9158,54.9900
31.9158,54.9900
31.9158,56.9900
Z" />
<circle cx="32.9158" cy="53.4500" r="1.0000" />
<circle cx="32.9158" cy="50.9100" r="1.0000" />
<circle cx="32.9158" cy="48.3700" r="1.0000" />
<circle cx="32.9158" cy="45.8300" r="1.0000" />
<circle cx="32.9158" cy="43.2900" r="1.0000" />
<circle cx="32.9158" cy="40.7500" r="1.0000" />
<circle cx="32.9158" cy="38.2100" r="1.0000" />
<circle cx="32.9158" cy="35.6700" r="1.0000" />
<circle cx="32.9158" cy="33.1300" r="1.0000" />
<circle cx="32.9158" cy="30.5900" r="1.0000" />
<circle cx="32.9158" cy="28.0500" r="1.0000" />
<circle cx="32.9158" cy="25.5100" r="1.0000" />
<circle cx="32.9158" cy="22.9700" r="1.0000" />
<circle cx="32.9158" cy="20.4300" r="1.0000" />
<path style="fill:#4D7FC4; fill-opacity:1.0000; stroke:none;fill-rule:evenodd;"
d="M 27.9958,37.8100
27.9958,35.8100
25.9958,35.8100
25.9958,37.8100
Z" />
<circle cx="24.4558" cy="36.8100" r="1.0000" />
<circle cx="26.9958" cy="34.2700" r="1.0000" />
<circle cx="24.4558" cy="34.2700" r="1.0000" />
<circle cx="26.9958" cy="31.7300" r="1.0000" />
<circle cx="24.4558" cy="31.7300" r="1.0000" />
<circle cx="26.9958" cy="29.1900" r="1.0000" />
<circle cx="24.4558" cy="29.1900" r="1.0000" />
<path style="fill:#4D7FC4; fill-opacity:1.0000; stroke:none;fill-rule:evenodd;"
d="M 23.0958,35.5400
23.0775,35.4482
23.0255,35.3703
22.9476,35.3183
22.8558,35.3000
22.1358,35.3000
22.0440,35.3183
21.9661,35.3703
21.9141,35.4482
21.8958,35.5400
21.8958,36.4600
21.9141,36.5518
21.9661,36.6297
22.0440,36.6817
22.1358,36.7000
22.8558,36.7000
22.9476,36.6817
23.0255,36.6297
23.0775,36.5518
23.0958,36.4600
Z" />
<path style="fill:#4D7FC4; fill-opacity:1.0000; stroke:none;fill-rule:evenodd;"
d="M 21.0958,35.5400
21.0775,35.4482
21.0255,35.3703
20.9476,35.3183
20.8558,35.3000
20.1358,35.3000
20.0440,35.3183
19.9661,35.3703
19.9141,35.4482
19.8958,35.5400
19.8958,36.4600
19.9141,36.5518
19.9661,36.6297
20.0440,36.6817
20.1358,36.7000
20.8558,36.7000
20.9476,36.6817
21.0255,36.6297
21.0775,36.5518
21.0958,36.4600
Z" />
<path style="fill:#4D7FC4; fill-opacity:1.0000; stroke:none;fill-rule:evenodd;"
d="M 23.0958,38.5400
23.0775,38.4482
23.0255,38.3703
22.9476,38.3183
22.8558,38.3000
22.1358,38.3000
22.0440,38.3183
21.9661,38.3703
21.9141,38.4482
21.8958,38.5400
21.8958,39.4600
21.9141,39.5518
21.9661,39.6297
22.0440,39.6817
22.1358,39.7000
22.8558,39.7000
22.9476,39.6817
23.0255,39.6297
23.0775,39.5518
23.0958,39.4600
Z" />
<path style="fill:#4D7FC4; fill-opacity:1.0000; stroke:none;fill-rule:evenodd;"
d="M 21.0958,38.5400
21.0775,38.4482
21.0255,38.3703
20.9476,38.3183
20.8558,38.3000
20.1358,38.3000
20.0440,38.3183
19.9661,38.3703
19.9141,38.4482
19.8958,38.5400
19.8958,39.4600
19.9141,39.5518
19.9661,39.6297
20.0440,39.6817
20.1358,39.7000
20.8558,39.7000
20.9476,39.6817
21.0255,39.6297
21.0775,39.5518
21.0958,39.4600
Z" />
<circle cx="60.9958" cy="43.2900" r="0.3500" />
<circle cx="29.4958" cy="45.0000" r="0.3500" />
</g>
<g style="fill:none;
stroke:#4D7FC4; stroke-width:0.3000; stroke-opacity:1;
stroke-linecap:round; stroke-linejoin:round;">
<path d="M15.9958 34.2700
L24.4558 34.2700
" />
<path d="M60.9958 63.5000
L15.9958 63.5000
" />
<path d="M60.9958 43.2900
L60.9958 63.5000
" />
<path d="M15.9958 63.5000
L15.9958 34.2700
" />
<path d="M59.9958 62.5000
L29.4958 62.5000
" />
<path d="M58.3158 40.7500
L59.9958 40.7500
" />
<path d="M29.4958 62.5000
L29.4958 45.0000
" />
<path d="M59.9958 40.7500
L59.9958 62.5000
" />
<path d="M12.9958 29.1900
L24.4558 29.1900
" />
<path d="M12.9958 64.5000
L12.9958 29.1900
" />
<path d="M61.9958 64.5000
L12.9958 64.5000
" />
<path d="M58.3158 38.2100
L61.9958 38.2100
" />
<path d="M61.9958 38.2100
L61.9958 64.5000
" />
</g>
<g style="fill:none;
stroke:#4D7FC4; stroke-width:0.5000; stroke-opacity:1;
stroke-linecap:round; stroke-linejoin:round;">
<path d="M24.4558 36.8100
L22.4958 36.0000
" />
<path d="M22.4958 36.0000
L22.4958 39.0000
" />
</g>
<g style="fill:none;
stroke:#4D7FC4; stroke-width:0.3000; stroke-opacity:1;
stroke-linecap:round; stroke-linejoin:round;">
<path d="M32.9158 35.6700
L30.9958 35.6700
" />
<path d="M30.9958 35.6700
L26.9958 31.7300
" />
<path style="fill:#4D7FC4; fill-opacity:1.0000; stroke:none;fill-rule:evenodd;"
d="M 61.0528,0.5202
61.0070,0.5730
60.9958,0.6245
60.9958,18.5000
29.9958,18.5000
29.9958,3.3787
5.3463,3.3787
5.3463,3.6213
5.3146,3.8618
5.2519,4.0961
5.1590,4.3202
5.1590,4.3202
5.0377,4.5303
5.0377,4.5303
5.0377,4.5303
4.8901,4.7227
4.8901,4.7227
4.7185,4.8943
4.7185,4.8943
4.5261,5.0419
4.3160,5.1632
4.0919,5.2561
3.8576,5.3188
3.6772,5.3426
3.6171,5.3505
3.6171,5.3505
3.3745,5.3505
3.3264,5.3442
3.1340,5.3188
2.8997,5.2561
2.6756,5.1632
2.4655,5.0419
2.2731,4.8943
2.1015,4.7227
1.9539,4.5303
1.8326,4.3202
1.7397,4.0961
1.6770,3.8618
1.6453,3.6213
1.6453,3.3787
1.6770,3.1382
1.7397,2.9039
1.8326,2.6798
1.9539,2.4697
2.1015,2.2773
2.1015,2.2773
2.2731,2.1057
2.2731,2.1057
2.4655,1.9581
2.4655,1.9581
2.4655,1.9581
2.6756,1.8368
2.6756,1.8368
2.8997,1.7439
3.1340,1.6812
3.3745,1.6495
3.3745,1.6495
3.6171,1.6495
3.6171,1.6495
3.8576,1.6812
4.0919,1.7439
4.3160,1.8368
4.3160,1.8368
4.5261,1.9581
4.7185,2.1057
4.7185,2.1057
4.8901,2.2773
4.8901,2.2773
5.0377,2.4697
5.1590,2.6798
5.1590,2.6798
5.2519,2.9039
5.3146,3.1382
5.3463,3.3787
29.9958,3.3787
29.9958,0.6245
29.9761,0.5575
29.9233,0.5117
29.8718,0.5005
0.8617,0.5005
0.8056,0.5005
0.7862,0.5020
0.7226,0.5121
0.6858,0.5241
0.6373,0.5488
0.6059,0.5716
0.5674,0.6101
0.5446,0.6415
0.5199,0.6900
0.5079,0.7268
0.4978,0.7904
0.4963,0.8098
0.4963,65.1902
0.4978,65.2096
0.5079,65.2732
0.5199,65.3100
0.5446,65.3585
0.5674,65.3899
0.6059,65.4284
0.6373,65.4512
0.6858,65.4759
0.7226,65.4879
0.7577,65.4935
0.7862,65.4980
0.8056,65.4995
67.1860,65.4995
67.2054,65.4980
67.2246,65.4949
67.2690,65.4879
67.3058,65.4759
67.3543,65.4512
67.3857,65.4284
67.4242,65.3899
67.4470,65.3585
67.4717,65.3100
67.4837,65.2732
67.4849,65.2659
67.4938,65.2096
67.4953,65.1902
67.4953,62.3787
66.3463,62.3787
66.3463,62.6213
66.3146,62.8618
66.2519,63.0961
66.1590,63.3202
66.1590,63.3202
66.0377,63.5303
66.0377,63.5303
66.0377,63.5303
65.8901,63.7227
65.8901,63.7227
65.7185,63.8943
65.7185,63.8943
65.6778,63.9255
65.5261,64.0419
65.3160,64.1632
65.0919,64.2561
64.8576,64.3188
64.6772,64.3426
64.6171,64.3505
64.6171,64.3505
64.3745,64.3505
64.3264,64.3442
64.1340,64.3188
63.8997,64.2561
63.6756,64.1632
63.4655,64.0419
63.2731,63.8943
63.1015,63.7227
62.9539,63.5303
62.8326,63.3202
62.7397,63.0961
62.6901,62.9107
62.6537,62.8511
62.5909,62.8205
62.5215,62.8288
62.4676,62.8733
62.4463,62.9399
62.4463,62.9428
62.4463,64.5593
62.4156,64.6739
62.3563,64.7766
62.2724,64.8605
62.1697,64.9198
62.0551,64.9505
62.0551,64.9505
12.9365,64.9505
12.9365,64.9505
12.8219,64.9198
12.7192,64.8605
12.6353,64.7766
12.5760,64.6739
12.5453,64.5593
12.5453,62.3787
5.3463,62.3787
5.3463,62.6213
5.3146,62.8618
5.2519,63.0961
5.1590,63.3202
5.1590,63.3202
5.0377,63.5303
5.0377,63.5303
5.0377,63.5303
4.8901,63.7227
4.8901,63.7227
4.7185,63.8943
4.7185,63.8943
4.6778,63.9255
4.5261,64.0419
4.3160,64.1632
4.0919,64.2561
3.8576,64.3188
3.6772,64.3426
3.6171,64.3505
3.6171,64.3505
3.3745,64.3505
3.3264,64.3442
3.1340,64.3188
2.8997,64.2561
2.6756,64.1632
2.4655,64.0419
2.2731,63.8943
2.1015,63.7227
1.9539,63.5303
1.8326,63.3202
1.7397,63.0961
1.6770,62.8618
1.6453,62.6213
1.6453,62.3787
1.6770,62.1382
1.7397,61.9039
1.8326,61.6798
1.9539,61.4697
2.1015,61.2773
2.1015,61.2773
2.2731,61.1057
2.2731,61.1057
2.4655,60.9581
2.4655,60.9581
2.4655,60.9581
2.6756,60.8368
2.6756,60.8368
2.8997,60.7439
3.1340,60.6812
3.3745,60.6495
3.3745,60.6495
3.6171,60.6495
3.6171,60.6495
3.8576,60.6812
4.0919,60.7439
4.3160,60.8368
4.3160,60.8368
4.5261,60.9581
4.7185,61.1057
4.7185,61.1057
4.8901,61.2773
4.8901,61.2773
5.0377,61.4697
5.1590,61.6798
5.1590,61.6798
5.2519,61.9039
5.3146,62.1382
5.3463,62.3787
12.5453,62.3787
12.5453,29.1307
12.5760,29.0161
12.6353,28.9134
12.7192,28.8295
12.8219,28.7702
12.9365,28.7395
12.9365,28.7395
23.1498,28.7395
23.2168,28.7198
23.2603,28.6718
23.3435,28.5084
23.4638,28.3428
23.6086,28.1980
23.7742,28.0777
23.7742,28.0777
23.7742,28.0777
23.8311,28.0487
23.9566,27.9848
24.1513,27.9215
24.3258,27.8939
24.3534,27.8895
24.5582,27.8895
24.5825,27.8934
24.7603,27.9215
24.9550,27.9848
25.1374,28.0777
25.3030,28.1980
25.4478,28.3428
25.5681,28.5084
25.6153,28.6011
25.6633,28.6519
25.7311,28.6687
25.7972,28.6461
25.8363,28.6011
25.8627,28.5492
25.8835,28.5084
25.8912,28.4977
26.0038,28.3428
26.1486,28.1980
26.3142,28.0777
26.3142,28.0777
26.3142,28.0777
26.3711,28.0487
26.4966,27.9848
26.6913,27.9215
26.8658,27.8939
26.8934,27.8895
27.0982,27.8895
27.1225,27.8934
27.3003,27.9215
27.4950,27.9848
27.6774,28.0777
27.8430,28.1980
27.9878,28.3428
28.1081,28.5084
28.2010,28.6908
28.2643,28.8855
28.2963,29.0876
28.2963,29.2924
28.2643,29.4945
28.2010,29.6892
28.1081,29.8716
27.9878,30.0372
27.8430,30.1820
27.7006,30.2855
27.6774,30.3023
27.5860,30.3489
27.5847,30.3495
27.5339,30.3975
27.5171,30.4653
27.5397,30.5314
27.5847,30.5705
27.6774,30.6177
27.8430,30.7380
27.9878,30.8828
28.1081,31.0484
28.2010,31.2308
28.2643,31.4255
28.2963,31.6276
28.2963,31.8324
28.2643,32.0345
28.2643,32.0345
28.2110,32.1984
28.2090,32.2683
28.2419,32.3251
31.1442,35.1838
31.2058,35.2169
31.2312,35.2195
31.6098,35.2195
31.6768,35.1998
31.7203,35.1518
31.7379,35.1172
31.8035,34.9884
31.8035,34.9884
31.8035,34.9884
31.9238,34.8228
32.0686,34.6780
32.2342,34.5577
32.2408,34.5543
32.3269,34.5105
32.3777,34.4625
32.3945,34.3947
32.3719,34.3286
32.3269,34.2895
32.2342,34.2423
32.1315,34.1676
32.0686,34.1220
32.0686,34.1220
32.0686,34.1220
31.9238,33.9772
31.9238,33.9772
31.9238,33.9772
31.8316,33.8502
31.8035,33.8116
31.7106,33.6292
31.6473,33.4345
31.6153,33.2324
31.6153,33.0276
31.6473,32.8255
31.7106,32.6308
31.7106,32.6308
31.7106,32.6308
31.7443,32.5646
31.8035,32.4484
31.8302,32.4116
31.9238,32.2828
32.0686,32.1380
32.2342,32.0177
32.2408,32.0143
32.3269,31.9705
32.3777,31.9225
32.3945,31.8547
32.3719,31.7886
32.3269,31.7495
32.2342,31.7023
32.1315,31.6276
32.0686,31.5820
32.0686,31.5820
32.0686,31.5820
31.9238,31.4372
31.9238,31.4372
31.9238,31.4372
31.8711,31.3646
31.8035,31.2716
31.7106,31.0892
31.6473,30.8945
31.6153,30.6924
31.6153,30.4876
31.6473,30.2855
31.7106,30.0908
31.7106,30.0908
31.7106,30.0908
31.7443,30.0246
31.8035,29.9084
31.8302,29.8716
31.9238,29.7428
32.0686,29.5980
32.2342,29.4777
32.2408,29.4743
32.3269,29.4305
32.3777,29.3825
32.3945,29.3147
32.3719,29.2486
32.3269,29.2095
32.2342,29.1623
32.1315,29.0876
32.0686,29.0420
32.0686,29.0420
32.0686,29.0420
31.9238,28.8972
31.9238,28.8972
31.9238,28.8972
31.8316,28.7702
31.8035,28.7316
31.7106,28.5492
31.6473,28.3545
31.6153,28.1524
31.6153,27.9476
31.6473,27.7455
31.7106,27.5508
31.7106,27.5508
31.7106,27.5508
31.7443,27.4846
31.8035,27.3684
31.8112,27.3577
31.9238,27.2028
32.0686,27.0580
32.2342,26.9377
32.2408,26.9343
32.3269,26.8905
32.3777,26.8425
32.3945,26.7747
32.3719,26.7086
32.3269,26.6695
32.2342,26.6223
32.2130,26.6069
32.0686,26.5020
32.0686,26.5020
32.0686,26.5020
31.9238,26.3572
31.9238,26.3572
31.9238,26.3572
31.8711,26.2846
31.8035,26.1916
31.7106,26.0092
31.6473,25.8145
31.6153,25.6124
31.6153,25.4076
31.6473,25.2055
31.7106,25.0108
31.7106,25.0108
31.7106,25.0108
31.7443,24.9446
31.8035,24.8284
31.8112,24.8177
31.9238,24.6628
32.0686,24.5180
32.2342,24.3977
32.2408,24.3943
32.3269,24.3505
32.3777,24.3025
32.3945,24.2347
32.3719,24.1686
32.3269,24.1295
32.2342,24.0823
32.2130,24.0669
32.0686,23.9620
32.0686,23.9620
32.0686,23.9620
31.9238,23.8172
31.9238,23.8172
31.9238,23.8172
31.8711,23.7446
31.8035,23.6516
31.7106,23.4692
31.6473,23.2745
31.6153,23.0724
31.6153,22.8676
31.6473,22.6655
31.7106,22.4708
31.7106,22.4708
31.7106,22.4708
31.7443,22.4046
31.8035,22.2884
31.8112,22.2777
31.9238,22.1228
32.0686,21.9780
32.2342,21.8577
32.2408,21.8543
32.3269,21.8105
32.3777,21.7625
32.3945,21.6947
32.3719,21.6286
32.3269,21.5895
32.2342,21.5423
32.2130,21.5269
32.0686,21.4220
32.0686,21.4220
32.0686,21.4220
31.9238,21.2772
31.9238,21.2772
31.9238,21.2772
31.8711,21.2046
31.8035,21.1116
31.7106,20.9292
31.6473,20.7345
31.6153,20.5324
31.6153,20.3276
31.6473,20.1255
31.7106,19.9308
31.7106,19.9308
31.7106,19.9308
31.7443,19.8646
31.8035,19.7484
31.8112,19.7377
31.9238,19.5828
32.0686,19.4380
32.2342,19.3177
32.2342,19.3177
32.2342,19.3177
32.2911,19.2887
32.4166,19.2248
32.6113,19.1615
32.7858,19.1339
32.8134,19.1295
33.0182,19.1295
33.0425,19.1334
33.2203,19.1615
33.4150,19.2248
33.5974,19.3177
33.7630,19.4380
33.9078,19.5828
34.0281,19.7484
34.1210,19.9308
34.1843,20.1255
34.2163,20.3276
34.2163,20.5324
34.1843,20.7345
34.1210,20.9292
34.0281,21.1116
33.9078,21.2772
33.7630,21.4220
33.6081,21.5346
33.5974,21.5423
33.5060,21.5889
33.5047,21.5895
33.4539,21.6375
33.4371,21.7053
33.4597,21.7714
33.5047,21.8105
33.5974,21.8577
33.7630,21.9780
33.9078,22.1228
34.0281,22.2884
34.1210,22.4708
34.1843,22.6655
34.2163,22.8676
34.2163,23.0724
34.1843,23.2745
34.1210,23.4692
34.0281,23.6516
33.9078,23.8172
33.7630,23.9620
33.6081,24.0746
33.5974,24.0823
33.5060,24.1289
33.5047,24.1295
33.4539,24.1775
33.4371,24.2453
33.4597,24.3114
33.5047,24.3505
33.5974,24.3977
33.7630,24.5180
33.9078,24.6628
34.0281,24.8284
34.1210,25.0108
34.1843,25.2055
34.2163,25.4076
34.2163,25.6124
34.1843,25.8145
34.1210,26.0092
34.0281,26.1916
33.9078,26.3572
33.7630,26.5020
33.6081,26.6146
33.5974,26.6223
33.5060,26.6689
33.5047,26.6695
33.4539,26.7175
33.4371,26.7853
33.4597,26.8514
33.5047,26.8905
33.5974,26.9377
33.7630,27.0580
33.9078,27.2028
34.0281,27.3684
34.1210,27.5508
34.1843,27.7455
34.2163,27.9476
34.2163,28.1524
34.1843,28.3545
34.1210,28.5492
34.0687,28.6519
34.0341,28.7198
34.0281,28.7316
33.9078,28.8972
33.7630,29.0420
33.6409,29.1307
33.5974,29.1623
33.5060,29.2089
33.5047,29.2095
33.4539,29.2575
33.4371,29.3253
33.4597,29.3914
33.5047,29.4305
33.5974,29.4777
33.7630,29.5980
33.9078,29.7428
34.0281,29.9084
34.1210,30.0908
34.1843,30.2855
34.2163,30.4876
34.2163,30.6924
34.1843,30.8945
34.1210,31.0892
34.0281,31.2716
33.9078,31.4372
33.7630,31.5820
33.6081,31.6946
33.5974,31.7023
33.5060,31.7489
33.5047,31.7495
33.4539,31.7975
33.4371,31.8653
33.4597,31.9314
33.5047,31.9705
33.5974,32.0177
33.7630,32.1380
33.9078,32.2828
34.0281,32.4484
34.1210,32.6308
34.1843,32.8255
34.2163,33.0276
34.2163,33.2324
34.1843,33.4345
34.1210,33.6292
34.0687,33.7319
34.0341,33.7998
34.0281,33.8116
33.9078,33.9772
33.7630,34.1220
33.6409,34.2107
33.5974,34.2423
33.5060,34.2889
33.5047,34.2895
33.4539,34.3375
33.4371,34.4053
33.4597,34.4714
33.5047,34.5105
33.5974,34.5577
33.7630,34.6780
33.9078,34.8228
34.0281,34.9884
34.1210,35.1708
34.1843,35.3655
34.2163,35.5676
34.2163,35.7724
34.1843,35.9745
34.1210,36.1692
34.0281,36.3516
33.9078,36.5172
33.7630,36.6620
33.6081,36.7746
33.5974,36.7823
33.5060,36.8289
33.5047,36.8295
33.4539,36.8775
33.4371,36.9453
33.4597,37.0114
33.5047,37.0505
33.5974,37.0977
33.7630,37.2180
33.9078,37.3628
34.0281,37.5284
34.1210,37.7108
34.1843,37.9055
34.2163,38.1076
34.2163,38.3124
34.1843,38.5145
34.1210,38.7092
34.0281,38.8916
33.9078,39.0572
33.7630,39.2020
33.6081,39.3146
33.5974,39.3223
33.5060,39.3689
33.5047,39.3695
33.4539,39.4175
33.4371,39.4853
33.4597,39.5514
33.5047,39.5905
33.5974,39.6377
33.7630,39.7580
33.9078,39.9028
34.0281,40.0684
34.1210,40.2508
34.1843,40.4455
34.2163,40.6476
34.2163,40.8524
34.1843,41.0545
34.1210,41.2492
34.0281,41.4316
33.9078,41.5972
33.7630,41.7420
33.6081,41.8546
33.5974,41.8623
33.5060,41.9089
33.5047,41.9095
33.4539,41.9575
33.4371,42.0253
33.4597,42.0914
33.5047,42.1305
33.5974,42.1777
33.7630,42.2980
33.9078,42.4428
34.0281,42.6084
34.1210,42.7908
34.1843,42.9855
34.2163,43.1876
34.2163,43.3924
34.1843,43.5945
34.1210,43.7892
34.0281,43.9716
33.9078,44.1372
33.7630,44.2820
33.6081,44.3946
33.5974,44.4023
33.5060,44.4489
33.5047,44.4495
33.4539,44.4975
33.4371,44.5653
33.4597,44.6314
33.5047,44.6705
33.5974,44.7177
33.7630,44.8380
33.9078,44.9828
34.0281,45.1484
34.1210,45.3308
34.1843,45.5255
34.2163,45.7276
34.2163,45.9324
34.1843,46.1345
34.1210,46.3292
34.0281,46.5116
33.9078,46.6772
33.7630,46.8220
33.6081,46.9346
33.5974,46.9423
33.5060,46.9889
33.5047,46.9895
33.4539,47.0375
33.4371,47.1053
33.4597,47.1714
33.5047,47.2105
33.5974,47.2577
33.7630,47.3780
33.9078,47.5228
34.0281,47.6884
34.1210,47.8708
34.1843,48.0655
34.2163,48.2676
34.2163,48.4724
34.1843,48.6745
34.1210,48.8692
34.0281,49.0516
33.9078,49.2172
33.7630,49.3620
33.6081,49.4746
33.5974,49.4823
33.5060,49.5289
33.5047,49.5295
33.4539,49.5775
33.4371,49.6453
33.4597,49.7114
33.5047,49.7505
33.5974,49.7977
33.7630,49.9180
33.9078,50.0628
34.0281,50.2284
34.1210,50.4108
34.1843,50.6055
34.2163,50.8076
34.2163,51.0124
34.1843,51.2145
34.1210,51.4092
34.0281,51.5916
33.9078,51.7572
33.7630,51.9020
33.6081,52.0146
33.5974,52.0223
33.5060,52.0689
33.5047,52.0695
33.4539,52.1175
33.4371,52.1853
33.4597,52.2514
33.5047,52.2905
33.5974,52.3377
33.7630,52.4580
33.9078,52.6028
34.0281,52.7684
34.1210,52.9508
34.1843,53.1455
34.2163,53.3476
34.2163,53.5524
34.1843,53.7545
34.1210,53.9492
34.0281,54.1316
33.9078,54.2972
33.7630,54.4420
33.7630,54.4420
33.7311,54.4652
33.6884,54.5205
33.6824,54.5901
33.7150,54.6519
33.7759,54.6863
33.8040,54.6895
33.9607,54.6895
33.9607,54.6895
33.9858,54.6924
33.9858,54.6924
34.0886,54.7378
34.1680,54.8172
34.2134,54.9200
34.2134,54.9200
34.2163,54.9451
34.2163,57.0349
34.2163,57.0349
34.2134,57.0600
34.2134,57.0600
34.1680,57.1628
34.1680,57.1628
34.0886,57.2422
33.9858,57.2876
33.9607,57.2905
31.8709,57.2905
31.8709,57.2905
31.8709,57.2905
31.8458,57.2876
31.8458,57.2876
31.8458,57.2876
31.7430,57.2422
31.6636,57.1628
31.6182,57.0600
31.6153,57.0349
31.6153,54.9451
31.6153,54.9451
31.6182,54.9200
31.6182,54.9200
31.6182,54.9200
31.6636,54.8172
31.7430,54.7378
31.7430,54.7378
31.8458,54.6924
31.8709,54.6895
31.8709,54.6895
32.0277,54.6895
32.0947,54.6698
32.1404,54.6170
32.1504,54.5479
32.1214,54.4843
32.1005,54.4652
32.0686,54.4420
32.0686,54.4420
32.0686,54.4420
31.9238,54.2972
31.9238,54.2972
31.9238,54.2972
31.8711,54.2246
31.8035,54.1316
31.7106,53.9492
31.6473,53.7545
31.6153,53.5524
31.6153,53.3476
31.6473,53.1455
31.7106,52.9508
31.7106,52.9508
31.7106,52.9508
31.7443,52.8846
31.8035,52.7684
31.8112,52.7577
31.9238,52.6028
32.0686,52.4580
32.2342,52.3377
32.2408,52.3343
32.3269,52.2905
32.3777,52.2425
32.3945,52.1747
32.3719,52.1086
32.3269,52.0695
32.2342,52.0223
32.2130,52.0069
32.0686,51.9020
32.0686,51.9020
32.0686,51.9020
31.9238,51.7572
31.9238,51.7572
31.9238,51.7572
31.8711,51.6846
31.8035,51.5916
31.7106,51.4092
31.6473,51.2145
31.6153,51.0124
31.6153,50.8076
31.6473,50.6055
31.7106,50.4108
31.7106,50.4108
31.7106,50.4108
31.7443,50.3446
31.8035,50.2284
31.8112,50.2177
31.9238,50.0628
32.0686,49.9180
32.2342,49.7977
32.2408,49.7943
32.3269,49.7505
32.3777,49.7025
32.3945,49.6347
32.3719,49.5686
32.3269,49.5295
32.2342,49.4823
32.2130,49.4669
32.0686,49.3620
32.0686,49.3620
32.0686,49.3620
31.9238,49.2172
31.9238,49.2172
31.9238,49.2172
31.8711,49.1446
31.8035,49.0516
31.7106,48.8692
31.6473,48.6745
31.6153,48.4724
31.6153,48.2676
31.6473,48.0655
31.7106,47.8708
31.7106,47.8708
31.7106,47.8708
31.7443,47.8046
31.8035,47.6884
31.8112,47.6777
31.9238,47.5228
32.0686,47.3780
32.2342,47.2577
32.2408,47.2543
32.3269,47.2105
32.3777,47.1625
32.3945,47.0947
32.3719,47.0286
32.3269,46.9895
32.2342,46.9423
32.2130,46.9269
32.0686,46.8220
32.0686,46.8220
32.0686,46.8220
31.9238,46.6772
31.9238,46.6772
31.9238,46.6772
31.8711,46.6046
31.8035,46.5116
31.7106,46.3292
31.6473,46.1345
31.6153,45.9324
31.6153,45.7276
31.6473,45.5255
31.6488,45.5208
31.6773,45.4331
31.7106,45.3308
31.7106,45.3308
31.7106,45.3308
31.7443,45.2646
31.8035,45.1484
31.8112,45.1377
31.9238,44.9828
32.0686,44.8380
32.2342,44.7177
32.2849,44.6919
32.3269,44.6705
32.3777,44.6225
32.3945,44.5547
32.3719,44.4886
32.3269,44.4495
32.2342,44.4023
32.1615,44.3495
32.0686,44.2820
32.0686,44.2820
32.0686,44.2820
31.9238,44.1372
31.9238,44.1372
31.9238,44.1372
31.8711,44.0646
31.8035,43.9716
31.7106,43.7892
31.6473,43.5945
31.6153,43.3924
31.6153,43.1876
31.6473,42.9855
31.7106,42.7908
31.7106,42.7908
31.7106,42.7908
31.7749,42.6645
31.8035,42.6084
31.8112,42.5977
31.9238,42.4428
32.0686,42.2980
32.2342,42.1777
32.2408,42.1743
32.3269,42.1305
32.3777,42.0825
32.3945,42.0147
32.3719,41.9486
32.3269,41.9095
32.2342,41.8623
32.2130,41.8469
32.0686,41.7420
32.0686,41.7420
32.0686,41.7420
31.9238,41.5972
31.9238,41.5972
31.9238,41.5972
31.8711,41.5246
31.8035,41.4316
31.7106,41.2492
31.6473,41.0545
31.6153,40.8524
31.6153,40.6476
31.6473,40.4455
31.7106,40.2508
31.7106,40.2508
31.7106,40.2508
31.7443,40.1846
31.8035,40.0684
31.8112,40.0577
31.9238,39.9028
32.0686,39.7580
32.2342,39.6377
32.2408,39.6343
32.3269,39.5905
32.3777,39.5425
32.3945,39.4747
32.3719,39.4086
32.3269,39.3695
32.2342,39.3223
32.2130,39.3069
32.0686,39.2020
32.0686,39.2020
32.0686,39.2020
31.9238,39.0572
31.9238,39.0572
31.9238,39.0572
31.8711,38.9846
31.8035,38.8916
31.7106,38.7092
31.6473,38.5145
31.6153,38.3124
31.6153,38.1076
31.6221,38.0644
31.6473,37.9055
31.6948,37.7595
31.7106,37.7108
31.7106,37.7108
31.7106,37.7108
31.7443,37.6446
31.8035,37.5284
31.8302,37.4916
31.9238,37.3628
32.0686,37.2180
32.2342,37.0977
32.2408,37.0943
32.3269,37.0505
32.3777,37.0025
32.3945,36.9347
32.3719,36.8686
32.3269,36.8295
32.2342,36.7823
32.1586,36.7274
32.0686,36.6620
32.0686,36.6620
32.0686,36.6620
31.9238,36.5172
31.9238,36.5172
31.9238,36.5172
31.8035,36.3516
31.8035,36.3516
31.8035,36.3516
31.7203,36.1882
31.6723,36.1374
31.6098,36.1205
30.9978,36.1205
30.9968,36.1205
30.9398,36.1209
30.9385,36.1208
30.9376,36.1206
30.9366,36.1205
30.9365,36.1205
30.9365,36.1205
30.8811,36.1056
30.8805,36.1055
30.8251,36.0911
30.8251,36.0911
30.8250,36.0911
30.8239,36.0906
30.8231,36.0903
30.8220,36.0898
30.8219,36.0898
30.8219,36.0898
30.7724,36.0612
30.7717,36.0608
30.7219,36.0326
30.7219,36.0326
30.7218,36.0325
30.7210,36.0319
30.7202,36.0313
30.7193,36.0306
30.7192,36.0305
30.6787,35.9900
30.6783,35.9896
28.4572,33.8018
28.3956,33.7688
28.3260,33.7743
28.2704,33.8166
28.2464,33.8823
28.2523,33.9285
28.2643,33.9655
28.2963,34.1676
28.2963,34.3724
28.2643,34.5745
28.2010,34.7692
28.1081,34.9516
27.9878,35.1172
27.8430,35.2620
27.7185,35.3524
27.6774,35.3823
27.5847,35.4295
27.4950,35.4752
27.4950,35.4752
27.4950,35.4752
27.3907,35.5091
27.3003,35.5385
27.2811,35.5415
27.0982,35.5705
27.0982,35.5705
26.8934,35.5705
26.8934,35.5705
26.6913,35.5385
26.4966,35.4752
26.3142,35.3823
26.1983,35.2981
26.1486,35.2620
26.1486,35.2620
26.1486,35.2620
26.0038,35.1172
26.0038,35.1172
26.0038,35.1172
25.8835,34.9516
25.8835,34.9516
25.8835,34.9516
25.8363,34.8589
25.7883,34.8081
25.7205,34.7913
25.6544,34.8139
25.6153,34.8589
25.5681,34.9516
25.4478,35.1172
25.3030,35.2620
25.1785,35.3524
25.1374,35.3823
25.0460,35.4289
25.0447,35.4295
24.9939,35.4775
24.9771,35.5453
24.9997,35.6114
25.0447,35.6505
25.1374,35.6977
25.3030,35.8180
25.4478,35.9628
25.5681,36.1284
25.6610,36.3108
25.7243,36.5055
25.7563,36.7076
25.7563,36.9124
25.7243,37.1145
25.6610,37.3092
25.5681,37.4916
25.4478,37.6572
25.3030,37.8020
25.1606,37.9055
25.1374,37.9223
25.0707,37.9563
24.9550,38.0152
24.9550,38.0152
24.9550,38.0152
24.8507,38.0491
24.7603,38.0785
24.6592,38.0945
24.5582,38.1105
24.5582,38.1105
24.3534,38.1105
24.3534,38.1105
24.1513,38.0785
23.9566,38.0152
23.7742,37.9223
23.6740,37.8495
23.6086,37.8020
23.6086,37.8020
23.6086,37.8020
23.4638,37.6572
23.4638,37.6572
23.4638,37.6572
23.3435,37.4916
23.3435,37.4916
23.3435,37.4916
23.2808,37.3685
23.2328,37.3177
23.1650,37.3009
23.0989,37.3234
23.0554,37.3782
23.0463,37.4248
23.0463,37.9497
23.0660,38.0168
23.1159,38.0600
23.1158,38.0603
23.1170,38.0609
23.1188,38.0625
23.1228,38.0642
23.1232,38.0644
23.2416,38.1542
23.3314,38.2726
23.3314,38.2726
23.3859,38.4108
23.3859,38.4108
23.3963,38.4977
23.3963,39.5023
23.3872,39.5783
23.3859,39.5892
23.3314,39.7274
23.3314,39.7274
23.3314,39.7274
23.2416,39.8458
23.1664,39.9028
23.1232,39.9356
23.1232,39.9356
23.0541,39.9628
22.9850,39.9901
22.8981,40.0005
22.8981,40.0005
22.0935,40.0005
22.0935,40.0005
22.0066,39.9901
21.8684,39.9356
21.7500,39.8458
21.6602,39.7274
21.6057,39.5892
21.5953,39.5023
21.5953,38.4977
21.6057,38.4108
21.6602,38.2726
21.7500,38.1542
21.8398,38.0861
21.8684,38.0644
21.8758,38.0603
21.8749,38.0587
21.9219,38.0222
21.9451,37.9563
21.9453,37.9497
21.9453,37.0503
21.9256,36.9832
21.8757,36.9400
21.8758,36.9397
21.8746,36.9391
21.8728,36.9375
21.8688,36.9358
21.8684,36.9356
21.8684,36.9356
21.7500,36.8458
21.6602,36.7274
21.6057,36.5892
21.5953,36.5023
21.5953,35.4977
21.6057,35.4108
21.6602,35.2726
21.7500,35.1542
21.8466,35.0810
21.8684,35.0644
21.8684,35.0644
22.0066,35.0099
22.0190,35.0084
22.0935,34.9995
22.8981,34.9995
22.9633,35.0073
22.9850,35.0099
23.1232,35.0644
23.1232,35.0644
23.1450,35.0810
23.2103,35.1058
23.2787,35.0914
23.3284,35.0423
23.3436,34.9741
23.3304,34.9259
23.2603,34.7882
23.2123,34.7374
23.1498,34.7205
16.5703,34.7205
16.5033,34.7402
16.4575,34.7930
16.4463,34.8445
16.4463,62.9255
16.4660,62.9925
16.5188,63.0383
16.5703,63.0495
29.1088,63.0495
29.1759,63.0298
29.2216,62.9770
29.2316,62.9079
29.2025,62.8443
29.1965,62.8378
29.1792,62.8205
29.1353,62.7766
29.0760,62.6739
29.0453,62.5593
29.0453,45.5208
29.0256,45.4538
29.0090,45.4331
28.9905,45.4147
28.9905,45.4147
28.9193,45.3081
28.8703,45.1897
28.8453,45.0641
28.8453,44.9359
28.8453,44.9359
28.8703,44.8103
28.8703,44.8103
28.8703,44.8103
28.9193,44.6919
28.9193,44.6919
28.9193,44.6919
28.9905,44.5853
28.9905,44.5853
29.0811,44.4947
29.0811,44.4947
29.1877,44.4235
29.1877,44.4235
29.3061,44.3745
29.3061,44.3745
29.4317,44.3495
29.4317,44.3495
29.5599,44.3495
29.5599,44.3495
29.6855,44.3745
29.6855,44.3745
29.8039,44.4235
29.8039,44.4235
29.9105,44.4947
29.9105,44.4947
30.0011,44.5853
30.0011,44.5853
30.0723,44.6919
30.0723,44.6919
30.1213,44.8103
30.1213,44.8103
30.1463,44.9359
30.1463,44.9359
30.1463,45.0641
30.1463,45.0641
30.1463,45.0641
30.1213,45.1897
30.1213,45.1897
30.0723,45.3081
30.0723,45.3081
30.0011,45.4147
30.0011,45.4147
29.9826,45.4331
29.9491,45.4944
29.9463,45.5208
29.9463,61.9255
29.9660,61.9925
30.0188,62.0383
30.0703,62.0495
59.4213,62.0495
59.4883,62.0298
59.5341,61.9770
59.5453,61.9255
59.5453,57.4064
59.5256,57.3394
59.4728,57.2936
59.4037,57.2837
59.3887,57.2868
59.3858,57.2876
59.3858,57.2876
59.3607,57.2905
57.2709,57.2905
57.2709,57.2905
57.2709,57.2905
57.2458,57.2876
57.2458,57.2876
57.2458,57.2876
57.1430,57.2422
57.0636,57.1628
57.0182,57.0600
57.0153,57.0349
57.0153,54.9451
57.0153,54.9451
57.0182,54.9200
57.0182,54.9200
57.0182,54.9200
57.0636,54.8172
57.1430,54.7378
57.1430,54.7378
57.2458,54.6924
57.2709,54.6895
59.3607,54.6895
59.3607,54.6895
59.3858,54.6924
59.3887,54.6932
59.3922,54.6932
59.3951,54.6935
59.3951,54.6931
59.4586,54.6918
59.5166,54.6529
59.5444,54.5888
59.5453,54.5736
59.5453,51.8119
59.5256,51.7449
59.4728,51.6991
59.4037,51.6892
59.3401,51.7182
59.3210,51.7390
59.3078,51.7572
59.1630,51.9020
59.0081,52.0146
58.9974,52.0223
58.9047,52.0695
58.8150,52.1152
58.8150,52.1152
58.8150,52.1152
58.7107,52.1491
58.6203,52.1785
58.6011,52.1815
58.4182,52.2105
58.4182,52.2105
58.2134,52.2105
58.2134,52.2105
58.0113,52.1785
57.8166,52.1152
57.6342,52.0223
57.5412,51.9547
57.4686,51.9020
57.4686,51.9020
57.4686,51.9020
57.3238,51.7572
57.3238,51.7572
57.3238,51.7572
57.2711,51.6846
57.2035,51.5916
57.1106,51.4092
57.0473,51.2145
57.0153,51.0124
57.0153,50.8076
57.0473,50.6055
57.1106,50.4108
57.1106,50.4108
57.1106,50.4108
57.1443,50.3446
57.2035,50.2284
57.2112,50.2177
57.3238,50.0628
57.4686,49.9180
57.6342,49.7977
57.6408,49.7943
57.7269,49.7505
57.7777,49.7025
57.7945,49.6347
57.7719,49.5686
57.7269,49.5295
57.6342,49.4823
57.6130,49.4669
57.4686,49.3620
57.4686,49.3620
57.4686,49.3620
57.3238,49.2172
57.3238,49.2172
57.3238,49.2172
57.2711,49.1446
57.2035,49.0516
57.1106,48.8692
57.0473,48.6745
57.0153,48.4724
57.0153,48.2676
57.0473,48.0655
57.1106,47.8708
57.1106,47.8708
57.1106,47.8708
57.1443,47.8046
57.2035,47.6884
57.2112,47.6777
57.3238,47.5228
57.4686,47.3780
57.6342,47.2577
57.6408,47.2543
57.7269,47.2105
57.7777,47.1625
57.7945,47.0947
57.7719,47.0286
57.7269,46.9895
57.6342,46.9423
57.6130,46.9269
57.4686,46.8220
57.4686,46.8220
57.4686,46.8220
57.3238,46.6772
57.3238,46.6772
57.3238,46.6772
57.2711,46.6046
57.2035,46.5116
57.1106,46.3292
57.0473,46.1345
57.0153,45.9324
57.0153,45.7276
57.0473,45.5255
57.0488,45.5208
57.0773,45.4331
57.1106,45.3308
57.1106,45.3308
57.1106,45.3308
57.1443,45.2646
57.2035,45.1484
57.2112,45.1377
57.3238,44.9828
57.4686,44.8380
57.6342,44.7177
57.6849,44.6919
57.7269,44.6705
57.7777,44.6225
57.7945,44.5547
57.7719,44.4886
57.7269,44.4495
57.6342,44.4023
57.5615,44.3495
57.4686,44.2820
57.4686,44.2820
57.4686,44.2820
57.3238,44.1372
57.3238,44.1372
57.3238,44.1372
57.2711,44.0646
57.2035,43.9716
57.1106,43.7892
57.0473,43.5945
57.0153,43.3924
57.0153,43.1876
57.0473,42.9855
57.1106,42.7908
57.1106,42.7908
57.1106,42.7908
57.1749,42.6645
57.2035,42.6084
57.2112,42.5977
57.3238,42.4428
57.4686,42.2980
57.6342,42.1777
57.6408,42.1743
57.7269,42.1305
57.7777,42.0825
57.7945,42.0147
57.7719,41.9486
57.7269,41.9095
57.6342,41.8623
57.6130,41.8469
57.4686,41.7420
57.4686,41.7420
57.4686,41.7420
57.3238,41.5972
57.3238,41.5972
57.3238,41.5972
57.2711,41.5246
57.2035,41.4316
57.1106,41.2492
57.0473,41.0545
57.0153,40.8524
57.0153,40.6476
57.0473,40.4455
57.1106,40.2508
57.1106,40.2508
57.1106,40.2508
57.1443,40.1846
57.2035,40.0684
57.2112,40.0577
57.3238,39.9028
57.4686,39.7580
57.6342,39.6377
57.6408,39.6343
57.7269,39.5905
57.7777,39.5425
57.7945,39.4747
57.7719,39.4086
57.7269,39.3695
57.6342,39.3223
57.6130,39.3069
57.4686,39.2020
57.4686,39.2020
57.4686,39.2020
57.3238,39.0572
57.3238,39.0572
57.3238,39.0572
57.2711,38.9846
57.2035,38.8916
57.1106,38.7092
57.0473,38.5145
57.0153,38.3124
57.0153,38.1076
57.0221,38.0644
57.0473,37.9055
57.0947,37.7595
57.1106,37.7108
57.1106,37.7108
57.1106,37.7108
57.1443,37.6446
57.2035,37.5284
57.2302,37.4916
57.3238,37.3628
57.4686,37.2180
57.6342,37.0977
57.6408,37.0943
57.7269,37.0505
57.7777,37.0025
57.7945,36.9347
57.7719,36.8686
57.7269,36.8295
57.6342,36.7823
57.5586,36.7274
57.4686,36.6620
57.4686,36.6620
57.4686,36.6620
57.3238,36.5172
57.3238,36.5172
57.3238,36.5172
57.2711,36.4446
57.2035,36.3516
57.1106,36.1692
57.0473,35.9745
57.0153,35.7724
57.0153,35.5676
57.0372,35.4295
57.0473,35.3655
57.0810,35.2620
57.1106,35.1708
57.1106,35.1708
57.1106,35.1708
57.1648,35.0644
57.2035,34.9884
57.2302,34.9516
57.3238,34.8228
57.4686,34.6780
57.6342,34.5577
57.6408,34.5543
57.7269,34.5105
57.7777,34.4625
57.7945,34.3947
57.7719,34.3286
57.7269,34.2895
57.6342,34.2423
57.5315,34.1676
57.4686,34.1220
57.4686,34.1220
57.4686,34.1220
57.3238,33.9772
57.3238,33.9772
57.3238,33.9772
57.2316,33.8502
57.2035,33.8116
57.1106,33.6292
57.0473,33.4345
57.0153,33.2324
57.0153,33.0276
57.0473,32.8255
57.1106,32.6308
57.1106,32.6308
57.1106,32.6308
57.1443,32.5646
57.2035,32.4484
57.2302,32.4116
57.3238,32.2828
57.4686,32.1380
57.6342,32.0177
57.6408,32.0143
57.7269,31.9705
57.7777,31.9225
57.7945,31.8547
57.7719,31.7886
57.7269,31.7495
57.6342,31.7023
57.5315,31.6276
57.4686,31.5820
57.4686,31.5820
57.4686,31.5820
57.3238,31.4372
57.3238,31.4372
57.3238,31.4372
57.2711,31.3646
57.2035,31.2716
57.1106,31.0892
57.0473,30.8945
57.0153,30.6924
57.0153,30.4876
57.0473,30.2855
57.1106,30.0908
57.1106,30.0908
57.1106,30.0908
57.1443,30.0246
57.2035,29.9084
57.2302,29.8716
57.3238,29.7428
57.4686,29.5980
57.6342,29.4777
57.6408,29.4743
57.7269,29.4305
57.7777,29.3825
57.7945,29.3147
57.7719,29.2486
57.7269,29.2095
57.6342,29.1623
57.5315,29.0876
57.4686,29.0420
57.4686,29.0420
57.4686,29.0420
57.3238,28.8972
57.3238,28.8972
57.3238,28.8972
57.2316,28.7702
57.2035,28.7316
57.1106,28.5492
57.0473,28.3545
57.0153,28.1524
57.0153,27.9476
57.0473,27.7455
57.1106,27.5508
57.1106,27.5508
57.1106,27.5508
57.1443,27.4846
57.2035,27.3684
57.2112,27.3577
57.3238,27.2028
57.4686,27.0580
57.6342,26.9377
57.6408,26.9343
57.7269,26.8905
57.7777,26.8425
57.7945,26.7747
57.7719,26.7086
57.7269,26.6695
57.6342,26.6223
57.6130,26.6069
57.4686,26.5020
57.4686,26.5020
57.4686,26.5020
57.3238,26.3572
57.3238,26.3572
57.3238,26.3572
57.2711,26.2846
57.2035,26.1916
57.1106,26.0092
57.0473,25.8145
57.0153,25.6124
57.0153,25.4076
57.0473,25.2055
57.1106,25.0108
57.1106,25.0108
57.1106,25.0108
57.1443,24.9446
57.2035,24.8284
57.2112,24.8177
57.3238,24.6628
57.4686,24.5180
57.6342,24.3977
57.6408,24.3943
57.7269,24.3505
57.7777,24.3025
57.7945,24.2347
57.7719,24.1686
57.7269,24.1295
57.6342,24.0823
57.6130,24.0669
57.4686,23.9620
57.4686,23.9620
57.4686,23.9620
57.3238,23.8172
57.3238,23.8172
57.3238,23.8172
57.2711,23.7446
57.2035,23.6516
57.1106,23.4692
57.0473,23.2745
57.0153,23.0724
57.0153,22.8676
57.0473,22.6655
57.1106,22.4708
57.1106,22.4708
57.1106,22.4708
57.1443,22.4046
57.2035,22.2884
57.2112,22.2777
57.3238,22.1228
57.4686,21.9780
57.6342,21.8577
57.6408,21.8543
57.7269,21.8105
57.7777,21.7625
57.7945,21.6947
57.7719,21.6286
57.7269,21.5895
57.6342,21.5423
57.6130,21.5269
57.4686,21.4220
57.4686,21.4220
57.4686,21.4220
57.3238,21.2772
57.3238,21.2772
57.3238,21.2772
57.2711,21.2046
57.2035,21.1116
57.1106,20.9292
57.0473,20.7345
57.0153,20.5324
57.0153,20.3276
57.0473,20.1255
57.1106,19.9308
57.1106,19.9308
57.1106,19.9308
57.1443,19.8646
57.2035,19.7484
57.2112,19.7377
57.3238,19.5828
57.4686,19.4380
57.6342,19.3177
57.6342,19.3177
57.6342,19.3177
57.6911,19.2887
57.8166,19.2248
58.0113,19.1615
58.1858,19.1339
58.2134,19.1295
58.4182,19.1295
58.4425,19.1334
58.6203,19.1615
58.8150,19.2248
58.9974,19.3177
59.1630,19.4380
59.3078,19.5828
59.4281,19.7484
59.5210,19.9308
59.5843,20.1255
59.6163,20.3276
59.6163,20.5324
59.5843,20.7345
59.5210,20.9292
59.4281,21.1116
59.3078,21.2772
59.1630,21.4220
59.0081,21.5346
58.9974,21.5423
58.9060,21.5889
58.9047,21.5895
58.8539,21.6375
58.8371,21.7053
58.8597,21.7714
58.9047,21.8105
58.9974,21.8577
59.1630,21.9780
59.3078,22.1228
59.4281,22.2884
59.5210,22.4708
59.5843,22.6655
59.6163,22.8676
59.6163,23.0724
59.5843,23.2745
59.5210,23.4692
59.4281,23.6516
59.3078,23.8172
59.1630,23.9620
59.0081,24.0746
58.9974,24.0823
58.9060,24.1289
58.9047,24.1295
58.8539,24.1775
58.8371,24.2453
58.8597,24.3114
58.9047,24.3505
58.9974,24.3977
59.1630,24.5180
59.3078,24.6628
59.4281,24.8284
59.5210,25.0108
59.5843,25.2055
59.6163,25.4076
59.6163,25.6124
59.5843,25.8145
59.5210,26.0092
59.4281,26.1916
59.3078,26.3572
59.1630,26.5020
59.0081,26.6146
58.9974,26.6223
58.9060,26.6689
58.9047,26.6695
58.8539,26.7175
58.8371,26.7853
58.8597,26.8514
58.9047,26.8905
58.9974,26.9377
59.1630,27.0580
59.3078,27.2028
59.4281,27.3684
59.5210,27.5508
59.5843,27.7455
59.6163,27.9476
59.6163,28.1524
59.5843,28.3545
59.5210,28.5492
59.4687,28.6519
59.4341,28.7198
59.4281,28.7316
59.3078,28.8972
59.1630,29.0420
59.0409,29.1307
58.9974,29.1623
58.9060,29.2089
58.9047,29.2095
58.8539,29.2575
58.8371,29.3253
58.8597,29.3914
58.9047,29.4305
58.9974,29.4777
59.1630,29.5980
59.3078,29.7428
59.4281,29.9084
59.5210,30.0908
59.5843,30.2855
59.6163,30.4876
59.6163,30.6924
59.5843,30.8945
59.5210,31.0892
59.4281,31.2716
59.3078,31.4372
59.1630,31.5820
59.0081,31.6946
58.9974,31.7023
58.9060,31.7489
58.9047,31.7495
58.8539,31.7975
58.8371,31.8653
58.8597,31.9314
58.9047,31.9705
58.9974,32.0177
59.1630,32.1380
59.3078,32.2828
59.4281,32.4484
59.5210,32.6308
59.5843,32.8255
59.6163,33.0276
59.6163,33.2324
59.5843,33.4345
59.5210,33.6292
59.4687,33.7319
59.4341,33.7998
59.4281,33.8116
59.3078,33.9772
59.1630,34.1220
59.0409,34.2107
58.9974,34.2423
58.9060,34.2889
58.9047,34.2895
58.8539,34.3375
58.8371,34.4053
58.8597,34.4714
58.9047,34.5105
58.9974,34.5577
59.1630,34.6780
59.3078,34.8228
59.4281,34.9884
59.5210,35.1708
59.5843,35.3655
59.6163,35.5676
59.6163,35.7724
59.5843,35.9745
59.5210,36.1692
59.4281,36.3516
59.3078,36.5172
59.1630,36.6620
59.0081,36.7746
58.9974,36.7823
58.9060,36.8289
58.9047,36.8295
58.8539,36.8775
58.8371,36.9453
58.8597,37.0114
58.9047,37.0505
58.9974,37.0977
59.1630,37.2180
59.3078,37.3628
59.4281,37.5284
59.5113,37.6918
59.5593,37.7426
59.6218,37.7595
61.9365,37.7595
62.0551,37.7595
62.1697,37.7902
62.1697,37.7902
62.1697,37.7902
62.2724,37.8495
62.2724,37.8495
62.3563,37.9334
62.3563,37.9334
62.4156,38.0361
62.4463,38.1507
62.4463,38.1507
62.4463,62.0572
62.4660,62.1242
62.5188,62.1700
62.5879,62.1799
62.6515,62.1509
62.6893,62.0921
62.6901,62.0893
62.7397,61.9039
62.8326,61.6798
62.9539,61.4697
63.1015,61.2773
63.1015,61.2773
63.2731,61.1057
63.2731,61.1057
63.4655,60.9581
63.4655,60.9581
63.4655,60.9581
63.6756,60.8368
63.6756,60.8368
63.8997,60.7439
64.1340,60.6812
64.3745,60.6495
64.3745,60.6495
64.6171,60.6495
64.6171,60.6495
64.8576,60.6812
65.0919,60.7439
65.3160,60.8368
65.3160,60.8368
65.5261,60.9581
65.7185,61.1057
65.7185,61.1057
65.8901,61.2773
65.8901,61.2773
66.0377,61.4697
66.1590,61.6798
66.1590,61.6798
66.2519,61.9039
66.3146,62.1382
66.3463,62.3787
67.4953,62.3787
67.4953,3.3787
66.3463,3.3787
66.3463,3.6213
66.3146,3.8618
66.2519,4.0961
66.1590,4.3202
66.1590,4.3202
66.0377,4.5303
66.0377,4.5303
66.0377,4.5303
65.8901,4.7227
65.8901,4.7227
65.7185,4.8943
65.7185,4.8943
65.5261,5.0419
65.3160,5.1632
65.0919,5.2561
64.8576,5.3188
64.6772,5.3426
64.6171,5.3505
64.6171,5.3505
64.3745,5.3505
64.3264,5.3442
64.1340,5.3188
63.8997,5.2561
63.6756,5.1632
63.4655,5.0419
63.2731,4.8943
63.1015,4.7227
62.9539,4.5303
62.8326,4.3202
62.7397,4.0961
62.6770,3.8618
62.6453,3.6213
62.6453,3.3787
62.6770,3.1382
62.7397,2.9039
62.8326,2.6798
62.9539,2.4697
63.1015,2.2773
63.1015,2.2773
63.2731,2.1057
63.2731,2.1057
63.4655,1.9581
63.4655,1.9581
63.4655,1.9581
63.6756,1.8368
63.6756,1.8368
63.8997,1.7439
64.1340,1.6812
64.3745,1.6495
64.3745,1.6495
64.6171,1.6495
64.6171,1.6495
64.8576,1.6812
65.0919,1.7439
65.3160,1.8368
65.3160,1.8368
65.5261,1.9581
65.7185,2.1057
65.7185,2.1057
65.8901,2.2773
65.8901,2.2773
66.0377,2.4697
66.1590,2.6798
66.1590,2.6798
66.2519,2.9039
66.3146,3.1382
66.3463,3.3787
67.4953,3.3787
67.4953,0.8098
67.4938,0.7904
67.4915,0.7761
67.4837,0.7268
67.4717,0.6900
67.4470,0.6415
67.4242,0.6101
67.3857,0.5716
67.3543,0.5488
67.3058,0.5241
67.2690,0.5121
67.2054,0.5020
67.1860,0.5005
67.1299,0.5005
61.1198,0.5005
Z" />
<path style="fill:#02FFEE; fill-opacity:0.4000; stroke:none;fill-rule:evenodd;"
d="M 59.3158,56.9900
59.3158,54.9900
57.3158,54.9900
57.3158,56.9900
Z" />
</g>
<g style="fill:#02FFEE; fill-opacity:0.4000; stroke:none;">
<circle cx="58.3158" cy="53.4500" r="1.0000" />
<circle cx="58.3158" cy="50.9100" r="1.0000" />
<circle cx="58.3158" cy="48.3700" r="1.0000" />
<circle cx="58.3158" cy="45.8300" r="1.0000" />
<circle cx="58.3158" cy="43.2900" r="1.0000" />
<circle cx="58.3158" cy="40.7500" r="1.0000" />
<circle cx="58.3158" cy="38.2100" r="1.0000" />
<circle cx="58.3158" cy="35.6700" r="1.0000" />
<circle cx="58.3158" cy="33.1300" r="1.0000" />
<circle cx="58.3158" cy="30.5900" r="1.0000" />
<circle cx="58.3158" cy="28.0500" r="1.0000" />
<circle cx="58.3158" cy="25.5100" r="1.0000" />
<circle cx="58.3158" cy="22.9700" r="1.0000" />
<circle cx="58.3158" cy="20.4300" r="1.0000" />
<path style="fill:#02FFEE; fill-opacity:0.4000; stroke:none;fill-rule:evenodd;"
d="M 33.9158,56.9900
33.9158,54.9900
31.9158,54.9900
31.9158,56.9900
Z" />
<circle cx="32.9158" cy="53.4500" r="1.0000" />
<circle cx="32.9158" cy="50.9100" r="1.0000" />
<circle cx="32.9158" cy="48.3700" r="1.0000" />
<circle cx="32.9158" cy="45.8300" r="1.0000" />
<circle cx="32.9158" cy="43.2900" r="1.0000" />
<circle cx="32.9158" cy="40.7500" r="1.0000" />
<circle cx="32.9158" cy="38.2100" r="1.0000" />
<circle cx="32.9158" cy="35.6700" r="1.0000" />
<circle cx="32.9158" cy="33.1300" r="1.0000" />
<circle cx="32.9158" cy="30.5900" r="1.0000" />
<circle cx="32.9158" cy="28.0500" r="1.0000" />
<circle cx="32.9158" cy="25.5100" r="1.0000" />
<circle cx="32.9158" cy="22.9700" r="1.0000" />
<circle cx="32.9158" cy="20.4300" r="1.0000" />
<path style="fill:#02FFEE; fill-opacity:0.4000; stroke:none;fill-rule:evenodd;"
d="M 27.9958,37.8100
27.9958,35.8100
25.9958,35.8100
25.9958,37.8100
Z" />
<circle cx="24.4558" cy="36.8100" r="1.0000" />
<circle cx="26.9958" cy="34.2700" r="1.0000" />
<circle cx="24.4558" cy="34.2700" r="1.0000" />
<circle cx="26.9958" cy="31.7300" r="1.0000" />
<circle cx="24.4558" cy="31.7300" r="1.0000" />
<circle cx="26.9958" cy="29.1900" r="1.0000" />
<circle cx="24.4558" cy="29.1900" r="1.0000" />
<circle cx="64.4958" cy="62.5000" r="1.6000" />
<circle cx="64.4958" cy="3.5000" r="1.6000" />
<circle cx="3.4958" cy="3.5000" r="1.6000" />
<circle cx="3.4958" cy="62.5000" r="1.6000" />
<path style="fill:#02FFEE; fill-opacity:0.4000; stroke:none;fill-rule:evenodd;"
d="M 23.0958,35.5400
23.0775,35.4482
23.0255,35.3703
22.9476,35.3183
22.8558,35.3000
22.1358,35.3000
22.0440,35.3183
21.9661,35.3703
21.9141,35.4482
21.8958,35.5400
21.8958,36.4600
21.9141,36.5518
21.9661,36.6297
22.0440,36.6817
22.1358,36.7000
22.8558,36.7000
22.9476,36.6817
23.0255,36.6297
23.0775,36.5518
23.0958,36.4600
Z" />
<path style="fill:#02FFEE; fill-opacity:0.4000; stroke:none;fill-rule:evenodd;"
d="M 21.0958,35.5400
21.0775,35.4482
21.0255,35.3703
20.9476,35.3183
20.8558,35.3000
20.1358,35.3000
20.0440,35.3183
19.9661,35.3703
19.9141,35.4482
19.8958,35.5400
19.8958,36.4600
19.9141,36.5518
19.9661,36.6297
20.0440,36.6817
20.1358,36.7000
20.8558,36.7000
20.9476,36.6817
21.0255,36.6297
21.0775,36.5518
21.0958,36.4600
Z" />
<path style="fill:#02FFEE; fill-opacity:0.4000; stroke:none;fill-rule:evenodd;"
d="M 23.0958,38.5400
23.0775,38.4482
23.0255,38.3703
22.9476,38.3183
22.8558,38.3000
22.1358,38.3000
22.0440,38.3183
21.9661,38.3703
21.9141,38.4482
21.8958,38.5400
21.8958,39.4600
21.9141,39.5518
21.9661,39.6297
22.0440,39.6817
22.1358,39.7000
22.8558,39.7000
22.9476,39.6817
23.0255,39.6297
23.0775,39.5518
23.0958,39.4600
Z" />
<path style="fill:#02FFEE; fill-opacity:0.4000; stroke:none;fill-rule:evenodd;"
d="M 21.0958,38.5400
21.0775,38.4482
21.0255,38.3703
20.9476,38.3183
20.8558,38.3000
20.1358,38.3000
20.0440,38.3183
19.9661,38.3703
19.9141,38.4482
19.8958,38.5400
19.8958,39.4600
19.9141,39.5518
19.9661,39.6297
20.0440,39.6817
20.1358,39.7000
20.8558,39.7000
20.9476,39.6817
21.0255,39.6297
21.0775,39.5518
21.0958,39.4600
Z" />
</g>
<g style="fill:none;
stroke:#E8B2A7; stroke-width:0.1500; stroke-opacity:1;
stroke-linecap:round; stroke-linejoin:round;">
<text x="33.9958" y="60.9000"
textLength="10.5757" font-size="1.0667" lengthAdjust="spacingAndGlyphs"
text-anchor="middle" opacity="0" stroke-opacity="0">NODE: __________</text>
<g class="stroked-text"><desc>NODE: __________</desc>
<path d="M29.0434 60.8623
L29.0434 60.0623
" />
<path d="M29.0434 60.0623
L29.5006 60.8623
" />
<path d="M29.5006 60.8623
L29.5006 60.0623
" />
<path d="M30.0339 60.0623
L30.1863 60.0623
" />
<path d="M30.1863 60.0623
L30.2625 60.1004
" />
<path d="M30.2625 60.1004
L30.3387 60.1766
" />
<path d="M30.3387 60.1766
L30.3768 60.3290
" />
<path d="M30.3768 60.3290
L30.3768 60.5956
" />
<path d="M30.3768 60.5956
L30.3387 60.7480
" />
<path d="M30.3387 60.7480
L30.2625 60.8242
" />
<path d="M30.2625 60.8242
L30.1863 60.8623
" />
<path d="M30.1863 60.8623
L30.0339 60.8623
" />
<path d="M30.0339 60.8623
L29.9577 60.8242
" />
<path d="M29.9577 60.8242
L29.8815 60.7480
" />
<path d="M29.8815 60.7480
L29.8434 60.5956
" />
<path d="M29.8434 60.5956
L29.8434 60.3290
" />
<path d="M29.8434 60.3290
L29.8815 60.1766
" />
<path d="M29.8815 60.1766
L29.9577 60.1004
" />
<path d="M29.9577 60.1004
L30.0339 60.0623
" />
<path d="M30.7196 60.8623
L30.7196 60.0623
" />
<path d="M30.7196 60.0623
L30.9101 60.0623
" />
<path d="M30.9101 60.0623
L31.0244 60.1004
" />
<path d="M31.0244 60.1004
L31.1006 60.1766
" />
<path d="M31.1006 60.1766
L31.1387 60.2528
" />
<path d="M31.1387 60.2528
L31.1768 60.4052
" />
<path d="M31.1768 60.4052
L31.1768 60.5194
" />
<path d="M31.1768 60.5194
L31.1387 60.6718
" />
<path d="M31.1387 60.6718
L31.1006 60.7480
" />
<path d="M31.1006 60.7480
L31.0244 60.8242
" />
<path d="M31.0244 60.8242
L30.9101 60.8623
" />
<path d="M30.9101 60.8623
L30.7196 60.8623
" />
<path d="M31.5196 60.4432
L31.7863 60.4432
" />
<path d="M31.9006 60.8623
L31.5196 60.8623
" />
<path d="M31.5196 60.8623
L31.5196 60.0623
" />
<path d="M31.5196 60.0623
L31.9006 60.0623
" />
<path d="M32.2434 60.7861
L32.2815 60.8242
" />
<path d="M32.2815 60.8242
L32.2434 60.8623
" />
<path d="M32.2434 60.8623
L32.2053 60.8242
" />
<path d="M32.2053 60.8242
L32.2434 60.7861
" />
<path d="M32.2434 60.7861
L32.2434 60.8623
" />
<path d="M32.2434 60.3671
L32.2815 60.4052
" />
<path d="M32.2815 60.4052
L32.2434 60.4432
" />
<path d="M32.2434 60.4432
L32.2053 60.4052
" />
<path d="M32.2053 60.4052
L32.2434 60.3671
" />
<path d="M32.2434 60.3671
L32.2434 60.4432
" />
<path d="M33.0434 60.9385
L33.6529 60.9385
" />
<path d="M33.6529 60.9385
L34.2625 60.9385
" />
<path d="M34.2625 60.9385
L34.8720 60.9385
" />
<path d="M34.8720 60.9385
L35.4815 60.9385
" />
<path d="M35.4815 60.9385
L36.0910 60.9385
" />
<path d="M36.0910 60.9385
L36.7006 60.9385
" />
<path d="M36.7006 60.9385
L37.3101 60.9385
" />
<path d="M37.3101 60.9385
L37.9196 60.9385
" />
<path d="M37.9196 60.9385
L38.5291 60.9385
" />
<path d="M38.5291 60.9385
L39.1387 60.9385
" />
</g><text x="33.9958" y="63.4000"
textLength="23.0710" font-size="1.0667" lengthAdjust="spacingAndGlyphs"
text-anchor="middle" opacity="0" stroke-opacity="0">github.com/fholgado/rainpoint-local</text>
<g class="stroked-text"><desc>github.com/fholgado/rainpoint-local</desc>
<path d="M23.1387 62.8290
L23.1387 63.4766
" />
<path d="M23.1387 63.4766
L23.1006 63.5528
" />
<path d="M23.1006 63.5528
L23.0625 63.5909
" />
<path d="M23.0625 63.5909
L22.9863 63.6290
" />
<path d="M22.9863 63.6290
L22.8720 63.6290
" />
<path d="M22.8720 63.6290
L22.7958 63.5909
" />
<path d="M23.1387 63.3242
L23.0625 63.3623
" />
<path d="M23.0625 63.3623
L22.9101 63.3623
" />
<path d="M22.9101 63.3623
L22.8339 63.3242
" />
<path d="M22.8339 63.3242
L22.7958 63.2861
" />
<path d="M22.7958 63.2861
L22.7577 63.2099
" />
<path d="M22.7577 63.2099
L22.7577 62.9813
" />
<path d="M22.7577 62.9813
L22.7958 62.9052
" />
<path d="M22.7958 62.9052
L22.8339 62.8671
" />
<path d="M22.8339 62.8671
L22.9101 62.8290
" />
<path d="M22.9101 62.8290
L23.0625 62.8290
" />
<path d="M23.0625 62.8290
L23.1387 62.8671
" />
<path d="M23.5196 63.3623
L23.5196 62.8290
" />
<path d="M23.5196 62.5623
L23.4815 62.6004
" />
<path d="M23.4815 62.6004
L23.5196 62.6385
" />
<path d="M23.5196 62.6385
L23.5577 62.6004
" />
<path d="M23.5577 62.6004
L23.5196 62.5623
" />
<path d="M23.5196 62.5623
L23.5196 62.6385
" />
<path d="M23.7863 62.8290
L24.0910 62.8290
" />
<path d="M23.9006 62.5623
L23.9006 63.2480
" />
<path d="M23.9006 63.2480
L23.9387 63.3242
" />
<path d="M23.9387 63.3242
L24.0148 63.3623
" />
<path d="M24.0148 63.3623
L24.0910 63.3623
" />
<path d="M24.3577 63.3623
L24.3577 62.5623
" />
<path d="M24.7006 63.3623
L24.7006 62.9432
" />
<path d="M24.7006 62.9432
L24.6625 62.8671
" />
<path d="M24.6625 62.8671
L24.5863 62.8290
" />
<path d="M24.5863 62.8290
L24.4720 62.8290
" />
<path d="M24.4720 62.8290
L24.3958 62.8671
" />
<path d="M24.3958 62.8671
L24.3577 62.9052
" />
<path d="M25.4244 62.8290
L25.4244 63.3623
" />
<path d="M25.0815 62.8290
L25.0815 63.2480
" />
<path d="M25.0815 63.2480
L25.1196 63.3242
" />
<path d="M25.1196 63.3242
L25.1958 63.3623
" />
<path d="M25.1958 63.3623
L25.3101 63.3623
" />
<path d="M25.3101 63.3623
L25.3863 63.3242
" />
<path d="M25.3863 63.3242
L25.4244 63.2861
" />
<path d="M25.8053 63.3623
L25.8053 62.5623
" />
<path d="M25.8053 62.8671
L25.8815 62.8290
" />
<path d="M25.8815 62.8290
L26.0339 62.8290
" />
<path d="M26.0339 62.8290
L26.1101 62.8671
" />
<path d="M26.1101 62.8671
L26.1482 62.9052
" />
<path d="M26.1482 62.9052
L26.1863 62.9813
" />
<path d="M26.1863 62.9813
L26.1863 63.2099
" />
<path d="M26.1863 63.2099
L26.1482 63.2861
" />
<path d="M26.1482 63.2861
L26.1101 63.3242
" />
<path d="M26.1101 63.3242
L26.0339 63.3623
" />
<path d="M26.0339 63.3623
L25.8815 63.3623
" />
<path d="M25.8815 63.3623
L25.8053 63.3242
" />
<path d="M26.5291 63.2861
L26.5672 63.3242
" />
<path d="M26.5672 63.3242
L26.5291 63.3623
" />
<path d="M26.5291 63.3623
L26.4910 63.3242
" />
<path d="M26.4910 63.3242
L26.5291 63.2861
" />
<path d="M26.5291 63.2861
L26.5291 63.3623
" />
<path d="M27.2529 63.3242
L27.1767 63.3623
" />
<path d="M27.1767 63.3623
L27.0244 63.3623
" />
<path d="M27.0244 63.3623
L26.9482 63.3242
" />
<path d="M26.9482 63.3242
L26.9101 63.2861
" />
<path d="M26.9101 63.2861
L26.8720 63.2099
" />
<path d="M26.8720 63.2099
L26.8720 62.9813
" />
<path d="M26.8720 62.9813
L26.9101 62.9052
" />
<path d="M26.9101 62.9052
L26.9482 62.8671
" />
<path d="M26.9482 62.8671
L27.0244 62.8290
" />
<path d="M27.0244 62.8290
L27.1767 62.8290
" />
<path d="M27.1767 62.8290
L27.2529 62.8671
" />
<path d="M27.7101 63.3623
L27.6339 63.3242
" />
<path d="M27.6339 63.3242
L27.5958 63.2861
" />
<path d="M27.5958 63.2861
L27.5577 63.2099
" />
<path d="M27.5577 63.2099
L27.5577 62.9813
" />
<path d="M27.5577 62.9813
L27.5958 62.9052
" />
<path d="M27.5958 62.9052
L27.6339 62.8671
" />
<path d="M27.6339 62.8671
L27.7101 62.8290
" />
<path d="M27.7101 62.8290
L27.8244 62.8290
" />
<path d="M27.8244 62.8290
L27.9006 62.8671
" />
<path d="M27.9006 62.8671
L27.9387 62.9052
" />
<path d="M27.9387 62.9052
L27.9767 62.9813
" />
<path d="M27.9767 62.9813
L27.9767 63.2099
" />
<path d="M27.9767 63.2099
L27.9387 63.2861
" />
<path d="M27.9387 63.2861
L27.9006 63.3242
" />
<path d="M27.9006 63.3242
L27.8244 63.3623
" />
<path d="M27.8244 63.3623
L27.7101 63.3623
" />
<path d="M28.3196 63.3623
L28.3196 62.8290
" />
<path d="M28.3196 62.9052
L28.3577 62.8671
" />
<path d="M28.3577 62.8671
L28.4339 62.8290
" />
<path d="M28.4339 62.8290
L28.5482 62.8290
" />
<path d="M28.5482 62.8290
L28.6244 62.8671
" />
<path d="M28.6244 62.8671
L28.6625 62.9432
" />
<path d="M28.6625 62.9432
L28.6625 63.3623
" />
<path d="M28.6625 62.9432
L28.7006 62.8671
" />
<path d="M28.7006 62.8671
L28.7768 62.8290
" />
<path d="M28.7768 62.8290
L28.8910 62.8290
" />
<path d="M28.8910 62.8290
L28.9672 62.8671
" />
<path d="M28.9672 62.8671
L29.0053 62.9432
" />
<path d="M29.0053 62.9432
L29.0053 63.3623
" />
<path d="M29.9577 62.5242
L29.2720 63.5528
" />
<path d="M30.1101 62.8290
L30.4148 62.8290
" />
<path d="M30.2244 63.3623
L30.2244 62.6766
" />
<path d="M30.2244 62.6766
L30.2625 62.6004
" />
<path d="M30.2625 62.6004
L30.3387 62.5623
" />
<path d="M30.3387 62.5623
L30.4148 62.5623
" />
<path d="M30.6815 63.3623
L30.6815 62.5623
" />
<path d="M31.0244 63.3623
L31.0244 62.9432
" />
<path d="M31.0244 62.9432
L30.9863 62.8671
" />
<path d="M30.9863 62.8671
L30.9101 62.8290
" />
<path d="M30.9101 62.8290
L30.7958 62.8290
" />
<path d="M30.7958 62.8290
L30.7196 62.8671
" />
<path d="M30.7196 62.8671
L30.6815 62.9052
" />
<path d="M31.5196 63.3623
L31.4434 63.3242
" />
<path d="M31.4434 63.3242
L31.4053 63.2861
" />
<path d="M31.4053 63.2861
L31.3672 63.2099
" />
<path d="M31.3672 63.2099
L31.3672 62.9813
" />
<path d="M31.3672 62.9813
L31.4053 62.9052
" />
<path d="M31.4053 62.9052
L31.4434 62.8671
" />
<path d="M31.4434 62.8671
L31.5196 62.8290
" />
<path d="M31.5196 62.8290
L31.6339 62.8290
" />
<path d="M31.6339 62.8290
L31.7101 62.8671
" />
<path d="M31.7101 62.8671
L31.7482 62.9052
" />
<path d="M31.7482 62.9052
L31.7863 62.9813
" />
<path d="M31.7863 62.9813
L31.7863 63.2099
" />
<path d="M31.7863 63.2099
L31.7482 63.2861
" />
<path d="M31.7482 63.2861
L31.7101 63.3242
" />
<path d="M31.7101 63.3242
L31.6339 63.3623
" />
<path d="M31.6339 63.3623
L31.5196 63.3623
" />
<path d="M32.2434 63.3623
L32.1672 63.3242
" />
<path d="M32.1672 63.3242
L32.1291 63.2480
" />
<path d="M32.1291 63.2480
L32.1291 62.5623
" />
<path d="M32.8910 62.8290
L32.8910 63.4766
" />
<path d="M32.8910 63.4766
L32.8529 63.5528
" />
<path d="M32.8529 63.5528
L32.8148 63.5909
" />
<path d="M32.8148 63.5909
L32.7387 63.6290
" />
<path d="M32.7387 63.6290
L32.6244 63.6290
" />
<path d="M32.6244 63.6290
L32.5482 63.5909
" />
<path d="M32.8910 63.3242
L32.8148 63.3623
" />
<path d="M32.8148 63.3623
L32.6625 63.3623
" />
<path d="M32.6625 63.3623
L32.5863 63.3242
" />
<path d="M32.5863 63.3242
L32.5482 63.2861
" />
<path d="M32.5482 63.2861
L32.5101 63.2099
" />
<path d="M32.5101 63.2099
L32.5101 62.9813
" />
<path d="M32.5101 62.9813
L32.5482 62.9052
" />
<path d="M32.5482 62.9052
L32.5863 62.8671
" />
<path d="M32.5863 62.8671
L32.6625 62.8290
" />
<path d="M32.6625 62.8290
L32.8148 62.8290
" />
<path d="M32.8148 62.8290
L32.8910 62.8671
" />
<path d="M33.6148 63.3623
L33.6148 62.9432
" />
<path d="M33.6148 62.9432
L33.5768 62.8671
" />
<path d="M33.5768 62.8671
L33.5006 62.8290
" />
<path d="M33.5006 62.8290
L33.3482 62.8290
" />
<path d="M33.3482 62.8290
L33.2720 62.8671
" />
<path d="M33.6148 63.3242
L33.5387 63.3623
" />
<path d="M33.5387 63.3623
L33.3482 63.3623
" />
<path d="M33.3482 63.3623
L33.2720 63.3242
" />
<path d="M33.2720 63.3242
L33.2339 63.2480
" />
<path d="M33.2339 63.2480
L33.2339 63.1718
" />
<path d="M33.2339 63.1718
L33.2720 63.0956
" />
<path d="M33.2720 63.0956
L33.3482 63.0575
" />
<path d="M33.3482 63.0575
L33.5387 63.0575
" />
<path d="M33.5387 63.0575
L33.6148 63.0194
" />
<path d="M34.3387 63.3623
L34.3387 62.5623
" />
<path d="M34.3387 63.3242
L34.2625 63.3623
" />
<path d="M34.2625 63.3623
L34.1101 63.3623
" />
<path d="M34.1101 63.3623
L34.0339 63.3242
" />
<path d="M34.0339 63.3242
L33.9958 63.2861
" />
<path d="M33.9958 63.2861
L33.9577 63.2099
" />
<path d="M33.9577 63.2099
L33.9577 62.9813
" />
<path d="M33.9577 62.9813
L33.9958 62.9052
" />
<path d="M33.9958 62.9052
L34.0339 62.8671
" />
<path d="M34.0339 62.8671
L34.1101 62.8290
" />
<path d="M34.1101 62.8290
L34.2625 62.8290
" />
<path d="M34.2625 62.8290
L34.3387 62.8671
" />
<path d="M34.8339 63.3623
L34.7577 63.3242
" />
<path d="M34.7577 63.3242
L34.7196 63.2861
" />
<path d="M34.7196 63.2861
L34.6815 63.2099
" />
<path d="M34.6815 63.2099
L34.6815 62.9813
" />
<path d="M34.6815 62.9813
L34.7196 62.9052
" />
<path d="M34.7196 62.9052
L34.7577 62.8671
" />
<path d="M34.7577 62.8671
L34.8339 62.8290
" />
<path d="M34.8339 62.8290
L34.9482 62.8290
" />
<path d="M34.9482 62.8290
L35.0244 62.8671
" />
<path d="M35.0244 62.8671
L35.0625 62.9052
" />
<path d="M35.0625 62.9052
L35.1006 62.9813
" />
<path d="M35.1006 62.9813
L35.1006 63.2099
" />
<path d="M35.1006 63.2099
L35.0625 63.2861
" />
<path d="M35.0625 63.2861
L35.0244 63.3242
" />
<path d="M35.0244 63.3242
L34.9482 63.3623
" />
<path d="M34.9482 63.3623
L34.8339 63.3623
" />
<path d="M36.0148 62.5242
L35.3291 63.5528
" />
<path d="M36.2815 63.3623
L36.2815 62.8290
" />
<path d="M36.2815 62.9813
L36.3196 62.9052
" />
<path d="M36.3196 62.9052
L36.3577 62.8671
" />
<path d="M36.3577 62.8671
L36.4339 62.8290
" />
<path d="M36.4339 62.8290
L36.5101 62.8290
" />
<path d="M37.1196 63.3623
L37.1196 62.9432
" />
<path d="M37.1196 62.9432
L37.0815 62.8671
" />
<path d="M37.0815 62.8671
L37.0053 62.8290
" />
<path d="M37.0053 62.8290
L36.8529 62.8290
" />
<path d="M36.8529 62.8290
L36.7768 62.8671
" />
<path d="M37.1196 63.3242
L37.0434 63.3623
" />
<path d="M37.0434 63.3623
L36.8529 63.3623
" />
<path d="M36.8529 63.3623
L36.7768 63.3242
" />
<path d="M36.7768 63.3242
L36.7387 63.2480
" />
<path d="M36.7387 63.2480
L36.7387 63.1718
" />
<path d="M36.7387 63.1718
L36.7768 63.0956
" />
<path d="M36.7768 63.0956
L36.8529 63.0575
" />
<path d="M36.8529 63.0575
L37.0434 63.0575
" />
<path d="M37.0434 63.0575
L37.1196 63.0194
" />
<path d="M37.5006 63.3623
L37.5006 62.8290
" />
<path d="M37.5006 62.5623
L37.4625 62.6004
" />
<path d="M37.4625 62.6004
L37.5006 62.6385
" />
<path d="M37.5006 62.6385
L37.5387 62.6004
" />
<path d="M37.5387 62.6004
L37.5006 62.5623
" />
<path d="M37.5006 62.5623
L37.5006 62.6385
" />
<path d="M37.8815 62.8290
L37.8815 63.3623
" />
<path d="M37.8815 62.9052
L37.9196 62.8671
" />
<path d="M37.9196 62.8671
L37.9958 62.8290
" />
<path d="M37.9958 62.8290
L38.1101 62.8290
" />
<path d="M38.1101 62.8290
L38.1863 62.8671
" />
<path d="M38.1863 62.8671
L38.2244 62.9432
" />
<path d="M38.2244 62.9432
L38.2244 63.3623
" />
<path d="M38.6053 62.8290
L38.6053 63.6290
" />
<path d="M38.6053 62.8671
L38.6815 62.8290
" />
<path d="M38.6815 62.8290
L38.8339 62.8290
" />
<path d="M38.8339 62.8290
L38.9101 62.8671
" />
<path d="M38.9101 62.8671
L38.9482 62.9052
" />
<path d="M38.9482 62.9052
L38.9863 62.9813
" />
<path d="M38.9863 62.9813
L38.9863 63.2099
" />
<path d="M38.9863 63.2099
L38.9482 63.2861
" />
<path d="M38.9482 63.2861
L38.9101 63.3242
" />
<path d="M38.9101 63.3242
L38.8339 63.3623
" />
<path d="M38.8339 63.3623
L38.6815 63.3623
" />
<path d="M38.6815 63.3623
L38.6053 63.3242
" />
<path d="M39.4434 63.3623
L39.3672 63.3242
" />
<path d="M39.3672 63.3242
L39.3291 63.2861
" />
<path d="M39.3291 63.2861
L39.2910 63.2099
" />
<path d="M39.2910 63.2099
L39.2910 62.9813
" />
<path d="M39.2910 62.9813
L39.3291 62.9052
" />
<path d="M39.3291 62.9052
L39.3672 62.8671
" />
<path d="M39.3672 62.8671
L39.4434 62.8290
" />
<path d="M39.4434 62.8290
L39.5577 62.8290
" />
<path d="M39.5577 62.8290
L39.6339 62.8671
" />
<path d="M39.6339 62.8671
L39.6720 62.9052
" />
<path d="M39.6720 62.9052
L39.7101 62.9813
" />
<path d="M39.7101 62.9813
L39.7101 63.2099
" />
<path d="M39.7101 63.2099
L39.6720 63.2861
" />
<path d="M39.6720 63.2861
L39.6339 63.3242
" />
<path d="M39.6339 63.3242
L39.5577 63.3623
" />
<path d="M39.5577 63.3623
L39.4434 63.3623
" />
<path d="M40.0529 63.3623
L40.0529 62.8290
" />
<path d="M40.0529 62.5623
L40.0148 62.6004
" />
<path d="M40.0148 62.6004
L40.0529 62.6385
" />
<path d="M40.0529 62.6385
L40.0910 62.6004
" />
<path d="M40.0910 62.6004
L40.0529 62.5623
" />
<path d="M40.0529 62.5623
L40.0529 62.6385
" />
<path d="M40.4339 62.8290
L40.4339 63.3623
" />
<path d="M40.4339 62.9052
L40.4720 62.8671
" />
<path d="M40.4720 62.8671
L40.5482 62.8290
" />
<path d="M40.5482 62.8290
L40.6625 62.8290
" />
<path d="M40.6625 62.8290
L40.7387 62.8671
" />
<path d="M40.7387 62.8671
L40.7768 62.9432
" />
<path d="M40.7768 62.9432
L40.7768 63.3623
" />
<path d="M41.0434 62.8290
L41.3482 62.8290
" />
<path d="M41.1577 62.5623
L41.1577 63.2480
" />
<path d="M41.1577 63.2480
L41.1958 63.3242
" />
<path d="M41.1958 63.3242
L41.2720 63.3623
" />
<path d="M41.2720 63.3623
L41.3482 63.3623
" />
<path d="M41.6149 63.0575
L42.2244 63.0575
" />
<path d="M42.7196 63.3623
L42.6434 63.3242
" />
<path d="M42.6434 63.3242
L42.6053 63.2480
" />
<path d="M42.6053 63.2480
L42.6053 62.5623
" />
<path d="M43.1387 63.3623
L43.0625 63.3242
" />
<path d="M43.0625 63.3242
L43.0244 63.2861
" />
<path d="M43.0244 63.2861
L42.9863 63.2099
" />
<path d="M42.9863 63.2099
L42.9863 62.9813
" />
<path d="M42.9863 62.9813
L43.0244 62.9052
" />
<path d="M43.0244 62.9052
L43.0625 62.8671
" />
<path d="M43.0625 62.8671
L43.1387 62.8290
" />
<path d="M43.1387 62.8290
L43.2529 62.8290
" />
<path d="M43.2529 62.8290
L43.3291 62.8671
" />
<path d="M43.3291 62.8671
L43.3672 62.9052
" />
<path d="M43.3672 62.9052
L43.4053 62.9813
" />
<path d="M43.4053 62.9813
L43.4053 63.2099
" />
<path d="M43.4053 63.2099
L43.3672 63.2861
" />
<path d="M43.3672 63.2861
L43.3291 63.3242
" />
<path d="M43.3291 63.3242
L43.2529 63.3623
" />
<path d="M43.2529 63.3623
L43.1387 63.3623
" />
<path d="M44.0910 63.3242
L44.0149 63.3623
" />
<path d="M44.0149 63.3623
L43.8625 63.3623
" />
<path d="M43.8625 63.3623
L43.7863 63.3242
" />
<path d="M43.7863 63.3242
L43.7482 63.2861
" />
<path d="M43.7482 63.2861
L43.7101 63.2099
" />
<path d="M43.7101 63.2099
L43.7101 62.9813
" />
<path d="M43.7101 62.9813
L43.7482 62.9052
" />
<path d="M43.7482 62.9052
L43.7863 62.8671
" />
<path d="M43.7863 62.8671
L43.8625 62.8290
" />
<path d="M43.8625 62.8290
L44.0149 62.8290
" />
<path d="M44.0149 62.8290
L44.0910 62.8671
" />
<path d="M44.7768 63.3623
L44.7768 62.9432
" />
<path d="M44.7768 62.9432
L44.7387 62.8671
" />
<path d="M44.7387 62.8671
L44.6625 62.8290
" />
<path d="M44.6625 62.8290
L44.5101 62.8290
" />
<path d="M44.5101 62.8290
L44.4339 62.8671
" />
<path d="M44.7768 63.3242
L44.7006 63.3623
" />
<path d="M44.7006 63.3623
L44.5101 63.3623
" />
<path d="M44.5101 63.3623
L44.4339 63.3242
" />
<path d="M44.4339 63.3242
L44.3958 63.2480
" />
<path d="M44.3958 63.2480
L44.3958 63.1718
" />
<path d="M44.3958 63.1718
L44.4339 63.0956
" />
<path d="M44.4339 63.0956
L44.5101 63.0575
" />
<path d="M44.5101 63.0575
L44.7006 63.0575
" />
<path d="M44.7006 63.0575
L44.7768 63.0194
" />
<path d="M45.2720 63.3623
L45.1958 63.3242
" />
<path d="M45.1958 63.3242
L45.1577 63.2480
" />
<path d="M45.1577 63.2480
L45.1577 62.5623
" />
</g><text x="21.4958" y="38.2000"
textLength="1.8519" font-size="1.0667" lengthAdjust="spacingAndGlyphs"
text-anchor="middle" opacity="0" stroke-opacity="0">C1</text>
<g class="stroked-text"><desc>C1</desc>
<path d="M21.3625 38.0861
L21.3244 38.1242
" />
<path d="M21.3244 38.1242
L21.2101 38.1623
" />
<path d="M21.2101 38.1623
L21.1339 38.1623
" />
<path d="M21.1339 38.1623
L21.0196 38.1242
" />
<path d="M21.0196 38.1242
L20.9434 38.0480
" />
<path d="M20.9434 38.0480
L20.9053 37.9718
" />
<path d="M20.9053 37.9718
L20.8672 37.8194
" />
<path d="M20.8672 37.8194
L20.8672 37.7052
" />
<path d="M20.8672 37.7052
L20.9053 37.5528
" />
<path d="M20.9053 37.5528
L20.9434 37.4766
" />
<path d="M20.9434 37.4766
L21.0196 37.4004
" />
<path d="M21.0196 37.4004
L21.1339 37.3623
" />
<path d="M21.1339 37.3623
L21.2101 37.3623
" />
<path d="M21.2101 37.3623
L21.3244 37.4004
" />
<path d="M21.3244 37.4004
L21.3625 37.4385
" />
<path d="M22.1244 38.1623
L21.6672 38.1623
" />
<path d="M21.8958 38.1623
L21.8958 37.3623
" />
<path d="M21.8958 37.3623
L21.8196 37.4766
" />
<path d="M21.8196 37.4766
L21.7434 37.5528
" />
<path d="M21.7434 37.5528
L21.6672 37.5909
" />
</g><text x="21.4958" y="41.2000"
textLength="1.8519" font-size="1.0667" lengthAdjust="spacingAndGlyphs"
text-anchor="middle" opacity="0" stroke-opacity="0">C2</text>
<g class="stroked-text"><desc>C2</desc>
<path d="M21.3625 41.0861
L21.3244 41.1242
" />
<path d="M21.3244 41.1242
L21.2101 41.1623
" />
<path d="M21.2101 41.1623
L21.1339 41.1623
" />
<path d="M21.1339 41.1623
L21.0196 41.1242
" />
<path d="M21.0196 41.1242
L20.9434 41.0480
" />
<path d="M20.9434 41.0480
L20.9053 40.9718
" />
<path d="M20.9053 40.9718
L20.8672 40.8194
" />
<path d="M20.8672 40.8194
L20.8672 40.7052
" />
<path d="M20.8672 40.7052
L20.9053 40.5528
" />
<path d="M20.9053 40.5528
L20.9434 40.4766
" />
<path d="M20.9434 40.4766
L21.0196 40.4004
" />
<path d="M21.0196 40.4004
L21.1339 40.3623
" />
<path d="M21.1339 40.3623
L21.2101 40.3623
" />
<path d="M21.2101 40.3623
L21.3244 40.4004
" />
<path d="M21.3244 40.4004
L21.3625 40.4385
" />
<path d="M21.6672 40.4385
L21.7053 40.4004
" />
<path d="M21.7053 40.4004
L21.7815 40.3623
" />
<path d="M21.7815 40.3623
L21.9720 40.3623
" />
<path d="M21.9720 40.3623
L22.0482 40.4004
" />
<path d="M22.0482 40.4004
L22.0863 40.4385
" />
<path d="M22.0863 40.4385
L22.1244 40.5147
" />
<path d="M22.1244 40.5147
L22.1244 40.5909
" />
<path d="M22.1244 40.5909
L22.0863 40.7052
" />
<path d="M22.0863 40.7052
L21.6291 41.1623
" />
<path d="M21.6291 41.1623
L22.1244 41.1623
" />
</g><path style="fill:none;
stroke:#D0D2CD; stroke-width:0.0500; stroke-opacity:1;
stroke-linecap:round; stroke-linejoin:round;fill:none"
d="M 67.9958,0.8000
67.9953,0.7607
67.9876,0.6825
67.9723,0.6055
67.9495,0.5303
67.9194,0.4577
67.8824,0.3885
67.8388,0.3232
67.7889,0.2624
67.7334,0.2069
67.6726,0.1570
67.6073,0.1134
67.5380,0.0764
67.4655,0.0463
67.3903,0.0235
67.3133,0.0082
67.2351,0.0005
67.1958,0.0000
0.7958,0.0000
0.7565,0.0005
0.6783,0.0082
0.6013,0.0235
0.5261,0.0463
0.4535,0.0764
0.3843,0.1134
0.3190,0.1570
0.2582,0.2069
0.2027,0.2624
0.1528,0.3232
0.1092,0.3885
0.0722,0.4577
0.0421,0.5303
0.0193,0.6055
0.0040,0.6825
-0.0037,0.7607
-0.0042,0.8000
-0.0042,65.2000
-0.0037,65.2393
0.0040,65.3175
0.0193,65.3945
0.0421,65.4697
0.0722,65.5422
0.1092,65.6115
0.1528,65.6768
0.2027,65.7376
0.2582,65.7931
0.3190,65.8430
0.3843,65.8866
0.4535,65.9236
0.5261,65.9537
0.6013,65.9765
0.6783,65.9918
0.7565,65.9995
0.7958,66.0000
67.1958,66.0000
67.2351,65.9995
67.3133,65.9918
67.3903,65.9765
67.4655,65.9537
67.5380,65.9236
67.6073,65.8866
67.6726,65.8430
67.7334,65.7931
67.7889,65.7376
67.8388,65.6768
67.8824,65.6115
67.9194,65.5422
67.9495,65.4697
67.9723,65.3945
67.9876,65.3175
67.9953,65.2393
67.9958,65.2000
Z" />
</g>
<g style="fill:#FFFFFF; fill-opacity:1.0000; stroke:none;">
<circle cx="60.9958" cy="43.2900" r="0.1500" />
<circle cx="29.4958" cy="45.0000" r="0.1500" />
</g>
<g style="fill:#FFFFFF; fill-opacity:1.0000; stroke:none;">
<circle cx="58.3158" cy="55.9900" r="0.5000" />
</g>
<g style="fill:#FFFFFF; fill-opacity:1.0000; stroke:none;">
<circle cx="58.3158" cy="53.4500" r="0.5000" />
</g>
<g style="fill:#FFFFFF; fill-opacity:1.0000; stroke:none;">
<circle cx="58.3158" cy="50.9100" r="0.5000" />
</g>
<g style="fill:#FFFFFF; fill-opacity:1.0000; stroke:none;">
<circle cx="58.3158" cy="48.3700" r="0.5000" />
</g>
<g style="fill:#FFFFFF; fill-opacity:1.0000; stroke:none;">
<circle cx="58.3158" cy="45.8300" r="0.5000" />
</g>
<g style="fill:#FFFFFF; fill-opacity:1.0000; stroke:none;">
<circle cx="58.3158" cy="43.2900" r="0.5000" />
</g>
<g style="fill:#FFFFFF; fill-opacity:1.0000; stroke:none;">
<circle cx="58.3158" cy="40.7500" r="0.5000" />
</g>
<g style="fill:#FFFFFF; fill-opacity:1.0000; stroke:none;">
<circle cx="58.3158" cy="38.2100" r="0.5000" />
</g>
<g style="fill:#FFFFFF; fill-opacity:1.0000; stroke:none;">
<circle cx="58.3158" cy="35.6700" r="0.5000" />
</g>
<g style="fill:#FFFFFF; fill-opacity:1.0000; stroke:none;">
<circle cx="58.3158" cy="33.1300" r="0.5000" />
</g>
<g style="fill:#FFFFFF; fill-opacity:1.0000; stroke:none;">
<circle cx="58.3158" cy="30.5900" r="0.5000" />
</g>
<g style="fill:#FFFFFF; fill-opacity:1.0000; stroke:none;">
<circle cx="58.3158" cy="28.0500" r="0.5000" />
</g>
<g style="fill:#FFFFFF; fill-opacity:1.0000; stroke:none;">
<circle cx="58.3158" cy="25.5100" r="0.5000" />
</g>
<g style="fill:#FFFFFF; fill-opacity:1.0000; stroke:none;">
<circle cx="58.3158" cy="22.9700" r="0.5000" />
</g>
<g style="fill:#FFFFFF; fill-opacity:1.0000; stroke:none;">
<circle cx="58.3158" cy="20.4300" r="0.5000" />
</g>
<g style="fill:#FFFFFF; fill-opacity:1.0000; stroke:none;">
<circle cx="32.9158" cy="55.9900" r="0.5000" />
</g>
<g style="fill:#FFFFFF; fill-opacity:1.0000; stroke:none;">
<circle cx="32.9158" cy="53.4500" r="0.5000" />
</g>
<g style="fill:#FFFFFF; fill-opacity:1.0000; stroke:none;">
<circle cx="32.9158" cy="50.9100" r="0.5000" />
</g>
<g style="fill:#FFFFFF; fill-opacity:1.0000; stroke:none;">
<circle cx="32.9158" cy="48.3700" r="0.5000" />
</g>
<g style="fill:#FFFFFF; fill-opacity:1.0000; stroke:none;">
<circle cx="32.9158" cy="45.8300" r="0.5000" />
</g>
<g style="fill:#FFFFFF; fill-opacity:1.0000; stroke:none;">
<circle cx="32.9158" cy="43.2900" r="0.5000" />
</g>
<g style="fill:#FFFFFF; fill-opacity:1.0000; stroke:none;">
<circle cx="32.9158" cy="40.7500" r="0.5000" />
</g>
<g style="fill:#FFFFFF; fill-opacity:1.0000; stroke:none;">
<circle cx="32.9158" cy="38.2100" r="0.5000" />
</g>
<g style="fill:#FFFFFF; fill-opacity:1.0000; stroke:none;">
<circle cx="32.9158" cy="35.6700" r="0.5000" />
</g>
<g style="fill:#FFFFFF; fill-opacity:1.0000; stroke:none;">
<circle cx="32.9158" cy="33.1300" r="0.5000" />
</g>
<g style="fill:#FFFFFF; fill-opacity:1.0000; stroke:none;">
<circle cx="32.9158" cy="30.5900" r="0.5000" />
</g>
<g style="fill:#FFFFFF; fill-opacity:1.0000; stroke:none;">
<circle cx="32.9158" cy="28.0500" r="0.5000" />
</g>
<g style="fill:#FFFFFF; fill-opacity:1.0000; stroke:none;">
<circle cx="32.9158" cy="25.5100" r="0.5000" />
</g>
<g style="fill:#FFFFFF; fill-opacity:1.0000; stroke:none;">
<circle cx="32.9158" cy="22.9700" r="0.5000" />
</g>
<g style="fill:#FFFFFF; fill-opacity:1.0000; stroke:none;">
<circle cx="32.9158" cy="20.4300" r="0.5000" />
</g>
<g style="fill:#FFFFFF; fill-opacity:1.0000; stroke:none;">
<circle cx="26.9958" cy="36.8100" r="0.5000" />
</g>
<g style="fill:#FFFFFF; fill-opacity:1.0000; stroke:none;">
<circle cx="24.4558" cy="36.8100" r="0.5000" />
</g>
<g style="fill:#FFFFFF; fill-opacity:1.0000; stroke:none;">
<circle cx="26.9958" cy="34.2700" r="0.5000" />
</g>
<g style="fill:#FFFFFF; fill-opacity:1.0000; stroke:none;">
<circle cx="24.4558" cy="34.2700" r="0.5000" />
</g>
<g style="fill:#FFFFFF; fill-opacity:1.0000; stroke:none;">
<circle cx="26.9958" cy="31.7300" r="0.5000" />
</g>
<g style="fill:#FFFFFF; fill-opacity:1.0000; stroke:none;">
<circle cx="24.4558" cy="31.7300" r="0.5000" />
</g>
<g style="fill:#FFFFFF; fill-opacity:1.0000; stroke:none;">
<circle cx="26.9958" cy="29.1900" r="0.5000" />
</g>
<g style="fill:#FFFFFF; fill-opacity:1.0000; stroke:none;">
<circle cx="24.4558" cy="29.1900" r="0.5000" />
</g>
<g style="fill:#000000; fill-opacity:1.0000; stroke:none;">
<circle cx="64.4958" cy="62.5000" r="1.6000" />
<circle cx="64.4958" cy="3.5000" r="1.6000" />
<circle cx="3.4958" cy="3.5000" r="1.6000" />
<circle cx="3.4958" cy="62.5000" r="1.6000" />
</g>
</svg>
